<svg width="100%" height="100%" viewBox="0 0 330 308" version="1.1" xmlns="http://www.w3.org/2000/svg" xmlns:xlink="http://www.w3.org/1999/xlink">
    <g>
        <g transform="translate(-556.000000, -3855.000000)">
            <g transform="translate(556.000000, 3857.000000)">
                <g>
                    <path class="fill" d="M91.0860065,302.915926 C90.8981272,301.880968 95.9036272,297.178236 102.843954,295.648418 C109.783622,294.118673 116.021215,296.173848 116.234804,297.372405 C116.448393,298.571033 111.417183,303.110167 104.477515,304.639913 C97.5371882,306.169658 91.2738858,303.950884 91.0860065,302.915926 Z"></path>
                    <path class="fill" d="M103.054843,271.718005 C103.828531,271.133456 110.059327,273.643777 114.547125,279.143272 C119.034922,284.642768 120.214069,290.973372 119.31651,291.646815 C118.418273,292.320193 112.311348,289.721044 107.823551,284.221548 C103.335753,278.722053 102.280478,272.302555 103.054843,271.718005 Z"></path>
                    <path class="fill" d="M69.2754936,289.897922 C69.2236898,288.940594 75.0636982,285.443339 82.4695609,285.078769 C89.8754237,284.714264 96.056646,287.468725 96.1125941,288.576881 C96.1678514,289.685036 90.3243894,293.031464 82.9185267,293.396034 C75.5126639,293.760539 69.3272973,290.85525 69.2754936,289.897922 Z"></path>
                    <path class="fill" d="M86.80369,261.600176 C87.681317,261.248404 92.8966245,264.942794 95.7043203,270.942043 C98.5120162,276.941227 97.9960994,282.936071 96.9784784,283.339786 C95.9615681,283.743501 90.8855439,279.997168 88.0778481,273.997918 C85.2701522,267.998735 85.926063,261.951882 86.80369,261.600176 Z"></path>
                    <path class="fill" d="M49.1490614,272.486253 C49.2762936,271.570966 55.337636,269.253456 62.2792949,270.16887 C69.22128,271.084283 74.4554173,274.744604 74.3040436,275.803372 C74.1526699,276.862141 68.1153384,279.036105 61.1737449,278.120755 C54.2320208,277.205342 49.0217639,273.401539 49.1490614,272.486253 Z"></path>
                    <path class="fill" d="M70.9187456,248.172587 C71.7562848,247.974311 75.6965982,252.56585 77.0975843,259.038354 C78.4992064,265.510792 76.9665797,271.401233 75.9961281,271.62717 C75.0250406,271.853107 71.2176397,267.233907 69.8166535,260.761469 C68.4150314,254.289032 70.0805705,248.37093 70.9187456,248.172587 Z"></path>
                    <path class="fill" d="M30.7018553,255.258425 C30.9059706,254.242755 37.2223679,252.169727 44.1616277,253.799704 C51.1008214,255.429681 56.0880217,259.990471 55.847925,261.164956 C55.6078282,262.339512 49.3274124,264.253653 42.3882187,262.623676 C35.4489588,260.99377 30.49774,256.274094 30.7018553,255.258425 Z"></path>
                    <path class="fill" d="M56.6114393,231.40566 C57.5209832,231.269682 61.3489556,236.449605 62.3177866,243.386736 C63.2865528,250.324135 61.1753755,256.39194 60.1222193,256.544799 C59.0690632,256.697658 55.3847679,251.500922 54.4159368,244.563522 C53.4471058,237.625855 55.7019601,231.540969 56.6114393,231.40566 Z"></path>
                    <path class="fill" d="M15.6471909,226.789253 C16.1532425,225.981507 23.0820795,226.087451 29.5320146,229.543808 C35.9820191,233.000166 39.6096476,238.381501 39.0203419,239.314455 C38.4311058,240.246766 31.5855228,240.015614 25.1355183,236.559257 C18.6855138,233.1029 15.1411394,227.596357 15.6471909,226.789253 Z"></path>
                    <path class="fill" d="M46.9802742,212.966981 C47.8699137,213.126336 49.9398367,219.290748 48.8250962,226.22773 C47.7103556,233.164038 43.969755,238.291635 42.9407491,238.103368 C41.9118068,237.915101 39.9811866,231.779601 41.0959271,224.843292 C42.2106676,217.906983 46.0906347,212.807626 46.9802742,212.966981 Z"></path>
                    <path class="fill" d="M7.30766643,201.4114 C7.89441439,200.701753 13.941987,201.993548 18.9742334,206.508526 C24.0064798,211.022803 26.2251605,216.952169 25.5433224,217.7711 C24.8614842,218.590031 18.9090691,217.188952 13.8767554,212.674675 C8.84450897,208.159697 6.72098572,202.121747 7.30766643,201.4114 Z"></path>
                    <path class="fill" d="M37.6529646,191.181998 C38.5835659,191.452215 40.0895215,197.982925 38.111498,204.914825 C36.1334061,211.846035 31.5607861,216.617575 30.4849278,216.301173 C29.4090012,215.984771 28.0483025,209.500246 30.0263944,202.568346 C32.0044863,195.636446 36.7222948,190.91178 37.6529646,191.181998 Z"></path>
                    <path class="fill" d="M0.692331233,174.499358 C1.41163235,173.921113 7.48086787,176.07098 11.9938294,181.102711 C16.506791,186.133773 17.8810867,192.065293 17.0460903,192.732447 C16.211094,193.398932 10.2575537,191.160825 5.74459215,186.129762 C1.2316306,181.098031 -0.0269698829,175.078271 0.692331233,174.499358 Z"></path>
                    <path class="fill" d="M31.7381794,171.082 C32.5737259,171.460422 33.0340657,177.59287 30.1595267,183.589354 C27.2850566,189.585839 22.2871501,193.25285 21.3217323,192.811469 C20.3563835,192.370758 20.025915,186.300598 22.9003851,180.304114 C25.7749241,174.30763 30.902633,170.704247 31.7381794,171.082 Z"></path>
                    <path class="fill" d="M0.996703382,149.293955 C1.77265487,148.907791 6.76474571,152.10853 9.71746306,157.640101 C12.6701804,163.171671 12.596393,168.894939 11.6966736,169.338545 C10.7970259,169.781458 5.92870297,166.523278 2.97591391,160.9924 C0.0231965498,155.460829 0.220751892,149.679428 0.996703382,149.293955 Z"></path>
                    <path class="fill" d="M30.4506004,151.004543 C31.1869168,151.509425 30.386962,157.29513 26.3689345,162.342627 C22.350836,167.389464 16.7400013,169.880916 15.8901159,169.294305 C15.0402305,168.707034 15.9537544,163.003718 19.9718529,157.95688 C23.9898804,152.909383 29.7142841,150.500321 30.4506004,151.004543 Z"></path>
                    <path class="fill" d="M3.02532055,127.483672 C3.73462913,127.220397 7.59849916,130.840254 9.43639074,136.38273 C11.2742206,141.925206 10.5071151,147.267123 9.68523844,147.568941 C8.86336178,147.870106 5.11205983,144.212359 3.27423,138.669883 C1.43633842,133.127407 2.31607372,127.746946 3.02532055,127.483672 Z"></path>
                    <path class="fill" d="M30.6260426,136.035708 C31.1152189,136.652189 29.0280106,141.628255 24.4426678,145.216919 C19.8572604,148.806223 14.5733431,149.756578 14.0098517,149.040768 C13.4463603,148.324958 15.6078836,143.44822 20.193291,139.859557 C24.7786338,136.270253 30.1369307,135.419227 30.6260426,136.035708 Z"></path>
                    <path class="fill" d="M8.99937677,110.709524 C9.71536525,110.586982 12.809829,114.682631 13.6722461,120.232454 C14.5346632,125.781597 12.9537274,130.680582 12.1246574,130.819464 C11.2955225,130.958345 8.31420513,126.846357 7.45178806,121.296534 C6.58930611,115.747391 8.2833883,110.832067 8.99937677,110.709524 Z"></path>
                    <path class="fill" d="M34.0191701,121.148038 C34.3868092,121.793122 31.4983969,126.022146 26.4264248,128.574087 C21.3544526,131.125368 16.0622624,131.142535 15.6396039,130.39445 C15.2169454,129.646365 18.1603771,125.519682 23.2323492,122.968401 C28.3043214,120.41646 33.651531,120.502295 34.0191701,121.148038 Z"></path>
                    <path class="fill" d="M26.8402439,100.673542 C27.5393463,101.004341 27.8572538,106.229043 25.3693705,111.301757 C22.8814172,116.37447 18.6322663,119.441756 17.824581,119.055939 C17.0168958,118.670121 16.8075011,113.499749 19.2954544,108.427036 C21.7834077,103.354322 26.1410715,100.342742 26.8402439,100.673542 Z"></path>
                    <path class="fill" d="M237.006479,302.915926 C237.194358,301.880968 232.188858,297.178236 225.248531,295.648418 C218.308863,294.118673 212.071271,296.173848 211.857682,297.372405 C211.644092,298.571033 216.675302,303.110167 223.61497,304.639913 C230.555297,306.169658 236.817941,303.950884 237.006479,302.915926 Z"></path>
                    <path class="fill" d="M226.715072,271.718005 C225.941393,271.133456 219.710672,273.643777 215.222927,279.143272 C210.735183,284.642768 209.555374,290.973372 210.453599,291.646815 C211.351825,292.320193 217.458677,289.721044 221.946421,284.221548 C226.433488,278.722053 227.489428,272.302555 226.715072,271.718005 Z"></path>
                    <path class="fill" d="M260.494356,289.897922 C260.54616,288.940594 254.706152,285.443339 247.300289,285.078769 C239.894426,284.714264 233.713204,287.468725 233.657256,288.576881 C233.601999,289.685036 239.445461,293.031464 246.851323,293.396034 C254.257186,293.760539 260.442553,290.85525 260.494356,289.897922 Z"></path>
                    <path class="fill" d="M241.288796,261.600176 C240.411169,261.248404 235.195861,264.942794 232.388165,270.942043 C229.580469,276.941227 230.096386,282.936071 231.114007,283.339786 C232.130917,283.743501 237.206942,279.997168 240.014637,273.997918 C242.822333,267.998735 242.166423,261.951882 241.288796,261.600176 Z"></path>
                    <path class="fill" d="M278.943426,272.486253 C278.816193,271.570966 272.754673,269.253456 265.812959,270.16887 C258.871246,271.084283 253.637067,274.744604 253.788442,275.803372 C253.939817,276.862141 259.977196,279.036105 266.918909,278.120755 C273.860623,277.205342 279.07066,273.401539 278.943426,272.486253 Z"></path>
                    <path class="fill" d="M257.17374,248.172587 C256.336201,247.974311 252.395887,252.56585 250.994901,259.038354 C249.593279,265.510792 251.125906,271.401233 252.096357,271.62717 C253.067445,271.853107 256.874846,267.233907 258.275832,260.761469 C259.677454,254.289032 258.011915,248.37093 257.17374,248.172587 Z"></path>
                    <path class="fill" d="M297.390615,255.258425 C297.186896,254.242755 290.870288,252.169727 283.931278,253.799704 C276.991608,255.429681 272.004463,259.990471 272.244561,261.164956 C272.484658,262.339512 278.764888,264.253653 285.704559,262.623676 C292.643568,260.99377 297.594995,256.274094 297.390615,255.258425 Z"></path>
                    <path class="fill" d="M273.158153,231.40566 C272.248742,231.269682 268.421042,236.449605 267.451955,243.386736 C266.483516,250.324135 268.594232,256.39194 269.647644,256.544799 C270.701056,256.697658 274.384755,251.500922 275.353842,244.563522 C276.32293,237.625855 274.067564,231.540969 273.158153,231.40566 Z"></path>
                    <path class="fill" d="M314.122754,226.789253 C313.61657,225.981507 306.687613,226.087451 300.237761,229.543808 C293.787908,233.000166 290.160603,238.381501 290.749415,239.314455 C291.338922,240.246766 298.184556,240.015614 304.634409,236.559257 C311.084262,233.1029 314.628244,227.596357 314.122754,226.789253 Z"></path>
                    <path class="fill" d="M281.112121,212.966981 C280.222255,213.126336 278.152696,219.290748 279.267417,226.22773 C280.382138,233.164038 284.122505,238.291635 285.151871,238.103368 C286.180599,237.915101 288.111296,231.779601 286.996575,224.843292 C285.881854,217.906983 282.001987,212.807626 281.112121,212.966981 Z"></path>
                    <path class="fill" d="M322.462269,201.4114 C321.875192,200.701753 315.827554,201.993548 310.795365,206.508526 C305.763176,211.022803 303.544655,216.952169 304.226552,217.7711 C304.90845,218.590031 310.860596,217.188952 315.892784,212.674675 C320.924973,208.159697 323.048674,202.121747 322.462269,201.4114 Z"></path>
                    <path class="fill" d="M292.117183,191.181998 C291.186166,191.452215 289.680269,197.982925 291.65851,204.914825 C293.636751,211.846035 298.209126,216.617575 299.28506,216.301173 C300.360993,215.984771 301.72129,209.500246 299.743733,202.568346 C297.765492,195.636446 293.047517,190.91178 292.117183,191.181998 Z"></path>
                    <path class="fill" d="M329.077521,174.499358 C328.358233,173.921113 322.289108,176.07098 317.776441,181.102711 C313.263068,186.133773 311.888727,192.065293 312.723778,192.732447 C313.55883,193.398932 319.512191,191.160825 324.025564,186.129762 C328.538232,181.098031 329.796809,175.078271 329.077521,174.499358 Z"></path>
                    <path class="fill" d="M296.3543,171.082 C295.518827,171.460422 295.058351,177.59287 297.932875,183.589354 C300.807398,189.585839 305.805071,193.25285 306.770828,192.811469 C307.735896,192.370758 308.066776,186.300598 305.192253,180.304114 C302.317729,174.30763 297.189773,170.704247 296.3543,171.082 Z"></path>
                    <path class="fill" d="M328.773278,149.293955 C327.997386,148.907791 323.005004,152.10853 320.052026,157.640101 C317.099766,163.171671 317.173626,168.894939 318.072857,169.338545 C318.972805,169.781458 323.841131,166.523278 326.794109,160.9924 C329.746369,155.460829 329.549169,149.679428 328.773278,149.293955 Z"></path>
                    <path class="fill" d="M297.642016,151.004543 C296.905483,151.509425 297.705228,157.29513 301.72384,162.342627 C305.741743,167.389464 311.352743,169.880916 312.202205,169.294305 C313.052379,168.707034 312.138993,163.003718 308.120381,157.95688 C304.102478,152.909383 298.377838,150.500321 297.642016,151.004543 Z"></path>
                    <path class="fill" d="M325.067357,127.483672 C324.357867,127.220397 320.494265,130.840254 318.656013,136.38273 C316.818379,141.925206 317.585295,147.267123 318.407167,147.568941 C319.229039,147.870106 322.980258,144.212359 324.81851,138.669883 C326.656145,133.127407 325.776229,127.746946 325.067357,127.483672 Z"></path>
                    <path class="fill" d="M297.466401,136.035708 C296.97742,136.652189 299.064298,141.628255 303.649626,145.216919 C308.234954,148.806223 313.518918,149.756578 314.08273,149.040768 C314.645897,148.324958 312.484188,143.44822 307.89886,139.859557 C303.313532,136.270253 297.955382,135.419227 297.466401,136.035708 Z"></path>
                    <path class="fill" d="M319.092792,110.709524 C318.377176,110.586982 315.282446,114.682631 314.420204,120.232454 C313.557962,125.781597 315.138415,130.680582 315.967569,130.819464 C316.796723,130.958345 319.778563,126.846357 320.640805,121.296534 C321.503047,115.747391 319.809056,110.832067 319.092792,110.709524 Z"></path>
                    <path class="fill" d="M294.07329,121.148038 C293.705795,121.793122 296.594457,126.022146 301.666304,128.574087 C306.738151,131.125368 312.029932,131.142535 312.452938,130.39445 C312.87524,129.646365 309.932473,125.519682 304.859923,122.968401 C299.788077,120.41646 294.441487,120.502295 294.07329,121.148038 Z"></path>
                    <path class="fill" d="M301.252408,100.673542 C300.553047,101.004341 300.235219,106.229043 302.723236,111.301757 C305.211252,116.37447 309.45992,119.441756 310.267791,119.055939 C311.075661,118.670121 311.284979,113.499749 308.796963,108.427036 C306.308947,103.354322 301.951769,100.342742 301.252408,100.673542 Z"></path>
                    <path class="stroke" d="M200.109578,298.456488 C188.511601,301.742942 176.394593,303.485496 163.929085,303.485496 C152.147721,303.485496 140.676287,301.928713 129.660272,298.983008" stroke-width="3.81600012" stroke-linecap="round" stroke-linejoin="round"></path>
                    <path class="stroke" d="M27.3410405,87.2381407 C51.3771841,35.7658991 103.579687,0.068664255 164.045908,0.068664255 C224.512128,0.068664255 276.7151,35.7658991 300.751445,87.2381407" stroke-width="3.81600012" stroke-linecap="round" stroke-linejoin="round"></path>
                </g>
            </g>
        </g>
    </g>
</svg>
