<svg width="60px" height="57px" viewBox="0 0 60 57" version="1.1" xmlns="http://www.w3.org/2000/svg" xmlns:xlink="http://www.w3.org/1999/xlink">
    <g id="All" stroke="none" stroke-width="1" fill="none" fill-rule="evenodd" stroke-linecap="round" stroke-linejoin="round">
        <g id="Services-Index" transform="translate(-345.000000, -315.000000)" stroke="#E6232C" stroke-width="1.20000002">
            <g id="Page-1" transform="translate(346.000000, 316.000000)">
                <path d="M14.6898694,42.6222899 C14.6898694,41.6911558 13.9258806,40.9351848 12.9848708,40.9351848 L9.91397222,40.9351848 L7.63239722,43.1235072 L5.11213611,40.9351848 L1.9063875,40.9351848 C0.965377778,40.9351848 0.201388889,41.6911558 0.201388889,42.6222899 L0.201388889,45.9964601 C0.201388889,46.9275942 0.965377778,47.6835652 1.9063875,47.6835652 L12.9848708,47.6835652 C13.9258806,47.6835652 14.6898694,46.9275942 14.6898694,45.9964601 L14.6898694,42.6222899 Z" id="Stroke-1"></path>
                <path d="M7.63239722,31.1258949 C9.44759583,31.1258949 10.9213194,32.5841522 10.9213194,34.3803007 C10.9213194,36.1764493 9.44759583,39.2289094 7.63239722,39.2289094 C5.81719861,39.2289094 4.34351528,36.1764493 4.34351528,34.3803007 C4.34351528,32.5841522 5.81719861,31.1258949 7.63239722,31.1258949 Z" id="Stroke-2"></path>
                <path d="M57.597625,42.6222899 C57.597625,41.6911558 56.8335556,40.9351848 55.8926667,40.9351848 L52.8214861,40.9351848 L50.5401528,43.1235072 L48.0195694,40.9351848 L44.8138611,40.9351848 C43.8729722,40.9351848 43.1089028,41.6911558 43.1089028,42.6222899 L43.1089028,45.9964601 C43.1089028,46.9275942 43.8729722,47.6835652 44.8138611,47.6835652 L55.8926667,47.6835652 C56.8335556,47.6835652 57.597625,46.9275942 57.597625,45.9964601 L57.597625,42.6222899 Z" id="Stroke-3"></path>
                <path d="M50.5401528,31.1258949 C52.3550694,31.1258949 53.8288333,32.5841522 53.8288333,34.3803007 C53.8288333,36.1764493 52.3550694,39.2289094 50.5401528,39.2289094 C48.7248333,39.2289094 47.2510694,36.1764493 47.2510694,34.3803007 C47.2510694,32.5841522 48.7248333,31.1258949 50.5401528,31.1258949 Z" id="Stroke-4"></path>
                <path d="M40.2983194,10.2571014 C46.9304583,13.6109058 51.7746667,19.9411667 53.0260972,27.4628949" id="Stroke-5"></path>
                <path d="M42.6815556,51.0129783 C38.8916986,53.5136051 34.3405514,54.9717029 29.4479292,54.9717029 C24.6302236,54.9717029 20.1435611,53.5578841 16.3889472,51.1270435" id="Stroke-6"></path>
                <path d="M6.06539028,26.4314855 C7.47539444,19.8141884 11.68555,14.2131159 17.4099486,10.9003623" id="Stroke-7"></path>
                <path d="M36.0858278,11.6958696 C36.0858278,10.7644565 35.3218792,10.0084058 34.3808694,10.0084058 L31.3099708,10.0084058 L29.0283958,12.1968478 L26.5081347,10.0084058 L23.3023861,10.0084058 C22.3613764,10.0084058 21.5973875,10.7644565 21.5973875,11.6958696 L21.5973875,15.07 C21.5973875,16.0010145 22.3613764,16.7569855 23.3023861,16.7569855 L34.3808694,16.7569855 C35.3218792,16.7569855 36.0858278,16.0010145 36.0858278,15.07 L36.0858278,11.6958696 Z" id="Stroke-8"></path>
                <path d="M29.0283958,0.199275362 C30.8435944,0.199275362 32.3173181,1.65757246 32.3173181,3.45384058 C32.3173181,5.24971014 30.8435944,8.30221014 29.0283958,8.30221014 C27.2131972,8.30221014 25.7394736,5.24971014 25.7394736,3.45384058 C25.7394736,1.65757246 27.2131972,0.199275362 29.0283958,0.199275362 Z" id="Stroke-9"></path>
                <path d="M22.2260028,35.5262536 L27.2983847,31.3019348" id="Stroke-10"></path>
                <path d="M29.0678681,29.8141051 L30.4849208,28.6226775" id="Stroke-11"></path>
                <path d="M35.0007042,24.781087 L37.0986528,21.9505797" id="Stroke-12"></path>
                <path d="M37.2984306,27.543163 L40.3953889,25.8314275" id="Stroke-14"></path>
                <polygon id="Stroke-15" points="20.2966167 39.2874964 18.6367292 36.5762754 30.5749417 23.3163333 37.6581111 35.3811014"></polygon>
                <path d="M29.825775,21.9505797 L38.4972583,36.8434239" id="Stroke-16"></path>
                <path d="M20.9253125,33.9579565 L23.5266931,38.4256703" id="Stroke-17"></path>
                <polygon id="Stroke-18" points="21.9534028 39.0107029 24.3116667 43.0426812 26.1972708 41.4462065 24.2115361 38.4256703"></polygon>
            </g>
        </g>
    </g>
</svg>
