<svg height="60" viewBox="0 0 62 60" width="62" xmlns="http://www.w3.org/2000/svg"><g style="stroke:#fff;stroke-width:1.247525;fill:none;fill-rule:evenodd;stroke-linecap:round;stroke-linejoin:round" transform="translate(1 1)"><path d="m15.1964167 44.947142c0-.9819232-.7903334-1.779129-1.7637917-1.779129h-3.1767917l-2.36024997 2.3076856-2.60716666-2.3076856h-3.31629167c-.97345833 0-1.76379167.7972058-1.76379167 1.779129v3.558216c0 .9819232.79033334 1.779129 1.76379167 1.779129h11.4605c.9734583 0 1.7637917-.7972058 1.7637917-1.779129z"/><path d="m7.89558333 32.823671c1.87779167 0 3.40233337 1.5377986 3.40233337 3.4319189 0 1.8941202-1.5245417 5.1130782-3.40233337 5.1130782-1.87779166 0-3.40229166-3.218958-3.40229166-5.1130782 0-1.8941203 1.5245-3.4319189 3.40229166-3.4319189z"/><path d="m59.58375 44.947142c0-.9819232-.7904167-1.779129-1.76375-1.779129h-3.1770833l-2.36 2.3076856-2.6075-2.3076856h-3.31625c-.9733334 0-1.76375.7972058-1.76375 1.779129v3.558216c0 .9819232.7904166 1.779129 1.76375 1.779129h11.4608333c.9733333 0 1.76375-.7972058 1.76375-1.779129z"/><path d="m52.2829167 32.823671c1.8775 0 3.4020833 1.5377986 3.4020833 3.4319189 0 1.8941202-1.5245833 5.1130782-3.4020833 5.1130782-1.8779167 0-3.4025-3.218958-3.4025-5.1130782 0-1.8941203 1.5245833-3.4319189 3.4025-3.4319189z"/><path d="m41.6879167 10.8165797c6.8608333 3.5367391 11.8720833 10.212287 13.1666666 18.1442913"/><path d="m44.1533333 53.7955043c-3.9205416 2.6370247-8.628625 4.1746551-13.6899583 4.1746551-4.9838333 0-9.6252083-1.4909362-13.5092917-4.0543681"/><path d="m6.27454167 27.8732029c1.458625-6.9782406 5.81395833-12.8848261 11.73575003-16.3782754"/><path d="m37.3301667 12.3338261c0-.9822174-.7902917-1.7795073-1.76375-1.7795073h-3.1767917l-2.36025 2.3078116-2.6071667-2.3078116h-3.3162916c-.9734584 0-1.7637917.7972899-1.7637917 1.7795073v3.5581739c0 .9817971.7903333 1.7790029 1.7637917 1.7790029h11.4605c.9734583 0 1.76375-.7972058 1.76375-1.7790029z"/><path d="m30.029375.21014493c1.8777917 0 3.4023333 1.53784058 3.4023333 3.43208695 0 1.89382609-1.5245416 5.11282609-3.4023333 5.11282609s-3.4023333-3.219-3.4023333-5.11282609c0-1.89424637 1.5245416-3.43208695 3.4023333-3.43208695z"/><path d="m22.9924167 37.4640493 5.2472916-4.4547363"/><path d="m30.0702083 31.440329 1.4659167-1.2564145"/><path d="m36.207625 26.1327826 2.1702917-2.9848985"/><path d="m40.0159583 32.7254976 3.668625-.0827193"/><path d="m38.5845833 29.0455174 3.20375-1.8051029"/><path d="m20.9965 41.4304507-1.717125-2.8591058 12.349875-13.9832116 7.3274167 12.7228464z"/><path d="m30.85425 23.1478841 8.9705 15.7051811"/><path d="m21.646875 35.8102087 2.6910833 4.7114072"/><path d="m22.7104167 41.1385594 2.4395833 4.2519044 1.950625-1.6835551-2.0542083-3.1852928z"/></g></svg>