<svg height="39" viewBox="0 0 166 39" width="166" xmlns="http://www.w3.org/2000/svg"><g fill="#8e8e8e"><g transform="translate(41.657795 10.229508)"><path d="m121.268365 6.54688525v-6.25278689h2.638327c0 .16622951.044183.3452459.044183.53065574v19.1803279c.037178.3139314-.182672.5994374-.49232.6393442-2.604627.744189-5.328456.9614383-8.015969.6393443-2.296233-.2329324-4.196821-1.9094502-4.740153-4.1813115-.607539-2.0222582-.692299-4.1686559-.246159-6.2336065.631178-2.96016398 2.600456-4.61606561 5.636426-4.91655742 1.6155-.18855754 3.252181-.00944808 4.790646.5242623.125934.03537357.254819.05891575.385019.07032787zm0 7.32688525c0-1.4129508 0-2.8259016 0-4.23885247.054481-.38563739-.197444-.74738202-.574373-.8247541-1.190985-.43991371-2.458551-.62706779-3.723954-.54983606-1.981901.12147541-3.326312 1.08688524-3.787072 2.78754103-.534709 1.8515234-.436855 3.8316568.277718 5.619836.481079 1.3061833 1.643684 2.2295367 3.010723 2.3911476 1.44426.1907937 2.911853.0776135 4.31095-.3324591.152486-.0125693.293101-.0882911.388673-.2093014s.137637-.2765927.11627-.4300428c-.031559-1.4193443-.012623-2.8131148-.012623-4.2132787z"/><path d="m.34071517.28770492h2.6510719v6.25918033c.75741445-.18540984 1.43277567-.39639345 2.12707225-.51786886 1.51130113-.26931379 3.06331837-.18622667 4.5381749.24295082 1.99661548.49713203 3.54530398 2.09307349 4.00167298 4.12377049.6314485 2.3001175.5298383 4.7434621-.2903422 6.9816393-.7373884 2.0703182-2.5541443 3.5504194-4.70859314 3.8360656-2.35726905.3520588-4.75658666.2936783-7.09444867-.1726229-1.26235741-.1981967-1.22448669-.230164-1.22448669-1.5088525zm2.66369548 13.60524588v4.3027869c0 .39.08205323.6393443.49863118.6393443 1.11749904.1537967 2.24291493.2413229 3.37049429.2621311 1.80363998.0549012 3.43283338-1.0850029 4.02060838-2.8131147.5966607-1.6264513.6782878-3.4007852.2335361-5.0763935-.3282979-1.50717413-1.55104784-2.64614652-3.06121672-2.85147539-1.53400217-.2741883-3.11293032-.11491646-4.56342205.46032787-.33505855.08214907-.55364474.40873477-.50494297.75442623.01893536 1.45131149.00631179 2.88983609.00631179 4.32196719z"/><path d="m25.878327 12.2178689c-.006653-.7192436-.0636016-1.4371062-.1704183-2.1481968-.2322849-.9034027-.9802781-1.57520341-1.8935361-1.70065571-1.5149674-.34392309-3.0839051-.36569343-4.6076045-.06393442-.7763498.12147541-1.5463879.31967213-2.4111027.49868852 0-.67131147 0-1.32983606 0-1.98836065 0-.09590164.17673-.23016394.296654-.26852459 2.6130247-.81275334 5.3954547-.88791138 8.0475285-.21737705 2.2469962.63934426 3.3452472 2.14819672 3.3452472 4.4754098v10.6322951c-.4860076 0-.921521 0-1.3444107 0-.1325475 0-.2777186-.1662295-.3660836-.2940983-.2524715-.3772132-.4733841-.7736066-.7006084-1.1380328-.8394677.3644262-1.6284411.7736065-2.461597 1.0421311-1.6369158.5377385-3.3949413.568902-5.0494296.0895082-1.7096983-.3713445-2.9461359-1.8800775-2.9917871-3.6506557-.0572316-.6265464-.038153-1.257845.0568061-1.8796722.3282129-1.8604918 1.5653232-2.8450819 3.2821293-3.3054098 1.3268161-.3148314 2.6945926-.4141019 4.0521673-.2940984 1.0225095.0319673 1.8935361.1406558 2.9160456.2109837zm0 2.2504918c-.7006084-.0831148-1.3191635-.1918033-1.9377186-.2173771-1.3317871-.057541-2.6761978-.2365574-3.9890495.1854098-1.0762523.2883749-1.7787382 1.3352883-1.6473764 2.455082.088365 1.2786885.7132319 2.0842623 1.9314069 2.2377049 1.867174.2907759 3.7736669-.1480195 5.33346-1.227541.1391487-.0884393.238776-.2283458.2777187-.39.0315589-.997377.0315589-1.9883606.0315589-3.0432786z"/><path d="m96.5703422 12.2306557c.0414472-.6663885.0414472-1.3347589 0-2.0011475-.0768867-.73951105-.5688236-1.36737034-1.2623574-1.61114754-.7076373-.25111175-1.4433371-.41218183-2.1901901-.4795082-1.8403923-.09378738-3.6825992.14433831-5.4407605.70327869 0-.69688525 0-1.33622951 0-1.97557377.0309918-.13724241.1247917-.2512585.2524715-.30688525 2.7961217-.75442623 5.6111787-1.02295082 8.4136122-.11508197 1.8435163.45903986 3.1014321 2.18484076 2.991787 4.10459014.0378708 3.4780328 0 6.9560656 0 10.4404918 0 .1278689 0 .2557377-.0441825.447541-.4292015 0-.8457794 0-1.2623574 0-.1702871-.0565647-.3155136-.1719858-.4102661-.3260656-.2524715-.3708196-.4796959-.7672131-.6311787-1.0421311-1.1803042.4219672-2.2659316.895082-3.4020533 1.1891803-1.4233576.3473592-2.9141819.2853605-4.3046388-.1790164-1.5297991-.388982-2.6537208-1.7090861-2.8087452-3.2990164-.2146008-1.4896721-.1009886-2.9026229.9152091-4.1045901.7695278-.8409182 1.8059532-1.381673 2.9286692-1.5280328 1.6717536-.2622989 3.3717257-.2838235 5.0494297-.0639344.3976426.0639344.770038.0959016 1.2055513.1470491zm0 2.1162295c-1.66-.0447541-3.2379468-.1086885-4.8158935-.1214754-.3964736.0138738-.7874486.0982743-1.1550571.2493443-1.0740082.3396973-1.7311103 1.4353401-1.5337642 2.557377.0227344 1.1082361.8718912 2.0181616 1.9629658 2.1034427 1.8325394.2667369 3.6975284-.166233 5.2324714-1.2147541.1495951-.0988238.2558409-.2522399.296654-.4283607.0568061-.9845901.0441825-1.9755738.0441825-3.1455738z"/><path d="m61.8555133 14.4363934h-10.6669201c-.2759962 1.9375725.8721929 3.7930323 2.7140684 4.3859017 1.5533498.4197766 3.1750418.5133328 4.7653992.274918.8205324-.0703279 1.6347529-.2557377 2.5247149-.4027869v1.9883607c0 .0959016-.2209126.2365574-.3660837.2685246-1.8608552.4357324-3.7772522.5759294-5.6806083.4155737-.6102773-.0370699-1.2163102-.126905-1.8114829-.2685245-2.3975447-.5312246-4.2360393-2.4845936-4.6454753-4.9357377-.4029642-1.8164129-.3856824-3.7026234.0504943-5.5111476.490117-2.6012246 2.6835072-4.5184577 5.2955893-4.62885245 1.1448409-.09819584 2.2970581-.06172324 3.4336122.10868853 2.3262204.25856369 4.1629896 2.11909514 4.4182509 4.47540982.1942637 1.2698674.1836053 2.5632666-.0315589 3.8296721zm-2.5247148-2.2952459c.1440318-.925215-.0871275-1.8701261-.640987-2.62016566-.5538595-.75003958-1.3834195-1.2415603-2.3003058-1.36294905-.6287471-.07936612-1.264789-.07936612-1.8935361 0-1.9934866.18931329-3.4654201 1.96822141-3.3010647 3.98950821z"/><path d="m84.4138403 6.39344262v2.1290164c-.7603137-.13808058-1.5271677-.23624444-2.2974905-.29409836-1.1079257-.07987968-2.2204686-.06704929-3.3263118.03836065-2.1775665.28770492-3.3704943 1.4704918-3.7870722 3.64426229-.2902414 1.432262-.1898682 2.917553.2903422 4.2963934.6627376 1.9180328 2.1144487 2.8195082 4.0395437 2.9729509 1.5454704.1270279 3.1009073.0323222 4.6202281-.2813115.1262358-.0319672.2524715-.0383607.4355134-.0639344v2.1865573c-.504943.0895082-1.0351331.2045902-1.5653232.2749181-1.8324406.2851437-3.7013968.2200875-5.5101902-.1918033-2.3627628-.472317-4.2326826-2.3038748-4.7780228-4.68-.4740443-1.7999012-.5043881-3.690193-.088365-5.5047541.4229432-2.0851554 1.9239931-3.77673827 3.9259316-4.4242623 2.1396958-.81836065 5.9078327-.74163934 8.0412167-.10229508z"/><path d="m43.5513308 8.1004918v1.80934427 7.11590163c-.0037288.3032261.0280521.6058305.0946768.9014754.1261238.7586335.7873558 1.3053979 1.5463878 1.2786885h2.0197719v2.1481968s-.0631179.0639344-.1136122.0639344c-.9972623 0-2.0071483.0639344-2.9980988 0-2.0260837-.1790164-3.1558936-1.4065574-3.2379468-3.51-.0441825-.8759017 0-1.7581967 0-2.6340984v-11.87901637h1.6789354c.1956654.79278689.3976426 1.61754099.6311787 2.48065574h4.1342205v1.96918033c0 .0895082-.2587833.23655738-.3976426.24295082-.8710266 0-1.7357414 0-2.606768 0z"/><path d="m38.7101901 5.90114754v2.19934426c-.5301901.08311476-1.0351331.14704918-1.5274525.24934427-.9227293.21855483-1.7733101.67689146-2.4679087 1.32983606-.3038012.2587127-.4697927.64708997-.4481369 1.04852457v9.8586885.8183607h-2.6761977v-15.47213115h1.7988593l.4923194 1.91803279c1.292441-1.26989749 3.0280474-1.97082332 4.8285171-1.95z"/><path d="m64.3802281 5.88196721h1.5211407c.1262358 0 .2903422.20459017.3408365.3452459.1514829.48590164.2650951.98459017.416578 1.58557378 1.2997448-1.25467921 3.0332508-1.94328013 4.8285171-1.91803279v2.07786885c-.9467681.28131148-1.8430418.53704918-2.7330038.81836066-.1906047.08110143-.3724944.18179227-.5428137.3004918-.8192189.41982356-1.3003357 1.30566739-1.2118631 2.23131149.0820532 3.1327869 0 6.2719672 0 9.4047541v.6393442h-2.6193917z"/><path d="m102.38981 5.88196721h1.514829c.163131.04789898.294235.17121372.35346.33245902.151483.49229508.258783.99737705.385019 1.48967213.763726-.45393443 1.489582-.94622951 2.272243-1.32344262.804234-.36547947 1.68209-.53412332 2.562586-.49229508v2.19295082c-.542814.08950819-1.066692.14065573-1.571635.27491803-.471839.12943083-.927236.31394627-1.357034.54983606-1.014099.41416413-1.638258 1.45487723-1.533765 2.55737703.126236 3.1136066.037871 6.2336066.037871 9.3536066v.5626229h-2.663574z"/></g><path d="m15.413384 7.4995082h-5.3145247v10.2998361l-6.37490493-5.1147541 6.37490493-5.185082v-7.4995082h-10.0988606l.0000013 21.8847541h.04418251c-.04418251.4027869-.04418251.8119672-.04418251 1.2211475-.00255312 6.315364 3.75117819 12.0103146 9.51056251 14.4288919 5.75938429 2.4185774 12.38999059 1.0843922 16.79949639-3.3803303 4.4095057-4.4647224 5.7293667-11.1805618 3.344038-17.0154454-2.3853287-5.8348835-8.0060067-9.63950907-14.2407129-9.6395096zm-.1388593 20.7403279c-1.3714395.0068108-2.688925-.5407114-3.6604664-1.5212213-.9715415-.9805099-1.5168962-2.3130239-1.515199-3.7022214.0008163-.2136642.0134597-.427114.0378707-.6393442v-4.5777049h5.2514069c2.8444974.038841 5.1193335 2.4060803 5.0809886 5.287377-.038345 2.8812967-2.3753505 5.1855623-5.2198479 5.1467213z"/></g></svg>