<svg clip-rule="evenodd" fill-rule="evenodd" stroke-linecap="round" stroke-linejoin="round" stroke-miterlimit="1.5" viewBox="0 0 3004 2879" xmlns="http://www.w3.org/2000/svg" xmlns:xlink="http://www.w3.org/1999/xlink"><clipPath id="a"><path clip-rule="evenodd" d="m2263.87 1326.96c8.96-11.33 34.42-.82 59.16-4.78 23.25-3.72 45.92-22.38 52.14-18.57 31.33 19.2 52.87 58.87 52.87 104.65 0 64.53-42.8 116.93-95.53 116.93-52.72 0-95.52-52.4-95.52-116.93 0-31.58 10.24-60.25 26.88-81.3z"/></clipPath><clipPath id="b"><path clip-rule="evenodd" d="m2293.79 1301.34c11.84-6.44 81.45-.7 97.69 14.94 22.26 21.42 36.56 54.67 36.56 91.98 0 64.53-42.8 116.93-95.53 116.93-52.72 0-95.52-52.4-95.52-116.93 0-47.67 23.35-88.72 56.8-106.92z"/></clipPath><clipPath id="c"><path clip-rule="evenodd" d="m4594.07 2191.34c-5.63-1.77-6.71-5.74-1.9-10.34 6.52-6.26 21.44-11.34 33.28-11.34s16.16 5.08 9.63 11.34c-4.8 4.6-14.16 8.57-23.48 10.34l-23.87 22.88h-17.53z"/></clipPath><clipPath id="d"><ellipse clip-rule="evenodd" cx="2332.51" cy="1408.26" rx="95.525" ry="116.938"/></clipPath><clipPath id="e"><ellipse clip-rule="evenodd" cx="2332.51" cy="1408.26" rx="95.525" ry="116.938"/></clipPath><path d="m2358.93 708.517c322.53-330.493-358.46-58.729-793.46 228.379-435 287.114-232.55 394.304 93.12 345.724 325.67-48.59 206.36 135.8-88.58 609.94-294.93 474.14-426.07 639.83 58.73 611.65s437.53 43.27 139.69 468.49c-297.83 425.23-55.28 599.31 523.15 269.85 578.43-329.47 408.5-51.87 382.92 60.83-25.58 112.71-51.86 240.66 322.69-24.48 374.56-265.13 336.54-141.65 285.8-10.96s2.65 336.14 552.66-240.7c550.02-576.84 454.86-559.01 168.36-484.66-286.49 74.35-289-20.45-100.19-287.25 188.82-266.8 272.91-563.49-410.02-132.89-682.94 430.59-734.1 36.54-159.49-659.16 574.62-695.706 374.12-636.86 47.75-464.563-326.37 172.303-668.58 248.273-381.19-65.616 287.39-313.884 154.31-359.681-379.34 16.047-533.64 375.732-585.13 89.862-262.6-240.631z" fill="#ffd8df" transform="translate(-1306.35 -556.977)"/><g transform="matrix(.58055 0 0 .58055 151.522 193.579)"><path d="m2043.26 1512.71s-263-144.36-281.28 102.09c-18.27 246.44 212.14 415.09 461.3 277.64 249.16-137.44-180.02-379.73-180.02-379.73z" fill="#f27d85" transform="matrix(1.10155 .245766 -.245766 1.10155 1866.7 -746.804)"/><path d="m2043.26 1512.71s-263-144.36-281.28 102.09c-18.27 246.44 212.14 415.09 461.3 277.64 249.16-137.44-180.02-379.73-180.02-379.73z" fill="#f27d85" transform="matrix(-1.01487 .493808 .493808 1.01487 5430.54 -1223.85)"/><path d="m4297.29 1494.89c15.06 3.22 15.1 3.27 29.21 9.43 7.02 3.95 13.39 9.4 20.11 14.32 48.38 35.38 98.32 71.74 132.75 120.17 14.16 19.93 24.74 43.75 20.26 69.66-5.24 30.27-28.66 54.69-52.81 76.07-33.71 29.85-71.03 55.5-108.86 79.82l-.01.01c-4.58 2.38-8.95 5.17-14.22 5.89-12.21 1.65-25.32.13-34.49-7.49-2.19-1.82-4.95-5.1-4.95-5.1-3.29-5.38-4.4-6.27-5.9-12.51-.91-3.75-1.52-10.47-.71-14.28 1.86-8.75 3.38-14.16 8.24-20.91 3.85-5.33 8.88-9.6 13.58-14.24 28.1-27.86 56.1-56.53 78.49-88.39-38.24-27.45-82.43-48.74-125.91-67.25-.64-.28-1.61-.68-1.61-.68-11.25-7.93-14.72-9.1-23.21-20.08-15.3-19.78-20.24-47.31-12.56-71.13 1.6-4.96 4.17-9.56 6.25-14.33l.02-.03c3-4.26 5.6-8.84 9.01-12.78 9.85-11.39 23.19-19.69 37.67-23.74 4.79-1.34 9.78-1.76 14.66-2.64 5 .07 10 .14 14.99.21zm92.12 191.05c.38.2-2.49 5.67-2.49 5.67s-1.15 3.68.17 1.15c1.26-2.45 2.31-5.31 2.31-5.31 1.59-5.51.15-1.79.15-1.79-.05.09-.09.19-.14.28z" fill="#c72027" fill-rule="nonzero"/><path d="m2407.81 732.949c26.47.221 51.42 16.019 65 39.153 22.94 39.072 18.99 88.891 10.35 128.633-2.91 13.365-6.73 26.522-11.21 39.426l-.17.478c-1.86 5.07-3.82 10.099-5.89 15.086-2.93 7.049-6.15 13.98-9.57 20.816-7.79 15.585-16.95 30.599-26.66 44.979-9.74 14.41-20.83 28.6-32.28 40.54 0 0-2.98 1.46-2.98 1.46s-3.02-.83-3.02-.83l-1.42-2.75c1.26-5.17 2.37-5.63 3.29-7.07 1.39-2.19 2.75-4.39 4.09-6.61 24.62-40.87 44.47-86.141 55.96-126.858 10.73-38.071 16.95-78.708 4.93-117.027-4.99-15.918-14.84-31.489-30.51-38.912-16.46-7.795-36.67-5.879-50.23 11.905-5.85 7.667-9.4 17.622-6.31 27.696 3.67 11.955 13.73 21.864 24.05 26.361 2.82 1.231 6.07 1.908 9.08.945 8.2-2.629 12.2-14.49 8.12-22.296 0 0-1.25-2.895-1.44-4.949-.39-4.5.9-5.604 2.92-9.353 1.6-1.309 3.97-3.245 4-3.26l4.92-1.429c4.23.47 5.88.03 9.36 2.912 4.57 3.786 6.43 10.273 7.37 16.575 3.32 22.288-13.05 47.271-36.68 48.311-12.16.536-23.81-5.513-33.06-13.177-15.54-12.872-27.75-32.091-25.61-53.548 3.01-30.302 31.51-56.782 62.6-57.204.5-.003.5-.003 1-.003z" fill="#c72027" fill-rule="nonzero" transform="translate(1761.79 -29.596)"/><path d="m3162.09 2092.08 54.62 84.38-95.21 13.26z" fill="#b31a21" transform="matrix(-.09922 .995066 -.995066 -.09922 6094.26 -596.698)"/><path d="m2093.96 2058.34s-85.03-197.62-98.58-586.4c-13.5-387.01 158.21-483.353 300.1-486.244 141.89-2.89 308.75 80.394 346.5 361.924 12.3 91.71 36.85 279.73 65.35 357.33 30.26 82.36 387 466.08 56.89 681.37-348.39 227.22-602.61-101.39-670.26-327.98" fill="#e6232c" transform="matrix(-.997726 .0674036 .0674036 .997726 6239.11 -244.32)"/><g fill="#c72027"><path d="m3548.09 1841.44c2.67 2.8 5.14 5.77 7.4 8.91 4.79 6.65 5.43 8.68 9.06 15.99-.15-.34.44.96 1.05 2.26 17.59 36.75 41.89 70.31 68.85 101.41 66.41 76.61 154.2 134.46 250.86 166.19 100.46 32.97 209.26 38.06 314.49 26.6-43.52 69.27-100.65 132.21-170.27 173.19-52.19-3.85-103.91-12.14-154.51-25.6-104.37-27.74-203.12-77.96-285.93-147.33-37.31-31.24-71.8-66.1-102.22-104.16 3.4-74.32 30.1-150.26 61.22-217.46z"/><path d="m3656.61 1625.05c6.07 4.56 11.55 9.91 16.2 15.92 5.03 6.48 5.73 8.48 9.63 15.66-.39-.81 2.89 5.64 5.63 10.5 23.76 41.98 54.56 79.97 89.66 113.2 57.5 54.45 128.81 94.46 205.79 112.23 106.89 24.68 221.23 6.89 323.42-28.95 1.48-.52 2.97-1.05 4.46-1.58-12.25 58.65-22.75 88.45-22.75 88.45-7.5 33.13-18.7 68.62-33.46 104.51-93.33 20.7-189.78 26.1-284.04 8.6-102.12-18.96-198.45-65.06-278.26-131.38-46.97-39.02-88.89-84.38-123.43-134.49 37.7-73.61 75.65-132 83.39-158.48 1.29-4.4 2.54-9.14 3.76-14.19z"/><path d="m3648.39 1653.9s-24.76 37.39-24.81 44.72c-.35 47.09 32.44 174.59 95.51 185.66 79.86 14.01 200.92-122.43 252.02-198.28 9.88-14.66 14.68-23.39 16.94-29.1 20.32-51.23-33.18-70.58-54.59-58.96 0 0-164.39 72.12-199.89 55.96-35.51-16.15-85.18 0-85.18 0z"/></g><path d="m3961.8 1601.65c6.38 2.7 6.43 2.68 12.05 6.74l.01.02c4.61 5.36 6.05 6.21 8.85 12.8 5.29 12.48 4.11 27.44-2.21 39.28-3.75 7.04-9.24 13.07-14.36 19.38-29.19 35.96-62.03 70.31-101.81 94.52-18.99 11.56-39.79 20.42-62.08 23.5-34.01 4.69-69.58-7.03-94.45-30.39-22.52-20.15-41.49-43.78-55.49-70.64 0 0-1.9-3.62-3.27-6.4-13.14-26.74-21.93-55.55-24.55-85.45 0 0-.56-6.1-.68-11.26-.06-2.59-.07-5.18.13-7.77v-.01c1.22-8.45 2.88-16.86 6.17-24.73 12.75-30.51 44.59-52.08 77.71-52.34 2.89-.02 5.77.24 8.65.37h.02c2.86.41 5.74.68 8.58 1.24 21.66 4.27 41.38 17.51 53.77 35.74 9.21 13.54 14.51 29.39 14.72 46.9.03 2.45-.2 4.9-.31 7.35l-.06.33s.12-1.05-.08-.5c0 0 .02-1.26-.72.88-.36 1.06-1.72 7.79-1.93 13.85-.24 7.03.33 14.13 1.62 21.01.04.25.28 1.45.28 1.45 2.43 12.01 7.11 23.49 13.56 33.91l.31.49c16.89-3.39 32.41-11.44 47.52-19.95 0 0 2.75-1.56 4.72-2.71 19.36-11.33 37.55-24.48 55.42-38.31l.73-.56c5.03-2.93 10.09-5.87 15.61-7.67 5.24-1.72 10.86-2.75 16.38-2.94 5.11-.17 10.18.82 15.19 1.87zm-168.55-1.15s-.11 1.47 0 0z" fill="#e6232c" fill-rule="nonzero"/><path d="m2159.23 735.632c25.14 4.058 48.51 18.269 59.56 42.953 7.33 16.356 9.32 34.802 8.35 52.336-1.27 22.682-10.75 46.633-31.97 57.919-17.81 9.476-41.32 7.464-54.97-8.999-17.6-21.218-13.05-55.978 11.66-73.791 0 0 2.68-1.651 4.69-2.121 4.4-1.032 5.67.096 9.67 1.558 0 0 3.8 3.502 3.8 3.502l2.11 4.675c.13 4.253.8 5.82-1.56 9.671-2.58 4.21-7.65 6.578-10.81 10.869-6.95 9.465-6.17 24.518 3.35 31.735 8.66 6.56 23.44.696 30.49-10.159 9.47-14.572 8.93-34.593 6.17-50.451-2.47-14.189-9.36-28.313-21.92-36.14-12.69-7.913-29.26-11.66-41.57-5.236-10.53 5.496-17.04 16.426-21.45 26.787-9.5 22.316-12.05 47.167-13.11 71.783-1.56 36.525.54 73.4 9.27 108.336 4.41 17.621 10.01 34.811 17.4 51.661 7.1 16.18 15.34 31.79 24.79 46.25 10.98 16.81 23.22 33.12 37.9 46.41 0 0 1.55 2.94 1.55 2.94s-.75 3.05-.75 3.05l-2.74 1.54c-5.5-1.26-5.79-2.52-7.58-3.86-29.84-22.35-53.39-52.28-71.41-85.87-18.94-35.289-29.08-74.452-32.41-114.115-4.16-49.493-5.25-101.658 16.8-145.314 11.61-22.998 35.03-42.173 63.77-38.061.31.047.61.094.92.142z" fill="#c72027" fill-rule="nonzero" transform="matrix(.987917 -.154985 .154985 .987917 1582.33 287.602)"/><path d="m2348.57 1394.88c61.42-18.28 63.77-60.74 76.61-14.7 3.31 11.85 2.86 14.86 2.86 28.08 0 64.53-42.8 116.93-95.53 116.93-52.72 0-102.07-51.69-96.32-130.05.53-7.22 63.76 14.22 112.38-.26z" fill="#c72027" transform="matrix(1.5012582918 .02218352356 -.03122003946 2.1127963355 804.41174058 -1816.29814806)"/><g transform="matrix(1.06531750263 -.02674886032 .02730162021 1.08734059225 1741.1402495641 -169.2928674037)"><path d="m2263.87 1326.96c8.96-11.33 34.42-.82 59.16-4.78 23.25-3.72 45.92-22.38 52.14-18.57 31.33 19.2 52.87 58.87 52.87 104.65 0 64.53-42.8 116.93-95.53 116.93-52.72 0-95.52-52.4-95.52-116.93 0-31.58 10.24-60.25 26.88-81.3z" fill="#fff"/><g clip-path="url(#a)"><ellipse cx="2231.72" cy="1432.51" fill="#1c1c1c" rx="51.12" ry="70.589" transform="matrix(.933706 .0917812 -.0936784 .914796 407.797 -77.5036)"/><ellipse cx="2231.72" cy="1432.51" fill="#fff" rx="51.12" ry="70.589" transform="matrix(.577323 .0567496 -.0579226 .565631 1154.52 447.851)"/></g></g><path d="m2618.68 1490.69 16.76 98.54s-42.31 43.53-70.71 46.59c-77.09 8.31-155.83-68.66-160.11-108.4-4.29-39.73 54.81-78.74 131.9-87.05 36.37-3.92 70.29-.31 96.42 8.77 10.17 3.53-14.26 41.55-14.26 41.55z" fill="#e6232c" transform="matrix(.98583022484 .16774830539 -.16774830539 .98583022484 2017.485817566 -500.501507112)"/><path d="m4364.53 1125.96c-9.17 33.1-54.08 68.37-114.06 86.07-53.79 15.88-105.07 13.31-133.6-3.84.11-8.9.46-17.98 1.08-27.24 1.02-15.25 95.28 31.46 168.73 1.95 38.97-15.66 62.43-40.56 77.85-56.94z" fill="#c72027" transform="matrix(1.00000003885 0 0 1.00000003885 -.000228293 -.000902099)"/><path d="m2383.56 1393.88c52.46-3.56 42.3-4.37 43.73 33.19 2.46 64.52-42.05 98.12-94.78 98.12-52.72 0-95.52-52.4-95.52-116.93 0-8.84.8-17.45 2.32-25.72 9.58-52.19 22 19.64 144.25 11.34z" fill="#c72027" transform="matrix(1.45195 -.233163 .345365 2.15065 45.72 -1241.388)"/><g transform="matrix(1.06033 -.106382 .108581 1.08225 1318.648 51.6292)"><path d="m2293.79 1301.34c11.84-6.44 81.45-.7 97.69 14.94 22.26 21.42 36.56 54.67 36.56 91.98 0 64.53-42.8 116.93-95.53 116.93-52.72 0-95.52-52.4-95.52-116.93 0-47.67 23.35-88.72 56.8-106.92z" fill="#fff"/><g clip-path="url(#b)"><ellipse cx="2231.72" cy="1432.51" fill="#1c1c1c" rx="51.12" ry="70.589" transform="matrix(.933706 .0917812 -.0936784 .914796 409.555 -106.979)"/><ellipse cx="2231.72" cy="1432.51" fill="#fff" rx="51.12" ry="70.589" transform="matrix(.577323 .0567496 -.0579226 .565631 1156.28 418.375)"/></g></g><path d="m2332.51 1291.32c52.73 0 95.53 52.39 95.53 116.94 0 64.53-44.07 231.37-96.8 231.37-52.72 0-94.25-166.84-94.25-231.37 0-64.55 42.8-116.94 95.52-116.94z" fill="#e6232c" transform="matrix(1.4699 -.0437236 .0184124 .618986 503.09 638.359)"/><path d="m3807.62 1175.98c30.94 17.44 86.68 49.47 180.29 24.62 54.03-14.34 61.29-18.01 66.78 11.21-26.27 16.36-67.06 26.08-112.46 24.48-66.23-2.32-120.98-27.96-134.61-60.31z" fill="#c72027" transform=""/><path d="m3947.22 1534.59c1 21.64 30.97 21.83 40.61 3.59s59.24-80.7 133.84-71.83c50.49 6.01 33.82 50.96 33.82 50.96 8.46 10.52 14.11 3.24 17.35-19.28 0 0 4.23-47.2-62.51-46.98-66.74.23-165.44 33.59-163.11 83.54z" fill="#c72027"/><path d="m4336.83 2361.88h413.714v413.714h-413.714z" fill="#ff868e" fill-opacity=".333333" transform="matrix(.924605 0 .557507 -.498796 -1027.07 3874.67)"/><path d="m4336.83 2361.88h413.714v413.714h-413.714z" fill="#ee2734" fill-opacity=".333333" transform="matrix(-.557507 .498796 0 .924605 6948.01 -2239.31)"/><g transform="matrix(.855664 -.184256 .184256 .855664 1665.22 1808.72)"><path d="m2923.94 1437.81 16.97-126.43 102.62 67.28 118.25-123.34 50.2 154.94 126.55-23.96-42.85 132.6c-135.51 48.57-262.37 18.24-371.74-81.09z" fill="#b31a21"/><g fill="#f27d85"><path d="m3147.3 1311.87-29.42 18.54 16.51 50.28 30.65-41.06z" transform="matrix(1.43568 0 0 1.43568 -1368.66 -571.55)"/><path d="m2938.11 1337.61 14.88 26.75-24.79 36.79-10.43-40.37z"/><path d="m2938.11 1337.61 14.88 26.75-24.79 36.79-10.43-40.37z" transform="matrix(-.896055 -.443944 -.443944 .896055 6557.12 1516.46)"/></g></g><path d="m4299.54570215 2314.0510574h382.52203297v382.52203297h-382.52203297z" fill="#d54e57" fill-opacity=".333333" stroke-width=".924605"/><path d="m4336.83 2361.88h413.714v413.714h-413.714z" fill="#ff868e" fill-opacity=".333333" transform="matrix(.924605 0 .557507 -.498796 -1027.07 3492.15)"/><path d="m4336.83 2361.88h413.714v413.714h-413.714z" fill="#ee2734" fill-opacity=".333333" transform="matrix(-.557507 .498796 0 .924605 7330.53 -2239.31)"/><g transform="matrix(.862762 0 -.475395 .455725 2575.37 915.835)"><path d="m3796.84 2927.9c0-22.43-9.62-40.64-21.47-40.64h-65.91c-11.85 0-21.47 18.21-21.47 40.64v81.27c0 22.43 9.62 40.63 21.47 40.63h65.91c11.85 0 21.47-18.2 21.47-40.63z" fill="none" stroke="#c72027" stroke-width="101.73" transform="matrix(.800727 0 0 .800727 906.372 335.783)"/><path d="m4478.54 2268.24h154.641v26.651h-154.641z" fill="#c72027" transform="matrix(1.23528 0 1.2091 2.19431 -4477.93 -2089.94)"/><path d="m4478.54 2268.24h154.641v26.651h-154.641z" fill="#c72027" transform="matrix(.0156225 1.25749 1.2091 2.19431 1172.96 -7916.15)"/><path d="m3796.84 2696.57h190.688v190.688h-190.688z" fill="#ee2734"/><g transform="matrix(1.15907 0 1.2091 2.19431 -4092.36 -2009.62)"><path d="m4594.07 2191.34c-5.63-1.77-6.71-5.74-1.9-10.34 6.52-6.26 21.44-11.34 33.28-11.34s16.16 5.08 9.63 11.34c-4.8 4.6-14.16 8.57-23.48 10.34l-23.87 22.88h-17.53z" fill="#be2b33"/><g clip-path="url(#c)"><path d="m4567.62 2203.1s19.74-17.5 24.55-22.1c6.52-6.26 21.44-11.34 33.28-11.34s16.16 5.08 9.63 11.34c-4.8 4.6-14.16 8.57-23.48 10.34l-23.87 22.88z" fill="#1c1c1c" transform="matrix(1.09325 0 0 1.09325 -434.514 -194.325)"/></g></g></g></g><g fill-opacity=".333333"><path d="m4336.83 2361.88h413.714v413.714h-413.714z" fill="#ff868e" transform="matrix(.6405293598 0 .38621854932 -.34554591696 -1960.6994624 3181.5523892)"/><path d="m4336.83 2361.88h413.714v413.714h-413.714z" fill="#ee2734" transform="matrix(-.38621854932 .34554591696 0 .6405293598 3564.1169584 -1053.9683956)"/><path d="m1729.37306626143 2100.41801052442h264.9959635603v264.9959635603h-264.9959635603z" fill="#d54e57" stroke-width=".6405293598"/></g><path d="m1889.15816026143 1957.46068040842h264.9959635603v264.9959635603h-264.9959635603z" fill="#d54e57" fill-opacity=".137255" stroke-width=".6405293598"/><path d="m4336.83 2361.88h413.714v413.714h-413.714z" fill="#ff868e" fill-opacity=".333333" transform="matrix(-.24509433144 -.21928347936 .38621854932 -.34554591696 2246.494366 3958.2749012)"/><path d="m4336.83 2361.88h413.714v413.714h-413.714z" fill="#ee2734" fill-opacity=".333333" transform="matrix(-.38621854932 .34554591696 0 .6405293598 3829.1115136 -1053.9683956)"/><path d="m4336.83 2361.88h413.714v413.714h-413.714z" fill="#ff868e" fill-opacity=".333333" transform="matrix(-.33730761504 .11716234224 .38621854932 -.34554591696 2280.0100948 2408.4460844)"/><path d="m1914.54 1996.66c2.49.22 4.83 1.31 6.6 3.07l68.08 71.02c1.46 1.62 1.76 2.32 2.21 3.6 2.36 6.71-4.49 15.1-12.14 12.95-1.2-.34-2.33-.9-3.32-1.65-.43-.32-.82-.68-1.19-1.06l-68.08-71.03c-1.46-1.61-1.76-2.31-2.21-3.6-2.03-5.77 2.41-13.01 8.98-13.31.36-.01.71 0 1.07.01z" fill="#c72027" fill-rule="nonzero" transform="translate(-1640.759 -136.605)"/><path d="m1917.64 1973.75c3.87 2.75 6.19 6.67 6.28 10.71.05 4.96 0 9.92 0 14.88-.07 7.7-8.77 14.72-19.44 14.87-11.53.06-23.06 0-34.59 0-10.16-.05-19.46-6.63-19.66-14.71-.05-5.39-.55-10.85.07-16.18.85-7.2 9.4-13.43 19.37-13.57 11.53-.06 23.06 0 34.59 0 4.78.03 9.45 1.37 13.04 3.76zm-47.41 11.13v14.2h33.69v-14.2c-11.23 0-22.46 0-33.69 0z" fill="#c72027" fill-rule="nonzero" transform="matrix(.738826 -.673897 .890955 .976797 -2909.006 1180.938)"/><g transform="translate(-1654.386 -150.232)"><path d="m2043.26 1512.71s-263-144.36-281.28 102.09c-18.27 246.44 212.14 415.09 461.3 277.64 249.16-137.44-180.02-379.73-180.02-379.73z" fill="#e6232c" fill-opacity=".501961"/><path d="m2043.26 1512.71s-263-144.36-281.28 102.09c-18.27 246.44 212.14 415.09 461.3 277.64 249.16-137.44-180.02-379.73-180.02-379.73z" fill="#e6232c" fill-opacity=".501961" transform="matrix(-.879318 .476235 .476235 .879318 3615.95 -999.593)"/><path d="m3162.09 2092.08 54.62 84.38-95.21 13.26z" fill="#b31a21"/><path d="m2407.81 732.742c27.69.232 53.59 17.331 67.11 42.715 13.82 25.947 15.99 56.605 14.06 85.616-1.81 27.176-7.94 53.914-17.02 79.628-2.68 7.608-5.84 15.142-9.11 22.595-.11.264-.11.263-.24.526-3.2 6.957-6.59 13.827-10.15 20.618l-.33.625c-6.74 12.263-14.06 24.215-21.87 35.785-.22.34-.75 1.14-.98 1.47-6.42 9.09-13.12 17.98-20.17 26.57-3.7 4.51-7.6 8.96-11.68 13.23 0 0-3.03 1.48-3.03 1.48s-3.07-.86-3.07-.86l-1.43-2.8c.35-1.42.67-3.08.85-3.35.12-.18.24-.36.36-.54 16.59-25.31 30.42-52.49 41.71-79.85 0 0 2.21-5.156 4.02-9.652 9.95-24.738 18.37-50.266 23-76.593 5.36-30.434 7.51-61.787-3.03-91.174-5.34-14.885-15.23-28.884-30.07-35.542-11.75-5.273-25.61-6.333-37.38 1.36-12.39 8.104-21.88 22.397-18.42 36.78 2.48 10.338 10.62 18.833 19.46 25.039 4.33 3.044 9.64 5.483 14.52 3.511 7.79-3.155 11.16-14.475 7.34-21.724v-.009c-.49-1.672-1.31-3.281-1.47-5.015-.42-4.569.9-5.698 2.93-9.511 0 0 4.05-3.32 4.05-3.32l5.01-1.47c5 .542 5.07.561 9.51 2.93l3.32 4.036c10.89 20.555 1.09 50.533-21.76 59.024-14.79 5.498-31.81-.772-44.16-11.006-12.97-10.744-23.86-25.351-25.68-43.256-2.92-28.715 19.85-57.733 46.63-65.584 5.23-1.533 10.69-2.205 16.17-2.279.5-.003.5-.003 1-.003z" fill="#c72027" fill-rule="nonzero"/><path d="m1982 1443.59c9.32-387.14 171.59-455.003 313.48-457.894 141.89-2.89 308.75 80.394 346.5 361.924s68.81 305.29 179.08 317.31c110.26 12.02 476.4 152.75 331.64 478.77-144.77 326.01-521.69 238.25-729.39 130.17-188.35-98.01-433.58-427.94-441.31-830.28" fill="#e6232c"/><g fill-rule="nonzero"><path d="m2912.77 1688.39c51.76 18.82 111.68 48.93 162.2 91.64-5.53 41.46-13.47 82.6-23.59 123.15-22 88.19-55.93 173.68-101.91 252.77-44.88 77.19-97.76 149.41-157.3 216.01-69.43.17-140.24-12.64-206.16-32.3 25.37-23.8 49.64-48.76 72.97-74.53 57.15-63.1 107.97-131.42 150.03-205.99 61.89-109.73 94.34-234.42 103.04-359.89.25-3.62.49-7.24.72-10.86z" fill="#c72027"/><path d="m2898.47 1429.76c8.31 1.73 8.35 1.72 16.09 5.21.01 0 .02.01.02.01 6.28 4.82 7.97 5.34 12.54 11.98 8.77 12.75 11.02 29.86 7.17 44.9-.82 3.2-2.16 6.24-3.25 9.36 0 0-1.67 3.63-2.96 6.28-27.08 55.42-70.84 102.06-118.59 141.5-30.67 25.34-62.35 47.97-97.56 67.5-2.54 1.41-6.01 3.2-6.01 3.2-.64.31-.83.4-.83.4-8.1 2.71-16.35 5.01-24.86 5.62-32.99 2.34-66.57-16.4-81.71-45.86-1.32-2.57-2.38-5.26-3.57-7.89v-.02c-.92-2.74-1.97-5.44-2.75-8.22-5.93-21.27-2.98-44.83 7.73-64.1 8.07-14.53 20.45-26.64 35.26-34.25 2.57-1.32 5.26-2.38 7.89-3.57 0 0-.71.15.39 0 0 0 6.78-1.5 11.81-2.85 26.41-7.06 52.18-16.58 77-27.68 43.29-19.37 84.47-43.53 114.91-78.34 0 0 .34-.36 1.16-1.37h.01c2.32-2.38 4.45-4.95 6.95-7.14 7.28-6.36 16.07-10.97 25.31-13.29 2.95-.74 6.01-.99 9.01-1.48 2.95.03 5.9.06 8.84.1z" fill="#e6232c" transform="translate(28.0729 -26.1548)"/><path d="m2683.56 1561.19c28.26 83.37 66.43 96 137.5 103.74 4.36.48 9.12 1.15 14.23 2.03-11.61 46.89-26.37 92.98-43.98 137.88-30.57 77.97-70.68 151.55-120.82 219.66-69.17 93.96-151.88 178.34-243.17 251.44-1.34-.69-2.68-1.38-4.01-2.07-43.73-22.76-90.53-58.02-136.71-103.78 29.16-21.83 57.27-45.07 84.44-69.3 69.38-61.88 132.81-130.9 184.45-208.15 66.06-98.83 107.45-213.55 127.84-330.12z" fill="#c72027"/></g><path d="m2383.56 1393.88c52.46-3.56 42.3-4.37 43.73 33.19 2.46 64.52-42.05 98.12-94.78 98.12-52.72 0-95.52-52.4-95.52-116.93 0-8.84.8-17.45 2.32-25.72 9.58-52.19 22 19.64 144.25 11.34z" fill="#c72027" transform="matrix(1.45195 -.233163 .345365 2.15065 -1688.73 -1225.42)"/><g transform="matrix(1.06033 -.106382 .108581 1.08225 -415.802 67.5972)"><ellipse cx="2332.51" cy="1408.26" fill="#fff" rx="95.525" ry="116.938"/><g clip-path="url(#d)"><ellipse cx="2231.72" cy="1432.51" fill="#1c1c1c" rx="51.12" ry="70.589" transform="matrix(.933706 .0917812 -.0936784 .914796 426.927 -67.1948)"/><ellipse cx="2231.72" cy="1432.51" fill="#fff" rx="51.12" ry="70.589" transform="matrix(.577323 .0567496 -.0579226 .565631 1173.65 458.16)"/></g></g><ellipse cx="2332.51" cy="1408.26" fill="#e6232c" rx="95.525" ry="116.938" transform="matrix(1.45728 -.197131 .0830134 .61367 -1279.68 1107.49)"/><path d="m2348.57 1394.88c61.42-18.28 63.77-60.74 76.61-14.7 3.31 11.85 2.86 14.86 2.86 28.08 0 64.53-42.8 116.93-95.53 116.93-52.72 0-102.07-51.69-96.32-130.05.53-7.22 63.76 14.22 112.38-.26z" fill="#c72027" transform="matrix(1.49871 -.0902043 .126949 2.10921 -1141.18 -1536.24)"/><g transform="matrix(1.06033 -.106382 .108581 1.08225 -83.8466 36.0617)"><ellipse cx="2332.51" cy="1408.26" fill="#fff" rx="95.525" ry="116.938"/><g clip-path="url(#e)"><ellipse cx="2231.72" cy="1432.51" fill="#1c1c1c" rx="51.12" ry="70.589" transform="matrix(.933706 .0917812 -.0936784 .914796 427.935 -77.037)"/><ellipse cx="2231.72" cy="1432.51" fill="#fff" rx="51.12" ry="70.589" transform="matrix(.577323 .0567496 -.0579226 .565631 1174.66 448.317)"/></g></g><path d="m2674.09 1529.23c-19.65 26.91-66.11 49.1-122.05 55.13-77.08 8.31-143.14-17.2-147.42-56.94-4.29-39.73 54.81-78.74 131.9-87.05 50.53-5.45 96.32 3.64 123.08 21.73 4.67 25.58 9.45 47.8 14.49 67.13z" fill="#e6232c" transform="translate(-2.5066 -24.2031)"/><path d="m2461.55 1526.45s-39.55 63.72-98.65 61.98c-59.11-1.73-94.09-36.32-104.71-24.15-10.61 12.17-3.41 111.2 73.06 132.85s141.56-11.27 141.23-18.34-89.54-42.34-10.26-130.07c11.01-12.49 7.42-28.09-.67-22.27z" fill="#c72027"/><path d="m2363.4 1602.48c-45.1 1.43-92.96-23.7-92.96-23.7s-6.62 27.71 12.17 64.92l114.48-16.52 15.54-38.09s-14.65 12.29-49.23 13.39z" fill="#fff"/><path d="m2170.17 808.846.01.016 2.15 4.756.16 5.064-1.74 4.761-3.54 3.846c-2.88 2.088-8.13 6.797-10.43 12.74-4.01 10.41-.09 25.23 11.09 27.941 8.45 2.046 17.82-2.534 23.39-9.338 13.45-16.403 11.14-42.087 7.3-58.172-3.12-13.035-10.74-25.434-22.52-32.107-12.92-7.316-29.07-10.681-41.3-3.296-12.46 7.518-18.89 21.827-23.23 35.202-12.51 38.527-11.77 80.992-8.49 121.174 2.14 26.238 7.66 52.206 16.08 76.448 8.25 24.759 19.67 48.849 34.18 70.819 10.93 17.05 23.5 33.26 37.63 46.23l.22.21 1.56 2.98s-.75 3.09-.75 3.09l-2.79 1.56-3.26-.74c-17.6-11.75-32.69-27.54-45.86-43.65-11.27-13.79-20.97-28.69-29.6-44.53-4.85-8.9-8.98-18.08-12.81-27.46l-.2-.49c-12.25-31.216-18.85-64.854-20.59-98.024-2.15-40.85-2.19-82.628 11.76-120.985 6.76-18.587 17.47-36.4 35.61-45.953 26.61-14.007 63.42-3.351 83.25 19.371 17.5 20.052 21.98 49.639 19.58 74.794-1.88 19.714-10.29 39.7-26.92 51.001-18.68 12.691-45.78 12.583-61.19-7.524-13.07-17.072-13.11-42.818-.01-60.28 3.58-4.78 7.97-8.92 12.82-12.418 0 0 4.77-2.156 4.77-2.156l5.07-.158 4.76 1.742c1.28 1.179 2.56 2.357 3.84 3.536z" fill="#c72027" fill-rule="nonzero"/><path d="m2111.47 1931.18 79.41-62.07s58.62 119.56 79.73 205.91c4.26 17.4 1.79 56.06-41.89 31.64-41.97-50.62-82.05-109.66-117.25-175.48z" fill="#c72027"/><path d="m2627.65 1708.16c-2.1-1.59-4.27-3.08-6.29-4.78-6.13-5.15-11.5-11.2-15.86-17.91-4.02-6.18-4.51-7.96-7.55-14.68v-.02c-.88-2.63-1.9-5.23-2.64-7.9-5.71-20.47-2.87-43.14 7.43-61.67 7.76-13.99 19.67-25.64 33.92-32.96 2.47-1.27 5.07-2.29 7.6-3.43 0 0 6.26-1.33 11.27-2.7 25.28-6.87 50.19-16.12 73.94-26.68 44.01-19.56 84.33-42.83 115.83-77.61.91-1.01 1.81-2.02 2.7-3.04.78-.9 1.92-2.27 1.92-2.27 2.22-2.3 4.26-4.78 6.65-6.89 11.41-10.08 26.84-15.74 41.49-14.14 7.61.82 8.73 1.97 15.56 5.06l.02.01c6.06 4.65 7.7 5.15 12.11 11.55 8.44 12.24 10.64 28.67 6.88 43.19-.79 3.07-2.1 5.99-3.15 8.99 0 0-1.68 3.6-2.97 6.23-28.13 57.08-73.48 104.1-123.03 143.96-26.6 21.41-54.39 40.81-83.57 57.84-4.76 2.78-9.51 5.54-14.42 8.02l-.76.38c-.62.3-.82.39-.82.39-6.99 2.34-8.63 3.18-15.89 4.43-13.07 2.26-26.68 1.2-39.29-2.93-6.65-2.18-8.14-3.2-14.39-6.29-2.23-1.38-4.46-2.76-6.69-4.15z" fill="#e6232c" fill-rule="nonzero" transform="matrix(-.904017 .512918 -.512918 -.904017 5372.75 1942.41)"/></g><path d="m1914.47 1998.13c2.12.2 4.09 1.11 5.61 2.61l68.07 71.03c1.34 1.48 1.6 2.14 1.98 3.32 1.72 5.45-3.46 12.09-9.65 10.98-1.76-.32-3.37-1.24-4.64-2.5l-68.07-71.02c-1.34-1.48-1.6-2.14-1.98-3.33-1.56-4.91 2.3-10.82 7.71-11.09.32-.02.64-.01.97 0z" fill="#c72027" fill-rule="nonzero" transform="matrix(1.17237 0 0 1.17237 -1885.192 -397.02)"/><path d="m2048.87 2130.46c8.29.38 14.55 10.96 7.97 18.04-.09.1-.19.19-.28.28l-35.51 35.52c-6.16 5.94-18.94 1.96-19.18-7.25-.07-2.86 1.1-5.68 3.14-7.79l35.51-35.52c.93-.89 1.24-1.1 1.86-1.49 1.23-.79 2.63-1.34 4.08-1.61.61-.11.86-.2 2.41-.18z" fill="#c72027" fill-rule="nonzero" transform="matrix(.89574 0 0 .925019 -1436.415 16.443)"/><path d="m2048.9 2132.11c6.98.41 11.46 9.87 6.37 15.37-.08.09-.16.18-.25.26l-35.51 35.52c-4.27 4.1-12.29 2.81-14.8-2.65-1.56-3.37-.76-7.61 1.84-10.31l35.51-35.52c.8-.76.97-.85 1.39-1.14 1.6-1.06 3.52-1.57 5.45-1.53z" fill="#c72027" fill-rule="nonzero" transform="matrix(1.09122 0 0 1.09122 -1809.022 -308.801)"/><g transform="translate(-1654.386 -150.232)"><path d="m2921.3 1449.52 19.61-138.14 102.62 67.28 118.25-123.34 50.2 154.94 126.55-23.96-47.24 146.04c-122.65 37.05-248.32 11.28-369.99-82.82z" fill="#b31a21"/><g fill="#f27d85"><path d="m3147.3 1311.87-29.42 18.54 16.51 50.28 30.65-41.06z" transform="matrix(1.43568 0 0 1.43568 -1368.66 -571.55)"/><path d="m2938.11 1337.61 14.88 26.75-24.79 36.79-10.43-40.37z"/><path d="m2938.11 1337.61 14.88 26.75-24.79 36.79-10.43-40.37z" transform="matrix(-.896055 -.443944 -.443944 .896055 6557.12 1516.46)"/></g></g></svg>