<svg height="87" viewBox="0 0 104 87" width="104" xmlns="http://www.w3.org/2000/svg" xmlns:xlink="http://www.w3.org/1999/xlink"><mask id="a" fill="#fff"><path d="m.10165161.21551505h6.35196774v7.3864267h-6.35196774z" fill="none"/></mask><mask id="b" fill="#fff"><path d="m.18971613.21551505h6.35196774v7.3864267h-6.35196774z" fill="none"/></mask><g fill="#8e8e8e" fill-rule="evenodd"><path d="m46.345671 13.2936422c1.5809677.8053835 5.4553871.7551262 5.4981613.7547039.0431935.0004223 3.9176129.0506796 5.4985806-.7547039 0 0 .1094516-4.39856793 1.5352581-5.59460676.7305161-.4785 1.4983548-.4785 1.4983548-.4785s-.0549355-.42317476-.384129-.42317476c-.3287742 0-.8953226.14697087-.8953226.14697087s-.1094516-.42317475-.2558065-.42317475c-.1463548 0-.676.20229611-.676.45991747 0 .25804369.0364839.84677185.0364839.84677185s-.475129-.01858253-.6030322-.18413593c-.1279033-.16555339-.2922904-.33110679-.2922904-.33110679s-.274258.40459223-.3472258.40459223c-.0729677 0-.079258-.09798058-.3715484-.09798058-.2922903 0-.3598064.22087864-.3837096.32519417-.024742.10431554-.0121613.41726214.3409354.45400486l.1279033.02449514s-.1337742.05532525-.2071613.12881068c-.0729678.07348544-.1400645.32519418.1522258.4966602.2922903.17188835.4386451.0126699.4633871-.09798059.0239032-.11022815.4319355-.02449514.4319355-.02449514s.6214838 1.15929613-.9192258 1.03682039c-1.2672904-.12289806-1.0173549-.90167476-1.0173549-.90167476s.1094516-.44175728-.3107419-.48483495c-.4201936-.04265534-.4566774.34968932-.4566774.34968932s.0666774.50890777-1.3037742.50890777-1.3704516-1.37383981-1.3704516-1.37383981-.0612258-.36193689.3593871-.36193689c.4201935 0 .4139032.15330582.4139032.15330582s.0612258.42317476.560258.42317476c.499871 0 .420613-.40459223.420613-.40459223s.3530967-.07982039.3530967-.42359709c0-.34335437-.3530967-.38643204-.3530967-.38643204l-.0272581-.48441262s-.0637419.22087864-.3258387.22087864-.6277742-.00633495-.6277742-.17188835 0-.45400485.4143226-.65038835l-.005871-.20229612s-.4092903.16006311-.5241936 0c-.2864193-.39867961-.0306129-.84297087-.0729677-.9388398-.2834839-.64363107-.863871-.61364563-.8751935-.6132233-.0109033-.00042233-.5917097-.03040777-.8751936.6132233-.0419355.09586893.2134516.54016019-.0729677.9388398-.1149033.16006311-.5237742 0-.5237742 0l-.0062903.20229612c.4143225.1963835.4143225.48483495.4143225.65038835s-.365258.17188835-.6273548.17188835-.3258387-.22087864-.3258387-.22087864l-.0276774.48441262s-.3526775.04307767-.3526775.38643204c0 .3437767.3526775.42359709.3526775.42359709s-.0788387.40459223.4201935.40459223c.499871 0 .5606774-.42317476.5606774-.42317476s-.0058709-.15330582.4143226-.15330582c.4201936 0 .3593871.36193689.3593871.36193689s0 1.37383981-1.370871 1.37383981c-1.3700322 0-1.3033548-.50890777-1.3033548-.50890777s-.0364839-.39234466-.4566774-.34968932c-.4206129.04307767-.310742.48483495-.310742.48483495s.2499355.7787767-1.0173548.90167476c-1.541129.12247574-.9192258-1.03682039-.9192258-1.03682039s.4076129-.08573301.4319355.02449514c.0247419.11065049.1706774.26986894.4633871.09798059.2922903-.17146602.2251935-.42317476.1518064-.4966602-.0729677-.07348543-.2067419-.12881068-.2067419-.12881068l.1274839-.02449514c.3535161-.03674272.3656774-.34968932.3413548-.45400486-.0243226-.10431553-.0914193-.32519417-.3837097-.32519417-.2922903 0-.2985806.09798058-.3715484.09798058-.0733871 0-.3472258-.40459223-.3472258-.40459223s-.1648064.1655534-.2922903.33110679c-.1279032.1655534-.6034516.18413593-.6034516.18413593s.0369032-.58872816.0369032-.84677185c0-.25762136-.5300645-.45991747-.676-.45991747-.1463548 0-.2562258.42317475-.2562258.42317475s-.566129-.14697087-.8953226-.14697087c-.3291935 0-.3837096.42317476-.3837096.42317476s.7674193 0 1.4983548.4785c1.4253871 1.19603883 1.5352581 5.59460676 1.5352581 5.59460676"/><path d="m48.3740484 8.15907961c.3229032 0 .585-.26395631.585-.58915048 0-.32519418-.2620968-.58872816-.585-.58872816-.3233226 0-.585.26353398-.585.58872816 0 .32519417.2616774.58915048.585.58915048"/><path d="m55.3138677 8.15907961c.3233226 0 .585-.26395631.585-.58915048 0-.32519418-.2616774-.58872816-.585-.58872816-.3229032 0-.585.26353398-.585.58872816 0 .32519417.2620968.58915048.585.58915048"/><path d="m51.8460129 40.6473291h-.0020968-.0020967c-.0427742.0004224-2.8017097.0177379-5.3664839-.5287573-.4394839 1.0583593-.7653226 1.9444078-.6780968 2.0132476 1.0873871.8645097 5.9590323.9916311 6.0445807.9937427v.0004224s.0016774-.0004224.0020967-.0004224l.0020968.0004224v-.0004224c.085129-.0021116 4.9571936-.129233 6.0445806-.9937427.0872259-.0688398-.2381935-.9548883-.6780967-2.0132476-2.5643549.5464952-5.3232903.5291797-5.3664839.5287573"/><path d="m50.8467742 22.2029913c.1274839.076864.5170645.1364126.8902903.1364126.2033871 0 .4411613-.0253398.6365807-.1621748.2964838-.2048301.5170645-.6660145.5170645-1.3151359 0-1.0676505-.5598387-1.7083252-1.4673226-1.7083252-.254129 0-.4830968.0253398-.5682258.0511019-.0423548.0173155-.0679355.0511019-.0679355.1026262v2.7932913c0 .042233.0167742.0764417.0595484.1022039"/><path d="m71.5044871 41.5431335c-.1279032-.6073107-.6026129-.570568-.6026129-.570568s.0360645-.4599174-.1828387-.6807961c-.2193226-.2208786-.585-.3501116-.585-.3501116s.0398387-.2204563-.0255807-.4088156c.6571291.0109806 1.4840968-.0886893 2.0355484-.5663446 1.0420968-.9016748.3837097-2.3004321-.2558064-2.6501214-.6390968-.3496893-1.2790323-.1288107-1.4249678.4970825-.1463548.6254709.6026129.533403.876871.4231748s.1279032.5338252.1279032.5338252.3837097-.0185825.5485162.1837136c.1639677.2027185-.2377742.9937427-1.5348388 1.178301-.6944516.0979806-1.5755161-.2204563-2.0892258-.8928058-.0700322-.3323738-.2750967-.8459272-.4235483-1.347233.0100645-.351801.0960322-.740767.2830645-1.1647864 1.0198709-2.3160583 3.2525161-1.9693253 5.2264193-.3868544 1.9734839 1.5828932 2.0829355 5.6685146-.0918387 7.6378398-2.1743548 1.9693252-4.9517419 1.049068-6.0668064 0-1.1146452-1.049068-1.8455807-3.4968932-4.5864839-3.9386505-1.1930645-.1921602-2.9241613.9388398-3.7645484 2.7607719-.8403871 1.821932-3.2340645 2.1530388-3.9473871 2.2636893-.6235806.0967136-2.8725806.4050145-3.1774516 2.0698398-.3044516-1.6648253-2.553871-1.9731262-3.1774516-2.0698398-.7129032-.1106505-3.1065807-.4417573-3.9473871-2.2636893-.8403871-1.8219321-2.5714839-2.9529321-3.7645484-2.7607719-2.7409032.4417573-3.4718387 2.8895825-4.5864839 3.9386505-1.1146451 1.049068-3.8920322 1.9693252-6.0672258 0-2.1743548-1.9693252-2.0649032-6.0549466-.0914193-7.6378398 1.9739032-1.5824709 4.2069677-1.9292039 5.2264193.3868544.1874516.4240194.2734194.8129854.2830645 1.1647864-.1480322.5013058-.3535161 1.0148592-.4235484 1.347233-.5132903.6723495-1.3947741.9907864-2.0888064.8928058-1.2974839-.1845583-1.6992258-.9755825-1.5348387-1.178301.1643871-.2022961.5480968-.1837136.5480968-.1837136s-.1459355-.6440534.1279032-.5338252 1.0232258.2022961.8772903-.4231748c-.1463548-.6258932-.785871-.8467718-1.4258064-.4970825-.6390968.3496893-1.2970646 1.7484466-.2553871 2.6501214.5514516.4776553 1.3784193.5773252 2.0355483.5663446-.0654193.1883593-.0255806.4088156-.0255806.4088156s-.3652581.129233-.585.3501116c-.2189032.2208787-.1824194.6807961-.1824194.6807961s-.475129-.0367427-.6030322.570568 1.0051935.3678495 1.3704516.3678495c.3656774 0 .4935806-.1655534.6944516-.386432.2012903-.2208787.109871-.8096068.2742581-.7728641s.2558064-.092068.3472258-.4966602c.091-.4050146.6395161-.4789223.9867419-.6812184.3468065-.2022962.4751291-.957.4751291-.957s.8953225-4.1958496 1.1146451-4.3799855.401742-.7914466.0180323-1.2513641c-.3837097-.4603398-.1824194-1.5643106-.0549355-1.6382184.1283226-.0734854.4206129.3133689.6399355.4970825.2193226.1841359.0729677 2.2269466.3472258 2.4664078.2738387.2390388.365258.5701456.2922903.7728641-.0729677.2022961-.1279032 1.4536602-.0729677 1.7480242.0545161.2947864-.2742581.9755826-.4570968 1.2517864-.1824194.2757816-.5845807.1655534-.8584194.2022962-.1459355.0194271-.274258.5405825-.5120322.772864-.2096774.2048301-.5392903.1123398-.5480968.2762039-.0184516.3496893-.0914194.7914466-.0914194.7914466s-.8223548.6622136-.5845806.8830923c.2373548.2208786 1.3524194.0739077 1.4983548 0 .1463549-.0734855.4751291-.4050146.3287742-.4966602-.1459355-.092068.310742-.6812185.310742-.6812185s.2373548-.0181602.2008709-.1655534c-.0364838-.1469709.5120323-.7179612.5120323-.7179612s.5476774-.0363203.7489677-.257199c.200871-.2208786.2373549-.7179611.200871-.9020971-.0364839-.1841359.2193226-1.4355.2193226-1.4355l.384129-2.8156747c.1824194-.0185825.291871-.4785.291871-.8281893 0-.3496894-.6390968-.957-.6575484-2.4292428-.0184516-1.4722427 1.461871-2.3739174 2.3571935-3.1467815.895742-.7732864.3472259-2.006068 1.0416775-.9016748.6944516 1.1039709-.4751291.8645097-1.571742 3.6801845-1.0961935 2.8160971.7129033 5.6317718 1.5168065 6.5887718.7393226.8797136.9137742 2.4474029.9137742 2.4474029.0733871-1.9874854-1.1330968-4.1037815-1.461871-4.8952281-.3287742-.7910243.3837097-1.0119029.4206129-.4785.0364839.5338252.2553871.7179612.6026129 1.2885291.3472258.570568.3472258.919835.3472258.919835.0914194-1.1039709-.3287742-1.2881068-.3287742-2.5580534s1.7361291-3.0365534 2.0464516-4.1037816c.310742-1.0672281-.1643871-1.9874854-.1643871-1.9874854s.0511613-.0215389.1249678.003801c.0620645.124165.131258.2618446.2100968.4193737.0754838.1503496.1471935.2783156.2163871.3931894.0184516.0878446.0360645.1811796.0515806.2876068.189129 1.2893737-.5300645 2.300432-.5300645 2.300432s.7925806-.8476165.7795806-2.1593738c.3946129.4637185.6277742.3437767.6277742.3437767s.0733871 1.1407136 1.4983549 1.7911019c1.4253871.6503884 1.4434193 1.1474709 1.2547096 1.1592962-.1887096.0122475-.6026129.3560242-.2130322.5215776.7078709.3006991.9687097 1.0123253 1.0966129 1.2699466.1274839.2576214-.2377742 1.141136-.3476452 1.4355-.1094516.2943641-1.6078064 1.1960389-1.8636129 1.4536602-.1383871.1397913-.9024516 1.7678738-1.5402903 3.2616554.0012581.0004223.811871.2719806 5.1542903.2719806h.0020968.0020968c4.3428387 0 5.1530322-.2715583 5.1542903-.2719806-.6378387-1.4937816-1.4019032-3.1218641-1.5402903-3.2616554-.2553871-.2576213-1.753742-1.1592961-1.8636129-1.4536602-.109871-.294364-.4751291-1.1778786-.3472258-1.4355.1274838-.2576213.3887419-.9692475 1.0961935-1.2699466.39-.1655534-.0243226-.5093301-.2130323-.5215776-.1887096-.0118253-.1706774-.5089078 1.2547097-1.1592962 1.4253871-.6503883 1.4987742-1.7911019 1.4987742-1.7911019s.232742.1199418.6277742-.3437767c-.0134193 1.3117573.7791613 2.1593738.7791613 2.1593738s-.7191935-1.0110583-.5300645-2.300432c.0159355-.1064272.0335484-.1997622.0515806-.2876068.0696129-.1148738.1409033-.2428398.2163871-.3931894.0792581-.1575291.1480323-.2952087.2100968-.4193737.0738065-.0253399.1249677-.003801.1249677-.003801s-.475129.9202573-.1643871 1.9874854c.310742 1.0672282 2.0464517 2.833835 2.0464517 4.1037816s-.4201936 1.4540825-.3287742 2.5580534c0 0 0-.349267.3472258-.919835.3472258-.5705679.5665484-.7547039.6030322-1.2885291.0369033-.5334029.7493871-.3125243.4206129.4785-.3296129.7914466-1.5356774 2.9077427-1.4622903 4.8952281 0 0 .1744516-1.5676893.9137742-2.4474029.8039032-.957 2.613-3.7726747 1.5168065-6.5887718-1.0966129-2.8156748-2.2661936-2.5762136-1.571742-3.6801845.6944516-1.1043932.1463549.1283884 1.0420968.9016748.8949032.7728641 2.3752258 1.6745388 2.3571935 3.1467815-.0184516 1.4722428-.6583871 2.0795534-.6583871 2.4292428 0 .3496893.109871.8096068.2927097.8281893l.3837097 2.8156747s.2558065 1.2513641.2193226 1.4355c-.0364839.184136 0 .6812185.200871.9020971.2012903.2208787.749387.257199.749387.257199s.5480968.5709903.511613.7179612c-.0369033.1473932.2012903.1655534.2012903.1655534s.4566774.5891505.3103226.6812185c-.1463549.0916456.1828387.4231747.3287741.4966602.1463549.0739077 1.261.2208786 1.4983549 0 .2377742-.2208787-.5845807-.8830923-.5845807-.8830923s-.0729677-.4417573-.0914193-.7914466c-.0083871-.1638641-.3384194-.0713738-.5476774-.2762039-.2381936-.2322815-.3665162-.7534369-.5120323-.772864-.2738387-.0367428-.676.0734854-.8588387-.2022962-.1828387-.2762038-.5116129-.957-.4570968-1.2517864.0549355-.294364 0-1.5457281-.0729677-1.7480242-.0733871-.2027185.0184516-.5338253.2927097-.7728641.2738387-.2394612.1274838-2.2822719.3472258-2.4664078.2189032-.1837136.5111935-.5705679.6390967-.4970825.1283226.0739078.3291936 1.1778786-.0545161 1.6382184-.3837097.4599175-.200871 1.0672282.0180323 1.2513641.2197419.1841359 1.1146451 4.3799855 1.1146451 4.3799855s.1283226.7547038.4751291.957c.3472258.2022961.8957419.2762038.9871613.6812184.0914193.4045922.1824193.5334029.3472258.4966602.1639677-.0367427.0729677.5519854.2738387.7728641.2012903.2208786.3287742.386432.6944516.386432s1.4987742.2394612 1.3704516-.3678495m-26.1576774-18.8084709c-.2499355-.6136456-.700742-.7361213-.700742-.7361213v-.8590195c-1.2668709-.957-1.9982258-2.0119805-2.6314516-3.2878398-.6336451-1.2762815-.6089032-2.1103835-.6089032-2.1103835s-.5363548.5152428-1.2186452-1.5457281c-.6822903-2.0613932-.0239032-3.0183932.5363549-3.5091408.560258-.4907476 1.9491613.1473932 1.9734839 1.3742621.0243225 1.226869-.7552581 1.8895049-.7552581 1.8895049.4872903.2943641 1.0370645 0 1.0370645 0s-.2331613.564233-.3795161 1.1778786c-.1459355.6132233.1463548 1.0549806.7124838 1.1529612.5669678.0984029.6764194-.5887281.6764194-.5887281l.4386452-.0494127s.2193225.4662525 1.1209354 3.8774127c.9016129 3.4107378.3409355 4.4412233.3409355 4.4412233h-.3166129s.0243226-.6136457-.2251935-1.226869m1.411129-2.8215874c.2474194 0 .5938065.0168932.6214839.0168932.1316774 0 .3459677-.0168932.5984193-.0168932.9016129 0 1.0999678.5536748 1.0999678.830301 0 .4540049-.258742.7251408-.5170645.9962767.4067742.1275437.9510967.5203107.9510967 1.1681651 0 .5921068-.4617096 1.206597-1.4019032 1.206597-.0603871 0-.2365161-.0109805-.3954516-.0164708-.1593548-.0109806-.3136774-.0168932-.3350645-.0168932-.1761291 0-.3463871.0168932-.5384516.0168932-.0608065 0-.0880645-.0109806-.0880645-.0388544 0-.0164709.0104838-.0388544.0821935-.0388544.0436129 0 .0821935-.0054903.1316774-.0164708.109871-.0223835.1320968-.1495049.1539032-.3099903.0276775-.2322816.0276775-.6698156.0276775-1.2011068v-.9743156c0-.863665 0-1.0186602-.0109033-1.1956165-.0113225-.1879369-.0553548-.2766262-.2365161-.3154805-.0440322-.011403-.1375484-.0168932-.1593548-.0168932-.0494839 0-.0717097-.0109806-.0717097-.0329418 0-.0333641.0276774-.0443447.0880645-.0443447m2.748871-1.032597c.3816129 0 .9158709.0257621.9582258.0257621.0930968 0 .7380645-.0257621 1.001-.0257621.5338387 0 1.1024839.0511019 1.5516129.3758737.2121935.1537282.5854193.5722573.5854193 1.1614078 0 .6322282-.2629354 1.264034-1.0261612 1.9731262.6948709.8966068 1.2719032 1.6572233 1.7638064 2.1868253.4579355.4865242.8227742.5807038 1.0349677.6149126.1610323.0253398.2797097.0253398.3304517.0253398.0427742 0 .0767419.0257621.0767419.0511019 0 .0515243-.0511613.0684175-.2038065.0684175h-.6017742c-.4755483 0-.6873225-.0426553-.9074838-.1621747-.3648387-.1963835-.661742-.6149127-1.1452581-1.2555874-.3560322-.4696311-.7548387-1.0418884-.9246774-1.264034-.0339677-.0342087-.059129-.0511019-.109871-.0511019l-1.0433548-.0173156c-.0423549 0-.059129.0257622-.059129.0684175v.2048301c0 .820165 0 1.4946262.0419354 1.8536068.0255807.2474854.076742.4358446.330871.4696311.1190968.0173155.3057097.0342087.3816129.0342087.0511613 0 .0683548.0257621.0683548.0511019 0 .0430777-.0427741.0684175-.1362903.0684175-.4663226 0-1.0005806-.0253398-1.0429355-.0253398-.0083871 0-.5426451.0253398-.7971935.0253398-.0935161 0-.135871-.0168932-.135871-.0684175 0-.0253398.0167742-.0511019.0683549-.0511019.0759032 0 .1778064-.0168932.254129-.0342087.1694194-.0337865.2121935-.2221457.2461613-.4696311.0419355-.3589806.0419355-1.0334418.0419355-1.8536068v-1.5030728c0-1.3324515 0-1.5719126-.0167742-1.8447379-.0171936-.2905631-.0847097-.427398-.3648387-.4869466-.0675162-.0173155-.2121936-.0257621-.2880968-.0257621-.0339677 0-.0679355-.0168932-.0679355-.0515243 0-.0511019.0423548-.0679951.135871-.0679951m4.7110322 1.7902572c.3145162-.3163252.7913226-.5646553 1.597742-.5646553.2096774 0 .5028064.0156262.7594516.0633495.1991935.0371651.3619032.0527913.5556451.0793981.0364839.0050679.0469678.0261844.0469678.0578592 0 .042233-.0155161.1051602-.0264194.2956311-.0104838.174-.0104838.4641407-.0155161.5431165-.0050323.0789757-.0159355.1106505-.0473871.1106505-.0364839 0-.0419355-.0367428-.0419355-.1106505 0-.2056748-.0834516-.4219078-.2197419-.5380486-.1832581-.1583738-.5866774-.300699-1.0475484-.300699-.6965484 0-1.0215484.2056748-1.2048065.385165-.3820322.3691165-.4713548.8383253-.4713548 1.3763738 0 1.0076796.7699355 1.9308932 1.890871 1.9308932.3929355 0 .702-.0473009.9116774-.2639563.1094516-.1157184.1778064-.348.1933226-.4430243.0104838-.0582815.0209677-.0789757.0524193-.0789757.0264194 0 .0364839.0367427.0364839.0789757 0 .0371651-.0624839.4958156-.1149032.6753059-.0314516.1005145-.0419355.1106505-.135871.1528835-.2096774.084466-.6080645.1212087-.943129.1212087-.7854516 0-1.3146774-.1951165-1.7281613-.569301-.5082581-.4590728-.6340645-1.0604708-.6340645-1.5617767 0-.3530679.1203548-.9705145.586258-1.4397233m3.9226452-1.1504271c.9011935-3.4111602 1.1209355-3.8774127 1.1209355-3.8774127l.4386451.0494127s.1090323.687131.676.5887281c.5661291-.0979806.8588388-.5397379.7124839-1.1529612-.1463548-.6136456-.3790968-1.1778786-.3790968-1.1778786s.5493549.2943641 1.0366452 0c0 0-.7795806-.6626359-.7548387-1.8895049.0239032-1.2268689 1.4132258-1.8650097 1.9734839-1.3742621.560258.4907476 1.2182258 1.4477476.5359354 3.5091408-.6822903 2.0609709-1.2182258 1.5457281-1.2182258 1.5457281s.0243226.834102-.6089032 2.1103835c-.6336451 1.2758593-1.3645806 2.3308398-2.631871 3.2878398v.8590195s-.4508064.1224757-.7007419.7361213c-.2490968.6132233-.2251935 1.226869-.2251935 1.226869h-.3166129s-.5606775-1.0304855.3413548-4.4412233m25.766-8.4533593c.0486452-.1963835.2436452-.4540048.0125806-.6993786-.2319032-.2453738-.975-.90800972-1.0844516-1.23911652-.1098709-.33152912-.7435161-1.87725728-1.1574193-1.87725728-.4143226 0-.7921613-.13514563-.9989033-.01224757-.2071612.12247573-1.8275483 1.36201456-2.5463225 1.66862621s-1.6078065.83410194-1.8514516.72387379c-.2436452-.11065049-.3291936-.52791262-1.3037742-.89576214-.9745807-.36827184-3.0700968-1.84051456-2.8264517-2.34308738.0754839-.15626213.7552581-.61364563 1.8032259-.39276699 1.0475483.22087865 1.1695806.39276699 1.1695806.39276699s.195.36784952.475129.29394175c.2801291-.07348543.7309355-.50299514.7309355-.50299514s-.6093226.10009223-.7435161-.24452913c-.1337742-.34419903.1828387-.44260194.3656774-.34419903.1828387.09798058.3778387.44175728.3778387.44175728s.3652581-.34208738.4260645-.47807767c.0612258-.13556796.0855484-.50341747 0-.72429611-.085129-.22087864-1.1695806-1.3007767-2.8994193-1.95074272 0 0-.3166129-.28253884-.3774194-.46625243-.0608064-.18413592-.1341935-.31885922-.3656774-.31885922s-.9624194-.45400486-.9624194-.45400486l-.1216129-.36827184s-.2683871-.28211651-1.3280967-.3311068c-.0851291-.0042233-.1534839-.00717961-.2155484-.00971359l-.8076774-.93503883s-.1828387.40459223 0 .67446116c.1824193.27029126.3409354.55240777.085129.69980097-.2558065.14697087-.7066129.08573301-.8039032.1347233-.0977097.04899029-.3652581.49074757-.3652581.49074757s-.39-.01224757-.5363548.08573301c-.1459355.09840292-.4264839.52791263-.4264839.52791263s-.8282258.18371359-.9255161.50299514c-.0977097.31885922-.0733871.82185437-.0733871.82185437s.1098709-.61364563.6822903-.72387379c.5724193-.11022815.3409355.50299515.0608064.71162622-.280129.20863107-.5724193.29436408-.5724193.29436408s-.195.40501456-.3291936.44175728c-.1337742.03674272 0 .2947864 0 .2947864s.6336452-.07390776.5606775.22045632c-.0733871.29436407-.5120323.31885922-.5120323.31885922s.0515806.58915048-.1081935.69980097c-.1597742.11022815-.317871.2821165-.317871.2821165s.0729677.46625243-.0608065.46625243c-.1341935 0-.3170322.07348544-.3170322.07348544s-.0608065.44175728 0 .71162621c.0612258.26986893-.1824194.15921845-.1824194.15921845s-.0125806.40501456.1702581.6258932.4508064.57690292.2193226.8096068c-.2310645.23354854-.1585162.73654365-.0121613.88351455.1463548.1473932.4994516.5029952.2314838.7606165-.2679677.2576214-.6093225.1841359-.6093225.1841359s-.0121613.4540049.670129.2331263c0 0 .1706774.2576213.4508065.2698689.280129.0122476.6458064.1963835.5237741.4540048 0 0 .2801291.3682719.2440646.7851117-.0364839.4172621.4747096 1.6318835-.5728387 3.0796311-1.0479678 1.4477475-3.0944194 3.0057233-4.069 4.122364-.9745807 1.1166408-1.6933549 2.7485243-1.8942259 4.7909127 0 .2255242-1.1892903.5405825-2.1554838 1.2691019.0004193-.0008447.0008387-.0008447.0008387-.0008447s-.4587742-.0350534-.4587742-.2926747c0-.2576214 0-.5274903.1702581-.6136457.1710967-.085733-.0603871-.5764805.2197419-.7851116s.6458064-.085733.7187742-.2453738c.0733871-.1592184-.1341936-.7973592.0972903-1.3248495.2314839-.5279126.585-1.650466 1.8275484-2.9571553 1.2425484-1.306267 1.9189677-1.9874855 1.9189677-1.9874855s-.2381935.0185825-.2381935-.4785c0-.4966602 1.7545806-2.0609709 1.846-4.6008641.091-2.5394708-.9137742-3.44156792-2.4850968-3.44156792-1.5717419 0-2.1567419 1.26994662-2.1567419 2.39292232 0 1.1221311.4570968 1.692699.4570968 1.692699s-.2922904.092068-.6944517-.2390388c0 0-.1463548.2757816.0184517.4966602.164387.2208786.6026129.3496893.5845806.7914466-.0184516.4417573-.3656774.4603398-.5480968.4235971-.1828387-.0371651-.2922903-.2825388-.2922903-.2825388s.005871.208631-.2075806.2394611c-.2126129.0304078-1.5646129 1.005568-7.6645484.9202573v-.0004223c-.0008387.0004223-.0012581 0-.0020968.0004223-.0008387-.0004223-.0012581 0-.0020968-.0004223v.0004223c-6.0999355.0853107-7.4515161-.8898495-7.6649677-.9202573-.2130323-.0308301-.206742-.2394611-.206742-.2394611s-.1098709.2453737-.2922903.2825388c-.1828387.0367427-.5300645.0181602-.5485161-.4235971-.0180323-.4417573.4201935-.570568.5845806-.7914466.1648065-.2208786.0184516-.4966602.0184516-.4966602-.4021612.3311068-.6944516.2390388-.6944516.2390388s.4570968-.5705679.4570968-1.692699c0-1.1229757-.585-2.39292232-2.1567419-2.39292232-1.5713226 0-2.5765162.90209712-2.4846774 3.44156792.091 2.5398932 1.8451612 4.1042039 1.8451612 4.6008641 0 .4970825-.2373548.4785-.2373548.4785s.676.6812185 1.9189677 1.9874855c1.2425484 1.3066893 1.5956452 2.4292427 1.8271291 2.9571553.2314839.5274903.0243226 1.1656311.0977097 1.3248495.0725483.1596408.4386451.0367427.7187742.2453738.2797096.2086311.0486451.6993786.2189032.7851116.1706774.0861554.1706774.3560243.1706774.6136457 0 .2576213-.4587742.2926747-.4587742.2926747s.0004194 0 .0008387.0008447c-.9657742-.7285194-2.1550645-1.0435777-2.1550645-1.2691019-.2012903-2.0423884-.9200645-3.6742719-1.8946452-4.7909127-.9745806-1.1166407-3.0210322-2.6746165-4.069-4.122364-1.0475484-1.4477476-.5359354-2.662369-.5724193-3.0796311-.0364839-.4168398.2436451-.7851117.2436451-.7851117-.1216129-.2576213.2436452-.4417572.5237742-.4540048.2805484-.0122476.4508065-.2698689.4508065-.2698689.6822903.2208786.670129-.2331263.670129-.2331263s-.3413548.0734855-.6089032-.1841359c-.2683871-.2576213.085129-.6132233.2310645-.7606165.1463548-.1469709.2193226-.64996601-.0121613-.88351455-.2314839-.23270388.0364839-.58872816.2193226-.8096068s.1706774-.6258932.1706774-.6258932-.2436451.11065048-.1828387-.15921845c.0612258-.26986893 0-.71162621 0-.71162621s-.1824193-.07348544-.3170322-.07348544c-.1337742 0-.0603871-.46625243-.0603871-.46625243s-.1585162-.17188835-.3182904-.2821165c-.1597742-.11065049-.1081935-.69980097-.1081935-.69980097s-.4386452-.02449515-.5116129-.31885922c-.0729678-.29436408.5598387-.22045632.5598387-.22045632s.1346129-.25804368 0-.2947864c-.1337742-.03674272-.3287742-.44175728-.3287742-.44175728s-.2922903-.08573301-.5724194-.29436408c-.280129-.20863107-.5116129-.82185437.0612258-.71162622.5724194.11022816.681871.72387379.681871.72387379s.0243226-.50299515-.0729677-.82185437c-.0977097-.31928155-.9259355-.50299514-.9259355-.50299514s-.280129-.42950971-.4264839-.52791263c-.1463548-.09798058-.5359355-.08573301-.5359355-.08573301s-.2679677-.44175728-.365258-.49074757c-.0977097-.04899029-.5485162.01224757-.8043226-.1347233-.2558065-.1473932-.0972903-.42950971.0855484-.69980097.1824193-.26986893 0-.67446116 0-.67446116l-.8080968.93503883c-.0616452.00253398-.1304194.00549029-.2155484.00971359-1.0597097.04899029-1.3280968.3311068-1.3280968.3311068l-.1216129.36827184s-.7309354.45400486-.9624193.45400486c-.2310645 0-.3044516.1347233-.3656774.31885922-.0603871.18371359-.3774194.46625243-.3774194.46625243-1.7298387.64996602-2.8142903 1.72986408-2.8994193 1.95074272-.0851291.22087864-.0612259.58872815 0 .72429611.0608064.13599029.4260645.47807767.4260645.47807767s.195-.3437767.378258-.44175728c.1824194-.09840291.4990323 0 .3652581.34419903-.1337742.34462136-.7435161.24452913-.7435161.24452913s.4512258.42950971.7313548.50299514c.280129.07390777.4747097-.29394175.4747097-.29394175s.1220322-.17188834 1.17-.39276699c1.0475484-.22087864 1.7273226.23650486 1.8028064.39276699.2436452.50257282-1.8518709 1.97481554-2.8264516 2.34308738-.9741613.36784952-1.0597097.78511165-1.3033548.89576214-.2436452.11022815-1.1326774-.41726214-1.8514516-.72387379s-2.3391613-1.54615048-2.546742-1.66862621c-.2067419-.12289806-.5845806.01224757-.9984838.01224757-.4143226 0-1.0475484 1.54572816-1.1574194 1.87725728-.109871.3311068-.8529677.99374272-1.0844516 1.23911652s-.0364839.5029951.0121613.6993786c.0486452.1959612-.0608065.957-.0729678 1.3738398-.0121612.4172622.2558065.085733.2558065.4540049 0 .3682718-.3530968.8957621.2436452.8835146.5971613-.0122476 1.2916129-1.1778787 1.2916129-1.4599952s-.4633871-.3560243-.4386452-.4907476c.0243226-.1351456.1337742-.5274903-.0121613-.687131-.1463548-.1596408-.2197419-.6258932-.085129-.7238738.1337742-.0984029.2797097-.3437767.2797097-.5764806 0-.23354855 1.145258-1.4971602 1.3276774-1.4971602.183258 0 2.0347097 1.8895049 2.0347097 2.0981359 0 .2086311-.5724194 1.0059903-.9863226 1.3007767-.414742.2943641-.3296129.4045923-.4457742.6744612s.2746774.6258932.1287419.7483689c-.1463548.1228981-.1279032.9016748-.1279032.9016748l.2922903.3501116s-.2922903.6254709.109871.8463495c.4017419.2208787.8588387-.3129466 1.0777419-.5338252.219742-.2208786.219742-.5701456.2377742-.7728641.0184516-.2022961-.4017419-.386432-.4046774-.5519854-.0025161-.1659757.3501613-.3682719.1853548-.4231748-.1643871-.0553252-.1459355-.4970825-.1824193-.9388398-.0369033-.4413349.3103226-.386432.4386451-.4599175.1274839-.0739077-.0733871-.2762038 0-.4785.0725484-.2027184.4201936-.0553252.4201936-.0553252s.676 1.3066893.876871 1.4722427c.2012903.1655534.4201935.0553253.4201935.0553253s.7309355 1.9507427.9871613 3.4048252c.2553871 1.4536602 3.1430645 5.2816602 4.3671613 6.183335 1.2245161.902097 2.1563226 1.9874854 2.1928064 2.3739174.0364839.3864321-.566129 1.7851894-.5296451 3.4048253.0364838 1.6196359.7674193 2.871 1.3335484 3.7545145.5669677.8830923.4935806 1.2513641.4386451 1.8400923-.0549355.5887281.1828387.5705679.2377742.6258932.0335484.0333641.1073549.4848349.1564194.9903641l-.661742-.788068c-.8286451-.9080097-1.7789032-.8341019-2.802129-2.2328592-1.0236452-1.3987573-2.1198387-2.8954952-1.9982258-4.9074758.1220323-2.0124029.2197419-2.5031504.9989032-2.9694029 0 0-1.3155161-.5152427-2.8994193 1.4967379-1.5834839 2.0119806-.0486452 5.8399806 2.997129 6.5765243 0 0 .1945806.3678495-.7066129.294364-.9011936-.0734854-1.9982258-.5152427-3.0696774-1.815597-1.0722903-1.3007767-1.1695807-2.5031505-3.0461936-3.6071214-1.8761935-1.1043932-3.2160322-.9325049-3.2160322-.9325049s1.5348387 1.2023738 1.9982258 2.4782331c.4625484 1.2758592.7795806 2.6007087 2.0950967 3.2878398 1.3155162.687131 3.3623871.6136456 3.3623871.6136456s-.0486451.392767-.3170322.4662524c-.2675484.0734855-.8039032.1963835-1.1448387.5891505-.3409355.3923447-1.5348387 2.3308398-3.0696774 2.2083641-1.5352581-.1228981-1.5595807-.9574223-1.5595807-1.2517864s.5116129.0244951.5116129.0244951-.2436451-.3678495-.1216129-.5887281c.1216129-.2208787.7548387-.3188593.6332258-.834102-.1220322-.515665-1.0479677-.785534-1.5591613 0-.5116129.7851117-.5363548 2.2328592.7061936 2.8705777 1.2429677.6381408 2.8994193-.171466 2.8994193-.171466s.3170323.3188592.0733871.5887281c-.2436451.269869-.7066129.9080097-2.3634838.9325049 0 0-.3136775.5853495 2.4850967.1224757 1.6329678-.2698689 2.5341613-1.8645874 2.5341613-1.8645874s.3166129.1963835-.4872903 1.2758593c-.8039032 1.0794757-1.4132258 2.8220097-2.022129 3.7790097-.6093226.957-1.3889033 1.914-2.9971291 1.9874854 0 0 .585.4172621 2.0955162-.3678495 1.5105161-.785534 2.9237419-4.0737961 2.9237419-4.0737961s-.6089032 1.8405145-.39 2.7975145c.2193226.957.5363548 2.1348787 1.0966129 2.1348787s.6579677-.3188593.9016129-.1228981c.2436452.1968058.2922903 1.3252719 1.1448387 1.6441311.8529678.3192815.6093226-.2453738.6093226-.2453738s.6386774.3433544 1.4522258.3433544c.8139677 0 2.5677097-.0734855 3.9322903-1.7661845.5040645-.6250485.9079033-1.302466 1.339-1.9068204.0008387-.0004223.3916774-.209898 1.1221936-.209898.7309355 0 1.0232258.4785.9498387.8467718-.0729678.3678495-.2004516.7361214-.8039032.5152427-.6026129-.2208786-.3837097.7361214.4201935.7547039.8043226.0181602 1.0056129-.8357913.8772903-1.5039175-.1279032-.6681262-.8978387-1.0925679-1.9059677-.8336796-.1824194.0468787-.332129.1000922-.4566774.1562621.6869032-.8991407 1.4849355-1.5740242 2.8683871-1.5486844 1.3398387.0244951 2.6637419 1.6872087 1.827129 3.5826262-.9745806 2.2083641-2.8750968 2.3063447-4.8972258 3.1163738-2.0225484.8096068-4.1180645 1.6686262-3.874 4.4657184 0 0 .1459355-2.0364757 1.656871-2.8465048 1.5105161-.8096068 2.7287419-1.1288884 3.7523871-1.3742622 1.0228064-.2449514 1.0961935-.4658301 1.0961935-.4658301s.1216129.4658301-.4386452.7606165c-.560258.2943641-1.5595806.3923447-1.3398387 3.9259806 0 0 .2679678-2.4047475.9745807-2.5766359.7066129-.171466 1.7541613-.0734854 2.5823871-.9325048.8286451-.8585971 1.4861935-1.4473253 1.7545806-3.828 0 0 .1216129-.3678496.5116129.1233203.3895807.4903253 1.3889032.8585971 3.313742 1.0300631 1.9248387.1718884 3.2894193.9574224 3.1183225 2.5276457-.170258 1.5706456-1.054258 1.8079951-1.827129 1.4722427-1.370871-.5950631-.215129-.259733.109871-.5764806.4059355-.3961456.280129-1.8527621-1.3037742-1.3375194s-.6940323 2.3870097.0243226 2.8279223c.748129.4599175 3.0378064.8864709 3.543129-2.350267.5053226 3.2367379 2.7945806 2.8101845 3.543129 2.350267.7183549-.4409126 1.6078065-2.3126796.0243226-2.8279223s-1.7092903.9413738-1.3033548 1.3375194c.3245806.3167476 1.4803225-.0185825.1094516.5764806-.7724516.3357524-1.656871.0984029-1.8271291-1.4722427-.1706774-1.5702233 1.1939033-2.3557573 3.1183226-2.5276457 1.9248387-.171466 2.9241613-.5397378 3.3141613-1.0300631.3895807-.4911699.5116129-.1233203.5116129-.1233203.2679678 2.3806747.9259355 2.9694029 1.7541613 3.828.8286452.8590194 1.8761936.7610388 2.5823871.9325048.7070323.1718884.975 2.5766359.975 2.5766359.2193226-3.5336359-.78-3.6316165-1.3402581-3.9259806-.560258-.2947864-.4386451-.7606165-.4386451-.7606165s.0729677.2208787 1.0966129.4658301c1.0232258.2453738 2.2414516.5646554 3.7523871 1.3742622 1.5100968.8100291 1.6564516 2.8465048 1.6564516 2.8465048.2436452-2.7970922-1.8514516-3.6561116-3.8735806-4.4657184-2.0229678-.8100291-3.9230646-.9080097-4.8976452-3.1163738-.8366129-1.8954175.4872903-3.5581311 1.827129-3.5826262 1.3834516-.0253398 2.1819032.6495437 2.8683871 1.5486844-.1245484-.0561699-.274258-.1093834-.4566774-.1562621-1.008129-.2588883-1.7780645.1655534-1.9059677.8336796-.1279033.6681262.0729677 1.5220777.8768709 1.5039175.8043226-.0185825 1.0236452-.9755825.4206129-.7547039-.6030322.2208787-.7309355-.1473932-.8043226-.5152427-.0729677-.3682718.219742-.8467718.9506775-.8467718.7300967 0 1.1213548.2094757 1.1221935.209898.4306774.6043544.8349355 1.2817719 1.3385807 1.9068204 1.3645806 1.692699 3.1187419 1.7661845 3.9322903 1.7661845s1.4522258-.3433544 1.4522258-.3433544-.2432258.5646553.6093226.2453738c.8525484-.3188592.9011935-1.4473253 1.1448387-1.6441311.2440645-.1959612.3413548.1228981.9020322.1228981.5602581 0 .876871-1.1778787 1.0961936-2.1348787s-.39-2.7975145-.39-2.7975145 1.4136451 3.2882621 2.9237419 4.0737961c1.5109355.7851116 2.0955162.3678495 2.0955162.3678495-1.6082259-.0734854-2.3878065-1.0304854-2.9967097-1.9874854-.6089033-.957-1.2186452-2.699534-2.0225484-3.7790097-.8039032-1.0794758-.4872903-1.2758593-.4872903-1.2758593s.9016129 1.5947185 2.5341613 1.8645874c2.7983548.4628738 2.4850967-.1224757 2.4850967-.1224757-1.6564516-.0244952-2.1198387-.6626359-2.3634838-.9325049-.2436452-.2698689.0733871-.5887281.0733871-.5887281s1.6564516.8096068 2.8994193.171466c1.2425484-.6377185 1.2178065-2.085466.7066129-2.8705777-.5120322-.785534-1.4375484-.515665-1.5595806 0-.1216129.5152427.5120322.6132233.6336451.834102.1220323.2208786-.1216129.5887281-.1216129.5887281s.5111936-.3188592.5111936-.0244951-.0239033 1.1288883-1.5591613 1.2517864c-1.5348387.1224757-2.728742-1.8160194-3.0700968-2.2083641-.3409355-.392767-.876871-.515665-1.1448387-.5891505-.2683871-.0734854-.3170323-.4662524-.3170323-.4662524s2.046871.0734854 3.3628065-.6136456c1.3150968-.6871311 1.632129-2.0119806 2.0950968-3.2878398.4629677-1.2758593 1.9978064-2.4782331 1.9978064-2.4782331s-1.340258-.1718883-3.2164516.9325049c-1.8757742 1.1039709-1.9734839 2.3063447-3.0453548 3.6071214-1.0722904 1.3003543-2.1684839 1.7421116-3.0700968 1.815597-.9011936.0734855-.7066129-.294364-.7066129-.294364 3.0457742-.7365437 4.5810322-4.5645437 2.9967097-6.5765243-1.5834839-2.0119806-2.899-1.4967379-2.899-1.4967379.7795806.4662525.8768709.957.9989032 2.9694029.1216129 2.0119806-.9745807 3.5087185-1.9982258 4.9074758-1.0232258 1.3987573-1.9734839 1.3248495-2.8017097 2.2328592l-.6617419.788068c.0486451-.5055292.1228709-.957.1564193-.9903641.0545162-.0553253.291871-.0371651.2373549-.6258932-.0549355-.5887282-.1283226-.957.4386451-1.8400923.5665484-.8835145 1.2974839-2.1348786 1.3339678-3.7545145.0364838-1.6196359-.5665484-3.0183932-.5300645-3.4048253.0364838-.386432.9687096-1.4718204 2.1932258-2.3739174 1.2236774-.9016748 4.1113548-4.7296748 4.3671613-6.183335.2558064-1.4540825.9867419-3.4048252.9867419-3.4048252s.2193226.1102281.4201935-.0553253c.2012904-.1655534.8772904-1.4722427.8772904-1.4722427s.3472258-.1473932.4201935.0553252c.0733871.2022962-.1279032.4045923 0 .4785.1279032.0734855.475129.0185826.4386452.4599175-.0364839.4417573-.0180323.8835146-.1828387.9388398-.1643871.0549029.1878709.2571991.1857742.4231748-.0029355.1655534-.4231291.3496893-.4046775.5519854.0180323.2027185.0180323.5519855.2373549.7728641s.676.7547039 1.0777419.5338252c.4021613-.2208786.109871-.8463495.109871-.8463495l.2922903-.3501116s.0184516-.7787767-.1274839-.9016748c-.1463548-.1224757.2449033-.4785.1283226-.7483689-.1165806-.2698689-.0310323-.3800971-.4453548-.6744612-.4139033-.2947864-.986742-1.0921456-.986742-1.3007767 0-.208631 1.8514516-2.0981359 2.0347097-2.0981359.1824194 0 1.3276774 1.26361165 1.3276774 1.4971602 0 .2327039.1463549.4780777.2801291.5764806.1337742.0979806.0608064.564233-.0851291.7238738-.1463548.1596407-.0364838.5519854-.0125806.687131.0247419.1347233-.4382258.2086311-.4382258.4907476s.6944516 1.4477476 1.2916129 1.4599952c.5963226.0122475.2436451-.5152428.2436451-.8835146 0-.3682719.2675484-.0367427.2553871-.4540049-.0117419-.4168398-.1216129-1.1778786-.0729677-1.3738398"/><path d="m47.7802419 23.8543442c.1484516.0717961.3849678.0827767.4835162.0827767.2969032 0 .7753871-.1604855.7753871-.7859563 0-.3319515-.1102904-.8134078-.5334194-1.1069272-.1866129-.1275437-.3241613-.1440146-.4558387-.1604855-.0717097-.0109805-.3463871-.0109805-.429-.0109805-.0222258 0-.0327097.0109805-.0327097.038432v.3154806c0 .426131 0 1.1128398.0054516 1.1960388.0163549.2711359.0163549.3484223.1866129.4316214"/><path d="m47.6262548 21.7012631c.0331291.0054903.1316775.0219612.3354839.0219612.3073871 0 .3849678-.0109806.499871-.1440146.1157419-.133034.1983548-.3319514.1983548-.5587427 0-.4599175-.2038064-.9523544-.7426774-.9523544-.0599677 0-.1757097.0054903-.2637742.0274515-.0490645.0114029-.0654194.0278738-.0654194.0612378v1.4832233c0 .0388544.0109033.049835.0381613.0612379"/><path d="m2.44160968 66.6814879c0 1.1339563 0 2.9596893.01467742 3.1805679.04403225.7217622.04403225.9278592.49735484 1.1483156.3946129.1917378 1.0232258.2208786 1.28658064.2208786.78964516 0 2.06154839-.4265534 2.06154839-2.090534 0-.8839369-.29229032-2.1648641-1.41825807-2.9449077-.49693548-.3391311-.8626129-.3830534-1.2136129-.4273981-.18996774-.0291408-.92132258-.0291408-1.14022581-.0291408-.05870967 0-.08806451.0291408-.08806451.1030486zm0-1.5609321c0 .1030486.02935484.1326117.10232258.1617525.08806451.0152038.351.0591262.89196774.0591262.819 0 1.02364516-.0295631 1.3306129-.3830534.30696775-.353068.52670968-.8830923.52670968-1.4870243 0-1.2222233-.5413871-2.5327136-1.97390323-2.5327136-.16103225 0-.468.0147816-.702.0734854-.13167741.0295631-.17570967.0739078-.17570967.1621748zm-1.16958065-.3239272c0-2.2970534 0-2.7092475-.02893548-3.1805679-.0297742-.5008835-.14635484-.7361214-.6286129-.8391699-.11741936-.0295631-.36567742-.0443447-.4243871-.0443447-.13167742 0-.18996774-.0295631-.18996774-.088267 0-.088267.07338709-.1178301.23358064-.1178301.6583871 0 1.57929032.0439224 1.65267742.0439224.351 0 .92090323-.0439224 1.59354839-.0439224 2.39787097 0 2.92416129 1.4726651 2.92416129 2.2087864 0 1.2074418-.68690323 1.9287816-1.37422581 2.6505437 1.08193549.3382864 2.52954839 1.3839758 2.52954839 3.1070826 0 1.5752912-1.22870968 3.2097087-3.72848387 3.2097087-.16103226 0-.62903226-.0291408-1.05258065-.0439223-.42438709-.0295631-.83367742-.0443447-.89196774-.0443447-.468 0-.92132258.0443447-1.43293548.0443447-.16103226 0-.234-.0295631-.234-.1030486 0-.0443446.02935484-.1030485.21932258-.1030485.117 0 .21932258-.0147816.351-.0443447.29229032-.0587039.35058064-.3978349.40929032-.8243883.07296774-.6187136.07296774-1.7818107.07296774-3.1957719z"/><path d="m16.1541774 66.0776825c0 .0734855.0293549.1326117.1023226.176534.2197419.1326117.8919677.2360825 1.5352581.2360825.351 0 .7607096-.0443446 1.0970322-.2800048.5116129-.3534903.8915484-1.1487379.8915484-2.2679126 0-1.8405146-.9649355-2.9449078-2.5295484-2.9449078-.4386451 0-.833258.0443446-.9796129.0886893-.0729677.0291408-.117.088267-.117.176534zm-1.1695806-1.2809272c0-2.2970534 0-2.7096699-.0289355-3.1805679-.0297742-.5008835-.1463548-.7365437-.6286129-.8395923-.1174194-.0295631-.3656774-.0439223-.4973549-.0439223-.0587096 0-.117-.0295631-.117-.0886893 0-.088267.0733871-.1178301.2335807-.1178301.6583871 0 1.5792903.0443447 1.6526774.0443447.1606129 0 1.2719032-.0443447 1.7252258-.0443447.9209032 0 1.9005161.0886893 2.6754839.6482767.3656774.264801 1.0089677.9865631 1.0089677 2.002267 0 1.0896116-.4533225 2.1796456-1.769258 3.4018689 1.1989355 1.5461505 2.1932258 2.8566408 3.0411613 3.7692961.7896451.8395923 1.418258 1.0013447 1.7839354 1.0604709.2776129.0443447.4826775.0443447.5703226.0443447.0729678 0 .1316774.0439223.1316774.088267 0 .088267-.0880645.1174077-.351.1174077h-1.0379032c-.8194193 0-1.1846774-.0734854-1.5646129-.2795825-.6290322-.3387087-1.1406451-1.0600485-1.9739032-2.1644417-.6143549-.8100292-1.3012581-1.7965923-1.5939678-2.1792233-.0582903-.0591263-.1023225-.0886894-.1899677-.0886894l-1.7986129-.0295631c-.0729677 0-.1023226.0443447-.1023226.1182525v.3530679c0 1.4135389 0 2.5770583.0733871 3.1953495.0436129.4269758.1312581.7509029.5699032.8100292.2046452.0295631.5267097.0591262.6583871.0591262.0876452 0 .117.0439223.117.088267 0 .0734854-.0733871.1174077-.2344193.1174077-.8039032 0-1.7252258-.0439223-1.7981936-.0439223-.0146774 0-.9355806.0439223-1.3742258.0439223-.1610322 0-.234-.0291407-.234-.1174077 0-.0443447.0293549-.088267.1165807-.088267.1316774 0 .3073871-.0295631.4386451-.0591262.2927097-.0591263.3656775-.3830534.4243871-.8100292.0729678-.6182912.0729678-1.7818106.0729678-3.1953495z"/><path d="m30.0129323 64.7966709c0-2.2970534 0-2.7096699-.0289355-3.180568-.0297742-.5008835-.1757097-.7513252-.4973549-.8248107-.1610322-.0439223-.351-.0587039-.4533225-.0587039-.0587097 0-.117-.0295631-.117-.0886893 0-.088267.0733871-.1174077.234-.1174077.4826774 0 1.4035806.0439223 1.4769677.0439223.0729677 0 .9942903-.0439223 1.4329355-.0439223.1606129 0 .2335806.0291407.2335806.1174077 0 .0591262-.0582903.0886893-.117.0886893-.1023226 0-.1899677.0147816-.365258.0439224-.3946129.0739077-.5120323.3243495-.5409678.8395922-.0293548.4708981-.0293548.8835146-.0293548 3.180568v2.5914174c0 1.4135389 0 2.5770583.0733871 3.1957719.0436129.4265534.131258.7504806.5699032.8096068.2046452.0295631.5120323.0591262.5996774.0591262.1312581 0 .1752903.0439223.1752903.088267 0 .0734854-.0582903.1178301-.2193225.1178301-.8043226 0-1.7399033-.0443447-1.812871-.0443447-.0733871 0-.9942903.0443447-1.4329355.0443447-.1610322 0-.234-.0295631-.234-.1178301 0-.0443447.0293549-.088267.1606129-.088267.0876452 0 .2486774-.0147815.3803549-.0443447.2927096-.0587038.3803548-.3978349.4386451-.8243883.0729678-.6187136.0729678-1.782233.0729678-3.1957719z"/><path d="m39.5151774 71.4671214c-.2046451-.1030486-.2189032-.1621748-.2189032-.5595874 0-.7361214.057871-1.3252719.0725484-1.5609321.0150968-.1617524.0440322-.2356602.1174193-.2356602.0876452 0 .1023226.0443447.1023226.1621748 0 .1326117 0 .3387087.0436129.5448058.2193226 1.0896117 1.1846774 1.5018059 2.163871 1.5018059 1.4035806 0 2.0909032-1.0157039 2.0909032-1.9583447 0-1.0161262-.4239677-1.6048544-1.6811935-2.6505437l-.6579678-.5448058c-1.5503548-1.2809272-1.9013548-2.1940049-1.9013548-3.1953495 0-1.5757136 1.1704193-2.6505437 3.0269032-2.6505437.5703226 0 .9942903.0591262 1.3595484.1473932.2784516.0587039.3950323.0734854.5120323.0734854s.1463548.0295631.1463548.1030486c0 .0734854-.0587097.5595873-.0587097 1.560932 0 .2356602-.0289355.3387087-.1023226.3387087-.0876451 0-.1023225-.0734854-.1165806-.1917378-.0146774-.1761117-.1023226-.5739466-.1899678-.7361214-.0880645-.1617524-.4830967-.7800437-1.8279677-.7800437-1.0089677 0-1.7986129.6330728-1.7986129 1.7079029 0 .8391699.3799355 1.3696165 1.7839355 2.4740097l.4097097.3239272c1.7252258 1.3691942 2.1340967 2.2822719 2.1340967 3.4601505 0 .6039321-.2335806 1.7231068-1.242129 2.4444466-.6290323.4417573-1.4186774.6182913-2.2083226.6182913-.6873226 0-1.3595484-.1030486-1.9592258-.3974126"/><path d="m53.7105903 66.6814879c0 1.1339563 0 2.9596893.0146774 3.1805679.0440323.7217622.0440323.9278592.4973549 1.1483156.3946129.1917378 1.0232258.2208786 1.2865806.2208786.7896452 0 2.0615484-.4265534 2.0615484-2.090534 0-.8839369-.2922903-2.1648641-1.4182581-2.9449077-.4969354-.3391311-.8626129-.3830534-1.2136129-.4273981-.1899677-.0291408-.9213225-.0291408-1.1402258-.0291408-.0587096 0-.0880645.0291408-.0880645.1030486zm0-1.5609321c0 .1030486.0293549.1326117.1023226.1617525.0880645.0152038.351.0591262.8919677.0591262.819 0 1.0236452-.0295631 1.3306129-.3830534.3069678-.353068.5267097-.8830923.5267097-1.4870243 0-1.2222233-.5409677-2.5327136-1.9739032-2.5327136-.1610323 0-.468.0147816-.702.0734854-.1316774.0295631-.1757097.0739078-.1757097.1621748zm-1.1695806-.3239272c0-2.2970534 0-2.7092475-.0289355-3.1805679-.0297742-.5008835-.1463548-.7361214-.6286129-.8391699-.1174194-.0295631-.3656774-.0443447-.4243871-.0443447-.1316774 0-.1899677-.0295631-.1899677-.088267 0-.088267.0729677-.1178301.2335806-.1178301.6583871 0 1.5792903.0439224 1.6526774.0439224.351 0 .9209032-.0439224 1.5935484-.0439224 2.397871 0 2.9241613 1.4726651 2.9241613 2.2087864 0 1.2074418-.6869032 1.9287816-1.3742258 2.6505437 1.0819355.3382864 2.529129 1.3839758 2.529129 3.1070826 0 1.5752912-1.2282903 3.2097087-3.7280645 3.2097087-.1610323 0-.6290323-.0291408-1.0525806-.0439223-.4243871-.0295631-.8340968-.0443447-.8919678-.0443447-.468 0-.9213226.0443447-1.4329355.0443447-.1610322 0-.234-.0295631-.234-.1030486 0-.0443446.0293549-.1030485.2193226-.1030485.117 0 .2193226-.0147816.351-.0443447.2922903-.0587039.3505807-.3978349.4092903-.8243883.0729678-.6187136.0729678-1.7818107.0729678-3.1957719z"/><path d="m70.1141581 66.7845786c.0729677 0 .0729677-.0439223.0582903-.1030485l-1.3889032-3.9758155c-.0733871-.2208787-.1459355-.2208787-.2193226 0l-1.287 3.9758155c-.0289355.0734854 0 .1030485.0440322.1030485zm-2.9539355.5300243c-.0729678 0-.1165807.0443447-.1463549.1178301l-.8768709 2.6066214c-.1316774.3678495-.2050645.7213398-.2050645.9865631 0 .2943641.2780322.4269757.5267096.4269757h.1316775c.1459354 0 .1899677.0291408.1899677.088267 0 .088267-.1316774.1178301-.2629355.1178301-.351 0-.936-.0443447-1.0966129-.0443447-.1610322 0-.9653548.0443447-1.6526774.0443447-.1899678 0-.2776129-.0295631-.2776129-.1178301 0-.0591262.0733871-.088267.2046451-.088267.1023226 0 .234-.0147815.351-.0295631.6726452-.0886893.9649355-.6478544 1.2282904-1.3839757l3.3187742-9.1447136c.1757096-.4856796.2344193-.574369.3220645-.574369.0876451 0 .1459355.0739078.3212258.5304466.2197419.5591651 2.514871 6.6407185 3.4068387 8.879068.5262903 1.3104903.9506774 1.5461505 1.2576452 1.6344175.2193225.0739078.4529032.0886893.5703225.0886893.0876452 0 .1606129.0143592.1606129.088267 0 .088267-.1316774.1178301-.2922903.1178301-.2193226 0-1.2865806 0-2.2955484-.0295631-.2780322-.0147816-.4386451-.0147816-.4386451-.1030486 0-.0591262.0436129-.0882669.1023226-.1030485.0876451-.0295631.1757096-.1621748.0876451-.3974126l-1.3595484-3.6227476c-.0293548-.0587039-.0587097-.088267-.1316774-.088267z"/><path d="m80.0979903 67.3145607c0-5.3154466.0289355-3.4014466.0146774-6.2580874 0-.5743689.0440323-.7365437.1606129-.7365437.117 0 .3656775.3243495.5120323.4713204.2193226.2504417 2.3974516 2.6214029 4.6498065 5.051068 1.4471935 1.5605097 3.0411612 3.3571019 3.5087419 3.8432038l-.1606129-7.480733c-.0146774-.957-.117-1.2809271-.5703226-1.3987572-.2629355-.0587039-.4973548-.0734855-.6286129-.0734855-.1610323 0-.2050645-.0439223-.2050645-.1030485 0-.088267.1174193-.1030486.2927097-.1030486.6579677 0 1.3599677.0439224 1.5205806.0439224s.6432903-.0439224 1.2425484-.0439224c.1610323 0 .2633548.0147816.2633548.1030486 0 .0591262-.0582903.088267-.1606129.1030485-.1174193.0147816-.2050645.0295631-.3803548.0587039-.4092903.0886893-.5116129.309568-.5116129 1.3252718l-.0293548 8.5994855c0 .9717815-.0293549 1.0456893-.1316775 1.0456893-.117 0-.2922903-.1621748-1.067258-.9426408-.1610323-.1469708-2.2661936-2.3118349-3.8161291-3.9901747-1.6962903-1.8409369-3.3485484-3.696233-3.816129-4.2262573l.1899677 7.0533349c.0293549 1.2074418.1757097 1.5904952.5703226 1.707903.2776129.0739077.5992581.0886893.7309355.0886893.0729678 0 .117.0291407.117.088267 0 .088267-.0876452.1178301-.2629355.1178301-.8336774 0-1.4186774-.0443447-1.5503548-.0443447-.1312581 0-.7456129.0443447-1.4031613.0443447-.1463548 0-.2344194-.0147816-.2344194-.1178301 0-.0591263.0444517-.088267.117-.088267.1174194 0 .3803549-.0147816.5996775-.0886893.365258-.1030486.4386451-.5300243.4386451-1.8700777z"/><path d="m98.4304226 64.7966709c0-2.2970534 0-2.7096699-.0289355-3.180568-.0297742-.5008835-.1463548-.7361213-.6286129-.8395922-.1023226-.0291408-.293129-.0291408-.4243871-.0439224-.1023226-.0147815-.1899677-.0295631-.1899677-.0886893 0-.088267.0733871-.1174077.2335806-.1174077.3363226 0 .7313548 0 1.6526774.0439223.1023226 0 3.0118066 0 3.3481286-.0147816.321646-.0143592.585-.0439223.672646-.088267.087645-.0439223.117-.0587038.161032-.0587038.043613 0 .05829.0587038.05829.1326116 0 .1026262-.088064.2795825-.117.6917767-.014677.2208787-.028935.5008835-.058709.8835146-.014678.1473932-.058291.2504417-.116581.2504417-.088065 0-.117-.0734854-.117-.1913155 0-.1917379-.029355-.3682719-.073387-.486102-.102323-.3387087-.409291-.4856796-1.052581-.5448058-.248677-.0295631-1.842645-.0439223-2.0032579-.0439223-.0582904 0-.0876452.0439223-.0876452.1469709v4.0640825c0 .1030485.0146774.1473932.0876452.1473932.1903871 0 1.9885809 0 2.3249029-.0295631.394613-.0291408.584581-.0734854.730936-.2504418.073387-.0882669.117-.1469708.175709-.1469708.043613 0 .072968.0291407.072968.1178301 0 .088267-.072968.3387087-.117.8243883-.043613.4565388-.043613.7952476-.05829 1.0013447-.015097.1473932-.044032.2208786-.102742.2208786-.087645 0-.102323-.1178301-.102323-.2356602 0-.1321893-.014677-.2795825-.05829-.4121942-.05871-.2208786-.234-.4269757-.76029-.4856796-.394613-.0443446-1.842226-.0739077-2.0909035-.0739077-.0729678 0-.1023226.0443446-.1023226.1030485v1.2957087c0 .5008835-.0142581 2.2087865 0 2.5183544.0293548.6035097.117.9274369.4822581 1.0748301.248677.1030486.64329.1326117 1.214032.1326117.438645 0 .920903-.0147816 1.315516-.1326117.46842-.1473932.628613-.4565388.746033-1.090034.028935-.1617524.05829-.2204563.131258-.2204563.087645 0 .087645.1178301.087645.2204563 0 .1182525-.116581 1.1191748-.189968 1.4287428-.102322.382631-.218903.382631-.789645.382631-1.081936 0-1.564194-.0291408-2.134516-.0439223-.5845808-.0147816-1.2576454-.0443447-1.8275486-.0443447-.351 0-.702.0591262-1.0819355.0443447-.1610322 0-.234-.0295631-.234-.1178301 0-.0443447.0729678-.0739078.1606129-.088267.1463549-.0147815.2344194-.0147815.3363226-.0443447.3069678-.0739077.4969355-.2795825.5267097-1.384398.0142581-.5739466.0289355-1.3248495.0289355-2.6357622z"/><path d="m1.66798387 82.941999c0 .047301.01845161.0848884.06541936.1131845.14006451.0848883.57074193.1507718.98212903.1507718.22435484 0 .48645161-.0282961.70158064-.1790679.32751613-.2259466.57074194-.7348544.57074194-1.4507039 0-1.1778786-.61729032-1.8844369-1.61829032-1.8844369-.28054839 0-.53341936.0282961-.62693549.0565922-.04696774.0185826-.07464516.0565923-.07464516.1131845zm-.74854839-.8193204c0-1.470131 0-1.733665-.01887096-2.0352087-.01845162-.3205485-.09351613-.4713204-.40216129-.5372039-.07506452-.0185825-.234-.0282961-.31787097-.0282961-.03774194 0-.07506452-.0185825-.07506452-.0561699 0-.0565922.04696774-.0755971.14970968-.0755971.42103226 0 1.01022581.0282961 1.05719355.0282961.10274193 0 .81396774-.0282961 1.10374193-.0282961.58919355 0 1.21654839.0565922 1.71222581.4147282.234.1693543.6453871.6309611.6453871 1.2809272 0 .6972669-.2897742 1.3945339-1.13183871 2.1766893.767.9890971 1.40316129 1.8274223 1.94580645 2.4119272.50532258.5367815.90748387.6406747 1.14106451.6782621.17780646.0282961.30906452.0282961.36483871.0282961.04696775 0 .08470968.0282961.08470968.0565922 0 .0565923-.05619355.0751748-.22477419.0751748h-.66425807c-.52377419 0-.75777419-.0468786-1.001-.179068-.40216129-.2166553-.72967742-.6782621-1.26309677-1.3848203-.39251613-.5181991-.83241936-1.1495826-1.01987097-1.394534-.03690322-.0375874-.06541935-.0565923-.1216129-.0565923l-1.15029032-.0185825c-.04696775 0-.06541936.0282961-.06541936.0751748v.2263689c0 .9042087 0 1.6487767.04654839 2.0445.02809677.2732476.08429032.4801893.36483871.518199.13125806.0185826.33674193.0375874.42103226.0375874.05619354 0 .07506451.0282961.07506451.0565922 0 .0468787-.04696774.0751748-.14970968.0751748-.51454838 0-1.10416129-.0282961-1.15070967-.0282961-.00964516 0-.59883871.0282961-.8793871.0282961-.10274193 0-.15012903-.0185825-.15012903-.0751748 0-.0282961.01887097-.0565922.07506451-.0565922.08429033 0 .19667742-.0190048.28096775-.0375874.1866129-.0380097.234-.2449514.27132258-.518199.04654838-.3957233.04654838-1.1402913.04654838-2.0445z"/><path d="m13.7744226 83.3944413c.0469677 0 .0469677-.0282962.0377419-.0658835l-.8886129-2.5441165c-.0473871-.1410583-.0939355-.1410583-.1404839 0l-.8231935 2.5441165c-.018871.0468786 0 .0658835.0276774.0658835zm-1.8896129.339131c-.0465484 0-.0750645.0282961-.0935162.0751748l-.5610967 1.6677815c-.0847097.2356602-.1312581.4616068-.1312581.6313835 0 .1883593.1778065.2728253.3371613.2728253h.083871c.0939355 0 .1216129.0190048.1216129.0570145 0 .0561699-.0842904.0751748-.1681613.0751748-.2243549 0-.5988387-.0282961-.7015807-.0282961-.1031613 0-.6177096.0282961-1.05761287.0282961-.1216129 0-.17738709-.0190049-.17738709-.0751748 0-.0380097.04654838-.0570145.13083871-.0570145.06541935 0 .14970967-.0092913.22435483-.0185825.43067742-.0565923.61770972-.4147282.78587102-.8856263l2.1240322-5.8509611c.1119678-.310835.1492903-.3670049.2054839-.3670049.0561935 0 .0939355.0468787.2059032.3387088.1400645.3581359 1.6090645 4.2490631 2.1793871 5.6811844.3371613.8387476.6084839.9895194.8047419 1.0456893.1404839.047301.2901936.0565923.3648387.0565923.0561936 0 .1031613.0097136.1031613.0570145 0 .0561699-.0842903.0751748-.1874516.0751748-.1400645 0-.8231935 0-1.4685806-.0190049-.1778065-.0092912-.2809678-.0092912-.2809678-.0658835 0-.0375873.0285162-.0565922.0658387-.0658834.0557742-.0190049.1123871-.1038932.0557742-.2542428l-.8697419-2.3177475c-.018871-.0375874-.0373226-.0565923-.0842903-.0565923z"/><path d="m1.23349032 6.58425291c-.90748387-.81932039-1.13183871-1.89372815-1.13183871-2.78864563 0-.63138349.21470968-1.73366505 1.04796774-2.57199029.56109678-.5655 1.4123871-1.00810194 2.85329033-1.00810194.37406451 0 .89783871.02829612 1.35619355.11276213.3556129.06630583.64538709.09460195.99177419.14148059.06541935.00929126.08387097.04730097.08387097.1038932 0 .07517476-.02767742.18835922-.04654839.52749029-.01887097.31083495-.01887097.82903398-.02809677.97009224-.00922581.14148058-.02809678.19807281-.08429033.19807281-.06541935 0-.07464516-.06588349-.07464516-.19807281 0-.36742719-.14970968-.7534369-.39293548-.96080098-.32751613-.28253883-1.04796774-.53678155-1.87116129-.53678155-1.24422581 0-1.82419355.36742719-2.15170968.6875534-.68270968.65967961-.84164516 1.49800485-.84164516 2.45880582 0 1.79954855 1.37506452 3.44832525 3.37706452 3.44832525.70158064 0 1.25387096-.08446602 1.62751612-.47089806.19667742-.20736408.31829033-.62209223.3463871-.7914466.01845161-.10389321.03732258-.14105826.09351613-.14105826.04654839 0 .06541935.06546117.06541935.14105826 0 .06588349-.11196774.88562621-.20590322 1.20617475-.05619355.17864564-.07464516.19765049-.24322581.27282525-.37406451.15077184-1.08487097.21707767-1.68370967.21707767-1.4031613 0-2.34796775-.34884466-3.08729033-1.01781554" mask="url(#a)" transform="translate(20.129032 79.042879)"/><path d="m31.9352548 82.1225097c0-1.4697087 0-1.733665-.0188709-2.0352087-.0184516-.3201262-.1119678-.4806117-.317871-.5274903-.1027419-.0282961-.2243548-.0375874-.2897742-.0375874-.0377419 0-.0750645-.0190049-.0750645-.0565922 0-.0565923.0465484-.0755971.1497097-.0755971.3086451 0 .8978387.0282961.9448064.0282961.0469678 0 .6361613-.0282961.9167097-.0282961.1031613 0 .1497097.0190048.1497097.0755971 0 .0375873-.0373226.0565922-.0746452.0565922-.0654193 0-.1216129.0092913-.234.0282961-.2524516.0468787-.3275161.2069418-.3459677.5367816-.018871.3015437-.018871.5655-.018871 2.0352087v1.658068c0 .904631 0 1.6487767.0465484 2.0445.0285161.2732475.0847097.4806116.3648387.518199.1312581.0190049.3279355.0375874.384129.0375874.083871 0 .1119678.0282961.1119678.0565922 0 .047301-.0373226.0755971-.1404839.0755971-.514129 0-1.1129677-.0282961-1.1599355-.0282961-.0469677 0-.6361613.0282961-.9167097.0282961-.1027419 0-.1497096-.0190049-.1497096-.0755971 0-.0282961.0184516-.0565922.1031613-.0565922.0557742 0 .1589354-.0092913.2432258-.0282961.1870322-.0375874.2432258-.2542428.2805484-.5274903.0465483-.3957233.0465483-1.139869.0465483-2.0445z"/><path d="m39.0364419 83.7334456c0-3.4010242.018871-2.176267.0092258-4.0041116 0-.3674272.0285162-.4708981.1031613-.4708981.0746452 0 .234.2073641.3275162.3015437.1404838.1600631 1.534 1.6766505 2.9749032 3.2316699.9263548.9983884 1.9458064 2.1475486 2.2452258 2.4588058l-.1027419-4.786267c-.0096452-.6123786-.0750646-.8197427-.3648388-.8949174-.169-.0375874-.3182903-.047301-.4025806-.047301-.1027419 0-.1308387-.0282961-.1308387-.0658835 0-.0565922.0746452-.0658835.1870323-.0658835.4210322 0 .8701612.0282961.9729032.0282961.1027419 0 .4113871-.0282961.7950968-.0282961.1031612 0 .1685806.0092913.1685806.0658835 0 .0375874-.0373226.0565922-.1027419.0658835-.0750646.0097136-.1312581.0190049-.2432258.0380097-.2620968.0561699-.3279355.1976505-.3279355.8476165l-.0184516 5.5021165c0 .6216699-.0184517.6689709-.0842904.6689709-.0746451 0-.1870322-.1034709-.683129-.6026651-.1027419-.0946019-1.4497097-1.4794223-2.4414839-2.5534077-1.0852903-1.1774563-2.1420645-2.3646262-2.4414838-2.7041796l.1216129 4.5130194c.0188709.7724417.1119677 1.0178155.3648387 1.0929903.1778064.0473009.3832903.0565922.4675806.0565922.0469678 0 .0750645.0185825.0750645.0565922 0 .0565923-.0561935.0751748-.1681613.0751748-.5334193 0-.9079032-.0282961-.9921935-.0282961-.083871 0-.4768065.0282961-.8978387.0282961-.0935161 0-.1497097-.0092913-.1497097-.0751748 0-.0380097.0280968-.0565922.0746452-.0565922.0750645 0 .2432258-.0092913.3837096-.0565922.234-.0658835.2805484-.3391311.2805484-1.1964612z"/><path d="m56.7283935 85.7121044c0 .4240194-.0092258.4426019-.1216129.5089077-.5988387.3201262-1.4409032.4235971-1.9835483.4235971-.7108065 0-2.0393226-.0941796-3.0776452-1.0081019-.5707419-.4991942-1.1133871-1.5072961-1.1133871-2.6851748 0-1.5072961.7300968-2.5715679 1.5625161-3.0994806.8420645-.5274902 1.768-.5933737 2.4884516-.5933737.5896129 0 1.2534517.1224757 1.4312581.1600631.1962581.0468786.5241936.0848883.7577742.0941796.0935161.0092912.1123871.0473009.1123871.084466 0 .1321893-.0654194.3957233-.0654194 1.3379417 0 .1507719-.0188709.1980729-.0847096.1980729-.0465484 0-.0557742-.0565923-.0654194-.1414806-.0088064-.131767-.0561935-.3957233-.1962581-.6216699-.2335806-.358136-.9917741-.7631505-2.1986774-.7631505-.5891935 0-1.2907742.0565922-2.0015806.6216699-.5426452.4333107-.9263549 1.2910631-.9263549 2.3933446 0 1.3282282.6642581 2.2894515.9917742 2.6095777.7389033.7255631 1.5901936 1.008102 2.4511291 1.008102.3363225 0 .8231935-.0565923 1.0664193-.1976505.1216129-.0658835.1870323-.1697767.1870323-.3298398v-1.6014758c0-.7635728-.0465484-.8670436-.4210323-.9705145-.0750645-.0190049-.234-.0282961-.3182903-.0282961-.0373226 0-.0742258-.0190049-.0742258-.0565923 0-.0565922.0465484-.0755971.1492903-.0755971.4210323 0 1.0102258.0282962 1.0571936.0282962.0469677 0 .6361613-.0282962.9167096-.0282962.102742 0 .1497097.0190049.1497097.0755971 0 .0375874-.0373226.0565923-.0746451.0565923-.0658388 0-.1216129.0092912-.234.0282961-.2524517.0468786-.3275162.2069417-.3459678.5367815-.018871.3015437-.018871.5840826-.018871.9798059z"/><path d="m1.32155484 6.58425291c-.90748387-.81932039-1.13183871-1.89372815-1.13183871-2.78864563 0-.63138349.21470968-1.73366505 1.04754839-2.57199029.56151613-.5655 1.41280645-1.00810194 2.85370967-1.00810194.37406452 0 .89783871.02829612 1.35619355.11276213.35561291.06630583.6453871.09460195.9917742.14148059.06541935.00929126.08387096.04730097.08387096.1038932 0 .07517476-.02767742.18835922-.04654838.52749029-.01887097.31083495-.01887097.82903398-.02809678.97009224-.0092258.14148058-.02809677.19807281-.08429032.19807281-.06541936 0-.07464516-.06588349-.07464516-.19807281 0-.36742719-.14970968-.7534369-.39293549-.96080098-.32751612-.28253883-1.04796774-.53678155-1.87116129-.53678155-1.2442258 0-1.82419354.36742719-2.15170967.6875534-.68270968.65967961-.84164516 1.49800485-.84164516 2.45880582 0 1.79954855 1.37506451 3.44832525 3.37706451 3.44832525.70158065 0 1.25387097-.08446602 1.62751613-.47089806.19667742-.20736408.31829032-.62209223.3463871-.7914466.01845161-.10389321.03732258-.14105826.09351613-.14105826.04654838 0 .06541935.06546117.06541935.14105826 0 .06588349-.11196774.88562621-.20590322 1.20617475-.05619355.17864564-.07464517.19765049-.24322581.27282525-.37406452.15077184-1.08487097.21707767-1.68370968.21707767-1.40316129 0-2.34796774-.34884466-3.08729032-1.01781554" mask="url(#b)" transform="translate(67.935484 79.042879)"/><path d="m80.6152226 83.7994558c0 1.3848204.0373226 1.9879078.2059032 2.1572622.1497097.1511941.3929355.2170776 1.1226129.2170776.4960968 0 .9074839-.0092912 1.1318387-.2825388.1216129-.1507718.2151291-.386432.2432258-.5655.0096452-.0751748.0280968-.1224757.083871-.1224757.0473871 0 .0566129.0375873.0566129.1414806 0 .1034708-.0654194.6689708-.1404839.9422184-.0654193.216233-.0935161.2542427-.5891935.2542427-.804742 0-1.5998387-.0565922-2.5073226-.0565922-.2901936 0-.5707419.0282961-.9167097.0282961-.1027419 0-.1497097-.0190049-.1497097-.0751748 0-.0282961.0184517-.0570145.0746452-.0570145.0842903 0 .1966774-.0185825.2809677-.0375874.1866129-.0375874.234-.2449515.2713226-.518199.0465484-.3957233.0465484-1.139869.0465484-2.0440777v-1.6584903c0-1.4697087 0-1.733665-.018871-2.0352087-.0184516-.3201262-.0935161-.4708981-.4021612-.5367816-.0750646-.0185825-.234-.0282961-.317871-.0282961-.0377419 0-.0746452-.0185825-.0746452-.0565922 0-.0565923.0465484-.0751748.1492903-.0751748.4210323 0 1.0102259.0278738 1.0571936.0278738s.7296774-.0278738 1.0106452-.0278738c.1027419 0 .1492903.0185825.1492903.0751748 0 .0380097-.0373226.0565922-.0746452.0565922-.0654193 0-.196258.0097136-.3086451.0282961-.2713226.0468787-.3463871.2073641-.3648388.5367816-.0188709.3015437-.0188709.5655-.0188709 2.0352087z"/><path d="m88.8770161 83.4414466c0 1.3565243.2994194 1.9410291.7015807 2.3270388.4583548.4333107.8793871.5181991 1.4123871.5181991.5707419 0 1.1318387-.2732476 1.469-.6782622.430258-.5372039.5426451-1.3379417.5426451-2.308034v-1.1778786c0-1.4701311 0-1.733665-.0188709-2.0352087-.018871-.3201262-.0935162-.4708981-.4021613-.5367816-.0750645-.0190048-.234-.0282961-.3182903-.0282961-.0373226 0-.0750646-.0190049-.0750646-.0565922 0-.0565923.0473871-.0755971.1501291-.0755971.4210322 0 .9351613.0282961.9913548.0282961.0654194 0 .5053226-.0282961.785871-.0282961.1027419 0 .150129.0190048.150129.0755971 0 .0375873-.0377419.0565922-.0750645.0565922-.0654194 0-.1216129.0092913-.234.0282961-.2524516.0561699-.3275161.2069418-.3459678.5367816-.0188709.3015437-.0188709.5650776-.0188709 2.0352087v1.008102c0 1.0173932-.1119678 2.1479708-.8609355 2.8169417-.6730645.6030874-1.3750645.697267-1.9269355.697267-.317871 0-1.2626774-.0375874-1.9269355-.6689709-.4587742-.4426019-.8139677-1.1022815-.8139677-2.4778107v-1.3755291c0-1.4701311 0-1.733665-.0184516-2.0352087-.018871-.3201262-.0939355-.4708981-.4025807-.5367816-.0746451-.0190048-.234-.0282961-.3178709-.0282961-.037742 0-.0750646-.0190049-.0750646-.0565922 0-.0565923.0465484-.0755971.1497097-.0755971.4210323 0 .9917742.0282961 1.0756452.0282961.0842903 0 .6458064-.0282961.9263548-.0282961.102742 0 .1492903.0190048.1492903.0755971 0 .0375873-.0369032.0565922-.0742258.0565922-.0658387 0-.1216129.0092913-.234.0282961-.2524516.0375874-.3275161.2069418-.3463871.5367816-.0184516.3015437-.0184516.5650776-.0184516 2.0352087z"/><path d="m100.412965 83.3284733c0 .7255631 0 1.8937282.009225 2.0347864.028097.4620291.028097.5937961.317871.7352767.252871.1224757.655033.1410583.823194.1410583.505322 0 1.31929-.2732476 1.31929-1.3375195 0-.5655-.187032-1.3852427-.907064-1.8844369-.318291-.2170776-.552291-.2449514-.776646-.2732475-.121612-.0190049-.589612-.0190049-.729677-.0190049-.037742 0-.056193.0190049-.056193.0663058zm0-.9988107c0 .0663058.018451.0848884.065419.1034709.056193.0097136.224355.0380097.570742.0380097.523774 0 .654613-.0190049.85129-.2449515.196678-.2263689.336742-.5655.336742-.9515097 0-.7821553-.346387-1.6204805-1.263097-1.6204805-.102742 0-.299419.0092912-.448709.0468786-.08471.0190049-.112387.0468786-.112387.1038932zm-.7485489-.2069417c0-1.4701311 0-1.7336651-.0188709-2.0352088-.0184517-.3205485-.0935162-.4713204-.4021613-.5372038-.0750645-.0185826-.234-.0282962-.2713226-.0282962-.0842903 0-.1216129-.0185825-.1216129-.0561699 0-.0565922.0469677-.0755971.1497097-.0755971.4210322 0 1.0102259.0282962 1.0571939.0282962.224774 0 .589613-.0282962 1.019871-.0282962 1.534 0 1.870742.9422185 1.870742 1.4131166 0 .772864-.439484 1.2340485-.879388 1.6960776.692355.2166554 1.61871.8856262 1.61871 1.9879078 0 1.0081019-.785871 2.0537912-2.38571 2.0537912-.102742 0-.402161-.0190048-.673483-.0282961-.271323-.0185825-.53342-.0282961-.570742-.0282961-.2994197 0-.5896133.0282961-.9167101.0282961-.1027419 0-.150129-.0185825-.150129-.0658835 0-.0282961.018871-.0658835.1404839-.0658835.0750645 0 .1404838-.0092912.2247742-.0282961.1870322-.0375874.2247742-.2542427.2620967-.5274903.0465484-.3957233.0465484-1.1402912.0465484-2.0445z"/><path d="m.13125807 76.9140806h103.64941893v-.2936874h-103.64941893z"/></g></svg>