<?xml version="1.0" encoding="UTF-8"?>
<svg width="48px" height="49px" viewBox="0 0 48 49" version="1.1" xmlns="http://www.w3.org/2000/svg" xmlns:xlink="http://www.w3.org/1999/xlink">
    <!-- Generator: Sketch 48.2 (47327) - http://www.bohemiancoding.com/sketch -->
    <desc>Created with Sketch.</desc>
    <defs></defs>
    <g id="All" stroke="none" stroke-width="1" fill="none" fill-rule="evenodd" stroke-linecap="round" stroke-linejoin="round">
        <g id="Services-Index" transform="translate(-696.000000, -323.000000)" stroke="#FFFFFF" stroke-width="1.20000002">
            <g id="Page-1" transform="translate(697.000000, 324.000000)">
                <path d="M16.8960825,8.54563559 C16.8960825,8.54563559 22.4900053,13.8621322 20.7094421,26.9118814" id="Stroke-1"></path>
                <path d="M19.7082561,14.1665169 C19.7082561,14.1665169 17.2645667,14.449911 14.8610263,13.6358551 C12.4574456,12.8217992 11.0481912,10.2749966 11.3215684,6.43661017 C11.5949456,2.59854237 9.74897368,0.199152542 9.93640351,0.199152542 C10.123793,0.199152542 14.7733439,0.412644068 18.0485842,3.06216949 C21.3238246,5.71209322 21.1903035,9.78512119 19.7082561,14.1665169" id="Stroke-2"></path>
                <path d="M25.8014807,13.3608653 C25.8014807,13.3608653 26.7534789,14.8490127 28.3135246,15.8146237 C29.8736105,16.7802746 31.9694351,16.403239 34.0355211,14.50185 C36.1015667,12.6005008 38.3121895,12.5335856 38.2267667,12.429389 C38.1413439,12.3251525 35.9005386,9.83670169 32.8955281,9.22295339 C29.8904772,8.60920508 27.6266719,10.5398297 25.8014807,13.3608653" id="Stroke-3"></path>
                <path d="M21.0593649,21.5885737 C21.0593649,21.5885737 20.4574105,15.6445475 25.8014807,13.3608653" id="Stroke-4"></path>
                <path d="M17.6021421,36.7528847 L32.2422877,36.7528847 C32.2422877,36.7528847 39.0588421,32.5948983 41.7276491,30.9900076 C44.3968596,29.3850771 47.3598246,32.2963686 45.242614,34.8672288 C43.125807,37.438089 34.1623439,44.8555254 34.1623439,44.8555254 L9.93640351,44.6829" id="Stroke-5"></path>
                <polygon id="Stroke-6" points="0.201754386 46.6686102 9.93640351 46.6686102 9.93640351 29.2573008 0.201754386 29.2573008"></polygon>
                <path d="M9.93640351,31.3883127 C9.93640351,31.3883127 26.5418789,31.3883127 29.6182702,31.3883127 C32.6946614,31.3883127 33.5153175,36.7528847 29.6182702,36.7528847 C25.7212228,36.7528847 17.4015579,36.7528847 17.4015579,36.7528847" id="Stroke-7"></path>
            </g>
        </g>
    </g>
</svg>
