<svg height="52" viewBox="0 0 50 52" width="50" xmlns="http://www.w3.org/2000/svg"><g style="stroke:#e6232c;stroke-width:1.26;fill:none;fill-rule:evenodd;stroke-linecap:round;stroke-linejoin:round" transform="translate(1 1)"><path d="m17.6306947 9.09110169s5.8371369 5.65584751 3.9791579 19.53855931"/><path d="m20.5651368 15.0707627s-2.5499368.3014831-5.0579789-.5645339c-2.5080842-.8660169-3.9786105-3.5753813-3.6933474-7.65877117.2852632-4.08305085-1.6409684-6.63559322-1.4453894-6.63559322.1955368 0 5.0472421.22711864 8.4648842 3.04576271 3.4176421 2.8190678 3.2783158 7.15207628 1.7318315 11.81313558"/><path d="m26.9232842 14.2136864s.9933895 1.5831356 2.6212632 2.6103814c1.6279158 1.0272881 3.8148631.6261864 5.9707789-1.3965678 2.1558737-2.0227119 4.4626105-2.0938983 4.3734737-2.2047458-.0891368-.1108898-2.4273684-2.7581779-5.5630316-3.41110166-3.1357052-.65292373-5.4979368 1.40093216-7.4024842 4.40203386"/><path d="m21.9749895 22.9665678s-.6281263-6.3234322 4.9482947-8.7528814"/><path d="m18.3674526 39.0988136h15.2766737s7.1129263-4.4233899 9.8977684-6.1307204c2.7852632-1.7073729 5.8770527 1.3897458 3.6677895 4.1247034-2.2088421 2.7349576-11.562021 10.6258475-11.562021 10.6258475l-25.2792421-.1836441"/><path d="m.21052632 49.6474576h10.15789478v-18.5226695h-10.15789478z"/><path d="m10.3684211 33.391822h20.5376c3.2101473 0 4.0664842 5.7069916 0 5.7069916-4.0664843 0-12.7478737 0-12.7478737 0"/><path d="m2.58446316 31.5232627v12.8263559"/></g></svg>