<svg height="64" viewBox="0 0 160 64" width="160" xmlns="http://www.w3.org/2000/svg"><g fill="#1c1c1c" fill-rule="evenodd" opacity=".498641" transform=""><path d="m55.4291482 23.2746461c-1.4864154-2.5490077-2.778765-3.7585344-4.8388472-3.7585344-2.5633735 0-4.3120975 1.8580565-4.3120975 4.7091872 0 3.6078868 2.4183573 6.3942473 5.7260048 6.3942473 2.1325903 0 3.6893811-1.0158369 4.6703726-3.068411l.6227164.1520962-1.8212321 4.7091872c-.4542417-.1297473-.9084834-.1943106-1.3392666-.1943106-1.0321737 0-2.3010649.3242649-3.7853477.3242649-5.6300383 0-9.2703698-3.4574461-9.2703698-8.2742387 0-4.4707998 2.8256821-6.7824546 8.3832122-6.7824546 1.6527575 0 2.9237813.2160386 3.7618892.2160386.4777002 0 1.0300411-.1291266 1.676216-.345786l1.3413992 5.7887596z"/><path d="m58.3783784 30.920406c.934774-.0651178 1.0929354-.581526 1.0929354-1.7639483v-10.0025759c0-1.0760909-.0223048-1.5275874-.9104416-1.6559682v-.5594766l5.1260495-.6672506v6.3889548c1.2754292-1.4416568 2.686715-2.1082892 4.4852932-2.1082892 2.4373068 0 3.0070931 1.1403844 3.0070931 3.6779146v4.4529391c0 1.4410386.1378842 2.0868579 1.2531244 2.2377003v.5372211h-6.7887711v-.5372211c1.0949631-.1508424 1.3220665-.7529752 1.3220665-2.0217403v-4.1094225c0-1.355314-.2737408-1.9576529-1.1618775-1.9576529-1.3200388 0-2.1169286 1.205296-2.1169286 3.6144455v1.9788779c0 1.5488125.0892192 2.2589254 1.2754292 2.4954923v.5372211h-6.5839725z"/><path d="m80.0756558 18.2500644c0 1.0330225-.9397243 1.9360157-2.2139267 1.9360157-1.252302 0-2.1920262-.8821802-2.1920262-1.9360157 0-1.0752666.9596336-1.978878 2.1920262-1.978878 1.2284108 0 2.2139267.9464737 2.2139267 1.978878m-5.2799761 3.6785328v-.5592705l5.0330994-.6666324v7.7222194c0 1.5273814.065701 2.2589254 1.252302 2.4954923v.5372211h-6.4864865v-.5372211c1.0532079-.1071558 1.0970086-.731544 1.0970086-1.7639483v-5.2059142c0-1.3124517 0-1.9362217-.8959235-2.0219463"/><path d="m83.4230904 17.4979136v-.5594766l5.0736873-.6672506v12.1537273c0 1.5273814.0439627 2.2589254 1.232952 2.4954923v.5372211h-6.4864865v-.5372211c1.0551032-.1071558 1.0770845-.731544 1.0770845-1.7639483v-9.6368039c0-1.3124517 0-1.9362217-.8972373-2.0217402"/><path d="m100.534467 22.3800938c-.34214-.0214312-.5688834-.0428623-.7288187-.0428623-2.0913047 0-3.2513412 1.355314-3.2513412 3.9579619 0 2.3019938 1.0466647 3.6785328 2.5022776 3.6785328 1.3402163 0 1.4778823-.6664262 1.4778823-2.1517696zm-1.7289199 9.0775333c-1.4778824 0-2.7735601-.0214311-4.0024294-.5586523-1.7511894-.7958374-2.9112258-2.5391788-2.9112258-4.5609191 0-1.505332.6377164-2.9247334 1.7511894-3.9793931 1.6135236-1.5059502 3.3667375-1.6559683 5.7070554-1.6559683h1.1843303v-1.3338828c0-1.2267271-.046563-1.7853794-.9110233-1.8708979v-.5594766l5.1179273-.6672506v12.8852713.7315439c0 .4508784.431217 1.0324044 1.135742 1.0324044h.068833v.5372211z"/><path d="m116.69382 22.350738c-1.783079 0-2.982532 1.4688753-2.982532 3.9545977 0 2.7342513 1.491266 4.3388649 3.616471 4.3388649 1.424854 0 2.485444-.7910494 3.165671-2.3274691l.587651.1576037-1.446991 3.9545976c-.406526-.0448131-.656077-.0673279-.768777-.0673279-.452814 0-1.310141.180768-2.576006.180768-1.809242 0-3.211958-.2708273-4.387261-1.1528019-1.716667-1.265376-2.712857-3.2310927-2.712857-5.1517798 0-3.2319586 2.215768-5.5825921 5.651114-5.5825921.927765 0 1.853517.180768 2.781282.180768.474951 0 .949902-.0900592 1.471141-.2257976l.994178 4.1355821-.589664.068194c-.450801-1.6046137-1.491267-2.4632076-2.80342-2.4632076"/><path d="m126.709762 28.9036321c0 .7462363.510821 1.2430777 1.190472 1.2430777 1.290037 0 2.116874-1.0837421 2.116874-3.2761223v-.8594599c-2.235922.5650353-3.307346 1.4688753-3.307346 2.8925045zm-2.941546-7.8407849c.463202.1350889.803027.2483125 1.043286.2483125.755408 0 2.261895-.7009902 4.670976-.7009902 1.677482 0 2.989165.294208 3.668816.6325797 1.363631.6778259 1.461033 1.627345 1.461033 3.0511907v4.9041167c0 1.3329205.121211 2.0113958 1.603889 2.4632076v.5643858h-5.277034c-.363635-.3834013-.53463-.8577279-.655842-1.4463605-.922074 1.1978316-2.333323 1.7630834-4.303012 1.7630834-2.430726 0-3.818166-1.1978316-3.818166-3.0050786 0-2.5541327 2.577912-4.0905525 7.854946-4.9500123v-.67696c0-1.130287-.632032-1.673024-2.019472-1.673024-1.94588 0-3.499986 1.0620932-4.108208 2.8702061h-.584413z"/><path d="m136.216216 21.59442v-.5351683l4.786575-.2990465c.267573.5351683.42217 1.1767143.513343 1.9469796 1.044524-1.4118113 2.158419-2.0970153 3.450695-2.0970153.289374 0 .622354.0426331.979117.0852662l-.800736 2.9533665c-.669922-.3424995-1.224887-.5351683-1.73823-.5351683-1.736248 0-1.890846 1.3906997-1.890846 3.7656499v1.561847c0 1.5192139.067389 2.246846 1.244708 2.4821479v.5343484h-6.433633v-.5343484c1.046506-.1065827 1.068308-.7276321 1.068308-1.7545158v-5.7558775c0-1.1980309-.178381-1.7118826-1.179301-1.8184654"/><path d="m153.605651 22.3249875c-1.011466 0-1.955364.9019217-1.955364 2.3455582 0 .1579551.022522.4509608.045045.812032l3.773546-.902786c-.25389-1.4885813-.921376-2.2548042-1.863227-2.2548042m2.11507 8.2553708c1.678951 0 2.874693-.9250423 3.656838-2.796519l.622441.1123621-1.357494 4.4432715c-.505733-.0224724-.804668-.0224724-.896806-.0224724-.806716 0-1.793612.2253724-3.036445.2253724-4.715398 0-7.682228-2.7749109-7.682228-6.1803459 0-3.1575902 2.714988-5.7518575 6.900082-5.7518575 3.081491 0 4.85258 1.3312744 6.025798 4.3756382l-8.140868 1.8954617c.389026 2.3678145 1.86118 3.6990889 3.908682 3.6990889"/><path d="m48.0054584 45.1914255c.865598 0 2.9695105-.5842429 2.9695105-4.2967901 0-2.9044235-1.4847553-5.6144581-3.8452921-5.6144581-.8635614 0-2.9715473.5844582-2.9715473 4.2961443 0 2.9042082 1.4847553 5.6151039 3.8473289 5.6151039zm4.3463207 3.6221338c-1.9694903-.029492-3.4542455-.4044924-4.5336973-1.5266951-.4053035-.4182697-.7169188-1.0634341-.743396-1.5269105-2.6578952-.2998712-4.9125236-2.4702238-4.9125236-5.5240446 0-2.9044235 2.0102242-5.5240447 5.3178272-5.5240447 2.9165564 0 5.4929836 2.260766 5.4929836 5.5240447 0 2.4396554-1.4175442 4.6853525-3.833072 5.3145869.0142569.913606.9185523 2.6196212 3.2118781 2.7539497z"/><path d="m55.1351351 38.5965417c.590492-.0157557 1.8883651-.4050278 2.5231943-.63044v5.1536003c0 .7115296.5038328 1.2770559 1.2253212 1.2770559.5320474 0 .9210063-.2104968 1.3966243-.5172087v-4.1034271c0-.4844368-.2156404-.6951436-.6045992-.6951436h-.2599777v-.4844368c.5763846-.0157557 1.8742577-.4050278 2.509087-.63044v6.0749964c0 .3705752.2015331.5172087.4312808.5172087.0866592 0 .1874258-.0172263.3466369-.0647036v.4835965c-.4917407 0-1.3684097.2270928-2.1906647.5821223-.0866592-.3550295-.2176557-.9369418-.2317631-1.2600397-.792025.6459857-1.7009392 1.1631944-2.448627 1.1631944-1.09634 0-1.8158132-.8558523-1.8158132-2.0196769v-3.6666777c0-.4844368-.2176557-.6951436-.6066146-.6951436h-.274085z"/><path d="m69.45239 41.0263638c0-1.5540712-.1696666-2.5698644-1.2746751-2.5698644-1.2115938 0-1.3986622 1.2446741-1.4138887 2.5698644zm1.8532819 3.779326c-.7939529.5565284-1.6792648.7536322-2.7538202.7536322-2.5362989 0-3.6869868-1.7342129-3.6869868-3.6328937 0-2.7658947 1.8511066-3.9603266 3.6869868-3.9603266 1.1963673 0 2.7994997.8021567 2.7994997 3.5506598h-4.5875252c.0152265 2.4062554 1.4138887 3.4196867 2.425363 3.4196867.7004187 0 1.385611-.3428919 2.0229485-1.4063507z"/><path d="m78.1032139 41.0267329c0-1.5548302-.1718419-2.5699062-1.2768503-2.5699062-1.2137691 0-1.3986623 1.2430831-1.416064 2.5699062zm1.8489314 3.7791463c-.7917777.5568925-1.6792648.7534428-2.751645.7534428-2.5362989 0-3.6869868-1.7353267-3.6869868-3.6327097 0-2.7664566 1.8511067-3.9605106 3.6869868-3.9605106 1.1963674 0 2.7994997.8016042 2.7994997 3.5513562h-4.5897004c.0174017 2.4048126 1.416064 3.4198887 2.4275382 3.4198887.7004188 0 1.3834358-.3440715 2.0229485-1.4075259z"/><path d="m81.1387728 45.0606446h.1133942c.4416404 0 .6962799-.2488134.6962799-.7811142v-4.2531533c0-.4488727-.0994686-.6485118-.4694916-.6485118-.085543 0-.2407139.0334133-.3978742.1006601v-.5323008c.3560974-.0670367 1.7367209-.5323009 2.4906926-.9801229v1.3789808c1.0523773-.9973549 1.8202745-1.3789808 2.5026288-1.3789808.9250575 0 1.7068804.6312798 1.7068804 2.1928778v4.1541743c0 .5976564.3282462.7474908.8673657.7474908v.4986774c-.4117998-.017232-1.2234632-.0500148-1.7208059-.0500148-.4973428 0-1.3090062.0327828-1.720806.0500148v-.4986774c.740046 0 .9529087-.133443.9529087-1.0799424v-3.6063226c0-1.1627401-.5968113-1.3125745-1.0384517-1.3125745-.4834171 0-.9946855.2168711-1.54972.7811142v4.4366111c0 .5323008.2546395.7811142.6962798.7811142h.1133942v.4986774c-.455566-.017232-1.1796971-.0500148-1.6213374-.0500148-.4416404 0-1.1657715.0327828-1.6213375.0500148z"/><path d="m90.8108108 43.2839841h.4049346c.1751577 1.3586429.9021565 1.7841912 1.5896035 1.7841912.6460119 0 1.1451172-.4091487 1.1451172-1.0306511 0-1.4070007-3.0850362-1.3750425-3.0850362-3.829094 0-1.2608761.7401827-2.2423285 2.3034184-2.2423285.551841 0 1.116866.1139561 1.6969583.3107512l.0546191 1.9151777h-.3785668c-.1205386-.9492839-.6591957-1.7347822-1.4954327-1.7347822-.551841 0-.9944439.35995-.9944439 1.0148823 0 1.3906011 3.0831528 1.4719683 3.0831528 3.7790542 0 1.3422433-.8889726 2.3081371-2.559563 2.3081371-.4313024 0-1.1583012-.1475963-1.7647613-.4911467z"/><path d="m98.4350716 45.1337916h.1114315c.4339964 0 .6842285-.2126633.6842285-.6671469v-8.1805012c0-.4112578-.0977469-.5815107-.4613655-.5815107-.1524852 0-.2795562.0279337-.3909877.0560713v-.4249187c.8386687-.0999089 1.6225986-.3119605 2.4456286-.623921v9.7547803c0 .4544836.252187.6671469.686183.6671469h.111432v.4255304c-.447681-.0142727-1.159279-.0424103-1.593275-.0424103-.4339968 0-1.1475494.0281376-1.5932754.0424103z"/><path d="m107.711864 41.8768359c-1.308659.147079-2.091329.8193192-2.091329 1.5386078 0 .7358191.391335 1.1937986 1.037248 1.1937986.391336 0 .812126-.1131703 1.083536-.3422661-.014728-.1479267-.029455-.393553-.029455-.6226487zm2.558406 2.7819979c-.18094 0-1.655811.6061182-2.228086.9004882-.14938-.2621567-.225123-.654862-.23985-.9004882-.873141.654862-1.790464.9004882-2.348012.9004882-.887868 0-1.670538-.8674272-1.670538-1.6693683 0-1.423742 1.220292-2.0777563 3.92808-2.4388841v-1.5214415c0-.9318538-.616459-1.2764511-1.174006-1.2764511-.435518 0-.887868.1636095-.887868.8184715 0 .1636096.075742.4579796.210395.7697278l-1.683162.7358191c-.18094-.2952178-.241955-.5563149-.241955-.8515326 0-1.2592848 1.956676-2.1595611 3.47573-2.1595611.858413 0 2.015587.6713925 2.015587 2.2256831v3.7146994c0 .360492.09047.4249186.315593.4249186.075742 0 .18094-.0165305.528092-.1627618z"/><path d="m112.490124 45.0611301h.113394c.439651 0 .69628-.2500544.69628-.7814734v-4.2530553c0-.4485645-.099468-.6479264-.469491-.6479264-.085543 0-.240714.032375-.397875.098829v-.5314189c.356098-.066454 1.734732-.531632 2.490693-.9799834v1.3784943c1.050388-.9965969 1.820275-1.3784943 2.502629-1.3784943.925057 0 1.70688.6310999 1.70688 2.1931947v4.1535873c0 .597873.326257.7482464.867366.7482464v.4981919c-.4118-.0166135-1.223463-.0506924-1.720806-.0506924-.499332 0-1.309006.0340789-1.720806.0506924v-.4981919c.740046 0 .952909-.132908.952909-1.0796643v-3.606194c0-1.1633708-.598801-1.3128923-1.040441-1.3128923-.483417 0-.994686.2157625-1.547731.7814734v4.4358038c0 .531419.25464.7814734.69628.7814734h.113394v.4981919c-.455566-.0166135-1.181686-.0506924-1.623327-.0506924-.439651 0-1.165771.0340789-1.619348.0506924z"/><path d="m127.265305 39.9960503c-.537066-.4043938-1.001173-.5718052-1.609172-.5718052-1.116693 0-1.416639.9759985-1.416639 2.3289233 0 1.3661573.235093 2.8255438 1.653759 2.8255438.480319 0 1.280852-.7289915 1.372052-.9649714zm-1.029546-4.6572452c.624213 0 1.984105-.3342213 2.681278-.6269407v9.4810998c0 .2784844.11552.4043938.37696.4043938.160106 0 .2736-.0559375.435733-.1393424v.4176263c-.421547 0-1.682132.4609327-2.205012.6836801-.101333-.1676119-.216853-.4877987-.259413-.7251821-.593813.4041933-1.333546.6417772-2.073278.6417772-1.623359 0-3.029865-1.2829529-3.029865-2.970901 0-1.9371606 1.191679-3.9653449 3.431144-3.9653449.812693 0 1.161279.069972 1.755092.2941228l-.083093-2.6998348c0-.2508164-.101333-.4318613-.581653-.4318613-.202666 0-.304.013433-.447893.0559375z"/><path d="m5.90248712 45.938505-.36119538-.3587258s6.31435196-16.0580244 1.97453474-36.4989285c-15.36941064 25.2940086-3.65901864 37.7854956 4.16250312 42.8169763l.906272-16.7160538c-1.4349307 2.8569794-5.25703453 10.243311-6.68211448 10.7567318m8.54391248-35.7579053-.6337337-10.1805997c-2.1814012 2.81575661-4.05633354 5.4972103-5.66091665 8.05247407.10179143.10459182.21015004.26422043.32507584.50399226l4.50290241 10.04289817s-.9949291-2.4465059.6600024-2.8775908c.1587071-.0415517.3338321-.0712628.5461712-.0712628 0 0 .2397024.0582162.6173158.2561075.9500533.4991683 2.7691646 1.8874767 3.8056858 5.4825192 0 0 .5625892 2.6304734-1.8902558 1.8732242 0 0-.71254-.2495294-1.5246823-1.0894434-.3622899-.3737458-.7420923-.8631566-1.0890588-1.5011229 0 0 .3874641.8463825 1.1328401 2.2180264 1.828962 3.3633836 5.8272854 9.9028942 11.6534763 14.9982921l-.2407969.7177806s-9.8912807-7.7315723-10.5348652-7.7315723c0 0 4.0213085 10.2819025 1.5279659 27.8971829h-.401693s-.1937321-1.669632-.5428876-4.2664474c-.8810979-.3460082-2.7921498-1.1745202-5.0206158-2.6072308l-.6556244 12.102173c34.0235102-17.3795651 7.4012217-49.3413572 3.4236944-53.8194003"/><path d="m12.3839994 34.7118644s-.2238995.4326231-.5974581 1.128755l-.9757305 16.8528478c2.39926 1.444435 4.4567786 2.279727 5.4054054 2.6285667-.7341547-5.1283635-2.1117258-13.8533348-3.8322168-20.6101695"/></g></svg>