<svg width="160px" height="64px" viewBox="0 0 160 64" version="1.1" xmlns="http://www.w3.org/2000/svg" xmlns:xlink="http://www.w3.org/1999/xlink">
    <!-- Generator: Sketch 48.2 (47327) - http://www.bohemiancoding.com/sketch -->
    <desc>Created with Sketch.</desc>
    <defs></defs>
    <g id="All" stroke="none" stroke-width="1" fill="none" fill-rule="evenodd" opacity="0.498641304">
        <g id="Home" transform="translate(-370.000000, -1227.000000)" fill="#1C1C1C">
            <g id="Group-11" transform="translate(80.000000, 1227.000000)">
                <g id="Group-6" transform="translate(290.000000, 0.000000)">
                    <path d="M55.4291482,23.2746461 C53.9427328,20.7256384 52.6503832,19.5161117 50.590301,19.5161117 C48.0269275,19.5161117 46.2782035,21.3741682 46.2782035,24.2252989 C46.2782035,27.8331857 48.6965608,30.6195462 52.0042083,30.6195462 C54.1367986,30.6195462 55.6935894,29.6037093 56.6745809,27.5511352 L57.2972973,27.7032314 L55.4760652,32.4124186 C55.0218235,32.2826713 54.5675818,32.218108 54.1367986,32.218108 C53.1046249,32.218108 51.8357337,32.5423729 50.3514509,32.5423729 C44.7214126,32.5423729 41.0810811,29.0849268 41.0810811,24.2681342 C41.0810811,19.7973344 43.9067632,17.4856796 49.4642933,17.4856796 C51.1170508,17.4856796 52.3880746,17.7017182 53.2261825,17.7017182 C53.7038827,17.7017182 54.2562236,17.5725916 54.9023985,17.3559322 L56.2437977,23.1446918 L55.4291482,23.2746461 Z" id="Fill-1"></path>
                    <path d="M58.3783784,30.920406 C59.3131524,30.8552882 59.4713138,30.33888 59.4713138,29.1564577 L59.4713138,19.1538818 C59.4713138,18.0777909 59.449009,17.6262944 58.5608722,17.4979136 L58.5608722,16.938437 L63.6869217,16.2711864 L63.6869217,22.6601412 C64.9623509,21.2184844 66.3736367,20.551852 68.1722149,20.551852 C70.6095217,20.551852 71.179308,21.6922364 71.179308,24.2297666 L71.179308,28.6827057 C71.179308,30.1237443 71.3171922,30.7695636 72.4324324,30.920406 L72.4324324,31.4576271 L65.6436613,31.4576271 L65.6436613,30.920406 C66.7386244,30.7695636 66.9657278,30.1674308 66.9657278,28.8986657 L66.9657278,24.7892432 C66.9657278,23.4339292 66.691987,22.8315903 65.8038503,22.8315903 C64.4838115,22.8315903 63.6869217,24.0368863 63.6869217,26.4460358 L63.6869217,28.4249137 C63.6869217,29.9737262 63.7761409,30.6838391 64.9623509,30.920406 L64.9623509,31.4576271 L58.3783784,31.4576271 L58.3783784,30.920406 Z" id="Fill-2"></path>
                    <path d="M80.0756558,18.2500644 C80.0756558,19.2830869 79.1359315,20.1860801 77.8617291,20.1860801 C76.6094271,20.1860801 75.6697029,19.3038999 75.6697029,18.2500644 C75.6697029,17.1747978 76.6293365,16.2711864 77.8617291,16.2711864 C79.0901399,16.2711864 80.0756558,17.2176601 80.0756558,18.2500644 M74.7956797,21.9285972 L74.7956797,21.3693267 L79.8287791,20.7026943 L79.8287791,28.4249137 C79.8287791,29.9522951 79.8944801,30.6838391 81.0810811,30.920406 L81.0810811,31.4576271 L74.5945946,31.4576271 L74.5945946,30.920406 C75.6478025,30.8132502 75.6916032,30.188862 75.6916032,29.1564577 L75.6916032,23.9505435 C75.6916032,22.6380918 75.6916032,22.0143218 74.7956797,21.9285972" id="Fill-3"></path>
                    <path d="M83.4230904,17.4979136 L83.4230904,16.938437 L88.4967777,16.2711864 L88.4967777,28.4249137 C88.4967777,29.9522951 88.5407404,30.6838391 89.7297297,30.920406 L89.7297297,31.4576271 L83.2432432,31.4576271 L83.2432432,30.920406 C84.2983464,30.8132502 84.3203277,30.188862 84.3203277,29.1564577 L84.3203277,19.5196538 C84.3203277,18.2072021 84.3203277,17.5834321 83.4230904,17.4979136" id="Fill-4"></path>
                    <path d="M100.534467,22.3800938 C100.192327,22.3586626 99.9655836,22.3372315 99.8056483,22.3372315 C97.7143436,22.3372315 96.5543071,23.6925455 96.5543071,26.2951934 C96.5543071,28.5971872 97.6009718,29.9737262 99.0565847,29.9737262 C100.396801,29.9737262 100.534467,29.3073 100.534467,27.8219566 L100.534467,22.3800938 Z M98.8055471,31.4576271 C97.3276647,31.4576271 96.031987,31.436196 94.8031177,30.8989748 C93.0519283,30.1031374 91.8918919,28.359796 91.8918919,26.3380557 C91.8918919,24.8327237 92.5296083,23.4133223 93.6430813,22.3586626 C95.2566049,20.8527124 97.0098188,20.7026943 99.3501367,20.7026943 L100.534467,20.7026943 L100.534467,19.3688115 C100.534467,18.1420844 100.487904,17.5834321 99.6234437,17.4979136 L99.6234437,16.938437 L104.741371,16.2711864 L104.741371,29.1564577 L104.741371,29.8880016 C104.741371,30.33888 105.172588,30.920406 105.877113,30.920406 L105.945946,30.920406 L105.945946,31.4576271 L98.8055471,31.4576271 Z" id="Fill-5"></path>
                    <path d="M116.69382,22.350738 C114.910741,22.350738 113.711288,23.8196133 113.711288,26.3053357 C113.711288,29.039587 115.202554,30.6442006 117.327759,30.6442006 C118.752613,30.6442006 119.813203,29.8531512 120.49343,28.3167315 L121.081081,28.4743352 L119.63409,32.4289328 C119.227564,32.3841197 118.978013,32.3616049 118.865313,32.3616049 C118.412499,32.3616049 117.555172,32.5423729 116.289307,32.5423729 C114.480065,32.5423729 113.077349,32.2715456 111.902046,31.389571 C110.185379,30.124195 109.189189,28.1584783 109.189189,26.2377912 C109.189189,23.0058326 111.404957,20.6551991 114.840303,20.6551991 C115.768068,20.6551991 116.69382,20.8359671 117.621585,20.8359671 C118.096536,20.8359671 118.571487,20.7459079 119.092726,20.6101695 L120.086904,24.7457516 L119.49724,24.8139456 C119.046439,23.2093319 118.005973,22.350738 116.69382,22.350738" id="Fill-6"></path>
                    <path d="M126.709762,28.9036321 C126.709762,29.6498684 127.220583,30.1467098 127.900234,30.1467098 C129.190271,30.1467098 130.017108,29.0629677 130.017108,26.8705875 L130.017108,26.0111276 C127.781186,26.5761629 126.709762,27.4800029 126.709762,28.9036321 Z M123.768216,21.0628472 C124.231418,21.1979361 124.571243,21.3111597 124.811502,21.3111597 C125.56691,21.3111597 127.073397,20.6101695 129.482478,20.6101695 C131.15996,20.6101695 132.471643,20.9043775 133.151294,21.2427492 C134.514925,21.9205751 134.612327,22.8700942 134.612327,24.2939399 L134.612327,29.1980566 C134.612327,30.5309771 134.733538,31.2094524 136.216216,31.6612642 L136.216216,32.22565 L130.939182,32.22565 C130.575547,31.8422487 130.404552,31.3679221 130.28334,30.7792895 C129.361266,31.9771211 127.950017,32.5423729 125.980328,32.5423729 C123.549602,32.5423729 122.162162,31.3445413 122.162162,29.5372943 C122.162162,26.9831616 124.740074,25.4467418 130.017108,24.587282 L130.017108,23.910322 C130.017108,22.780035 129.385076,22.237298 127.997636,22.237298 C126.051756,22.237298 124.49765,23.2993912 123.889428,25.1075041 L123.305015,25.1075041 L123.768216,21.0628472 Z" id="Fill-7"></path>
                    <path d="M136.216216,21.59442 L136.216216,21.0592517 L141.002791,20.7602052 C141.270364,21.2953735 141.424961,21.9369195 141.516134,22.7071848 C142.560658,21.2953735 143.674553,20.6101695 144.966829,20.6101695 C145.256203,20.6101695 145.589183,20.6528026 145.945946,20.6954357 L145.14521,23.6488022 C144.475288,23.3063027 143.920323,23.1136339 143.40698,23.1136339 C141.670732,23.1136339 141.516134,24.5043336 141.516134,26.8792838 L141.516134,28.4411308 C141.516134,29.9603447 141.583523,30.6879768 142.760842,30.9232787 L142.760842,31.4576271 L136.327209,31.4576271 L136.327209,30.9232787 C137.373715,30.816696 137.395517,30.1956466 137.395517,29.1687629 L137.395517,23.4128854 C137.395517,22.2148545 137.217136,21.7010028 136.216216,21.59442" id="Fill-8"></path>
                    <path d="M153.605651,22.3249875 C152.594185,22.3249875 151.650287,23.2269092 151.650287,24.6705457 C151.650287,24.8285008 151.672809,25.1215065 151.695332,25.4825777 L155.468878,24.5797917 C155.214988,23.0912104 154.547502,22.3249875 153.605651,22.3249875 M155.720721,30.5803583 C157.399672,30.5803583 158.595414,29.655316 159.377559,27.7838393 L160,27.8962014 L158.642506,32.3394729 C158.136773,32.3170005 157.837838,32.3170005 157.7457,32.3170005 C156.938984,32.3170005 155.952088,32.5423729 154.709255,32.5423729 C149.993857,32.5423729 147.027027,29.767462 147.027027,26.362027 C147.027027,23.2044368 149.742015,20.6101695 153.927109,20.6101695 C157.0086,20.6101695 158.779689,21.9414439 159.952907,24.9858077 L151.812039,26.8812694 C152.201065,29.2490839 153.673219,30.5803583 155.720721,30.5803583" id="Fill-9"></path>
                    <path d="M48.0054584,45.1914255 C48.8710564,45.1914255 50.9749689,44.6071826 50.9749689,40.8946354 C50.9749689,37.9902119 49.4902136,35.2801773 47.1296768,35.2801773 C46.2661154,35.2801773 44.1581295,35.8646355 44.1581295,39.5763216 C44.1581295,42.4805298 45.6428848,45.1914255 48.0054584,45.1914255 Z M52.3517791,48.8135593 C50.3822888,48.7840673 48.8975336,48.4090669 47.8180818,47.2868642 C47.4127783,46.8685945 47.101163,46.2234301 47.0746858,45.7599537 C44.4167906,45.4600825 42.1621622,43.2897299 42.1621622,40.2359091 C42.1621622,37.3314856 44.1723864,34.7118644 47.4799894,34.7118644 C50.3965458,34.7118644 52.972973,36.9726304 52.972973,40.2359091 C52.972973,42.6755645 51.5554288,44.9212616 49.139901,45.550496 C49.1541579,46.464102 50.0584533,48.1701172 52.3517791,48.3044457 L52.3517791,48.8135593 Z" id="Fill-10"></path>
                    <path d="M55.1351351,38.5965417 C55.7256271,38.580786 57.0235002,38.1915139 57.6583294,37.9661017 L57.6583294,43.119702 C57.6583294,43.8312316 58.1621622,44.3967579 58.8836506,44.3967579 C59.415698,44.3967579 59.8046569,44.1862611 60.2802749,43.8795492 L60.2802749,39.7761221 C60.2802749,39.2916853 60.0646345,39.0809785 59.6756757,39.0809785 L59.415698,39.0809785 L59.415698,38.5965417 C59.9920826,38.580786 61.2899557,38.1915139 61.924785,37.9661017 L61.924785,44.0410981 C61.924785,44.4116733 62.1263181,44.5583068 62.3560658,44.5583068 C62.442725,44.5583068 62.5434916,44.5410805 62.7027027,44.4936032 L62.7027027,44.9771997 C62.210962,44.9771997 61.334293,45.2042925 60.512038,45.559322 C60.4253788,45.2042925 60.2943823,44.6223802 60.2802749,44.2992823 C59.4882499,44.945268 58.5793357,45.4624767 57.8316479,45.4624767 C56.7353079,45.4624767 56.0158347,44.6066244 56.0158347,43.4427998 L56.0158347,39.7761221 C56.0158347,39.2916853 55.798179,39.0809785 55.4092201,39.0809785 L55.1351351,39.0809785 L55.1351351,38.5965417 Z" id="Fill-11"></path>
                    <path d="M69.45239,41.0263638 C69.45239,39.4722926 69.2827234,38.4564994 68.1777149,38.4564994 C66.9661211,38.4564994 66.7790527,39.7011735 66.7638262,41.0263638 L69.45239,41.0263638 Z M71.3056719,44.8056898 C70.511719,45.3622182 69.6264071,45.559322 68.5518517,45.559322 C66.0155528,45.559322 64.8648649,43.8251091 64.8648649,41.9264283 C64.8648649,39.1605336 66.7159715,37.9661017 68.5518517,37.9661017 C69.748219,37.9661017 71.3513514,38.7682584 71.3513514,41.5167615 L66.7638262,41.5167615 C66.7790527,43.9230169 68.1777149,44.9364482 69.1891892,44.9364482 C69.8896079,44.9364482 70.5748002,44.5935563 71.2121377,43.5300975 L71.3056719,44.8056898 Z" id="Fill-12"></path>
                    <path d="M78.1032139,41.0267329 C78.1032139,39.4719027 77.931372,38.4568267 76.8263636,38.4568267 C75.6125945,38.4568267 75.4277013,39.6999098 75.4102996,41.0267329 L78.1032139,41.0267329 Z M79.9521453,44.8058792 C79.1603676,45.3627717 78.2728805,45.559322 77.2005003,45.559322 C74.6642014,45.559322 73.5135135,43.8239953 73.5135135,41.9266123 C73.5135135,39.1601557 75.3646202,37.9661017 77.2005003,37.9661017 C78.3968677,37.9661017 80,38.7677059 80,41.5174579 L75.4102996,41.5174579 C75.4277013,43.9222705 76.8263636,44.9373466 77.8378378,44.9373466 C78.5382566,44.9373466 79.2212736,44.5932751 79.8607863,43.5298207 L79.9521453,44.8058792 Z" id="Fill-13"></path>
                    <path d="M81.1387728,45.0606446 L81.252167,45.0606446 C81.6938074,45.0606446 81.9484469,44.8118312 81.9484469,44.2795304 L81.9484469,40.0263771 C81.9484469,39.5775044 81.8489783,39.3778653 81.4789553,39.3778653 C81.3934123,39.3778653 81.2382414,39.4112786 81.0810811,39.4785254 L81.0810811,38.9462246 C81.4371785,38.8791879 82.817802,38.4139237 83.5717737,37.9661017 L83.5717737,39.3450825 C84.624151,38.3477276 85.3920482,37.9661017 86.0744025,37.9661017 C86.99946,37.9661017 87.7812829,38.5973815 87.7812829,40.1589795 L87.7812829,44.3131538 C87.7812829,44.9108102 88.1095291,45.0606446 88.6486486,45.0606446 L88.6486486,45.559322 C88.2368488,45.54209 87.4251854,45.5093072 86.9278427,45.5093072 C86.4304999,45.5093072 85.6188365,45.54209 85.2070367,45.559322 L85.2070367,45.0606446 C85.9470827,45.0606446 86.1599454,44.9272016 86.1599454,43.9807022 L86.1599454,40.3743796 C86.1599454,39.2116395 85.5631341,39.0618051 85.1214937,39.0618051 C84.6380766,39.0618051 84.1268082,39.2786762 83.5717737,39.8429193 L83.5717737,44.2795304 C83.5717737,44.8118312 83.8264132,45.0606446 84.2680535,45.0606446 L84.3814477,45.0606446 L84.3814477,45.559322 C83.9258817,45.54209 83.2017506,45.5093072 82.7601103,45.5093072 C82.3184699,45.5093072 81.5943388,45.54209 81.1387728,45.559322 L81.1387728,45.0606446 Z" id="Fill-14"></path>
                    <path d="M90.8108108,43.2839841 L91.2157454,43.2839841 C91.3909031,44.642627 92.1179019,45.0681753 92.8053489,45.0681753 C93.4513608,45.0681753 93.9504661,44.6590266 93.9504661,44.0375242 C93.9504661,42.6305235 90.8654299,42.6624817 90.8654299,40.2084302 C90.8654299,38.9475541 91.6056126,37.9661017 93.1688483,37.9661017 C93.7206893,37.9661017 94.2857143,38.0800578 94.8658066,38.2768529 L94.9204257,40.1920306 L94.5418589,40.1920306 C94.4213203,39.2427467 93.8826632,38.4572484 93.0464262,38.4572484 C92.4945852,38.4572484 92.0519823,38.8171984 92.0519823,39.4721307 C92.0519823,40.8627318 95.1351351,40.944099 95.1351351,43.2511849 C95.1351351,44.5934282 94.2461625,45.559322 92.5755721,45.559322 C92.1442697,45.559322 91.4172709,45.4117257 90.8108108,45.0681753 L90.8108108,43.2839841 Z" id="Fill-15"></path>
                    <path d="M98.4350716,45.1337916 L98.5465031,45.1337916 C98.9804995,45.1337916 99.2307316,44.9211283 99.2307316,44.4666447 L99.2307316,36.2861435 C99.2307316,35.8748857 99.1329847,35.7046328 98.7693661,35.7046328 C98.6168809,35.7046328 98.4898099,35.7325665 98.3783784,35.7607041 L98.3783784,35.3357854 C99.2170471,35.2358765 100.000977,35.0238249 100.824007,34.7118644 L100.824007,44.4666447 C100.824007,44.9211283 101.076194,45.1337916 101.51019,45.1337916 L101.621622,45.1337916 L101.621622,45.559322 C101.173941,45.5450493 100.462343,45.5169117 100.028347,45.5169117 C99.5943502,45.5169117 98.8807976,45.5450493 98.4350716,45.559322 L98.4350716,45.1337916 Z" id="Fill-16"></path>
                    <path d="M107.711864,41.8768359 C106.403205,42.0239149 105.620535,42.6961551 105.620535,43.4154437 C105.620535,44.1512628 106.01187,44.6092423 106.657783,44.6092423 C107.049119,44.6092423 107.469909,44.496072 107.741319,44.2669762 C107.726591,44.1190495 107.711864,43.8734232 107.711864,43.6443275 L107.711864,41.8768359 Z M110.27027,44.6588338 C110.08933,44.6588338 108.614459,45.264952 108.042184,45.559322 C107.892804,45.2971653 107.817061,44.90446 107.802334,44.6588338 C106.929193,45.3136958 106.01187,45.559322 105.454322,45.559322 C104.566454,45.559322 103.783784,44.6918948 103.783784,43.8899537 C103.783784,42.4662117 105.004076,41.8121974 107.711864,41.4510696 L107.711864,39.9296281 C107.711864,38.9977743 107.095405,38.653177 106.537858,38.653177 C106.10234,38.653177 105.64999,38.8167865 105.64999,39.4716485 C105.64999,39.6352581 105.725732,39.9296281 105.860385,40.2413763 L104.177223,40.9771954 C103.996283,40.6819776 103.935268,40.4208805 103.935268,40.1256628 C103.935268,38.866378 105.891944,37.9661017 107.410998,37.9661017 C108.269411,37.9661017 109.426585,38.6374942 109.426585,40.1917848 L109.426585,43.9064842 C109.426585,44.2669762 109.517055,44.3314028 109.742178,44.3314028 C109.81792,44.3314028 109.923118,44.3148723 110.27027,44.168641 L110.27027,44.6588338 Z" id="Fill-17"></path>
                    <path d="M112.490124,45.0611301 L112.603518,45.0611301 C113.043169,45.0611301 113.299798,44.8110757 113.299798,44.2796567 L113.299798,40.0266014 C113.299798,39.5780369 113.20033,39.378675 112.830307,39.378675 C112.744764,39.378675 112.589593,39.41105 112.432432,39.477504 L112.432432,38.9460851 C112.78853,38.8796311 114.167164,38.4144531 114.923125,37.9661017 L114.923125,39.344596 C115.973513,38.3479991 116.7434,37.9661017 117.425754,37.9661017 C118.350811,37.9661017 119.132634,38.5972016 119.132634,40.1592964 L119.132634,44.3128837 C119.132634,44.9107567 119.458891,45.0611301 120,45.0611301 L120,45.559322 C119.5882,45.5427085 118.776537,45.5086296 118.279194,45.5086296 C117.779862,45.5086296 116.970188,45.5427085 116.558388,45.559322 L116.558388,45.0611301 C117.298434,45.0611301 117.511297,44.9282221 117.511297,43.9814658 L117.511297,40.3752718 C117.511297,39.211901 116.912496,39.0623795 116.470856,39.0623795 C115.987439,39.0623795 115.47617,39.278142 114.923125,39.8438529 L114.923125,44.2796567 C114.923125,44.8110757 115.177765,45.0611301 115.619405,45.0611301 L115.732799,45.0611301 L115.732799,45.559322 C115.277233,45.5427085 114.551113,45.5086296 114.109472,45.5086296 C113.669821,45.5086296 112.943701,45.5427085 112.490124,45.559322 L112.490124,45.0611301 Z" id="Fill-18"></path>
                    <path d="M127.265305,39.9960503 C126.728239,39.5916565 126.264132,39.4242451 125.656133,39.4242451 C124.53944,39.4242451 124.239494,40.4002436 124.239494,41.7531684 C124.239494,43.1193257 124.474587,44.5787122 125.893253,44.5787122 C126.373572,44.5787122 127.174105,43.8497207 127.265305,43.6137408 L127.265305,39.9960503 Z M126.235759,35.3388051 C126.859972,35.3388051 128.219864,35.0045838 128.917037,34.7118644 L128.917037,44.1929642 C128.917037,44.4714486 129.032557,44.597358 129.293997,44.597358 C129.454103,44.597358 129.567597,44.5414205 129.72973,44.4580156 L129.72973,44.8756419 C129.308183,44.8756419 128.047598,45.3365746 127.524718,45.559322 C127.423385,45.3917101 127.307865,45.0715233 127.265305,44.8341399 C126.671492,45.2383332 125.931759,45.4759171 125.192027,45.4759171 C123.568668,45.4759171 122.162162,44.1929642 122.162162,42.5050161 C122.162162,40.5678555 123.353841,38.5396712 125.593306,38.5396712 C126.405999,38.5396712 126.754585,38.6096432 127.348398,38.833794 L127.265305,36.1339592 C127.265305,35.8831428 127.163972,35.7020979 126.683652,35.7020979 C126.480986,35.7020979 126.379652,35.7155309 126.235759,35.7580354 L126.235759,35.3388051 Z" id="Fill-19"></path>
                    <path d="M5.90248712,45.938505 L5.54129174,45.5797792 C5.54129174,45.5797792 11.8556437,29.5217548 7.51582648,9.0808507 C-7.85358416,34.3748593 3.85680784,46.8663463 11.6783296,51.897827 L12.5846016,35.1817732 C11.1496709,38.0387526 7.32756707,45.4250842 5.90248712,45.938505 M14.4463996,10.1805997 L13.8126659,0 C11.6312647,2.81575661 9.75633236,5.4972103 8.15174925,8.05247407 C8.25354068,8.15706589 8.36189929,8.3166945 8.47682509,8.55646633 L12.9797275,18.5993645 C12.9797275,18.5993645 11.9847984,16.1528586 13.6397299,15.7217737 C13.798437,15.680222 13.973562,15.6505109 14.1859011,15.6505109 C14.1859011,15.6505109 14.4256035,15.7087271 14.8032169,15.9066184 C15.7532702,16.4057867 17.5723815,17.7940951 18.6089027,21.3891376 C18.6089027,21.3891376 19.1714919,24.019611 16.7186469,23.2623618 C16.7186469,23.2623618 16.0061069,23.0128324 15.1939646,22.1729184 C14.8316747,21.7991726 14.4518723,21.3097618 14.1049058,20.6717955 C14.1049058,20.6717955 14.4923699,21.518178 15.2377459,22.8898219 C17.0667079,26.2532055 21.0650313,32.7927161 26.8912222,37.888114 L26.6504253,38.6058946 C26.6504253,38.6058946 16.7591446,30.8743223 16.1155601,30.8743223 C16.1155601,30.8743223 20.1368686,41.1562248 17.643526,58.7715052 L17.241833,58.7715052 C17.241833,58.7715052 17.0481009,57.1018732 16.6989454,54.5050578 C15.8178475,54.1590496 13.9067956,53.3305376 11.6783296,51.897827 L11.0227052,64 C45.0462154,46.6204349 18.4239269,14.6586428 14.4463996,10.1805997" id="Fill-20"></path>
                    <path d="M12.3839994,34.7118644 C12.3839994,34.7118644 12.1600999,35.1444875 11.7865413,35.8406194 L10.8108108,52.6934672 C13.2100708,54.1379022 15.2675894,54.9731942 16.2162162,55.3220339 C15.4820615,50.1936704 14.1044904,41.4686991 12.3839994,34.7118644" id="Fill-21"></path>
                </g>
            </g>
        </g>
    </g>
</svg>
