<svg height="52" viewBox="0 0 37 52" width="37" xmlns="http://www.w3.org/2000/svg"><g style="stroke:#e6232c;stroke-width:1.245763;fill:none;fill-rule:evenodd;stroke-linecap:round;stroke-linejoin:round" transform="translate(1 1)"><path d="m22.4799583 8.90583333 4.5476667-7.01916666c1.1040417-1.70375 3.383875-2.19125 5.0879583-1.08708334 1.7040417 1.10416667 2.1911667 3.38416667 1.0870834 5.08791667l-15.5206667 23.9552917c-.1147083.1770416-.2420833.3409583-.3802083.4912083l-8.2119167 12.6745833-6.17508333-4.000875 19.52154163-30.1302083z"/><path d="m1.45191667 48.0314583 1.462875-9.02375 6.17508333 4.000875z"/><path d="m24.2205417 29.302375 10.4045416-15.6827917"/><path d="m.23408333 49.7000417 1.454875-2.1929584"/><path d="m32.9130833 16.0764583-3.963875-2.5542916"/><path d="m27.2045417 15.0375833-6.1644584-3.9722916"/><path d="m29.8027083 11.0652917-6.1644166-3.97237503"/></g></svg>