<?xml version="1.0" encoding="UTF-8"?>
<svg width="35px" height="50px" viewBox="0 0 35 50" version="1.1" xmlns="http://www.w3.org/2000/svg" xmlns:xlink="http://www.w3.org/1999/xlink">
    <g id="All" stroke="none" stroke-width="1" fill="none" fill-rule="evenodd" stroke-linecap="round" stroke-linejoin="round">
        <g id="Services-Index" transform="translate(-869.000000, -320.000000)" stroke="#FFFFFF" stroke-width="1.20000002">
            <g id="Group-6" transform="translate(870.000000, 321.000000)">
                <path d="M21.0081574,8.33163 L25.4263546,1.60769326 C26.4989648,-0.0243960997 28.7138926,-0.491391588 30.3694616,0.566333235 C32.0249902,1.62405806 32.498247,3.80816003 31.4255963,5.44024939 L16.3467943,28.3879686 C16.2353516,28.5575638 16.1116029,28.7145861 15.9774102,28.8585165 L7.9992822,41 L2,37.167404 L20.9657744,8.30448838 L21.0081574,8.33163 Z" id="Stroke-1"></path>
                <polygon id="Stroke-2" points="1 46 2.34068877 37 8 40.9903449"></polygon>
                <path d="M23,28 L33,13" id="Stroke-3"></path>
                <path d="M0,48 L1,46" id="Stroke-4"></path>
                <path d="M25.5,14.5 L20,11" id="Stroke-6"></path>
                <path d="M27.5,10.5 L22,7" id="Stroke-7"></path>
            </g>
        </g>
    </g>
</svg>
