<svg height="56" viewBox="0 0 57 56" width="57" xmlns="http://www.w3.org/2000/svg"><g style="stroke:#fff;stroke-width:1.178572;fill:none;fill-rule:evenodd;stroke-linecap:round;stroke-linejoin:round" transform="translate(1 1)"><path d="m49.6885714 28.6693883h5.2218572"/><path d="m47.7242857 34.5817971h5.2218572"/><path d="m52.2995 4.22776642c0-2.22464233-1.8000714-4.03068613-4.0173571-4.03068613h-15.9800536c-2.2172857 0-4.017475 1.8060438-4.017475 4.03068613v8.06137228c0 2.2246423 1.8001893 4.0309226 4.017475 4.0309226h1.6525536l.0256535 3.1063796 4.2315036-3.1063796h10.0703429c2.2172857 0 4.0173571-1.8062803 4.0173571-4.0309226z"/><path d="m41.7277143 5.05235036c.4737857-.58966423 1.1997857-.96727007 2.013-.96727007 1.4268571 0 2.5853928 1.16237956 2.5853928 2.5939708 0 .95583942-.5166071 1.79145986-1.28425 2.24119709l-1.309 1.31334302.0078572.0082774-3.6559286 3.6680584-.0078571-.0078832-.00825.0078832-3.6558893-3.6680584.007975-.0082774-1.5794036-1.58452551.0693786-.06976642c-.5083179-.47378102-.8265714-1.15016058-.8265714-1.90024818 0-1.43159124 1.1583785-2.5939708 2.5851964-2.5939708.966625 0 1.8100893.53369343 2.2537428 1.32280292l1.1538215 1.15764964 1.5792857-1.58452555z"/><path d="m49.6885714 39.7058847h5.2218572"/><path d="m33.1764714 34.4953971 4.3823215 5.424635h8.7791l-2.9389643-5.424635 3.30825-5.8134351-8.8483607-.0125737z"/><path d="m24.5651607 19.6994759c0-2.6988175-2.1838536-4.8900744-4.8737464-4.8900744h-14.6212393c-2.68989286 0-4.87374643 2.1912569-4.87374643 4.8900744v29.301819c0 2.6988175 2.18385357 4.8899168 4.87374643 4.8899168h14.6212393c2.6898928 0 4.8737464-2.1910993 4.8737464-4.8899168z"/><path d="m.19642857 20.6226788h24.36873213"/><path d="m.19642857 48.2139197h24.36873213"/><path d="m12.3102179 26.3058832c4.5049714 0 8.1623928 3.6695956 8.1623928 8.1895139 0 4.5198788-3.6574214 8.1894744-8.1623928 8.1894744-4.50493219 0-8.1623929-3.6695956-8.1623929-8.1894744 0-4.5199183 3.65746071-8.1895139 8.1623929-8.1895139z"/><path d="m12.3102179 30.7867007c2.0401071 0 3.6964321 1.6617811 3.6964321 3.7086964 0 2.0468759-1.656325 3.7086569-3.6964321 3.7086569-2.0401072 0-3.69643219-1.661781-3.69643219-3.7086569 0-2.0469153 1.65632499-3.7086964 3.69643219-3.7086964z"/><path d="m12.3808143 34.4953971h20.7956571"/></g></svg>