<?xml version="1.0" encoding="UTF-8"?>
<svg width="55px" height="57px" viewBox="0 0 55 57" version="1.1" xmlns="http://www.w3.org/2000/svg" xmlns:xlink="http://www.w3.org/1999/xlink">
    <!-- Generator: Sketch 48.2 (47327) - http://www.bohemiancoding.com/sketch -->
    <desc>Created with Sketch.</desc>
    <defs></defs>
    <g id="All" stroke="none" stroke-width="1" fill="none" fill-rule="evenodd" stroke-linecap="round" stroke-linejoin="round">
        <g id="Services-Index" transform="translate(-521.000000, -309.000000)" stroke="#FFFFFF" stroke-width="1.19999993">
            <g id="Group-18" transform="translate(479.000000, 310.000000)">
                <g id="Page-1" transform="translate(43.000000, 0.000000)">
                    <path d="M53.2504,4.30605839 C53.2504,2.04021898 51.4176,0.200729927 49.16,0.200729927 L32.8894,0.200729927 C30.6318,0.200729927 28.79888,2.04021898 28.79888,4.30605839 L28.79888,12.5167153 C28.79888,14.7825547 30.6318,16.6222847 32.8894,16.6222847 L34.572,16.6222847 L34.59812,19.7861898 L38.90656,16.6222847 L49.16,16.6222847 C51.4176,16.6222847 53.2504,14.7825547 53.2504,12.5167153 L53.2504,4.30605839 Z" id="Stroke-3"></path>
                    <path d="M42.4864,5.14591241 C42.9688,4.54532847 43.708,4.16072993 44.536,4.16072993 C45.9888,4.16072993 47.1684,5.34463504 47.1684,6.80273723 C47.1684,7.77627737 46.6424,8.62737226 45.8608,9.08543796 L44.528,10.4231022 L44.536,10.4315328 L40.8136,14.1675182 L40.8056,14.1594891 L40.7972,14.1675182 L37.07484,10.4315328 L37.08296,10.4231022 L35.47484,8.80923358 L35.54548,8.73817518 C35.02792,8.25562044 34.70388,7.56671533 34.70388,6.80273723 C34.70388,5.34463504 35.88332,4.16072993 37.33608,4.16072993 C38.32028,4.16072993 39.17908,4.70430657 39.6308,5.5080292 L40.8056,6.68711679 L42.4136,5.07324818 L42.4864,5.14591241 Z" id="Stroke-4"></path>
                    <polygon id="Stroke-6" points="33.77968 35.1342007 38.24168 40.659292 47.1804 40.659292 44.188 35.1342007 47.5564 29.2131095 38.54716 29.2003029"></polygon>
                    <path d="M25.0118,20.064281 C25.0118,17.3154854 22.78824,15.0836496 20.04944,15.0836496 L5.16236,15.0836496 C2.42356,15.0836496 0.2,17.3154854 0.2,20.064281 L0.2,49.9087263 C0.2,52.6575219 2.42356,54.8891971 5.16236,54.8891971 L20.04944,54.8891971 C22.78824,54.8891971 25.0118,52.6575219 25.0118,49.9087263 L25.0118,20.064281 Z" id="Stroke-7"></path>
                    <path d="M12.53404,26.7930292 C17.12092,26.7930292 20.84484,30.5305803 20.84484,35.1342007 C20.84484,39.737781 17.12092,43.4753321 12.53404,43.4753321 C7.9472,43.4753321 4.22324,39.737781 4.22324,35.1342007 C4.22324,30.5305803 7.9472,26.7930292 12.53404,26.7930292 Z" id="Stroke-10"></path>
                    <path d="M12.53404,31.3568248 C14.61124,31.3568248 16.29768,33.0493796 16.29768,35.1342007 C16.29768,37.2189818 14.61124,38.9115365 12.53404,38.9115365 C10.45684,38.9115365 8.7704,37.2189818 8.7704,35.1342007 C8.7704,33.0493796 10.45684,31.3568248 12.53404,31.3568248 Z" id="Stroke-11"></path>
                </g>
            </g>
        </g>
    </g>
</svg>
