<svg height="58" viewBox="0 0 159 58" width="159" xmlns="http://www.w3.org/2000/svg"><g fill="#8e8e8e"><path d="m35.6418274 6.65774648c-12.1792386-5.02394366-26.31167512-6.99267606-31.60629441-6.6087324-5.29461928.38394367-2.87329949 3.34929578-1.38015228 4.53380282 0 0 3.64812183 2.60591549 4.035533 1.3315493.38741116-1.2743662-1.58192894-.95577465-1.19451777-2.64676057.38741117-1.69098591 15.72243656.98845071 30.35527916 6.53521127 20.8637056 8.8797183 24.0840609 14.3366197 24.0840609 18.2169014s-8.8781725 7.2785916-23.5271573 10.9628169c-14.6489848 3.6842254-30.8798985 5.0647887-32.13898479 5.2771831-1.2590863.2123944-.8071066 1.6338028.28248731 1.6338028s22.33263958-2.4507042 31.79192898-4.4602817c9.4592893-2.0095774 25.4157868-5.3588732 26.4004568-12.8416901.9846701-7.4828169-11.5335533-15.5211268-27.1026396-21.93380282z"/><path d="m15.8192893 29.58c.3793401-.0490141 1.6142132-.6208451.9362437-13.5197183-.4196954-8.9287324-1.1218782-10.48901409-2.6634518-10.06422536-.98467.27774648-1.347868 1.98507042-.4600507 11.77154926.8878172 9.7864789 1.8159898 11.8532395 2.1872588 11.8123944z"/><path d="m68.6040609 19.0664789c.728696.0033074 1.3874588-.4384301 1.6685859-1.1188805.281127-.6804505.1291383-1.465328-.3849736-1.9880229-.5141118-.5226949-1.2888876-.6800541-1.962436-.3985764s-1.1129456.946243-1.1129529 1.6837896c-.00001 1.0029101.8009016 1.8171928 1.7917766 1.8216902z"/><path d="m68.6040609 23.2898592c-1.3801523-.2205634-1.347868 4.4439436-1.347868 7.9402816 0 3.4963381.484264 6.9681691 1.961269 8.4549296 1.4770051 1.4867606.9281726-10.2030986.7425381-12.9887324s-.4519797-3.2594366-1.3559391-3.4064788z"/><path d="m146.005584 46.2366197c.952386.0898592 12.324518 5.4732395 12.324518 5.4732395l.161421-.2123944s-12.405229-8.0791549-16.384264-8.5938028c-3.979036-.5146479-3.414061 1.748169-5.98066 1.2253521-2.001624-.4084507-8.167919-2.7366197-11.20264-6.2819718-4.309949-5.0321127-7.933857-10.0152113-12.510152-9.8763381-4.576294.1388733-6.634416 4.5338028-6.860406 5.1056338s-.887817 2.4507043-1.452792 2.4507043c-.564974 0-2.849086-6.7966198-3.728832-12.8988733-.5154331-3.089638-.7504739-6.2205301-.7021831-9.3535211 0 0-.1452792-.4738028.4196951-1.4622535.564975-.9884507 3.40599-3.97014088 2.986295-7.2295775-.419696-3.25943662-1.380153-3.64338028-1.912843-3.64338028s-1.7756344 0-3.1315735 3.64338028c-.8071066 2.17295775-1.1541624 6.1267606-.9201015 11.0853521-1.7826169 2.7399836-3.8945698 5.2452636-6.2873604 7.4583099-4.3180203 3.9456338-4.6973604 4.4766197-6.5375635 3.3574648-1.2832995-1.5112676-2.695736-2.7039437-3.5109137-3.9374648-1.6142132-2.4507043-1.4931472-3.5453521-.7021827-3.9701409.7909645-.4247887 1.6142132-.0490141 2.1953299 1.1845071.5811168 1.2335211.8071066 2.360845 1.3559391 2.0259155.5488325-.3349296.7021828-2.2628169-1.4447208-4.5338029-2.1469035-2.2709859-5.141269-1.8870422-5.4156853.9721127-.1694924 1.6909859.976599 3.2676057 4.3422335 7.4419719.6941117.8659154 1.3236549 1.6828169 1.8563452 2.4507042.2010764.461752.0229661 1.0025675-.4116244 1.2498591 0 0-7.465736 4.6808451-6.4568527 8.3242254 1.0088832 3.6433803 6.6021319-.0490141 8.4826903-1.8461972 1.6561513-1.4333759 2.3502253-3.7029816 1.7837056-5.8326761 1.8047402-1.1118474 3.4366869-2.488307 4.8426396-4.084507 2.5988832-2.9490141 5.0605584-6.1185915 6.0775127-7.4664789.121066 1.4132395.2905584 2.883662.5004061 4.3949296 1.1703045 8.2752113 3.4544165 18.1923944 6.3035025 18.0535211 2.849086-.1388732 2.80066-3.4473239 4.035533-5.4814084s2.380964-3.8312676 4.61665-3.7332395c2.235685.0980282 3.736903.7107043 8.498832 6.2819719s12.106599 8.4712676 13.583604 8.8878873c2.146904.6126761 1.404366 2.3690141 2.42132 3.7740845 2.824873 4.0845071 18.837868 6.7557747 18.837868 6.7557747l.137208-.4002817-12.954061-4.7952113c-.22931-.246878-.309497-.5996122-.209847-.9230986.169492-.563662.960456-.4002817.960456-.4002817l13.091269 4.8442254.185635-.4247888-13.25269-5.2935211c-.330441-.2589096-.41098-.7302894-.185635-1.0864789.163916-.3717183.556017-.5836014.952386-.5146478l12.663502 5.1056338.209848-.3022536s-12.211523-5.0076056-12.655431-5.6284507c-.443909-.620845.024213-1.4377465.98467-1.3397183zm-64.1246195-10.2929577c-4.5278681 2.9816901-4.8991371.9476056-4.2050254-.3267606s3.3656345-3.0225352 6.1662944-4.2969014c0 0 .2098477-.0816901.5569036-.2450704.4196954 1.756338-.1775635 3.3411267-2.5181726 4.8687324z"/></g></svg>