<svg height="30" viewBox="0 0 169 30" width="169" xmlns="http://www.w3.org/2000/svg"><g fill="#8e8e8e"><path d="m21.8221749 16.2394737v10.1842105c-.0477796 1.3583545-1.1937035 2.4253897-2.5689598 2.3921053h-1.3903546v.5210526h11.7980378v-.5210526h-1.3943498c-1.3717137.0182379-2.5088304-1.0457457-2.5649646-2.4v-22.67763161c.0540596-1.35518536 1.1924227-2.42033513 2.5649646-2.4h1.3943498v-.52105263h-11.7980378v.52105263h1.3903546c1.3757491-.02674838 2.5190703 1.04137689 2.5689598 2.4v11.05263161h-13.9834515v-11.05263161c.06436661-1.3521065 1.19898666-2.41210289 2.5689598-2.4h1.3903546v-.52105263h-11.7980378v.52105263h1.39434988c1.37171368-.01823788 2.5088304 1.04574569 2.56496454 2.4v22.68552631c-.05410861 1.3539433-1.19375002 2.4167815-2.56496454 2.3921053h-1.39434988v.5210526h11.7980378v-.5210526h-1.3903546c-1.37243068.0183058-2.51072422-1.0451224-2.5689598-2.4 0 0 .01997636-10.1842106 0-10.1842106h13.9834515"/><path d="m49.8809693 21.8802632c.103877 1.6776315-.9468795 4.2197368-2.3971632 5.5263157-1.6479297 1.51204-3.8158899 2.3487897-6.0648226 2.3407895-3.0284161 0-5.6333334-1.6026316-6.5802128-1.9736842-.5787172-.2227593-1.2256771-.1940955-1.7818913.0789474-.5273759.3197368-.8509929.8407895-.970851 1.8h-.4474705v-9.8684211h.4434752c.2775896 2.1781568 1.229202 4.2184791 2.7247754 5.8421053 1.4582742 1.6578947 4.2070213 2.5973684 6.8518913 2.1789474 2.1055082-.3355264 4.394799-2.5934211 4.1550827-5.3921053-.0918912-1.0105263-.3156265-2.4789474-2.4331206-3.8526316-1.3344208-.8565789-3.2241844-2.0842105-5.0180614-3.2565789-2.2533334-1.4881579-4.3069031-3.0947369-4.8862175-3.7460527-1.0774632-1.0837198-1.6863395-2.53882559-1.6979906-4.0578947-.0079697-1.82341658.7195153-3.57486738 2.0216076-4.86710526 1.5873154-1.49196494 3.7109744-2.29743366 5.9010165-2.2381579 2.6488653 0 4.6864539 1.40131579 5.3736407 1.72105263.5940704.2851019 1.2877026.2851019 1.8817731 0 .4234988-.24078947.7071631-.6.8270212-1.55921052h.4474705v9.36315789h-.4474705c-.3995272-3.04342105-1.7379432-5.325-2.6688416-6.16578947-1.4641761-1.3464597-3.5027851-1.89939691-5.4575413-1.48026316-2.5929315.48947368-3.8594327 1.67368421-4.099149 3.72236842-.1797872 1.57894737.6791962 2.53421053 1.17461 3.11842105 1.0068085 1.18421052 7.4192198 4.79605262 10.3237825 7.28289472 1.4982269 1.2789474 2.6688416 2.8026316 2.8246572 5.4828948"/><path d="m68.5748463 14.7789474c5.1299291 1.7486842 6.5961939 5.3368421 5.6413239 9.0315789-1.1186761 4.3421053-6.068818 5.2342105-7.6789125 5.4434211-.7231442.0947368-2.5729551.0868421-4.3947991.0868421-3.2641371 0-7.3952482 0-10.7073286.0001611v-.5251611h1.7019858c1.2595422-.0206763 2.2792165-1.0176848 2.3132625-2.2618421v-22.77631582c-.0316296-1.24843436-1.0496249-2.25248678-2.3132625-2.28157895h-1.6979905v-.52105263h10.2478723c1.565165-.0294459 3.1291576.10285207 4.6664776.39473684 1.4582742.27631579 5.6972577 1.51973684 6.7080614 5.43947369.7990544 3.03157894-.7471158 6.86447367-4.4786997 7.96184207zm-9.2930023-.7973685c1.4183215.3631579 5.5933806.4578948 7.1914893-.5565789 2.5290071-1.5789474 3.4079669-4.14473684 2.9445154-6.40657895-.2729696-1.40024823-1.0832057-2.64204634-2.2613239-3.46578947-2.4650827-1.73684211-6.0288652-1.45657895-7.8826714-.89605263zm0 13.756579c1.9976359.6078947 5.7931442 1.0776316 8.4420094-.7894737 3.1962175-2.2539474 3.8514421-7.7565789-.6352482-10.6223684-1.8058629-1.156579-6.3085343-1.0736842-7.8067612-.7263158z"/><path d="m101.228203 1.31447368.399527 9.66710522h-.587304c-.283665-2.43947364-1.198582-4.16052627-2.3971636-5.2815789-.572358-.58392963-1.2088816-1.1029307-1.8977541-1.54736842-1.9349184-1.24328482-4.2738142-1.71842653-6.5482506-1.33026316-4.0791726.71842105-6.1806856 3.39078947-7.2314421 5.96052632-1.2944681 3.15789476-2.1095035 8.56184206.0799054 13.12499996 1.4994217 3.054101 4.4403836 5.1693557 7.8427187 5.6407895 2.2493381.3394737 7.2314421.2328947 11.0309453-4.843421l.603286.3947368c-2.944515 4.1210526-6.8638767 6.7618421-11.350567 6.7105263-4.2282526-.0344698-8.2352416-1.8721917-10.9909929-5.0407895-1.7379433-1.9736842-3.0723641-5.6842105-3.0923404-8.925 0-2.8815789.6272577-6.08684206 1.6740189-7.96184206 1.8018676-3.22105263 5.5614184-6.42236842 10.507565-6.9 3.7076123-.35921053 6.1447281.35921052 8.2262648 1.53947368 1.0387707.59210526 1.6260756.65921053 2.1934042.41842105.6722044-.27269947 1.0855404-.94692691 1.0187944-1.6618421h.495414"/><path d="m111.140473 15.0947368 14.394964 14.25v-28.50394733z"/><path d="m125.539433 29.3447368h28.785933l-14.394964-14.25z"/><path d="m139.930402 15.0947368 14.394964-14.25394733h-28.785933z"/><path d="m154.325366.84078947v28.50394733l14.39896-14.2539473z"/></g></svg>