<svg clip-rule="evenodd" fill-rule="evenodd" stroke-linejoin="round" stroke-miterlimit="1.41421" viewBox="0 0 2009 1908" xmlns="http://www.w3.org/2000/svg"><path d="m2711.27 1483.54c331.8 822.57 451.01 911.48 610.39 496.34 159.37-415.14 256.52-165.44 358.22-115.84 101.7 49.59 148.25-114 111.4-415.41-36.84-301.4-24.68-418.59 47.66-298.55 72.34 120.05 74.16-4.25 1.39-183.402-72.76-179.157-120.26-211.151-151.4-15.349-31.13 195.801-60 76.031-121.11.437-61.12-75.594-105.36-111.198-120.82-40.177-15.45 71.021-74.16 10.708-103.9-117.687-29.74-128.396-108.96-199.511-132.24 47.01-23.28 246.518-126.76 203.328-344.86-109.198-267.35-383.117-536.86-361.522-444.75 13.429 39.66 161.434 179.02 463.227 290.02 738.397z" fill="#ffc2c5" transform="matrix(.762644 0 0 .762644 -1016.8587 -105.813)"/><g opacity=".897592" transform="translate(-1426.978 -545.9312)"><path d="m3812.24 1545.29c-2.73 23.25 10.31 81.71 42.03 35.48 31.72-46.24 44.35 2.66 68.66 52.36 24.31 49.71 62.25 65.5 112.84-9.77 50.58-75.27 72.34-89.56 134.03-3.76 61.68 85.81 90.57 23.26 111.02-31.84 0 0 29.32 17.62 27.59 17.62-1.74 0-27.58-63.59-27.58-63.59l-426.95-23.79s-38.91 4.04-41.64 27.29z" fill="#c72027" transform="translate(-873.177)"/><path d="m4094.78 1019.72c-116.02 0-185.51 162.19-277.35 504.44-32.9 122.6 99.95 113.77 137.15 73.79 37.21-39.99 61.39-57.39 93.42-2.71s42.05 25.74 64.3 4.05 28.75-4.59 38.81 19.96c10.08 24.56 36.32 39.84 70.54 10.79 34.21-29.05 49.42-28.1 60.46-8.52 11.05 19.59 35.16 14.64 22.91-68.59-6.47-44-11.86-190.5-43.51-318.82-28.23-114.42-77.34-214.39-166.73-214.39" fill="#e6232c" transform="translate(-873.177)"/><path d="m4060.32 1228.46s26.89-20.12 44.07-9.98c17.17 10.14 15.82 15.52 15.82 15.52z" fill="#c72027" transform="matrix(1.19697 0 0 1.51064 -1681.7 -625.142)"/><path d="m4060.32 1228.46s26.89-20.12 44.07-9.98c17.17 10.14 15.82 15.52 15.82 15.52z" fill="#e6232c" transform="matrix(1.57575 0 0 1.43839 -3236.14 -526.436)"/><path d="m3936.98 1280.06s16.64 45.02 53.66 52.74c104.69 21.82 97.29-22.16 78.14-49.79-22.33-6.79-44.13 12.91-76.78.17z" fill="#c72027" transform="translate(-870.177)"/><path d="m3966.82 1263.99c20.24 22.9 42.8 37.01 81.18 22.58s39.23 28.01 12.32 35.68c-26.91 7.66-57.34 21.33-98.26-11.51-40.92-32.85-15.48-69.66 4.76-46.75z" fill="#e6232c" transform="matrix(.992402 .123037 -.123037 .992402 -689.602 -487.392)"/><path d="m3936.98 1280.06s16.64 45.02 53.66 52.74c104.69 21.82 97.29-22.16 78.14-49.79-22.33-6.79-44.13 12.91-76.78.17z" fill="#c72027" transform="matrix(-1 0 0 1 7286.98 0)"/><path d="m3966.82 1263.99c20.24 22.9 42.8 37.01 81.18 22.58s39.23 28.01 12.32 35.68c-26.91 7.66-57.34 21.33-98.26-11.51-40.92-32.85-15.48-69.66 4.76-46.75z" fill="#e6232c" transform="matrix(-.992402 .123037 .123037 .992402 7106.41 -487.392)"/><circle cx="3174.826" cy="1162.1781" fill="#efe5ff" r="27.152"/><circle cx="3259.994" cy="1162.1781" fill="#efe5ff" r="27.152"/><circle cx="2245.98" cy="1003.99" fill="#1c1c1c" r="48.769" transform="matrix(.2514781 0 0 .311318 2702.235058 858.143075)"/><circle cx="2245.98" cy="1003.99" fill="#efe5ff" r="48.769" transform="matrix(.12573905 0 0 .155659 2984.641468 1000.353348)"/><circle cx="2245.98" cy="1003.99" fill="#1c1c1c" r="48.769" transform="matrix(.2514781 0 0 .311318 2615.055058 856.143075)"/><circle cx="2245.98" cy="1003.99" fill="#efe5ff" r="48.769" transform="matrix(.12573905 0 0 .155659 2897.461468 998.353348)"/><g fill="#e6232c"><path d="m4001.32 1143.38c40.94 5.51 56.89 6.05 73.83-34.71 16.94-40.77-114.77 29.2-73.83 34.71z" transform="translate(-873.177)"/><path d="m4001.32 1143.38c40.94 5.51 56.89 6.05 73.83-34.71 16.94-40.77-114.77 29.2-73.83 34.71z" transform="matrix(-1 0 0 1 7307.88 0)"/><path d="m3993.39 1204.86s56.2-38.38 83.28-15.53c27.07 22.86-86.16 34.21-83.28 15.53z" transform="translate(-873.177 -8)"/><path d="m3993.39 1204.86s56.2-38.38 83.28-15.53c27.07 22.86-86.16 34.21-83.28 15.53z" transform="matrix(-1 0 0 1 7311.01 -7)"/></g></g><path d="m1541.58 2123.18c3.72-29.92 70.54-20.53 118.15 90.59 47.6 111.11 144.07 78.6 245.36-68.49 101.29-147.1 151.47-144.08 190-76.85 38.53 67.24 71.24 57.41 109.78 2.7s60.97-20.67 114.29 65.02c53.31 85.69 111.14 175.77 175.16-10.91 64.02-186.69 69.7-10.76 117.15-3.43l-16.19-188.72-1006.44-111.56s-56.42 375.22-47.26 301.65z" fill="#c72027" transform="translate(-1391.182 -635.18764)"/><path d="m2507.65 1484.63s159.63 32.29 159.63 109.9c0 77.6-128.58 151.98-147.21 119.1-18.63-32.87-29.75-35.71 23.8-82.89 22.75-20.05 41.14-29.33 41.14-29.33s-44.27-10.71-69.65-32.02c-25.38-21.3-7.71-84.76-7.71-84.76z" fill="#c72027" transform="matrix(-.978205 -.20764 -.20764 .978205 3064.855 -130.088)"/><path d="m2102.35 998.515c-386.69 0-501.87 734.745-556.92 1061.835-25.58 152.02 82.39 120.22 142.59 63.58 104.58-98.4 162.13-202.56 240.7 48.91 78.58 251.47 205.52 162.22 297.34-24.96 91.81-187.18 163.17-247.59 263.88-81.55s138.69 56.17 114.45-70.74c-24.24-126.92-52.52-997.075-502.04-997.075z" fill="#e6232c" transform="translate(-1391.182 -635.18764)"/><circle cx="2245.98" cy="1003.99" fill="#c72027" r="48.769" transform="matrix(1.70442 0 0 2.54052 -3265.695 -1928.733)"/><path d="m1953.57 1518c16.99-35.92 111.67 59.39 203.94-22.59 26.61-23.64 15.14-27.6 15.14-27.6s-8.26-25.42-18.84-12.24c-40.95 51.02-85.81 41.93-190.45 28.72-9.43-1.19 7.37-21.33-2.14-25.43-18.26-7.86-24.64 95.06-7.65 59.14z" fill="#c72027" transform="translate(-1369.458 -629.317851)"/><circle cx="562.397017" cy="666.786159" fill="#efe5ff" r="70.429751" stroke-width="1.44415"/><path d="m1891.45 1335.16c5.18-1.25 13.31-1.8 25.79.26 25.26 4.17 72.35 20.38 90.84 11.12 7.21 30.93-19.76 35.48-54.51 25.85-18.35-5.07-51.89.77-64.57-11.53-5.21-5.05 5.91-19.24 2.45-25.7z" fill="#c72027" transform="translate(-1391.182 -635.18764)"/><ellipse cx="1942.47" cy="1405.36" fill="#e6232c" rx="84.322" ry="32.964" transform="matrix(.999748 .0224448 -.0224448 .999748 -1361.926 -689.9192)"/><circle cx="2245.98" cy="1003.99" fill="#c72027" r="48.769" transform="matrix(1.58645 0 0 2.45372 -2731.575 -1824.483)"/><circle cx="831.577017" cy="670.786159" fill="#efe5ff" r="70.429751" stroke-width="1.44415"/><path d="m2156.76 1183.3s17.25 15.11 38.64 13.9c20.03-1.13 49.86.02 69.42 12.54l2.92-48.92-113.51-18.33z" fill="#e6232c" transform="matrix(1.29178 0 0 1.29178 -1991.863 -964.885)"/><path d="m2156.76 1174.01s12.4 15.8 38.64 23.19c19.31 5.44 49.86.02 69.42 12.54l2.92-48.92-44.99-27.62z" fill="#e6232c" transform="matrix(1.29178 0 0 1.29178 -2306.805 -993.936)"/><path d="m2158.1 1333.93c3.97-2.17 12.92-4.82 31.32-1.78 27.25 4.5 79.94 23.01 94.67 8.43 10.07 39.43-21.07 43.85-61.34 35.81-51.28-10.22-86.48-7.4-64.65-42.46z" fill="#c72027" transform="translate(-1391.182 -635.18764)"/><ellipse cx="1942.47" cy="1405.36" fill="#e6232c" rx="84.322" ry="32.964" transform="matrix(.997452 .0713457 -.0713457 .997452 -1012.4582 -783.261)"/><path d="m2538.86 1553.01c43.04 194.37 54.63 379.17 64.77 438.35-53.41-25.04-85.92-232.84-85.92-232.84s-78.9-24.81-1.14-95.47c18.63-16.94-21.47-105.89-21.47-105.89l36.71 15.81z" fill="#c72027" transform="translate(-1391.182 -635.18764)"/><path d="m2507.65 1484.63s159.63 32.29 159.63 109.9c0 77.6-128.58 151.98-147.21 119.1-18.63-32.87-27.2-32.97 23.8-82.89 28.25-27.67 35.14-34.02 35.14-34.02s-38.34-13.37-47.69-22.27c-23.99-22.86-23.67-89.82-23.67-89.82z" fill="#e6232c" transform="translate(-1391.182 -635.18764)"/><circle cx="2245.98" cy="1003.99" fill="#1c1c1c" r="48.769" transform="matrix(.49384503 0 0 .6113568 -291.391658 42.629179)"/><circle cx="2245.98" cy="1003.99" fill="#efe5ff" r="48.769" transform="matrix(.24692251 0 0 .3056784 263.18945 321.897382)"/><circle cx="2245.98" cy="1003.99" fill="#1c1c1c" r="48.769" transform="matrix(.49384503 0 0 .6113568 -562.111658 35.087179)"/><circle cx="2245.98" cy="1003.99" fill="#efe5ff" r="48.769" transform="matrix(.24692251 0 0 .3056784 -7.53055 314.355382)"/><path d="m1891.45 1219.74s-8.08 20.58 73.39 34.91 59.16 8.89 59.16 8.89l-30.82-44.33z" fill="#c72027" transform="translate(-1391.182 -635.18764)"/><path d="m1891.45 1219.74s-8.08 20.58 73.39 34.91 59.16 8.89 59.16 8.89l-30.82-44.33z" fill="#c72027" transform="matrix(.998818 -.0486164 .0486164 .998818 -1179.109 -532.1509)"/><g transform="translate(-2267.775 -635.18764)"><path d="m2805.82 724.995-19.65 64.177 71.65 62.938 39.36-77.26z" fill="#ffacb0" transform="translate(-187.297 57.3005)"/><path d="m3089.89 505.188-18.58 61.318 74.23 37.64 26-77.13z" fill="#ffacb0" transform="translate(-50 130)"/><path d="m2786.17 1755.91-53.89 87.63 37.12 35.07 58.1-99.95z" fill="#c72027" transform="matrix(.539011 -.122825 .122825 .539011 1134.97 1257.58)"/><path d="m3305.89 1358.86 70.61-53.04 12.96 33.16 3.17 29.61-52.23 57.13z" fill="#c72027" transform="matrix(.968898 -.247462 .247462 .968898 -244.199 932.873)"/><g fill="#ffacb0"><path d="m3305.89 1358.86 70.61-53.04 25.02 53.04-61.12 66.86z" transform="translate(.004563 -.643367)"/><path d="m2786.17 1755.91-53.89 87.63 37.12 35.07 58.1-99.95z"/><path d="m2786.17 1755.91-53.89 87.63 37.12 35.07 58.1-99.95z" transform="matrix(.92895 0 0 .726208 756.983 -365.746)"/><path d="m3210.8 2362.39-.31 39.5 114.22 13.99-3.3-90.3z"/><path d="m3656.14 2441.7 75.86-70.97 35.21 45.15-71.63 67.16z"/><path d="m3656.14 2441.7 75.86-70.97 35.21 45.15-71.63 67.16z" transform="translate(-1388.36 -1076.47)"/><path d="m2707.89 2483.04-7.84 56.22 110.88 3.88-5.13-60.1z"/><path d="m2328.21 2237.25-14.05 42.78 90.46 28.81 6.18-44.36z"/></g></g></svg>