<svg height="49" viewBox="0 0 152 49" width="152" xmlns="http://www.w3.org/2000/svg"><g fill="#1c1c1c" fill-rule="evenodd" opacity=".498641" transform=""><path d="m30.1843972 0s10.0894661 6.40320946 10.0894661 24.5478575c0 18.0452983-10.0894661 24.4521425-10.0894661 24.4521425 7.7537687 0 14.0141844-10.9660263 14.0141844-24.4521425 0-13.5830428-6.2604157-24.5478575-14.0141844-24.5478575"/><path d="m16.4594121.57272262c-.2353643-.11311271-.5514811-.22765724-.8675979-.34220176-.4726981-.11597633-1.0251639-.23052086-1.5776298-.23052086 0 0 .0797678 0 .1585508.11454453.157566.23052085.5524659.57415443 1.1049317 1.26285338.1565812.22908905.3939151.57415443.5514811.80037987.315132-.22622544.5504963-.4581781.7878301-.68583534h.0807526c.1555964-.23052086.3141472-.34506539.5504963-.45960991-.3161169-.11454452-.5504963-.34363357-.7888149-.45960991"/><path d="m21.6992142 2.4344291c-.1041979-.08590839-.2083958-.17289064-.4167916-.25665132-.2083958.25665132-.4154892.5143765-.7293854.68726715-.1055003.17289064-.1055003.25879903-.2083958.34363357-.3138962.25879904-.6264899.60243261-.9403861.94714004.1055004.08590839.1055004.08590839.2096983.17181679.3125937.34363357.5209895.68726715.8335833 1.11680911.3138962-.42954196.6264899-.77317554.9403861-1.03197457.1028954-.17074294.2070933-.34363358.4167916-.43168968.2096983-.25557747.5196871-.51330265.8335833-.77210169-.3138962-.25772518-.623885-.51652422-.9390837-.7742494"/><path d="m25.0431253.57272262c-.2494892-.11311271-.5817964-.22765724-.8292151-.34220176h-.331272c-.1666712-.11597633-.3323072-.11597633-.5817964-.11597633-.165636-.11454453-.4151252-.11454453-.5797259-.11454453 0 0-.082818 0-.082818.11454453 0 0 .082818 0 .082818.11597633.1646007.11454452.3333424.34220176.5797259.57272262.1666712.22908905.3333424.34363357.4979432.57415443.2484539.22908905.4151252.57415443.6625439.80037987.2505244-.22622544.4989784-.4581781.7463971-.68583534h.0838533c.1656359-.23052086.3302367-.34506539.5807611-.45960991-.2505244-.11454452-.5807611-.34363357-.8292151-.45960991"/><path d="m24.1302609 7.62222222c-.2792639.48400723-.4635086.96922447-.7416138 1.55124316-.0938605.28919432-.279264.57959866-.3731245.87000302-.2781052.6788201-.5562104 1.3576402-.8354743 2.1320518 1.1147383 3.2960892 1.8575109 7.36538 1.8575109 12.4038952 0 4.9417138-.7427726 9.0110045-1.8575109 12.3058837-.1854035.7756216-.4646675 1.4532317-.7416139 2.1320519-.279264.5808086-.5550516 1.1628273-.7416139 1.743636-.1865622.1936029-.2792639.4840072-.4646674.7756216-.1854035.4840072-.4635087.871213-.7427726 1.3564302-.1842447.3872058-.4635087.7744116-.7416139 1.0660259 0 .0968015-.0927017.1936029-.1865622.3872058-.2769465.2904044-.5562104.6776101-.7416139.9716445-.2781052.3847858-.5562104.6751901-.7427726.9655944-.0927018 0-.1854035.0992215-.1854035.194813-.2769464.2904043-.4635086.4840072-.7416138.6800301-.1854035.1911829-.3719657.3847857-.5573692.5795987-.4635087.3872057-.8354744.7744115-1.1135796.9680144-.2781052.1948129-.4646674.2940344-.4646674.2940344.6500709 0 1.3001418 0 1.8563522-.1972329.4646674-.0968015.8354744-.1936029 1.2062813-.3872058.2781052-.0968015.4646674-.1936029.7427726-.2904044.1854035-.0968014.4646674-.1936029.6489121-.3872057h.0927018c.2792639-.194813.5573691-.3884158.8366331-.5795987.2781052-.1960229.5562104-.3896258.8343156-.6800301.1854035-.0955915.2781052-.2916144.4646674-.3884158.2781052-.1911829.4623499-.4840073.7416139-.7719916.2769464-.2940344.4658262-.5844387.7416139-.872423.0938605-.1960229.2792639-.2928244.3731244-.4864273.2781052-.3859957.5562104-.6788201.7416139-1.0660259.2781052-.4852172.5562104-.9692244.8354743-1.3564302 2.4125626-4.4577066 3.8981079-10.3686448 3.8981079-16.9571932 0-6.5897584-1.4855453-12.5962881-3.8981079-16.95719318"/><path d="m27.871476 2.17777778c-.2758105.29172344-.463547.58466748-.6489658.7811841-.0927094.19651663-.1854188.29416464-.2781282.39059205-.2792871.29416464-.5574153.68475669-.8355435 1.07656935 2.6920492 3.8119343 5.5683583 10.16515812 5.5683583 19.93972422 0 9.6769181-2.8763091 16.030142-5.5683583 19.9397243-.279287.292944-.4647058.6835361-.7416752.9801419-.2804459.3881509-.5574152.6810949-.7439929.9740389-.0915505 0-.1842599.1000892-.1842599.1965167-.2792871.292944-.463547.48824-.6512835.6859773-.2769693.1928548-.463547.3881508-.5562564.5846674-.2781282.1952961-.5562564.4882401-.7428341.5858881-.1854188.195296-.2758104.292944-.3696787.3905921-.1865777.097648-.1865777.097648-.2792871.1965166-.0927093 0-.0927093 0-.0927093.1000892h-.0927094-.0938683.9282528c.2792871 0 .4647059-.1000892.6512836-.1000892.0915505 0 .2781282-.0988686.3708376-.0988686.3708375-.097648.7416751-.1952961 1.206381-.3905921.1854188-.097648.3696787-.195296.6501246-.292944.18426-.097648.4623882-.195296.7416752-.3905921.2781282-.1965166.5562564-.3918126.8355435-.5846674.2781282-.1977373.5574152-.3930333.927094-.6859773 4.5497137-4.008451 7.7029921-12.4135037 7.7029921-22.0904218s-3.1532784-18.08319138-7.7029921-22.18806972"/><path d="m21.3935591 48.7667689h-.0828445c-.081809-.1144693-.2464624-.3434078-.4970671-.5723464-.165689-.2289385-.331378-.3434078-.5799115-.5723463-.165689-.2289385-.3313781-.4593079-.4970671-.799854-.2495691.2260768-.4981026.4550154-.7476717.6853847h-.0828445c-.1646535.2289386-.4142225.3434078-.5799116.4578771.1656891.2289385.4152581.3434078.6627561.4578771.4152581.1144692.7476717.3434078 1.1629298.4593079h.3303425c.331378.117331.6637916.117331.9951697.117331h.0828445c-.0828445-.117331-.1667246-.117331-.1667246-.2332311"/><path d="m22.5455885 0h-.0927094-.2781282c-.3708376 0-.6501247.09537962-1.0209623.09537962-.1842599.09657186-.3708376.09657186-.5574152.19195147-.2781282 0-.6489658.09537962-.9282529.28613885-.2769693.09537961-.5562564.19075923-.7416752.28613884-.2781282.09537962-.4647058.19075923-.6478069.38271071h-.0950271c-.2792871.18956699-.5562564.38271071-.927094.57108545-.2792871.19195147-.5574152.38390295-.8355434.6700418-4.547396 3.91294872-7.79686042 12.12513356-7.79686042 21.67263306 0 9.4521199 3.15675502 17.5665407 7.70415102 21.5772535.279287-.2873311.463547-.5710854.742834-.8596088.0915505-.0953796.1854188-.1907592.2781282-.2837543.2781282-.3850952.463547-.671234.7416752-1.0527525-2.5981809-3.7233817-5.3817806-9.929018-5.3817806-19.3811379 0-9.5474995 2.7835997-15.8485153 5.47449-19.57308928.1865777-.28613885.4647058-.66765731.742834-.9549884.2781282-.38151846.4647059-.66765731.7416752-.9549884.0938683-.09657186.0938683-.09657186.1865777-.18956698.1854188-.28613885.463547-.47809033.6501246-.6700418.1854188-.18837474.3708376-.38151846.6489658-.57108545.1854188-.28733109.463547-.47809032.6501247-.57346994.1865777-.19195147.3708376-.38151846.5550975-.47689807 0 0 .0938683-.09657186.1865777-.09657186 0-.09537962.0927094-.09537962.0927094-.09537962z"/><path d="m25.6570068 43.5261559c-.2166795-.3538981-.5396801-.7066936-.8626806-1.0594892-.2153336.3527956-.5383341.7055911-.8613346.9712903-.1090127.1763978-.3243464.2645967-.433359.4431995-.3203089.2623917-.5396801.5269884-.8613347.7948925.2153336.2623918.5410258.5291934.8613347.7915852.1090126.0881989.2166795.1786027.433359.2656991.2139878-.2656991.5369883-.5280909.7536678-.7948925.1076668-.0881989.2166795-.1763978.3216547-.2623918.3256922-.356103.53968-.6206997.8640263-.9734953 0-.0881989-.1076668-.0881989-.2153336-.1763978"/><path d="m28.8649913 48.7667689c-.2434117-.2289386-.6484245-.5723464-1.0504073-1.1446927-.1636212-.2289385-.4060229-.4593079-.567624-.799854-.2434117.2260768-.4858134.4550154-.7282151.6853847-.2434117.2289386-.4858134.3434078-.6464045.4578771.2413917.2289385.4029928.3434078.6464045.4578771.4040029.1144692.7282151.3434078 1.1322179.4593079.4858134.117331.9706168.117331 1.4554202.117331 0 0-.0797906 0-.2413917-.2332311"/><path d="m27.0654486.29094222c-.2793102 0-.5563024.09657833-.9283296.28973498-.2793102.09657833-.4647443.19315666-.7417366.28973499-.2804691.09657833-.4647442.19315666-.6501784.38752054h-.093876c-.2769922.19194943-.5551434.38752055-.8356126.57826275-.2769922.19436388-.5563023.38872777-.8344535.67846276-.1854342.09416387-.2781512.19194943-.4647443.38631331-.2758333.19194943-.5563024.48289165-.7417365.77262663-.2793102.29094222-.5551435.58067721-.7417366.86799774-.1865931.09899278-.2793101.29335667-.3708682.4853061-.2793102.29094221-.5574614.67725553-.8367715 1.16014717-.2781512.38752055-.4635854.77504109-.7417366 1.25793274-2.4129616 4.34964647-3.9914696 10.34353897-3.9914696 17.01468707 0 6.5733625 1.485791 12.4706767 3.8987526 16.9181088.2781512-.5806772.5563024-1.0635689.8344536-1.6442461.093876-.289735.2793101-.5794699.3731861-.9657833.2769923-.5806772.5551435-1.2567255.7405776-2.0305593-1.0198877-3.2872849-1.7627832-7.3471964-1.7627832-12.2775201 0-5.026902.7428955-9.0868135 1.8566592-12.4718839.1865931-.6760483.4624264-1.3533039.7417366-2.03055939.2769922-.57946998.4659032-1.15893995.7417365-1.73961715.1865931-.19315666.2793101-.48409888.4647443-.77262663.1865931-.38752055.4647443-.87041219.6501784-1.25793274.2781512-.38631331.5563024-.77383386.7428955-1.16014717.092717-.0953711.1854341-.28852776.2769922-.38631332.2793102-.28973498.4635853-.6760483.7440544-.96699052.2769923-.38631331.5563024-.6760483.7417366-.96699051.092717-.09778556.1865931-.09778556.1865931-.19194943.2769922-.28973499.4624263-.48409888.6490194-.67846276.1854341-.1907422.4635853-.38631332.6513374-.57826275.4612674-.48409887.9260117-.87041218 1.2053218-1.06356884.1854342-.09778556.2769923-.19436389.2769923-.19436389-.6490195 0-1.391915.09657833-2.0409344.29094222"/><path d="m3.99031069 24.5478575c0-18.24157458 10.02387371-24.5478575 10.02387371-24.5478575-7.79634622 0-14.0141844 10.9648147-14.0141844 24.5478575 0 13.4861162 6.21783818 24.4521425 14.0141844 24.4521425 0 0-10.02387371-6.2117795-10.02387371-24.4521425"/><path d="m61.7691076 16.6699326c0 2.8174633-.2905514 4.8574863-2.0278321 6.2158844-.6739346.4875679-1.640832.8756817-2.3159723 1.0697386l-.2905514-.7774404c1.4479348-.5833835 2.1254863-1.5548807 2.4124209-3.0103073.1941028-1.359611.1941028-2.6234064.1941028-4.6622165v-9.22861742c0-1.94056877-.0964486-2.13826422-2.0266264-2.32989539v-.68041192h5.8881878v.68041192c-1.7372807.19163117-1.8337293.38932662-1.8337293 2.32989539z"/><path d="m68.9498326 20.6888889c2.5403047 0 4.3551319-2.6930537 4.3551319-6.682809 0-3.7917001-1.8148272-6.38385768-4.1748961-6.38385768-3.08668 0-4.4492173 3.49150298-4.4492173 6.68280898 0 3.4915031 1.7252761 6.3838577 4.2689815 6.3838577m-.1836365-12.06891644c1.8159608 0 2.7239412 1.99425484 2.7239412 5.98401014 0 3.5911535-.8172957 5.0871561-2.2705178 5.0871561-1.8148272 0-2.7228076-2.2944519-2.7228076-5.9840102 0-3.4927487.9079804-5.08715604 2.2693842-5.08715604"/><path d="m83.8150873 13.5473329c0-1.5435297-.0982549-2.5742632-.1952968-3.0883447-.0970419-.61818298-.3881676-.92534668-1.6497123-1.02816298v-.71971411h4.2710566v.71971411c-.969206.1028163-1.2603317.40998-1.3585866 1.02816298 0 .5140815-.0970419 1.4407134-.0970419 3.0883447v8.2304449h-.7763352l-5.828579-9.7739746v4.7346906c0 1.5422445.0970419 2.4701617.1940838 3.0857743.0970419.618183.3893806.9279171 1.5538834 1.0294482v.7197141h-4.1764407v-.7197141c.970419-.1015311 1.2639707-.4112652 1.3610126-1.0294482 0-.6156126.0958289-1.5435298.0958289-3.0857743v-4.7346906c0-1.2350809 0-1.544815-.2923387-1.954795-.1940838-.30973408-.5822514-.51536668-1.4556285-.61818298v-.71971411h2.7195992l5.6344952 9.26246349z"/><path d="m87.3191489 20.6888889v-.6702194c1.5689107-.1902944 1.5689107-.2872369 1.5689107-1.6288724v-7.380791c0-1.34043873 0-1.43618436-1.3731028-1.62767561v-.67021938h7.4480424c0 .47753131.1003515 1.81916689.1958079 2.77781999l-.7832316.0957456c-.1958078-.8629074-.3916157-1.3416356-.5886474-1.62767563-.1958079-.1938849-.5874237-.38417933-1.5664631-.38417933h-1.273975c-.2949356 0-.2949356 0-.2949356.38417933v4.02490673h1.3718789c1.2739751 0 1.2739751-.0969424 1.5676869-1.3428324h.6865514v3.6431211h-.6865514c-.2937118-1.2470868-.3916158-1.3416356-1.5676869-1.3416356h-1.3718789v3.3522937c0 .7671618.0979039 1.1501443.2949356 1.3428324.2937118.1926881.6853276.1926881 1.4697829.1926881 1.0769434 0 1.6655908-.1926881 1.9593026-.5756706.1958079-.2896305.4895198-.8629074.7832316-1.7258149l.7844553.1926881c-.0979039.4787281-.3940634 2.3948374-.5874236 2.9693112z"/><path d="m96.4027123 19.9913357c-.1847035-.5991484-.2770552-1.7961996-.4594499-3.0916556l.7376595-.1008961c.2770553 1.0961551.9235175 2.8923547 2.4958059 2.8923547 1.0170232 0 1.6634862-.7972037 1.6634862-2.1935558 0-1.7949539-1.4787828-2.3941023-2.588158-3.1925517-1.0170236-.7972036-1.8493437-1.7949539-1.8493437-3.191306 0-1.89460434 1.2017271-3.49150298 3.3304347-3.49150298.73766 0 1.201727.19805529 1.939387.39860185.092351.89809977.184703 1.595653.369407 2.79270413l-.738814.0996505c-.368253-1.19705117-.73766-2.29320624-1.9416958-2.29320624-1.0170235 0-1.4787822.79720369-1.4787822 1.79495394 0 1.6965491 1.571134 2.3941023 2.682818 3.0929012 1.107067.7972036 1.845881 1.89585 1.845881 3.3918525 0 2.1923102-1.476474 3.7892088-3.5128299 3.7892088-1.0158691 0-1.6634857-.300197-2.4958058-.6975532"/><path d="m108.879433 19.6v-.6798979c1.925068-.1930425 2.023604-.3885131 2.023604-2.3322927v-10.30773804c0-1.94256548-.098536-2.14046433-1.926269-2.33229267v-.68111202h5.967471v.68111202c-1.92627.19182834-2.022403.38972719-2.022403 2.33229267v10.20939564c0 1.0696251.096133 1.6536089.480666 1.8466513.384533.292599 1.061071.3909413 1.925068.3909413 1.157204 0 2.02-.1954706 2.501868-.7794544.384533-.5815555.771469-1.3597958 1.157204-2.4294209l.672932.1930424c-.096133.6811121-.576799 3.1129612-.769065 3.8887733z"/><path d="m126.504228 20.6888889h3.935488v-.7139558c-.915575-.1007188-1.100748-.3059811-1.555678-1.8384363-1.007018-3.4703353-2.014037-7.0439393-2.929613-10.51427458l-.640102.20271246-2.931899 10.21084332c-.546373 1.633174-.640103 1.7364426-1.644835 1.9391551v.7139558h3.569715v-.7139558c-1.189905-.2027125-1.189905-.3059811-1.007019-1.325918.182887-.7165057.457217-1.94043.641246-2.4516734h2.65414c.365773 1.1232056.730403 2.4516734.824132 2.8596481.182887.6119622.182887.7152308-.915575.9179433zm-1.189905-9.6983251 1.007018 4.0835724h-2.10548c.365773-1.3284678.731546-2.6543858 1.098462-4.0835724z"/><path d="m139.772641 13.5473329c0-1.5435297-.097031-2.5742632-.194062-3.0883447 0-.61818298-.388124-.92534668-1.553708-1.02816298v-.71971411h4.273001v.71971411c-.970309.1028163-1.359646.40998-1.359646 1.02816298-.097031.5140815-.194062 1.4407134-.194062 3.0883447v8.2304449h-.777461l-5.729679-9.7739746v4.7346906c0 1.5422445 0 2.4701617.097031 3.0857743.097031.618183.388124.9279171 1.650739 1.0294482v.7197141h-4.273002v-.7197141c.971523-.1015311 1.26019-.4112652 1.359647-1.0294482.097031-.6156126.097031-1.5435298.097031-3.0857743v-4.7346906c0-1.2350809 0-1.544815-.196488-1.954795-.288667-.30973408-.678004-.51536668-1.454252-.61818298v-.71971411h2.622263l5.632648 9.26246349z"/><path d="m151.110722 17.9958352c0 .6975532.088816 1.2967016.177633 1.9955005-.978095.3973562-2.045007.6975532-2.844359.6975532-3.023102 0-5.068109-2.4937528-5.068109-6.3838577 0-4.48925321 2.579018-6.68280898 5.245743-6.68280898 1.066912 0 1.777447.19805529 2.400275.39860185 0 .89809977.088817 1.89585001.26645 2.99200503l-.710534.1008961c-.445195-2.09639653-1.244546-2.49375274-2.311458-2.49375274-1.68974 0-3.11414 1.79495394-3.11414 5.38610744 0 2.7927041.980316 5.6850588 3.38059 5.6850588.355268 0 .621718 0 .800462-.0984049.177634-.0996504.26645-.2005465.26645-1.0002415v-1.9930092c0-.9977502-.088816-1.0986463-1.600923-1.3963521v-.6987988h4.001198v.6987988c-.800462.2977058-.889278.2977058-.889278 1.3963521z"/><path d="m57.1347518 43.5555556v-.6770357c1.8269389-.1930939 2.0192483-.4827348 2.0192483-2.4136742v-10.246047c0-1.933353-.1923094-2.1264469-1.9242956-2.3195409v-.6770356h5.9676v.6770356c-1.9242956.193094-2.0204503.3861879-2.0204503 2.3195409v10.1470864c0 1.0632235.0961547 1.6425053.4819754 1.933353.3834168.2896409 1.0589034.2896409 1.9242956.2896409 1.1550581 0 2.0216522-.1930939 2.5024256-.7711689.3846187-.5816955.7704394-1.3528644 1.15626-2.4185015l.6730828.1930939c-.0961547.6770356-.5793319 3.1896705-.7704394 3.9632531z"/><path d="m74.7588678 44.6444444h3.9361677v-.8108163c-.9154676-.101194-1.0983325-.2023879-1.5554949-1.8227558-1.0069-3.4443885-2.0138001-6.888777-2.9292676-10.4330945l-.6400273.3035818-2.9281248 10.0270539c-.5508806 1.7228267-.7337455 1.8240206-1.6492131 1.9252146v.8108163h3.5704378v-.8108163c-1.1909078-.101194-1.1909078-.2023879-1.0080429-1.3167861.1840078-.7096225.4583052-1.8227557.6423131-2.4311843h2.6538273c.3657299 1.1143982.7314598 2.5323782.8228922 2.83596.182865.6084286.182865.8108164-.9154675.9120104zm-1.1886221-9.623543 1.0069 3.9503581h-2.1052325c.3657298-1.316786.7314597-2.6310422 1.0983325-3.9503581z"/><path d="m82.8571376 44.3589011c-.6023231-.0951811-1.0042891-.2867331-1.4062552-.4770953-.2003569-.6662678-.3994616-2.0963639-.5998186-3.4300892l.7012493-.1903622c.3005354 1.2385441 1.3048245 3.5252703 3.5100029 3.5252703 1.6053599 0 2.506966-1.048182 2.506966-2.7626317 0-1.6192686-1.1032153-2.5722695-2.6058922-3.4300892-.8039322-.3807245-1.6066122-.8578198-2.2076829-1.5240876-.80268-.6674575-1.3048245-1.5228977-1.3048245-2.7626317 0-2.0963639 1.6066121-3.9071845 4.4141135-3.9071845.6010708 0 1.1032154 0 1.5039292.0975606.4007139.0928016.7012493.2843536 1.1032153.3795347.1001785.85663.2016092 1.7144497.4007139 2.9529939l-.7012493.1903623c-.401966-1.3337253-1.004289-2.8578129-2.8075014-2.8578129-1.4050029 0-2.2064306 1.1433631-2.2064306 2.3819073 0 2.191545 2.2064306 2.8578128 3.7103598 3.8108137 1.5039292.9530008 2.6071445 2.0963639 2.6071445 4.0011759 0 2.4770883-2.0060737 4.2879089-4.8148274 4.2879089-.7012492 0-1.4024985-.1903622-1.8032123-.2855433"/><path d="m95.1873064 44.6444444h3.9899986v-.8108163c-.9974997-.101194-1.1786574-.2023879-1.6326839-1.8227558-.9963674-3.4443885-1.9032882-6.888777-2.810209-10.4330945l-.6351842.3035818-2.9913667 10.0270539c-.5446054 1.7228267-.634052 1.8240206-1.6326839 1.9252146v.8108163h3.6276832v-.8108163c-1.1786574-.101194-1.2692362-.2023879-.9974997-1.3167861.0905789-.7096225.3623154-1.8227557.5434732-2.4311843h2.7207623c.2717366 1.1143982.7246309 2.5323782.7246309 2.83596.1811577.6084286.1811577.8108164-.9069208.9120104zm-1.1763929-9.623543 1.085814 3.9503581h-2.176157c.3634477-1.316786.7257631-2.6310422 1.090343-3.9503581z"/><path d="m100.255319 43.5555556v-.7609273c1.454654-.0949675 1.558465-.189935 1.558465-1.5206673v-7.4145887c0-1.3307323-.103811-1.4268869-1.558465-1.5218544v-.7597401h4.883018v.7597401c-1.454654.0949675-1.55587.1911221-1.55587 1.5218544v7.3196212c0 .7597401.101216 1.1407973.311434 1.2357648.311433.189935.727976.189935 1.452059.189935.831787 0 1.559763-.0949675 1.871196-.4760247.311434-.37987.625463-.9496751.935598-1.8055698l.726679.1923092c-.101216.568618-.415245 2.3741879-.622867 3.0401476z"/><path d="m109.957447 43.5555556v-.7609273c1.435214-.0949675 1.540387-.189935 1.540387-1.5206673v-7.4145887c0-1.3307323-.105173-1.4268869-1.540387-1.5218544v-.7597401h4.930263v.7597401c-1.544234.0949675-1.544234.1911221-1.544234 1.5218544v7.3196212c0 .7597401.103889 1.1407973.309103 1.2357648.207779.189935.720814.189935 1.440345.189935.820856 0 1.435215-.0949675 1.745601-.4760247.305256-.37987.616924-.9496751.924745-1.8055698l.81829.1923092c-.102607.568618-.513034 2.3741879-.715683 3.0401476z"/><path d="m118.58156 43.5555556v-.7609273c1.569689-.0949675 1.666342-.189935 1.666342-1.6156348v-7.3196212c0-1.3307323-.096653-1.4268869-1.468142-1.5218544v-.7597401h7.445929c0 .4748376.097876 1.9005374.193305 2.8513996l-.780562.0949675c-.100323-.9508622-.392728-1.4256998-.590928-1.6156348-.193305-.2849026-.58481-.4760247-1.564795-.4760247h-1.27606c-.291182 0-.291182.0961546-.291182.3810572v3.9921969h1.37149c1.273613 0 1.273613-.0949676 1.567242-1.2357648h.784233v3.5173593h-.784233c-.293629-1.2357648-.391505-1.3307323-1.567242-1.3307323h-1.37149v3.4223918c0 .7597401.095429 1.1407973.291182 1.2357648.293628.189935.688803.189935 1.569689.189935.979985 0 1.568465-.189935 1.862094-.4760247.293628-.37987.587257-.9496751.880885-1.8055698l.686357.1923092c-.097876.568618-.393952 2.3741879-.587257 3.0401476z"/><path d="m127.959342 41.8576407c0-.0959726 0-.1919452-.215334-.1919452-.107667 0-.215334.0959726-.215334.1919452v.2891174c0 .1919451.107667.2879177.107667.2879177l.53968.8637532c.107667.0971723.107667.1931448.107667.38509v.4798629c0 .2879177-.21668.4810625-.53968.4810625-.323001 0-.538334-.1931448-.538334-.4810625v-.4798629h.323v.4798629c0 .0983719.107667.1919451.215334.1919451s.215334-.0935732.215334-.1919451v-.4798629c0-.0959726 0-.1919452-.107667-.2879177l-.430668-.7689803c-.107666-.0959726-.215333-.1919452-.215333-.3838904v-.3850899c0-.2855184.215333-.4798629.538334-.4798629.432013 0 .53968.1943445.53968.4798629v.3850899h-.324346z"/><path d="m130.845547 41.3777778h.672183v3.2666666h-.40331v-2.9787489l-.40331 2.9787489h-.537746l-.539428-2.9787489v2.9787489h-.272234v-3.2666666h.542788l.537747 2.883976z"/></g></svg>