<svg width="152px" height="49px" viewBox="0 0 152 49" version="1.1" xmlns="http://www.w3.org/2000/svg" xmlns:xlink="http://www.w3.org/1999/xlink">
    <!-- Generator: Sketch 48.2 (47327) - http://www.bohemiancoding.com/sketch -->
    <desc>Created with Sketch.</desc>
    <defs></defs>
    <g id="All" stroke="none" stroke-width="1" fill="none" fill-rule="evenodd" opacity="0.498641304">
        <g id="Home" transform="translate(-650.000000, -1232.000000)" fill="#1C1C1C">
            <g id="Group-10" transform="translate(650.000000, 1220.000000)">
                <g id="Group-5" transform="translate(0.000000, 12.000000)">
                    <path d="M30.1843972,0 C30.1843972,0 40.2738633,6.40320946 40.2738633,24.5478575 C40.2738633,42.5931558 30.1843972,49 30.1843972,49 C37.9381659,49 44.1985816,38.0339737 44.1985816,24.5478575 C44.1985816,10.9648147 37.9381659,0 30.1843972,0" id="Fill-40"></path>
                    <path d="M16.4594121,0.572722624 C16.2240478,0.459609906 15.907931,0.345065381 15.5918142,0.230520856 C15.1191161,0.114544525 14.5666503,0 14.0141844,0 C14.0141844,0 14.0939522,0 14.1727352,0.114544525 C14.3303012,0.345065381 14.7252011,0.688698955 15.2776669,1.37739791 C15.4342481,1.60648696 15.671582,1.95155234 15.829148,2.17777778 C16.14428,1.95155234 16.3796443,1.71959968 16.6169781,1.49194244 L16.6977307,1.49194244 C16.8533271,1.26142158 17.0118779,1.14687705 17.248227,1.03233253 C16.9321101,0.917788005 16.6977307,0.688698955 16.4594121,0.572722624" id="Fill-41"></path>
                    <path d="M21.6992142,2.4344291 C21.5950163,2.34852071 21.4908184,2.26153846 21.2824226,2.17777778 C21.0740268,2.4344291 20.8669334,2.69215428 20.5530372,2.86504493 C20.4475369,3.03793557 20.4475369,3.12384396 20.3446414,3.2086785 C20.0307452,3.46747754 19.7181515,3.81111111 19.4042553,4.15581854 C19.5097557,4.24172693 19.5097557,4.24172693 19.6139536,4.32763533 C19.9265473,4.6712689 20.1349431,5.01490248 20.4475369,5.44444444 C20.7614331,5.01490248 21.0740268,4.6712689 21.387923,4.41246987 C21.4908184,4.24172693 21.5950163,4.06883629 21.8047146,3.98078019 C22.0144129,3.72520272 22.3244017,3.46747754 22.6382979,3.2086785 C22.3244017,2.95095332 22.0144129,2.69215428 21.6992142,2.4344291" id="Fill-42"></path>
                    <path d="M25.0431253,0.572722624 C24.7936361,0.459609906 24.4613289,0.345065381 24.2139102,0.230520856 L23.8826382,0.230520856 C23.715967,0.114544525 23.550331,0.114544525 23.3008418,0.114544525 C23.1352058,0 22.8857166,0 22.7211159,0 C22.7211159,0 22.6382979,0 22.6382979,0.114544525 C22.6382979,0.114544525 22.7211159,0.114544525 22.7211159,0.230520856 C22.8857166,0.345065381 23.0544583,0.572722624 23.3008418,0.80324348 C23.467513,1.03233253 23.6341842,1.14687705 23.798785,1.37739791 C24.0472389,1.60648696 24.2139102,1.95155234 24.4613289,2.17777778 C24.7118533,1.95155234 24.9603073,1.71959968 25.207726,1.49194244 L25.2915793,1.49194244 C25.4572152,1.26142158 25.621816,1.14687705 25.8723404,1.03233253 C25.621816,0.917788005 25.2915793,0.688698955 25.0431253,0.572722624" id="Fill-43"></path>
                    <path d="M24.1302609,7.62222222 C23.850997,8.10622945 23.6667523,8.59144669 23.3886471,9.17346538 C23.2947866,9.4626597 23.1093831,9.75306404 23.0155226,10.0434684 C22.7374174,10.7222885 22.4593122,11.4011086 22.1800483,12.1755202 C23.2947866,15.4716094 24.0375592,19.5409002 24.0375592,24.5794154 C24.0375592,29.5211292 23.2947866,33.5904199 22.1800483,36.8852991 C21.9946448,37.6609207 21.7153808,38.3385308 21.4384344,39.017351 C21.1591704,39.5981596 20.8833828,40.1801783 20.6968205,40.760987 C20.5102583,40.9545899 20.4175566,41.2449942 20.2321531,41.5366086 C20.0467496,42.0206158 19.7686444,42.4078216 19.4893805,42.8930388 C19.3051358,43.2802446 19.0258718,43.6674504 18.7477666,43.9590647 C18.7477666,44.0558662 18.6550649,44.1526676 18.5612044,44.3462705 C18.2842579,44.6366749 18.004994,45.0238806 17.8195905,45.317915 C17.5414853,45.7027008 17.2633801,45.9931051 17.0768179,46.2835094 C16.9841161,46.2835094 16.8914144,46.3827309 16.8914144,46.4783224 C16.614468,46.7687267 16.4279058,46.9623296 16.1498006,47.1583525 C15.9643971,47.3495354 15.7778349,47.5431382 15.5924314,47.7379512 C15.1289227,48.1251569 14.756957,48.5123627 14.4788518,48.7059656 C14.2007466,48.9007785 14.0141844,49 14.0141844,49 C14.6642553,49 15.3143262,49 15.8705366,48.8027671 C16.335204,48.7059656 16.706011,48.6091642 17.0768179,48.4155613 C17.3549231,48.3187598 17.5414853,48.2219584 17.8195905,48.1251569 C18.004994,48.0283555 18.2842579,47.931554 18.4685026,47.7379512 L18.5612044,47.7379512 C18.8404683,47.5431382 19.1185735,47.3495354 19.3978375,47.1583525 C19.6759427,46.9623296 19.9540479,46.7687267 20.2321531,46.4783224 C20.4175566,46.3827309 20.5102583,46.186708 20.6968205,46.0899066 C20.9749257,45.8987237 21.1591704,45.6058993 21.4384344,45.317915 C21.7153808,45.0238806 21.9042606,44.7334763 22.1800483,44.445492 C22.2739088,44.2494691 22.4593122,44.1526676 22.5531727,43.9590647 C22.8312779,43.573069 23.1093831,43.2802446 23.2947866,42.8930388 C23.5728918,42.4078216 23.850997,41.9238144 24.1302609,41.5366086 C26.5428235,37.078902 28.0283688,31.1679638 28.0283688,24.5794154 C28.0283688,17.989657 26.5428235,11.9831273 24.1302609,7.62222222" id="Fill-44"></path>
                    <path d="M27.871476,2.17777778 C27.5956655,2.46950122 27.407929,2.76244526 27.2225102,2.95896188 C27.1298008,3.15547851 27.0370914,3.25312652 26.944382,3.34955393 C26.6650949,3.64371857 26.3869667,4.03431062 26.1088385,4.42612328 C28.8008877,8.23805758 31.6771968,14.5912814 31.6771968,24.3658475 C31.6771968,34.0427656 28.8008877,40.3959895 26.1088385,44.3055718 C25.8295515,44.5985158 25.6441327,44.9891079 25.3671633,45.2857137 C25.0867174,45.6738646 24.8097481,45.9668086 24.6231704,46.2597526 C24.5316199,46.2597526 24.4389105,46.3598418 24.4389105,46.4562693 C24.1596234,46.7492133 23.9753635,46.9445093 23.787627,47.1422466 C23.5106577,47.3351014 23.32408,47.5303974 23.2313706,47.726914 C22.9532424,47.9222101 22.6751142,48.2151541 22.4885365,48.3128021 C22.3031177,48.5080981 22.2127261,48.6057461 22.1188578,48.7033942 C21.9322801,48.8010422 21.9322801,48.8010422 21.8395707,48.8999108 C21.7468614,48.8999108 21.7468614,48.8999108 21.7468614,49 L21.654152,49 L21.5602837,49 L22.4885365,49 C22.7678236,49 22.9532424,48.8999108 23.1398201,48.8999108 C23.2313706,48.8999108 23.4179483,48.8010422 23.5106577,48.8010422 C23.8814952,48.7033942 24.2523328,48.6057461 24.7170387,48.4104501 C24.9024575,48.3128021 25.0867174,48.2151541 25.3671633,48.1175061 C25.5514233,48.0198581 25.8295515,47.9222101 26.1088385,47.726914 C26.3869667,47.5303974 26.6650949,47.3351014 26.944382,47.1422466 C27.2225102,46.9445093 27.5017972,46.7492133 27.871476,46.4562693 C32.4211897,42.4478183 35.5744681,34.0427656 35.5744681,24.3658475 C35.5744681,14.6889294 32.4211897,6.28265612 27.871476,2.17777778" id="Fill-45"></path>
                    <path d="M21.3935591,48.7667689 L21.3107146,48.7667689 C21.2289056,48.6522996 21.0642522,48.4233611 20.8136475,48.1944225 C20.6479585,47.965484 20.4822695,47.8510147 20.233736,47.6220762 C20.068047,47.3931377 19.9023579,47.1627683 19.7366689,46.8222222 C19.4870998,47.048299 19.2385663,47.2772376 18.9889972,47.5076069 L18.9061527,47.5076069 C18.7414992,47.7365455 18.4919302,47.8510147 18.3262411,47.965484 C18.4919302,48.1944225 18.7414992,48.3088918 18.9889972,48.4233611 C19.4042553,48.5378303 19.7366689,48.7667689 20.151927,48.882669 L20.4822695,48.882669 C20.8136475,49 21.1460611,49 21.4774392,49 L21.5602837,49 C21.4774392,48.882669 21.3935591,48.882669 21.3935591,48.7667689" id="Fill-46"></path>
                    <path d="M22.5455885,0 L22.4528791,0 L22.1747509,0 C21.8039133,0 21.5246262,0.0953796154 21.1537886,0.0953796154 C20.9695287,0.191951476 20.782951,0.191951476 20.5963734,0.287331091 C20.3182452,0.287331091 19.9474076,0.382710707 19.6681205,0.573469938 C19.3911512,0.668849553 19.1118641,0.764229168 18.9264453,0.859608784 C18.6483171,0.954988399 18.4617395,1.05036801 18.2786384,1.24231949 L18.1836113,1.24231949 C17.9043242,1.43188648 17.6273549,1.6250302 17.2565173,1.81340494 C16.9772302,2.00535641 16.6991021,2.19730789 16.4209739,2.48344674 C11.8735779,6.39639546 8.62411348,14.6085803 8.62411348,24.1560798 C8.62411348,33.6081997 11.7808685,41.7226205 16.3282645,45.7333333 C16.6075515,45.4460022 16.7918115,45.1622479 17.0710985,44.8737245 C17.162649,44.7783449 17.2565173,44.6829653 17.3492267,44.5899702 C17.6273549,44.204875 17.8127737,43.9187362 18.0909019,43.5372177 C15.492721,39.813836 12.7091213,33.6081997 12.7091213,24.1560798 C12.7091213,14.6085803 15.492721,8.3075645 18.1836113,4.58299052 C18.370189,4.29685167 18.6483171,3.91533321 18.9264453,3.62800212 C19.2045735,3.24648366 19.3911512,2.96034481 19.6681205,2.67301372 C19.7619888,2.57644186 19.7619888,2.57644186 19.8546982,2.48344674 C20.040117,2.19730789 20.3182452,2.00535641 20.5048228,1.81340494 C20.6902416,1.6250302 20.8756604,1.43188648 21.1537886,1.24231949 C21.3392074,0.954988399 21.6173356,0.764229168 21.8039133,0.668849553 C21.990491,0.476898077 22.1747509,0.287331091 22.3590108,0.191951476 C22.3590108,0.191951476 22.4528791,0.0953796154 22.5455885,0.0953796154 C22.5455885,0 22.6382979,0 22.6382979,0 L22.5455885,0 Z" id="Fill-47"></path>
                    <path d="M25.6570068,43.5261559 C25.4403273,43.1722578 25.1173267,42.8194623 24.7943262,42.4666667 C24.5789926,42.8194623 24.2559921,43.1722578 23.9329916,43.437957 C23.8239789,43.6143548 23.6086452,43.7025537 23.4996326,43.8811565 C23.1793237,44.1435482 22.9599525,44.4081449 22.6382979,44.676049 C22.8536315,44.9384408 23.1793237,45.2052424 23.4996326,45.4676342 C23.6086452,45.5558331 23.7163121,45.6462369 23.9329916,45.7333333 C24.1469794,45.4676342 24.4699799,45.2052424 24.6866594,44.9384408 C24.7943262,44.8502419 24.9033389,44.762043 25.0083141,44.676049 C25.3340063,44.319946 25.5479941,44.0553493 25.8723404,43.7025537 C25.8723404,43.6143548 25.7646736,43.6143548 25.6570068,43.5261559" id="Fill-48"></path>
                    <path d="M28.8649913,48.7667689 C28.6215796,48.5378303 28.2165668,48.1944225 27.814584,47.6220762 C27.6509628,47.3931377 27.4085611,47.1627683 27.24696,46.8222222 C27.0035483,47.048299 26.7611466,47.2772376 26.5187449,47.5076069 C26.2753332,47.7365455 26.0329315,47.8510147 25.8723404,47.965484 C26.1137321,48.1944225 26.2753332,48.3088918 26.5187449,48.4233611 C26.9227478,48.5378303 27.24696,48.7667689 27.6509628,48.882669 C28.1367762,49 28.6215796,49 29.106383,49 C29.106383,49 29.0265924,49 28.8649913,48.7667689" id="Fill-49"></path>
                    <path d="M27.0654486,0.290942216 C26.7861384,0.290942216 26.5091462,0.387520545 26.137119,0.580677202 C25.8578088,0.677255531 25.6723747,0.77383386 25.3953824,0.870412189 C25.1149133,0.966990518 24.9306382,1.06356885 24.745204,1.25793273 L24.651328,1.25793273 C24.3743358,1.44988216 24.0961846,1.64545328 23.8157154,1.83619548 C23.5387232,2.03055936 23.2594131,2.22492325 22.9812619,2.51465824 C22.7958277,2.60882211 22.7031107,2.70660767 22.5165176,2.90097155 C22.2406843,3.09292098 21.9602152,3.3838632 21.7747811,3.67359818 C21.4954709,3.9645404 21.2196376,4.25427539 21.0330445,4.54159592 C20.8464514,4.6405887 20.7537344,4.83495259 20.6621763,5.02690202 C20.3828661,5.31784423 20.1047149,5.70415755 19.8254048,6.18704919 C19.5472536,6.57456974 19.3618194,6.96209028 19.0836682,7.44498193 C16.6707066,11.7946284 15.0921986,17.7885209 15.0921986,24.459669 C15.0921986,31.0330315 16.5779896,36.9303457 18.9909512,41.3777778 C19.2691024,40.7971006 19.5472536,40.3142089 19.8254048,39.7335317 C19.9192808,39.4437967 20.1047149,39.1540618 20.1985909,38.7677484 C20.4755832,38.1870712 20.7537344,37.5110229 20.9391685,36.7371891 C19.9192808,33.4499042 19.1763853,29.3899927 19.1763853,24.459669 C19.1763853,19.432767 19.9192808,15.3728555 21.0330445,11.9877851 C21.2196376,11.3117368 21.4954709,10.6344812 21.7747811,9.95722571 C22.0517733,9.37775573 22.2406843,8.79828576 22.5165176,8.21760856 C22.7031107,8.0244519 22.7958277,7.73350968 22.9812619,7.44498193 C23.167855,7.05746138 23.4460062,6.57456974 23.6314403,6.18704919 C23.9095915,5.80073588 24.1877427,5.41321533 24.3743358,5.02690202 C24.4670528,4.93153092 24.5597699,4.73837426 24.651328,4.6405887 C24.9306382,4.35085372 25.1149133,3.9645404 25.3953824,3.67359818 C25.6723747,3.28728487 25.9516848,2.99754988 26.137119,2.70660767 C26.229836,2.60882211 26.3237121,2.60882211 26.3237121,2.51465824 C26.6007043,2.22492325 26.7861384,2.03055936 26.9727315,1.83619548 C27.1581656,1.64545328 27.4363168,1.44988216 27.6240689,1.25793273 C28.0853363,0.77383386 28.5500806,0.387520545 28.8293907,0.194363887 C29.0148249,0.0965783289 29.106383,0 29.106383,0 C28.4573635,0 27.714468,0.0965783289 27.0654486,0.290942216" id="Fill-50"></path>
                    <path d="M3.99031069,24.5478575 C3.99031069,6.30628292 14.0141844,0 14.0141844,0 C6.21783818,0 0,10.9648147 0,24.5478575 C0,38.0339737 6.21783818,49 14.0141844,49 C14.0141844,49 3.99031069,42.7882205 3.99031069,24.5478575" id="Fill-51"></path>
                    <path d="M61.7691076,16.6699326 C61.7691076,19.4873959 61.4785562,21.5274189 59.7412755,22.885817 C59.0673409,23.3733849 58.1004435,23.7614987 57.4253032,23.9555556 L57.1347518,23.1781152 C58.5826866,22.5947317 59.2602381,21.6232345 59.5471727,20.1678079 C59.7412755,18.8081969 59.7412755,17.5444015 59.7412755,15.5055914 L59.7412755,6.27697398 C59.7412755,4.33640521 59.6448269,4.13870976 57.7146491,3.94707859 L57.7146491,3.26666667 L63.6028369,3.26666667 L63.6028369,3.94707859 C61.8655562,4.13870976 61.7691076,4.33640521 61.7691076,6.27697398 L61.7691076,16.6699326 Z" id="Fill-52"></path>
                    <path d="M68.9498326,20.6888889 C71.4901373,20.6888889 73.3049645,17.9958352 73.3049645,14.0060799 C73.3049645,10.2143798 71.4901373,7.62222222 69.1300684,7.62222222 C66.0433884,7.62222222 64.6808511,11.1137252 64.6808511,14.3050312 C64.6808511,17.7965343 66.4061272,20.6888889 68.9498326,20.6888889 M68.7661961,8.61997246 C70.5821569,8.61997246 71.4901373,10.6142273 71.4901373,14.6039826 C71.4901373,18.1951361 70.6728416,19.6911387 69.2196195,19.6911387 C67.4047923,19.6911387 66.4968119,17.3966868 66.4968119,13.7071285 C66.4968119,10.2143798 67.4047923,8.61997246 68.7661961,8.61997246" id="Fill-53"></path>
                    <path d="M83.8150873,13.5473329 C83.8150873,12.0038032 83.7168324,10.9730697 83.6197905,10.4589882 C83.5227486,9.84080522 83.2316229,9.53364152 81.9700782,9.43082522 L81.9700782,8.71111111 L86.2411348,8.71111111 L86.2411348,9.43082522 C85.2719288,9.53364152 84.9808031,9.84080522 84.8825482,10.4589882 C84.8825482,10.9730697 84.7855063,11.8997016 84.7855063,13.5473329 L84.7855063,21.7777778 L84.0091711,21.7777778 L78.1805921,12.0038032 L78.1805921,16.7384938 C78.1805921,18.2807383 78.277634,19.2086555 78.3746759,19.8242681 C78.4717178,20.4424511 78.7640565,20.7521852 79.9285593,20.8537163 L79.9285593,21.5734304 L75.7521186,21.5734304 L75.7521186,20.8537163 C76.7225376,20.7521852 77.0160893,20.4424511 77.1131312,19.8242681 C77.1131312,19.2086555 77.2089601,18.2807383 77.2089601,16.7384938 L77.2089601,12.0038032 C77.2089601,10.7687223 77.2089601,10.4589882 76.9166214,10.0490082 C76.7225376,9.73927412 76.33437,9.53364152 75.4609929,9.43082522 L75.4609929,8.71111111 L78.1805921,8.71111111 L83.8150873,17.9735746 L83.8150873,13.5473329 Z" id="Fill-54"></path>
                    <path d="M87.3191489,20.6888889 L87.3191489,20.0186695 C88.8880596,19.8283751 88.8880596,19.7314326 88.8880596,18.3897971 L88.8880596,11.0090061 C88.8880596,9.66856737 88.8880596,9.57282174 87.5149568,9.38133049 L87.5149568,8.71111111 L94.9629992,8.71111111 C94.9629992,9.18864242 95.0633507,10.530278 95.1588071,11.4889311 L94.3755755,11.5846767 C94.1797677,10.7217693 93.9839598,10.2430411 93.7869281,9.95700107 C93.5911202,9.76311617 93.1995044,9.57282174 92.220465,9.57282174 L90.94649,9.57282174 C90.6515544,9.57282174 90.6515544,9.57282174 90.6515544,9.95700107 L90.6515544,13.9819078 L92.0234333,13.9819078 C93.2974084,13.9819078 93.2974084,13.8849654 93.5911202,12.6390754 L94.2776716,12.6390754 L94.2776716,16.2821965 L93.5911202,16.2821965 C93.2974084,15.0351097 93.1995044,14.9405609 92.0234333,14.9405609 L90.6515544,14.9405609 L90.6515544,18.2928546 C90.6515544,19.0600164 90.7494583,19.4429989 90.94649,19.635687 C91.2402018,19.8283751 91.6318176,19.8283751 92.4162729,19.8283751 C93.4932163,19.8283751 94.0818637,19.635687 94.3755755,19.2527045 C94.5713834,18.963074 94.8650953,18.3897971 95.1588071,17.5268896 L95.9432624,17.7195777 C95.8453585,18.1983058 95.549199,20.1144151 95.3558388,20.6888889 L87.3191489,20.6888889 Z" id="Fill-55"></path>
                    <path d="M96.4027123,19.9913357 C96.2180088,19.3921873 96.1256571,18.1951361 95.9432624,16.8996801 L96.6809219,16.798784 C96.9579772,17.8949391 97.6044394,19.6911387 99.1767278,19.6911387 C100.193751,19.6911387 100.840214,18.893935 100.840214,17.4975829 C100.840214,15.702629 99.3614312,15.1034806 98.252056,14.3050312 C97.2350324,13.5078276 96.4027123,12.5100773 96.4027123,11.1137252 C96.4027123,9.21912086 97.6044394,7.62222222 99.733147,7.62222222 C100.470807,7.62222222 100.934874,7.82027751 101.672534,8.02082407 C101.764885,8.91892384 101.857237,9.61647707 102.041941,10.8135282 L101.303127,10.9131787 C100.934874,9.71612753 100.565467,8.61997246 99.3614312,8.61997246 C98.3444077,8.61997246 97.882649,9.41717615 97.882649,10.4149264 C97.882649,12.1114755 99.453783,12.8090287 100.565467,13.5078276 C101.672534,14.3050312 102.411348,15.4036776 102.411348,16.8996801 C102.411348,19.0919903 100.934874,20.6888889 98.8985181,20.6888889 C97.882649,20.6888889 97.2350324,20.3886919 96.4027123,19.9913357" id="Fill-56"></path>
                    <path d="M108.879433,19.6 L108.879433,18.9201021 C110.804501,18.7270596 110.903037,18.531589 110.903037,16.5878094 L110.903037,6.28007136 C110.903037,4.33750588 110.804501,4.13960703 108.976768,3.94777869 L108.976768,3.26666667 L114.944239,3.26666667 L114.944239,3.94777869 C113.017969,4.13960703 112.921836,4.33750588 112.921836,6.28007136 L112.921836,16.489467 C112.921836,17.5590921 113.017969,18.1430759 113.402502,18.3361183 C113.787035,18.6287173 114.463573,18.7270596 115.32757,18.7270596 C116.484774,18.7270596 117.34757,18.531589 117.829438,17.9476052 C118.213971,17.3660497 118.600907,16.5878094 118.986642,15.5181843 L119.659574,15.7112267 C119.563441,16.3923388 119.082775,18.8241879 118.890509,19.6 L108.879433,19.6 Z" id="Fill-57"></path>
                    <path d="M126.504228,20.6888889 L130.439716,20.6888889 L130.439716,19.9749331 C129.524141,19.8742143 129.338968,19.668952 128.884038,18.1364968 C127.87702,14.6661615 126.870001,11.0925575 125.954425,7.62222222 L125.314323,7.82493468 L122.382424,18.035778 C121.836051,19.668952 121.742321,19.7722206 120.737589,19.9749331 L120.737589,20.6888889 L124.307304,20.6888889 L124.307304,19.9749331 C123.117399,19.7722206 123.117399,19.668952 123.300285,18.6490151 C123.483172,17.9325094 123.757502,16.7085851 123.941531,16.1973417 L126.595671,16.1973417 C126.961444,17.3205473 127.326074,18.6490151 127.419803,19.0569898 C127.60269,19.668952 127.60269,19.7722206 126.504228,19.9749331 L126.504228,20.6888889 Z M125.314323,10.9905638 L126.321341,15.0741362 L124.215861,15.0741362 C124.581634,13.7456684 124.947407,12.4197504 125.314323,10.9905638 Z" id="Fill-58"></path>
                    <path d="M139.772641,13.5473329 C139.772641,12.0038032 139.67561,10.9730697 139.578579,10.4589882 C139.578579,9.84080522 139.190455,9.53364152 138.024871,9.43082522 L138.024871,8.71111111 L142.297872,8.71111111 L142.297872,9.43082522 C141.327563,9.53364152 140.938226,9.84080522 140.938226,10.4589882 C140.841195,10.9730697 140.744164,11.8997016 140.744164,13.5473329 L140.744164,21.7777778 L139.966703,21.7777778 L134.237024,12.0038032 L134.237024,16.7384938 C134.237024,18.2807383 134.237024,19.2086555 134.334055,19.8242681 C134.431086,20.4424511 134.722179,20.7521852 135.984794,20.8537163 L135.984794,21.5734304 L131.711792,21.5734304 L131.711792,20.8537163 C132.683315,20.7521852 132.971982,20.4424511 133.071439,19.8242681 C133.16847,19.2086555 133.16847,18.2807383 133.16847,16.7384938 L133.16847,12.0038032 C133.16847,10.7687223 133.16847,10.4589882 132.971982,10.0490082 C132.683315,9.73927412 132.293978,9.53364152 131.51773,9.43082522 L131.51773,8.71111111 L134.139993,8.71111111 L139.772641,17.9735746 L139.772641,13.5473329 Z" id="Fill-59"></path>
                    <path d="M151.110722,17.9958352 C151.110722,18.6933884 151.199538,19.2925368 151.288355,19.9913357 C150.31026,20.3886919 149.243348,20.6888889 148.443996,20.6888889 C145.420894,20.6888889 143.375887,18.1951361 143.375887,14.3050312 C143.375887,9.81577799 145.954905,7.62222222 148.62163,7.62222222 C149.688542,7.62222222 150.399077,7.82027751 151.021905,8.02082407 C151.021905,8.91892384 151.110722,9.91667408 151.288355,11.0128291 L150.577821,11.1137252 C150.132626,9.01732867 149.333275,8.61997246 148.266363,8.61997246 C146.576623,8.61997246 145.152223,10.4149264 145.152223,14.0060799 C145.152223,16.798784 146.132539,19.6911387 148.532813,19.6911387 C148.888081,19.6911387 149.154531,19.6911387 149.333275,19.5927338 C149.510909,19.4930834 149.599725,19.3921873 149.599725,18.5924923 L149.599725,16.5994831 C149.599725,15.6017329 149.510909,15.5008368 147.998802,15.203131 L147.998802,14.5043322 L152,14.5043322 L152,15.203131 C151.199538,15.5008368 151.110722,15.5008368 151.110722,16.5994831 L151.110722,17.9958352 Z" id="Fill-60"></path>
                    <path d="M57.1347518,43.5555556 L57.1347518,42.8785199 C58.9616907,42.685426 59.1540001,42.3957851 59.1540001,40.4648457 L59.1540001,30.2187987 C59.1540001,28.2854457 58.9616907,28.0923518 57.2297045,27.8992578 L57.2297045,27.2222222 L63.1973045,27.2222222 L63.1973045,27.8992578 C61.2730089,28.0923518 61.1768542,28.2854457 61.1768542,30.2187987 L61.1768542,40.3658851 C61.1768542,41.4291086 61.2730089,42.0083904 61.6588296,42.2992381 C62.0422464,42.588879 62.717733,42.588879 63.5831252,42.588879 C64.7381833,42.588879 65.6047774,42.3957851 66.0855508,41.8177101 C66.4701695,41.2360146 66.8559902,40.4648457 67.2418108,39.3992086 L67.9148936,39.5923025 C67.8187389,40.2693381 67.3355617,42.781973 67.1444542,43.5555556 L57.1347518,43.5555556 Z" id="Fill-61"></path>
                    <path d="M74.7588678,44.6444444 L78.6950355,44.6444444 L78.6950355,43.8336281 C77.7795679,43.7324341 77.596703,43.6312402 77.1395406,42.0108723 C76.1326406,38.5664838 75.1257405,35.1220953 74.210273,31.5777778 L73.5702457,31.8813596 L70.6421209,41.9084135 C70.0912403,43.6312402 69.9083754,43.7324341 68.9929078,43.8336281 L68.9929078,44.6444444 L72.5633456,44.6444444 L72.5633456,43.8336281 C71.3724378,43.7324341 71.3724378,43.6312402 71.5553027,42.516842 C71.7393105,41.8072195 72.0136079,40.6940863 72.1976158,40.0856577 L74.8514431,40.0856577 C75.217173,41.2000559 75.5829029,42.6180359 75.6743353,42.9216177 C75.8572003,43.5300463 75.8572003,43.7324341 74.7588678,43.8336281 L74.7588678,44.6444444 Z M73.5702457,35.0209014 L74.5771457,38.9712595 L72.4719132,38.9712595 C72.837643,37.6544735 73.2033729,36.3402173 73.5702457,35.0209014 Z" id="Fill-62"></path>
                    <path d="M82.8571376,44.3589011 C82.2548145,44.26372 81.8528485,44.072168 81.4508824,43.8818058 C81.2505255,43.215538 81.0514208,41.7854419 80.8510638,40.4517166 L81.5523131,40.2613544 C81.8528485,41.4998985 82.8571376,43.7866247 85.062316,43.7866247 C86.6676759,43.7866247 87.569282,42.7384427 87.569282,41.023993 C87.569282,39.4047244 86.4660667,38.4517235 84.9633898,37.5939038 C84.1594576,37.2131793 83.3567776,36.736084 82.7557069,36.0698162 C81.9530269,35.4023587 81.4508824,34.5469185 81.4508824,33.3071845 C81.4508824,31.2108206 83.0574945,29.4 85.8649959,29.4 C86.4660667,29.4 86.9682113,29.4 87.3689251,29.4975606 C87.769639,29.5903622 88.0701744,29.7819142 88.4721404,29.8770953 C88.5723189,30.7337253 88.6737496,31.591545 88.8728543,32.8300892 L88.171605,33.0204515 C87.769639,31.6867262 87.167316,30.1626386 85.3641036,30.1626386 C83.9591007,30.1626386 83.157673,31.3060017 83.157673,32.5445459 C83.157673,34.7360909 85.3641036,35.4023587 86.8680328,36.3553596 C88.371962,37.3083604 89.4751773,38.4517235 89.4751773,40.3565355 C89.4751773,42.8336238 87.4691036,44.6444444 84.6603499,44.6444444 C83.9591007,44.6444444 83.2578514,44.4540822 82.8571376,44.3589011" id="Fill-63"></path>
                    <path d="M95.1873064,44.6444444 L99.177305,44.6444444 L99.177305,43.8336281 C98.1798053,43.7324341 97.9986476,43.6312402 97.5446211,42.0108723 C96.5482537,38.5664838 95.6413329,35.1220953 94.7344121,31.5777778 L94.0992279,31.8813596 L91.1078612,41.9084135 C90.5632558,43.6312402 90.4738092,43.7324341 89.4751773,43.8336281 L89.4751773,44.6444444 L93.1028605,44.6444444 L93.1028605,43.8336281 C91.9242031,43.7324341 91.8336243,43.6312402 92.1053608,42.516842 C92.1959397,41.8072195 92.4676762,40.6940863 92.648834,40.0856577 L95.3695963,40.0856577 C95.6413329,41.2000559 96.0942272,42.6180359 96.0942272,42.9216177 C96.2753849,43.5300463 96.2753849,43.7324341 95.1873064,43.8336281 L95.1873064,44.6444444 Z M94.0109135,35.0209014 L95.0967275,38.9712595 L92.9205705,38.9712595 C93.2840182,37.6544735 93.6463336,36.3402173 94.0109135,35.0209014 Z" id="Fill-64"></path>
                    <path d="M100.255319,43.5555556 L100.255319,42.7946283 C101.709973,42.6996608 101.813784,42.6046933 101.813784,41.273961 L101.813784,33.8593723 C101.813784,32.52864 101.709973,32.4324854 100.255319,32.3375179 L100.255319,31.5777778 L105.138337,31.5777778 L105.138337,32.3375179 C103.683683,32.4324854 103.582467,32.52864 103.582467,33.8593723 L103.582467,41.1789935 C103.582467,41.9387336 103.683683,42.3197908 103.893901,42.4147583 C104.205334,42.6046933 104.621877,42.6046933 105.34596,42.6046933 C106.177747,42.6046933 106.905723,42.5097258 107.217156,42.1286686 C107.52859,41.7487986 107.842619,41.1789935 108.152754,40.3230988 L108.879433,40.515408 C108.778217,41.084026 108.464188,42.8895959 108.256566,43.5555556 L100.255319,43.5555556 Z" id="Fill-65"></path>
                    <path d="M109.957447,43.5555556 L109.957447,42.7946283 C111.392661,42.6996608 111.497834,42.6046933 111.497834,41.273961 L111.497834,33.8593723 C111.497834,32.52864 111.392661,32.4324854 109.957447,32.3375179 L109.957447,31.5777778 L114.88771,31.5777778 L114.88771,32.3375179 C113.343476,32.4324854 113.343476,32.52864 113.343476,33.8593723 L113.343476,41.1789935 C113.343476,41.9387336 113.447365,42.3197908 113.652579,42.4147583 C113.860358,42.6046933 114.373393,42.6046933 115.092924,42.6046933 C115.91378,42.6046933 116.528139,42.5097258 116.838525,42.1286686 C117.143781,41.7487986 117.455449,41.1789935 117.76327,40.3230988 L118.58156,40.515408 C118.478953,41.084026 118.068526,42.8895959 117.865877,43.5555556 L109.957447,43.5555556 Z" id="Fill-66"></path>
                    <path d="M118.58156,43.5555556 L118.58156,42.7946283 C120.151249,42.6996608 120.247902,42.6046933 120.247902,41.1789935 L120.247902,33.8593723 C120.247902,32.52864 120.151249,32.4324854 118.77976,32.3375179 L118.77976,31.5777778 L126.225689,31.5777778 C126.225689,32.0526154 126.323565,33.4783152 126.418994,34.4291774 L125.638432,34.5241449 C125.538109,33.5732827 125.245704,33.0984451 125.047504,32.9085101 C124.854199,32.6236075 124.462694,32.4324854 123.482709,32.4324854 L122.206649,32.4324854 C121.915467,32.4324854 121.915467,32.52864 121.915467,32.8135426 L121.915467,36.8057395 L123.286957,36.8057395 C124.56057,36.8057395 124.56057,36.7107719 124.854199,35.5699747 L125.638432,35.5699747 L125.638432,39.087334 L124.854199,39.087334 C124.56057,37.8515692 124.462694,37.7566017 123.286957,37.7566017 L121.915467,37.7566017 L121.915467,41.1789935 C121.915467,41.9387336 122.010896,42.3197908 122.206649,42.4147583 C122.500277,42.6046933 122.895452,42.6046933 123.776338,42.6046933 C124.756323,42.6046933 125.344803,42.4147583 125.638432,42.1286686 C125.93206,41.7487986 126.225689,41.1789935 126.519317,40.3230988 L127.205674,40.515408 C127.107798,41.084026 126.811722,42.8895959 126.618417,43.5555556 L118.58156,43.5555556 Z" id="Fill-67"></path>
                    <path d="M127.959342,41.8576407 C127.959342,41.7616681 127.959342,41.6656955 127.744008,41.6656955 C127.636341,41.6656955 127.528674,41.7616681 127.528674,41.8576407 L127.528674,42.1467581 C127.528674,42.3387032 127.636341,42.4346758 127.636341,42.4346758 L128.176021,43.298429 C128.283688,43.3956013 128.283688,43.4915738 128.283688,43.683519 L128.283688,44.1633819 C128.283688,44.4512996 128.067008,44.6444444 127.744008,44.6444444 C127.421007,44.6444444 127.205674,44.4512996 127.205674,44.1633819 L127.205674,43.683519 L127.528674,43.683519 L127.528674,44.1633819 C127.528674,44.2617538 127.636341,44.355327 127.744008,44.355327 C127.851675,44.355327 127.959342,44.2617538 127.959342,44.1633819 L127.959342,43.683519 C127.959342,43.5875464 127.959342,43.4915738 127.851675,43.3956013 L127.421007,42.626621 C127.313341,42.5306484 127.205674,42.4346758 127.205674,42.2427306 L127.205674,41.8576407 C127.205674,41.5721223 127.421007,41.3777778 127.744008,41.3777778 C128.176021,41.3777778 128.283688,41.5721223 128.283688,41.8576407 L128.283688,42.2427306 L127.959342,42.2427306 L127.959342,41.8576407 Z" id="Fill-68"></path>
                    <polygon id="Fill-69" points="130.845547 41.3777778 131.51773 41.3777778 131.51773 44.6444444 131.11442 44.6444444 131.11442 41.6656955 130.71111 44.6444444 130.173364 44.6444444 129.633936 41.6656955 129.633936 44.6444444 129.361702 44.6444444 129.361702 41.3777778 129.90449 41.3777778 130.442237 44.2617538"></polygon>
                </g>
            </g>
        </g>
    </g>
</svg>
