<svg height="40" viewBox="0 0 184 40" width="184" xmlns="http://www.w3.org/2000/svg" xmlns:xlink="http://www.w3.org/1999/xlink"><mask id="a" fill="#fff"><path d="m0 .03690909h38.4411477v14.15818181h-38.4411477z" fill="none"/></mask><g fill="#8e8e8e" fill-rule="evenodd"><path d="m21.9903451 20.2273333h-5.559085v-8.4109091c0-.9145454.7353987-1.6545454 1.6415687-1.6545454h2.2759477c.9061699 0 1.6415686.74 1.6415686 1.6545454z"/><path d="m11.1961595 14.6715758c-.913987 0-1.6541961.7466666-1.6541961 1.6672727v5.429697l3.3083922-1.3678788v-4.0618182c0-.9206061-.7402092-1.6672727-1.6541961-1.6672727"/><path d="m5.63935948 16.4246667c-.91398693 0-1.65419608.7460606-1.65419608 1.6672727v5.429697l3.30839216-1.3684849v-4.0612121c0-.9212121-.74020915-1.6672727-1.65419608-1.6672727"/><path d="m27.4420366 14.6715758c.9139869 0 1.6541961.7466666 1.6541961 1.6672727v5.429697l-3.3083922-1.3678788v-4.0618182c0-.9206061.7402092-1.6672727 1.6541961-1.6672727"/><path d="m32.9988366 16.4246667c.9139869 0 1.6541961.7460606 1.6541961 1.6672727v5.429697l-3.3083922-1.3684849v-4.0612121c0-.9212121.7402092-1.6672727 1.6541961-1.6672727"/><path d="m38.4411477 14.1950909c-2.599451-8.21030302-10.2228235-14.15818181-19.2304052-14.15818181-8.9871373 0-16.59487583 5.92242424-19.21116342 14.10363641l12.80724182-3.3727273v-2.18060608l6.4039216-2.99272727 6.6624836 2.99272727v2.18060608z" mask="url(#a)" transform="translate(0 .569455)"/><path d="m9.38339869 25.2315152h19.65492811c-3.0714771-1.1048485-6.3780654-1.709697-9.8259608-1.709697h-.0030065c-3.4484968 0-6.755085.6048485-9.82596081 1.709697"/><path d="m3.61992941 28.0806667h31.18138559c-.8189804-.5218182-1.6668235-.9987879-2.5381176-1.4381819h-26.10454903c-.87189543.439394-1.71973857.9163637-2.53871896 1.4381819"/><path d="m1.08259346 29.8651515c.13589543.28.28682353.550303.4347451.8230303h35.38692814c.1479215-.2727273.2988496-.5430303.4347451-.8230303-.2711896-.2157576-.5610196-.4084848-.8400262-.6151515h-34.5769673c-.27840523.2066667-.56823529.3993939-.83942484.6151515"/><path d="m2.82951111 32.7912727h32.76222219c.1689674-.2369697.3355294-.4745454.4942745-.7193939h-33.75016989c.15814379.2448485.32530719.4824242.4936732.7193939"/><path d="m5.02392157 35.3989697h28.37388233c.2327059-.2333333.4587974-.4739394.6806798-.7193939h-29.73584318c.22188236.2454545.44797386.4860606.68128105.7193939"/><path d="m8.19022484 37.9842424h22.04091506c.252549-.1666666.5008889-.3393939.7456209-.5175757h-23.53155557c.24413072.1781818.49247059.3509091.74501961.5175757"/><path d="m53.3886824 13.0587879c0 3.2218182.1298823 4.6248485.7137516 5.0187879.5189281.350909 1.3613595.5042424 3.8904575.5042424 1.7191373 0 3.1460392-.0218182 3.9241307-.6575758.4215164-.350303.7456209-.8981818.8430327-1.3151515.0324706-.1751515.0968105-.2842424.2910327-.2842424.1629542 0 .1954248.0872727.1954248.3284848 0 .2412122-.2272941 1.5557576-.4864575 2.1915152-.2272941.5042424-.3247059.5915151-2.0426405.5915151-2.7888628 0-5.5452549-.1309091-8.6906928-.1309091-1.0053857 0-1.9776994.0654546-3.1773072.0654546-.3571765 0-.5189281-.0436364-.5189281-.1751515 0-.0654546.0649412-.1315152.2597647-.1315152.291634 0 .6806797-.0436363.972915-.0872727.6482092-.0884849.8099608-.570303.9398432-1.2060606.1623529-.9206061.1623529-2.6521212.1623529-4.7557576v-3.85757574c0-3.41878788 0-4.03272728-.0655425-4.7339394-.0643399-.74545454-.3241046-1.09636363-1.3938301-1.24969697-.2597647-.04363636-.810562-.06545454-1.102196-.06545454-.1298824 0-.2597647-.04363637-.2597647-.13151515 0-.13151515.1623529-.17575758.5189281-.17575758 1.4587712 0 3.502013.06666667 3.6637647.06666667.1623529 0 2.529098-.06666667 3.5026143-.06666667.3559739 0 .5183268.04424243.5183268.17575758 0 .08787878-.1298823.13151515-.2591634.13151515-.2272941 0-.681281.02181818-1.0703268.06545454-.9404444.10969697-1.1996078.48242425-1.264549 1.24969697-.0649411.70121212-.0649411 1.31515152-.0649411 4.7339394z"/><path d="m79.9066301 9.03769697c0-3.41939394 0-4.03272727-.0511111-4.73454545-.0511112-.74484849-.3078693-1.11757576-.8718955-1.22727273-.2826143-.06545455-.6163398-.08727273-.7955294-.08727273-.1022222 0-.2050457-.04424242-.2050457-.13151515 0-.13151515.1280784-.17575758.4100915-.17575758.8466405 0 2.4629542.06606061 2.5910326.06606061.1286798 0 1.7443922-.06606061 2.5146667-.06606061.2814118 0 .4100915.04424243.4100915.17575758 0 .08727273-.1028235.13151515-.205647.13151515-.1791896 0-.3331242.02181818-.6409935.06545455-.6927059.10969697-.8977516.48242424-.9488627 1.24909091-.0517125.70181818-.0517125 1.31515151-.0517125 4.73454545v3.85696973c0 2.1042424 0 3.8357575.1286798 4.7563636.0769673.6357576.2309019 1.1175758.9999738 1.2054545.3595817.0436364.8977517.0878788 1.0522876.0878788.230902 0 .3078693.0654546.3078693.1309091 0 .109697-.1028235.1757576-.3854379.1757576-1.4106667 0-3.0522353-.0660606-3.1809151-.0660606-.1280784 0-1.7443921.0660606-2.5140653.0660606-.2820131 0-.4100915-.0442424-.4100915-.1757576 0-.0654545.0511111-.1309091.2814118-.1309091.1545359 0 .436549-.0218181.6674509-.0660606.5129151-.0878788.6668497-.5915151.7696732-1.2272727.1280785-.9206061.1280785-2.6521212.1280785-4.7563636z"/><path d="m104.149231 12.846303c0-7.91212118.049308-5.06303027.024654-9.31454542 0-.85515152.073359-1.09636364.269987-1.09636364.196627 0 .615137.48242424.861072.70121212.368601.37333333 4.032967 3.90181818 7.819398 7.51818184 2.434693 2.3230303 5.114719 4.9969697 5.901229 5.72l-.269987-11.13393942c-.024653-1.42424242-.196627-1.90666666-.959686-2.08181818-.441961-.08787878-.835216-.10969697-1.057098-.10969697-.270588 0-.343948-.06545454-.343948-.15333333 0-.13212121.196628-.15393939.49187-.15393939 1.106405 0 2.286771.06666666 2.557359.06666666s1.081752-.06666666 2.090144-.06666666c.269987 0 .441961.02181818.441961.15393939 0 .08787879-.098013.13151515-.269987.15333333-.196628.02181819-.344549.04363637-.63919.08727273-.689098.13151515-.861072.46060606-.861072 1.97272727l-.049307 12.79999997c0 1.4460606-.048706 1.5557576-.22068 1.5557576-.196627 0-.491869-.2412121-1.794902-1.4030303-.271189-.2187879-3.811686-3.4406061-6.418353-5.9387879-2.852-2.73999997-5.631241-5.50181815-6.417751-6.290303l.319294 10.4981818c.049307 1.7969697.295242 2.3666667.959686 2.5418182.466615.110303 1.007791.1321212 1.229072.1321212.123268 0 .196628.0436364.196628.1315152 0 .1315151-.147321.1751515-.442563.1751515-1.401045 0-2.384784-.0654546-2.606065-.0654546-.221882 0-1.254327.0654546-2.360732.0654546-.245935 0-.393255-.0218182-.393255-.1751515 0-.0878788.07336-.1315152.196628-.1315152.196627 0 .639189-.0218182 1.00779-.1321212.614536-.1533333.737804-.7884849.737804-2.7824242z"/><path d="m143.868337 10.5013939c.79553-.65757572 4.284314-3.79212117 5.849517-5.17272723 1.538745-1.35878788 1.641568-1.57818182 1.641568-1.84060606 0-.17575758-.128078-.35090909-.333725-.4169697-.179791-.06545455-.230301-.10909091-.230301-.1969697 0-.08727273.153333-.13212121.384235-.13212121.743817 0 .667451.06666667 1.539948.06666667.794928 0 2.308418-.06666667 2.71851-.06666667.359582 0 .436549.06666667.436549.15393939 0 .08787879-.051111.13151516-.282013.15333334-.48766.04363636-.949464.13151515-1.308445.2630303-.641594.21939394-1.129255.48242424-2.668 1.75333333-2.257307 1.86242425-5.182065 4.33939394-5.849516 4.97515154 1.616915 1.5121212 6.285464 5.5672727 7.491085 6.5315151 2.103373 1.6878788 3.001124 2.169697 4.232601 2.3672728.231504.0436363.48766.0654545.744419.0654545.205045 0 .35898.0442424.35898.1533333 0 .109697-.102824.1533334-.384235.1533334h-1.898928c-2.232053 0-2.821935-.2406061-4.027556-1.0515152-1.538745-1.030303-6.156784-5.260606-8.414693-7.5618182v2.2575758c0 2.1036364 0 3.8351515.12868 4.7557576.076967.6357575.230902 1.1175757 1.000575 1.2060606.358981.0436363.871896.0872727 1.02583.0872727.230902 0 .30787.0878788.30787.1533333 0 .109697-.102223.1533334-.384837.1533334-1.411268 0-3.02698-.0654546-3.155059-.0654546-.12868 0-1.641569.0654546-2.411843.0654546-.282013 0-.410092-.0218182-.410092-.1533334 0-.0654545.051112-.1533333.281412-.1533333.154536 0 .436549-.0218182.667451-.0654545.512915-.0884849.66685-.5921213.769673-1.2278788.128079-.9206061.128079-2.6521212.128079-4.7557576v-3.8569697c0-3.41939394 0-4.03333334-.051111-4.73454546-.051111-.74484848-.30787-1.11818182-.871896-1.22727272-.282614-.06606061-.744418-.08787879-.923608-.08787879-.205647 0-.282614-.04363637-.282614-.13151515 0-.1309091.12868-.17575758.410693-.17575758.84664 0 2.565176.06666667 2.693856.06666667.128079 0 1.743791-.06666667 2.514065-.06666667.281412 0 .410092.04484848.410092.15393939 0 .08787879-.051712.13151516-.282013.15333334-.282013.02181818-.307869.02181818-.564628.04363636-.692104.06606061-.897751.50424243-.948862 1.27151515-.051713.70121212-.051713 1.31515152-.051713 4.73454546z"/><path d="m174.370607 19.0270909c-.358981-.1539394-.384837-.2412121-.384837-.8333333 0-1.0957576.102823-1.9721212.12868-2.3230303.025255-.2406061.076967-.3503031.205045-.3503031.153935 0 .179791.0654546.179791.2406061 0 .1975758 0 .5042424.076968.8109091.384235 1.6218182 2.078117 2.2357576 3.796653 2.2357576 2.462954 0 3.668575-1.5121212 3.668575-2.9151515 0-1.5121213-.743817-2.3884849-2.950013-3.9448485l-1.15451-.8115152c-2.719712-1.90606059-3.334849-3.26484847-3.334849-4.7551515 0-2.34545454 2.052261-3.94545454 5.310144-3.94545454 1.000575 0 1.744392.08787879 2.385987.21878788.487058.08787878.692104.10969697.897751.10969697.205046 0 .256758.04424242.256758.15393939s-.102823.83272727-.102823 2.3230303c0 .35090909-.051111.50424243-.179791.50424243-.153935 0-.179791-.10969697-.205046-.28545455-.025856-.26242424-.179791-.85454545-.333725-1.09515151-.153935-.24181819-.846641-1.16181819-3.206772-1.16181819-1.770248 0-3.15566.94181819-3.15566 2.54242425 0 1.24909091.667451 2.03818182 3.129804 3.68181818l.718562.48242424c3.027582 2.03818185 3.745543 3.39757575 3.745543 5.15030305 0 .8987879-.410092 2.5648485-2.180941 3.6381818-1.102798.6575758-2.488209.9212121-3.873621.9212121-1.205621 0-2.385386-.1539394-3.437673-.5921212"/><path d="m48.2693333 25.2315152h134.1245747"/><path d="m182.393728 25.4883636h-134.1245751c-.1401045 0-.2549542-.1151515-.2549542-.2563636s.1148497-.2569697.2549542-.2569697h134.1245751c.140105 0 .254353.1157576.254353.2569697s-.114248.2563636-.254353.2563636"/><path d="m52.506685 39.576303v-3.7672727h-3.4629281v3.7672727h-1.5074772v-7.8527272h1.5074772v3.3769697h3.4629281v-3.3769697h1.5068758v7.8527272z"/><path d="m65.8217307 32.4420606c-.7642614 0-1.1202353.2460606-1.5381438.78-.4070849.5133333-.6313725 1.3139394-.6313725 2.4127273 0 1.1181818.2242876 1.9193939.6313725 2.4321212.4179085.5339394.7943268.78 1.6193203.78.7233725 0 1.1713464-.2557576 1.5988758-.78.3974641-.5024243.5195294-1.2830303.5195294-2.4224243 0-1.1084848-.1118431-1.8781818-.5195294-2.4018181-.407085-.5339394-.8863268-.8006061-1.6800523-.8006061m.0102222 7.1339394c-1.1917908 0-1.9253856-.3690909-2.6788235-1.0878788-.7744836-.7387879-1.1509019-1.7042424-1.1509019-2.8945454 0-1.149697.3872418-2.1042425 1.1713464-2.8127273.7636601-.6981818 1.4864313-1.0575758 2.6481568-1.0575758 1.1611242 0 1.8935164.349697 2.668 1.0369697.7943268.7187879 1.1917909 1.6836364 1.1917909 2.8745455 0 1.16-.3770196 2.1145454-1.1412811 2.8430303-.7432157.7290909-1.4864313 1.0981818-2.7082876 1.0981818"/><path d="m79.3699634 32.4935758h-.3253072v2.8842424h.2850196c.4281307 0 .7233726-.010303.9368366-.0818182.2140654-.0618182.3872418-.1745455.5297517-.4006061.1419084-.2254545.2236862-.5133333.2236862-.8727272 0-.5745455-.1425098-.9442425-.3770196-1.169697-.2333072-.2260606-.6313725-.3593939-1.2729673-.3593939m2.0883399 3.3872727c-.3968628.1848485-1.0288366.2151515-1.8538301.2151515h-.559817v1.3963636c0 .3078788-.0108235.4721212 0 .7187879l-.2242876-.2157576c.2242876.2260606.2242876 1.5812122.2242876 1.5812122h-1.4972549v-2.0842425-3.5927272-2.1763637h1.710719c.7636601 0 1.3649673.0824243 1.8033202.2054546.4479739.1333333.81417.390303 1.1094118.7187879.2952418.3593939.4383529.790303.4383529 1.2933333 0 .4412121-.092.8212121-.2952418 1.169697-.2038431.3496969-.4996863.5957575-.8556601.770303"/><path d="m92.5640261 32.432h-.7432156v1.3545455.2157575 1.0981818h.5087058 1.5994772v.7084849h-1.5688105-.5393725v.6769697.1648485.2769697.5133333 1.4169697h.7227712 2.4749804v.7078788h-4.715451v-2.1248485-.5133333-.4418182-2.7090909-2.0636364h4.7358954v.7187879z"/><path d="m111.773566 39.576303v-2.1557575-3.6339394-2.0630303h1.507477v2.0630303 3.6339394 2.1557575z"/><path d="m123.338748 39.5662424c-.753438-.0824242-1.690876-.6569697-2.220026-1.5296969l.509307-.5539394c.682483.9951515 1.048679 1.2624242 1.700496 1.3642424.42753.0624242.764262-.0406061 1.008393-.2460606.265176-.2151515.397464-.4612121.42813-.7490909.030667-.2975758-.040889-.5442425-.214065-.759394-.183399-.2260606-.549595-.5030303-1.150902-.8418182-.539974-.3078787-.94766-.5642424-1.232078-.790303-.295242-.2363636-.509308-.5339394-.651817-.8727273-.152732-.3490909-.203844-.7084848-.163556-1.0678787.061333-.5642425.306065-1.0260606.743817-1.3648485.428131-.3284849.947059-.4618182 1.527922-.4006061.315686.0309091.62115.1230303.895947.2569697.295242.1436364.570641.410303.947059.9339394l-.590483.4927273c-.193621-.3078788-.244733-.3903031-.315687-.4618182-.254954-.3078788-.57064-.4721212-.947059-.5133333-.377019-.0412122-.62115.0412121-.773882.1848484-.184.1636364-.275399.359394-.295242.5648485-.030666.2557576.040288.4824243.223686.6872728.182798.2254545.57004.5133333 1.160523.8624242.580863.3484848.998772.6157576 1.263347.8109091.285621.2157576.509307.5030303.651817.8418182.152732.3593939.203843.7393939.162353 1.16-.070955.6569697-.355974 1.18-.844837 1.56-.499085.38-1.110013.5133333-1.823163.4315151"/><path d="m133.792954 39.576303v-2.1351515-3.6339394-2.0836363h1.507477v7.1339394h4.04319v.7187878z"/><path d="m149.522669 33.8891515-.90617 2.2684849h1.843608zm2.322249 5.6872727c-.437752-1.1084848-.610928-1.4987878-.610928-1.4987878l-.499085-1.2212122h-2.37336l-1.038457 2.72h-.876105l3.218196-7.8527272h.509307l3.319817 7.8527272z"/><path d="m166.789686 39.576303-4.797228-6.3642424v4.3315152 1.8478787h-.702327v-1.8478787-3.8284849-1.9915151h1.455764l3.819504 5.1424242v-3.6230303-1.5193939h.76366v1.6018181 6.2509091z"/><path d="m179.697226 33.1606061c-.275399-.2878788-.570039-.4721213-.886327-.5648485-.325908-.1024243-.76366-.1539394-1.313255-.1539394-.19362 0-.407686 0-.601307.010303v6.4054546h.896549c.620549 0 1.099791-.0818182 1.476209-.2460606.336732-.1436364.641595-.4412122.906772-.9236364.24413-.4727273.377019-1.0781818.377019-1.8478788 0-.6054545-.071555-1.1290909-.224287-1.5915152-.152732-.4515151-.366798-.8212121-.631373-1.0878787m1.507477 5.3272727c-.295242.3181818-.651817.5545454-1.049281.7193939-.387242.1636364-.753438.2660606-1.110013.3072728-.336732.0412121-.814771.0618181-1.425699.0618181h-2.220026v-7.8630303c1.894117.0103031 2.239869.0103031 2.239869.0103031 1.09017 0 1.975895.1636363 2.627712.5230303.642196.3490909 1.120837.8315151 1.436523 1.4375757.315085.6054546.467817 1.2933334.467817 2.0733334 0 .5545454-.081176 1.0678787-.254353 1.54-.173176.4715151-.407085.8727272-.712549 1.190303"/></g></svg>