<svg height="44" viewBox="0 0 148 44" width="148" xmlns="http://www.w3.org/2000/svg"><g fill="#8e8e8e" fill-rule="evenodd"><path d="m141.555207 13.1487644c-1.083555 0-2.132171-.1016888-3.154099.0190667-3.308406.3896445-6.016078 3.5116889-6.021416 6.8571556-.005823 3.9560889-.000971 12.1816444-.000971 12.3532444.909836 0 1.761443.0567111 2.601889-.0156444.843357-.0723556 1.503777-.8746223 1.542597-1.7340889.025232-.5602667.039304-7.4384445.045613-10.3175111.00097-.2776889.016013-.5646667.085888-.8311111.353259-1.3483556 1.480485-2.2156445 2.870715-2.2283556.669154-.0058667 1.338793-.0009778 2.029784-.0009778zm-134.35051848-7.46142218c-.00776393.17453334-.01940983.30506667-.01940983.43511111-.00048525 8.06324447-.00145574 16.12648887.00097049 24.18973337.00048525 1.3219555.78609836 2.1056444 2.11906885 2.1080889 2.65332457.0058666 5.30664917.0034222 7.95948857-.0009778 1.1582819-.0014667 1.9579672-.7949334 1.9841704-1.9668.0131017-.5607556-.0169836-1.1234667.0101902-1.6832445.0179541-.3637333-.0931672-.4810666-.4643803-.4781333-2.1253771.0161333-4.2507541.0078222-6.3761312.0078222h-.5454164v-.5871555c0-3.4261334-.0058229-16.8055556-.0106754-20.06937781-.0019409-1.01542222-.6759475-1.87928889-1.622177-1.9404-.99087215-.06404445-1.98902297-.01466667-3.03569838-.01466667zm9.31429508 34.43146668c1.3402492.0361778 2.6339148.0264 3.9169049-.2772 4.0052197-.9489333 6.7259935-4.2367111 6.7356984-8.2588.0189246-7.9742667.0077639-15.9485333.0048524-23.92231112-.0004852-1.12884445-.8176393-1.94675556-1.945836-1.96093334-.6890492-.00831111-1.3776131-.00195555-2.0666623-.00146666-.655082 0-.655082 0-.655082.67662222 0 8.1365778.0067935 25.0316-.0223213 25.3391111-.1285902 1.3527556-.5541508 2.5671556-1.6687607 3.4300445-.8491803.6575555-1.8376262.88-2.8881836.8809777-.463895 0-.9273049 0-1.4106098 0zm101.2155014-16.1616889h.597338c3.694177 0 7.388839.0004889 11.083016-.0009778.506112 0 .757469-.2415111.74825-.7484889-.015043-.8707111-.000971-1.7453333-.084433-2.6096889-.184879-1.9237777-.812302-3.6867111-2.098689-5.1563111-1.525128-1.7424-3.500078-2.5138666-5.764721-2.6023555-3.319082-.1290667-6.279082 1.2750222-7.695515 4.6356444-1.443121 3.4236889-1.379554 6.9397778-.156249 10.4128445.684682 1.9423555 2.043856 3.3420444 3.985325 4.0568 2.562583.9430666 5.165442.9557777 7.755685.0997333 1.288813-.4258222 2.346649-1.2334667 3.202623-2.0988-.803567-.8819556-1.581902-1.7350667-2.390322-2.6214222-1.35238 1.4128889-2.993967 1.8582666-4.811698 1.7702666-3.18758-.1549777-4.574898-2.6419555-4.37061-5.1372444zm-57.687003-1.2383556c.0640524 1.0007556.086859 2.0064.1989508 3.0017778.3260852 2.9069334 1.7235934 5.0756445 4.4385442 6.2602222 1.5144525.6604889 3.1123673.7685334 4.7413378.5866667 3.3040393-.3691111 5.8302295-2.5984444 6.4901639-5.8715555.5211541-2.5842667.5046557-5.2042223.0363934-7.7919112-.4944655-2.7309333-2.1195541-4.5852888-4.698636-5.5523111-1.572682-.5896-3.2132984-.6834666-4.8505181-.3661777-2.9148721.5651555-4.9271869 2.2264-5.8282885 5.126-.4653508 1.4974666-.4750557 3.0531111-.5279475 4.6072888zm34.7319606.3671556c-.0766688-1.1620889-.1072393-2.3290667-.2406819-3.4848-.2862951-2.4791556-1.4343869-4.4410667-3.6155673-5.7028889-1.6595409-.9601778-3.4738754-1.1635555-5.3532327-1.0173778-3.1953443.2478667-5.8510951 2.3945778-6.5954623 5.5317778-.6657574 2.8052445-.6264525 5.6613333-.0494951 8.4778222.4803934 2.3476445 1.9021639 4.0235556 4.0629639 5.0204 1.5586098.7191556 3.2176656.8780445 4.9024394.6463111 3.0041573-.4131111 5.1756327-1.9521333 6.2363803-4.8800888.534741-1.4754667.5691934-3.0345334.6526557-4.5911556zm6.2970364-1.4808444c-.015043-.1794223-.025718-.2488445-.025718-.3187556-.001456-1.3439556.001941-10.3546667-.003397-13.51533333-.001941-1.25155556-.805508-2.0548-2.0356066-2.05871111-.5716197-.00195556-1.1451804.02786666-1.714859-.01026667-.4342951-.02933333-.5303738.12662222-.5294033.54462222.0116459 8.00555559.0203803 24.37257779.0441574 24.54711109.1096655.7968889.7283541 1.5028445 1.5144524 1.5634667.8850885.0684444 1.7789111.0156444 2.7227151.0156444 0-.1877333-.022322-5.6623111-.022322-5.6623111s2.151581-2.4600889 2.688263-3.0653333c.115003.1848.201377.3197333.283383.4566222 1.575594 2.6453778 3.154099 5.2888 4.720472 7.9395556.152853.2586222.318322.3588444.62063.3549333 1.378098-.0171111 2.756197-.0068444 4.134295-.0088.120826 0 .242138-.0195556.421679-.0356889-2.494164-3.8969333-4.95242-7.7381333-7.419895-11.594 2.252026-2.5559111 4.482216-5.0873778 6.785193-7.7009778-1.730387 0-3.338492-.0048889-4.946111.0102667-.114518.0009778-.250873.132-.337732.2356444-1.003003 1.1953334-5.551698 6.6772445-6.900196 8.3023112zm-47.6933642-.6399556c0 .2033778-.0004853 6.3995556 0 9.3236.0004852 1.3263556.7594098 2.0992889 2.062295 2.0997778.718164.0009778 2.4043935-.0215111 2.5630689-.0361778 0-.1950667 0-16.4369333-.0004853-24.39751111 0-.10315556.0029115-.2068-.0009704-.30995556-.0427017-1.144-.8380197-1.92328889-1.9793181-1.9316-.7477639-.00586666-2.4927082.022-2.6557508.03764445v11.12808892c-.1843934.0097777-5.8355672.0166222-8.5180066.0332444-.3911082.0024445-.4920393-.1109778-.4896131-.4981778.0155279-2.8502222.0087345-5.7009333.007764-8.55164441 0-1.39724445-.7540722-2.14915556-2.1540066-2.15013333-.6594492-.00048889-2.2874492.0176-2.4703869.02884444 0 .21266667-.0058229 24.6532.0053377 24.8150222.0640525.9318222.7036066 1.7311556 1.5867541 1.7981334.9874754.0748 1.9846558.0171111 3.0371541.0171111v-11.4062667zm-52.09600005-19.06715556c.95447869-1.17724444 2.1787541-1.78982222 3.6946623-1.79226666 2.08073443-.00293334 18.92022295-.08115556 28.00984915-.08262222 38.0578361-.00635556 76.1151868-.01417778 114.1735078-.01955556.819096 0 .71865-.0968.71865.73626667.001455 12.51066663.00097 25.02084443.000485 37.53151113 0 2.7152889-1.654689 4.7989333-4.241535 5.3147111-.355685.0708889-.728354.0801778-1.093259.0801778-36.21099.0039111-139.03217008-.0933778-142.04991434-.1144-.38965246-.0029334-.49980328-.1378667-.49980328-.5182223.00776393-12.5991555-.00194099-25.1983111.01989508-37.79697773.00194098-1.24568889.3848-2.41413334 1.27765246-3.34986667 0-.00048889-.01019017.01124444-.01019017.01124444z"/><path d="m90.1257889 26.0505911c-.2814427 1.3503111-1.0952 2.3256445-2.4742689 2.6551556-1.3766426.3285333-2.6586623.1207555-3.6737967-.9777778-.6463476-.6996-.919541-1.5796-1.0170754-2.4987111-.1897312-1.7942222-.2304918-3.5938222.0669639-5.3831556.4042098-2.4356444 2.3490754-3.6955111 4.7112525-3.0575111 1.1941901.3216889 1.9982426 1.1273778 2.2825967 2.2953333.2896918 1.1919112.3285115 5.8911112.1043279 6.9666667"/><path d="m71.6570872 26.0522533c-.386741 1.7878667-1.6857442 2.7690667-3.4743606 2.7788445-1.7672656.0097778-3.1225574-.9831556-3.5112394-2.7460889-.4852459-2.1975556-.5153311-4.4391111-.0092197-6.6312889.6148066-2.6644444 3.6383738-3.7307111 5.7487082-2.1002667.9389509.7250223 1.2931804 1.7663556 1.426623 2.8898223.0989902.8330666.0519213 4.7368444-.1805115 5.8089777"/><path d="m125.963382 21.1884444h-8.277324c.033482-1.7272444.382859-3.3073333 1.928367-4.2728888 1.449915-.9059112 3.001246-.8951556 4.446793.0161333 1.528525.9640889 1.862374 2.5358667 1.902164 4.2567555"/></g></svg>