<?xml version="1.0" encoding="UTF-8"?>
<svg width="262px" height="44px" viewBox="0 0 262 44" version="1.1" xmlns="http://www.w3.org/2000/svg" xmlns:xlink="http://www.w3.org/1999/xlink">
    <!-- Generator: Sketch 48.2 (47327) - http://www.bohemiancoding.com/sketch -->
    <title>Page 1</title>
    <desc>Created with Sketch.</desc>
    <defs></defs>
    <g id="Another-Homepage-2" stroke="none" stroke-width="1" fill="none" fill-rule="evenodd" transform="translate(-119.000000, -48.000000)">
        <g id="Page-1" transform="translate(120.000000, 49.000000)">
            <path d="M4.98069169,19.4000492 C4.61333244,22.7836557 4.39781501,24.6439344 4.33483914,24.9822951 C4.12491957,26.1454098 3.3909008,26.7276721 2.13138338,26.7276721 C1.45964075,26.7276721 0.918747989,26.5161967 0.509404826,26.0932459 C0.100061662,25.6702951 -0.0629758713,25.1303279 0.021691689,24.475459 C0.252603217,23.1220164 0.535294906,21.2553934 0.87116622,18.8762951 C1.20703753,16.4979016 1.55410456,14.0130656 1.9102681,11.4224918 C2.2678311,8.83191803 2.49874263,7.16690164 2.60370241,6.4267377 C2.72895442,5.89804918 3.07042359,5.5117541 3.62671046,5.26855738 C4.18299732,5.02536066 4.78616622,4.91468852 5.43691689,4.93583607 C6.48651475,4.95698361 7.25272118,5.63370492 7.73553619,6.966 L11.8604558,19.178 C11.8814477,19.2837377 11.9234316,19.4211967 11.9864075,19.590377 C12.0493834,19.7595574 12.0913673,19.8758689 12.1123592,19.9393115 L12.3327748,19.3366066 C13.3193968,16.9257869 14.8728016,12.8020164 16.9929893,6.966 L17.118941,6.74395082 C17.1819169,6.57477049 17.2287989,6.45281967 17.2602869,6.37880328 C17.2917748,6.30478689 17.3547507,6.18847541 17.4492145,6.02986885 C17.5436783,5.8712623 17.633244,5.74437705 17.7172118,5.64921311 C17.8011796,5.55404918 17.9061394,5.44831148 18.0313914,5.332 C18.1580429,5.21568852 18.2993887,5.12052459 18.4568284,5.0465082 C18.6142681,4.9724918 18.7766059,4.9252623 18.9452413,4.90411475 C19.4483485,4.86181967 19.8262038,4.8512459 20.078807,4.87239344 C21.0017534,4.97813115 21.5895282,5.27419672 21.8414316,5.76059016 C21.9883753,6.24698361 22.1675067,7.27757377 22.3767265,8.85306557 C22.5866461,10.4285574 22.9015255,13.0191311 23.3213646,16.624082 C23.7412038,20.2297377 24.0560831,22.8999672 24.2660027,24.6340656 C24.3079866,25.3107869 24.1141609,25.8289016 23.6838257,26.1877049 C23.2534906,26.547918 22.7230938,26.7276721 22.0940349,26.7276721 C20.7708418,26.7276721 20.0466193,26.1454098 19.9213673,24.9822951 C19.6694638,22.6144754 19.2811126,18.5012787 18.7563137,12.6441148 L14.4109786,24.475459 C13.9491555,25.5328361 13.0989812,26.0509508 11.8604558,26.0290984 C11.4196247,26.0086557 11.0578633,25.8972787 10.7737721,25.696377 C10.4910804,25.4954754 10.296555,25.3002131 10.1915952,25.1098852 C10.0866354,24.9195574 9.93969169,24.6016393 9.75076408,24.1582459 L5.78328418,12.4848033 C5.61534853,13.7113607 5.34805094,16.0164426 4.98069169,19.4000492 Z" id="Stroke-1" stroke="#FFFFFF" stroke-width="1.39999998" stroke-linecap="round" stroke-linejoin="round"></path>
            <path d="M37.8202295,18.0993344 C39.8774413,18.0993344 41.6827496,18.0781869 43.2361544,18.0358918 C43.1521866,17.7821213 42.7428434,16.5823508 42.0081249,14.4358754 C41.2734064,12.2894 40.7905914,10.8781541 40.5596799,10.2014328 C40.3497603,10.8570066 39.4366102,13.4891705 37.8202295,18.0993344 Z M31.3652027,22.5720393 C32.7086879,19.5902361 33.6848139,17.3063016 34.2935807,15.7202361 L38.072133,6.39487541 C38.2610606,5.92962951 38.5815378,5.56448197 39.0328649,5.3001377 C39.4834922,5.03579344 39.9719051,4.90397377 40.496704,4.90397377 C41.8401893,4.90397377 42.7218515,5.4326623 43.1416906,6.49003934 C43.3096263,6.89184262 44.6531115,10.2754492 47.1721464,16.6401541 C47.2351223,16.7458918 47.3190901,16.9256459 47.4240499,17.1794164 C47.5290097,17.4331869 47.6129775,17.612941 47.6752536,17.7186787 C48.8298113,20.6158918 49.6170097,22.540318 50.0368488,23.4919574 C50.2684601,24.0417934 50.3839158,24.4964656 50.3839158,24.8559738 C50.3839158,25.3212197 50.1474064,25.7441705 49.6750874,26.1248262 C49.2027684,26.505482 48.6310874,26.6958098 47.9593448,26.6958098 C46.9517308,26.6958098 46.2694922,26.2411377 45.912629,25.3317934 L44.4641839,21.5886787 C44.0653367,21.5675311 42.4279641,21.5569574 39.552066,21.5569574 L36.6243877,21.5569574 L35.2697067,25.1731869 C34.8498676,26.1671213 34.2201088,26.6640885 33.3804306,26.6640885 C32.6883957,26.6640885 32.0901249,26.4949082 31.586318,26.1565475 C31.082511,25.8181869 30.8306075,25.2894984 30.8306075,24.570482 C30.8306075,24.062941 31.0090391,23.3967934 31.3652027,22.5720393 Z" id="Stroke-2" stroke="#FFFFFF" stroke-width="1.39999998" stroke-linecap="round" stroke-linejoin="round"></path>
            <path d="M62.1430504,8.74197049 L62.1745383,15.2765607 L64.7243614,15.2765607 C65.9006107,15.2765607 66.8711389,15.006577 67.6373453,14.4680197 C68.4035517,13.9280525 68.7968011,13.1089377 68.8184928,12.0092656 C68.838785,10.930741 68.5246054,10.1109213 67.873155,9.55051148 C67.223104,8.99080656 66.26797,8.71024918 65.0084525,8.71024918 C63.5600075,8.71024918 62.6048735,8.72082295 62.1430504,8.74197049 Z M58.6010075,5.69672459 C59.1146107,5.29492131 59.7919512,5.07287213 60.6316295,5.03057705 C61.4713078,4.98828197 62.2585062,4.95656066 62.9932247,4.93611803 L65.4807716,4.93611803 C67.7688949,4.9777082 69.6156273,5.61283934 71.0220885,6.8386918 C72.4285496,8.06524918 73.1317802,9.75705246 73.1317802,11.9141016 C73.1317802,13.2886918 72.7854129,14.5096098 72.0926783,15.5775607 C71.3999437,16.6455115 70.4762976,17.4018885 69.3217399,17.8459869 C69.6576113,18.3112328 71.0010965,20.1193475 73.3521957,23.2696262 C73.709059,23.735577 73.8874906,24.200118 73.8874906,24.6653639 C73.8874906,25.2152 73.6565791,25.6860852 73.194756,26.0773148 C72.732933,26.4678393 72.1871421,26.6743803 71.5573834,26.6955279 C71.263496,26.6955279 71.0010965,26.6320852 70.770185,26.5052 C70.5399732,26.3783148 70.3664397,26.2514295 70.2509839,26.1245443 C70.1355282,25.997659 69.9619946,25.7967574 69.7310831,25.5218393 C69.647815,25.3949541 69.0438064,24.4912492 67.9207367,22.8100197 C66.797667,21.1287902 65.9209029,19.8550033 65.291844,18.9879541 C65.0189485,18.9879541 64.4941496,18.9823148 63.7174472,18.971741 C62.9407448,18.9611672 62.4159458,18.9562328 62.1430504,18.9562328 C62.1430504,19.5060689 62.1535464,20.4520689 62.1745383,21.7949377 C62.1955303,23.1378066 62.2060263,24.0415115 62.2060263,24.5067574 C62.2060263,25.8390525 61.5972595,26.5474951 60.379726,26.6320852 C59.4770718,26.6743803 58.831919,26.5319869 58.4428681,26.2034951 C58.0552166,25.8764131 57.8606912,25.2786426 57.8606912,24.4115934 C57.9026751,20.4781508 57.913171,15.8369705 57.8921791,10.4866426 C57.8921791,10.148282 57.8816831,9.63580656 57.8606912,8.94780656 C57.8396992,8.26121639 57.8292032,7.75860984 57.8292032,7.44139672 C57.8292032,6.68008525 58.0867046,6.09852787 58.6010075,5.69672459 Z" id="Stroke-3" stroke="#FFFFFF" stroke-width="1.39999998" stroke-linecap="round" stroke-linejoin="round"></path>
            <path d="M93.2350777,6.0458 C93.8858284,5.26334098 94.5470751,4.87211148 95.2188177,4.87211148 C95.7856005,4.87211148 96.3103995,5.08922623 96.7932145,5.5220459 C97.2760295,5.95627541 97.517437,6.41588197 97.517437,6.90227541 C97.517437,7.47325902 97.2340456,8.07596393 96.6672627,8.71039016 C95.7436166,9.8100623 94.1377319,11.5441607 91.8503083,13.9126852 C91.7446488,14.018423 91.5767131,14.1974721 91.3458016,14.4512426 C91.1148901,14.705718 90.9679464,14.8643246 90.9049705,14.9277672 L95.061378,20.0024721 L97.4229732,22.635341 C98.010748,23.2909148 98.3046354,23.9464885 98.3046354,24.6020623 C98.3046354,25.1941934 98.0583298,25.7017344 97.564319,26.1246852 C97.071008,26.5476361 96.530815,26.7591115 95.9430402,26.7591115 C95.2503056,26.7591115 94.6415389,26.4207508 94.1167399,25.7440295 L93.0776381,24.3800131 L87.9451046,17.5916525 C87.7358847,17.8672754 87.3944155,18.2479311 86.9220965,18.7343246 C86.4497775,19.2200131 86.1614879,19.5266525 86.0565282,19.6535377 L86.0880161,24.8558328 C86.0880161,26.0612426 85.3532976,26.6850951 83.8838606,26.7273902 C83.212118,26.7485377 82.6712252,26.5899311 82.261882,26.2515705 C81.8525389,25.9132098 81.6482172,25.4268164 81.6482172,24.7923902 C81.6482172,24.6020623 81.6531153,24.2058984 81.6636113,23.6031934 C81.674807,23.0004885 81.6797051,22.4555869 81.6797051,21.9691934 C81.6797051,20.0236197 81.6846032,17.5387836 81.6950992,14.5153902 C81.7055952,11.4912918 81.711193,8.93243934 81.711193,6.83883279 C81.711193,6.18325902 81.9211126,5.6862918 82.3409517,5.34793115 C82.7607909,5.00957049 83.2960858,4.84039016 83.9468365,4.84039016 C84.639571,4.84039016 85.1797641,5.00393115 85.5681153,5.33242295 C85.9564665,5.66020984 86.1502922,6.14096393 86.1502922,6.77539016 C86.1502922,10.2012918 86.140496,12.7594393 86.119504,14.4512426 L93.2350777,6.0458 Z" id="Stroke-4" stroke="#FFFFFF" stroke-width="1.39999998" stroke-linecap="round" stroke-linejoin="round"></path>
            <path d="M106.789584,5.49067705 C107.230416,5.16289016 107.797198,4.99934918 108.489933,4.99934918 L109.74945,4.99934918 C111.659718,4.99934918 113.433539,4.98877541 115.070912,4.96762787 C116.708284,4.94648033 117.600442,4.93590656 117.747386,4.93590656 C118.356153,4.93590656 118.817276,5.09451311 119.132855,5.41172623 C119.447035,5.72823443 119.61567,6.15118525 119.635962,6.67987377 C119.677946,7.75839836 119.311287,8.41397213 118.534584,8.6473 C118.093753,8.7100377 115.763646,8.74175902 111.544263,8.74175902 L110.442185,8.74175902 L110.442185,10.9305295 L110.379209,13.8171689 L110.379209,14.039218 L111.386823,14.039218 C113.150147,14.039218 114.703552,14.0180705 116.046338,13.9757754 C116.865024,13.9757754 117.458397,14.0970213 117.825756,14.340923 C118.193115,14.5834148 118.365949,15.0965951 118.345657,15.8790541 C118.303673,17.1056115 117.663418,17.7188902 116.424893,17.7188902 L110.316233,17.7188902 C110.295241,18.0783984 110.284745,18.6705295 110.284745,19.4952836 L110.284745,22.7308574 C112.80378,22.7308574 114.819008,22.7097098 116.330429,22.6674148 C116.603324,22.6674148 116.944094,22.6617754 117.353437,22.6512016 C117.76278,22.6406279 118.061566,22.6356934 118.250493,22.6356934 C119.384759,22.6356934 119.951542,23.2701197 119.951542,24.5382672 C119.951542,25.8712672 119.300091,26.5578574 117.99929,26.6001525 L109.371595,26.6001525 C108.112078,26.6001525 107.246509,26.4626934 106.77419,26.1877754 C106.301871,25.9135623 106.033874,25.3524475 105.970898,24.5072508 C105.929614,24.0835951 105.918418,23.7353656 105.93941,23.4604475 C105.93941,23.3970049 105.949906,22.9261197 105.970898,22.0484967 C105.99189,21.1708738 106.012882,19.9711033 106.033874,18.4484803 C106.054866,16.9258574 106.065362,15.5195459 106.065362,14.2295459 C106.065362,13.4047918 106.07096,12.1838738 106.081456,10.5660869 C106.091952,8.9483 106.09685,7.73795574 106.09685,6.93364426 C106.117842,6.29921803 106.348753,5.81846393 106.789584,5.49067705 Z" id="Stroke-5" stroke="#FFFFFF" stroke-width="1.39999998" stroke-linecap="round" stroke-linejoin="round"></path>
            <path d="M137.944448,4.98327705 C139.749756,4.95155574 140.977086,4.93604754 141.628536,4.93604754 C142.84537,4.93604754 143.454836,5.54862131 143.454836,6.77517869 C143.454836,8.19206393 142.835574,8.90050656 141.597048,8.90050656 L136.873858,8.86878525 L136.873858,10.1376377 C136.852866,12.1889492 136.884354,16.9682934 136.968322,24.4749656 C136.989314,25.2151295 136.78989,25.7649656 136.370051,26.1244738 C135.950212,26.483982 135.362437,26.6637361 134.606727,26.6637361 C133.221257,26.6637361 132.539019,25.976441 132.560011,24.6018508 L132.622987,13.1828836 C132.622987,12.6541951 132.618088,11.9506869 132.607592,11.0737689 C132.596397,10.1961459 132.591499,9.47149016 132.591499,8.90050656 C131.793804,8.9216541 130.145936,8.93222787 127.647893,8.93222787 C126.472343,8.93222787 125.885268,8.26608033 125.885268,6.93378525 C125.885268,5.66493279 126.503831,5.01993279 127.742357,4.99878525 C127.847316,4.99878525 128.141204,5.00442459 128.624019,5.01499836 C129.106834,5.02557213 129.894032,5.03050656 130.985614,5.03050656 L135.01607,5.03050656 C135.163013,5.03050656 136.139139,5.01499836 137.944448,4.98327705 Z" id="Stroke-6" stroke="#FFFFFF" stroke-width="1.39999998" stroke-linecap="round" stroke-linejoin="round"></path>
            <path d="M177.045466,5.3956541 C177.486298,5.06786721 178.032088,4.90362131 178.682839,4.90362131 C180.047316,4.90362131 180.729555,5.52747377 180.729555,6.77588361 C180.729555,7.47304754 180.708563,9.60894918 180.666579,13.1828836 C180.645587,14.4305885 180.635091,16.3232934 180.635091,18.8609984 L180.635091,22.6668508 C182.12552,22.6668508 183.09115,22.656277 183.531981,22.6358344 L187.750665,22.476523 C188.380424,22.4560803 188.842247,22.613982 189.136134,22.9523426 C189.430021,23.2907033 189.576965,23.7559492 189.576965,24.3480803 C189.576965,25.8072607 188.93671,26.5368508 187.656901,26.5368508 L184.130252,26.5051295 C182.240976,26.5051295 180.855507,26.526277 179.973845,26.5685721 C178.609367,26.6320148 177.670327,26.5107689 177.155324,26.2041295 C176.641021,25.8967852 176.342236,25.2574246 176.258268,24.2846377 C176.216284,23.8616869 176.195292,23.4598836 176.195292,23.0792279 C176.195292,22.4878016 176.22678,21.3246869 176.289756,19.5905885 C176.352732,17.8564902 176.38422,16.5030475 176.38422,15.5302607 C176.38422,14.5786213 176.378622,13.0982934 176.368826,11.089277 C176.35833,9.08026066 176.352732,7.65280164 176.352732,6.8069 C176.373724,6.19362131 176.604635,5.72344098 177.045466,5.3956541 Z" id="Stroke-7" stroke="#FFFFFF" stroke-width="1.39999998" stroke-linecap="round" stroke-linejoin="round"></path>
            <path d="M202.186134,18.0993344 C204.242646,18.0993344 206.048654,18.0781869 207.601359,18.0358918 C207.518091,17.7821213 207.108748,16.5823508 206.37333,14.4358754 C205.639311,12.2894 205.156496,10.8781541 204.925584,10.2014328 C204.715665,10.8570066 203.802515,13.4891705 202.186134,18.0993344 Z M195.731107,22.5720393 C197.074592,19.5902361 198.050718,17.3063016 198.659485,15.7202361 L202.438038,6.39487541 C202.626965,5.92962951 202.946743,5.56448197 203.39807,5.3001377 C203.849397,5.03579344 204.33781,4.90397377 204.862609,4.90397377 C206.206094,4.90397377 207.087056,5.4326623 207.506895,6.49003934 C207.674831,6.89184262 209.018316,10.2754492 211.537351,16.6401541 C211.600327,16.7458918 211.684295,16.9256459 211.789255,17.1794164 C211.894214,17.4331869 211.978182,17.612941 212.041158,17.7186787 C213.195716,20.6158918 213.982914,22.540318 214.402753,23.4919574 C214.633665,24.0417934 214.749121,24.4964656 214.749121,24.8559738 C214.749121,25.3212197 214.513311,25.7441705 214.040292,26.1248262 C213.568673,26.505482 212.996292,26.6958098 212.32455,26.6958098 C211.316936,26.6958098 210.634697,26.2411377 210.277834,25.3317934 L208.829389,21.5886787 C208.430542,21.5675311 206.793169,21.5569574 203.917971,21.5569574 L200.989592,21.5569574 L199.635611,25.1731869 C199.215772,26.1671213 198.586013,26.6640885 197.746335,26.6640885 C197.053601,26.6640885 196.45533,26.4949082 195.951523,26.1565475 C195.447716,25.8181869 195.195812,25.2894984 195.195812,24.570482 C195.195812,24.062941 195.374244,23.3967934 195.731107,22.5720393 Z" id="Stroke-8" stroke="#FFFFFF" stroke-width="1.39999998" stroke-linecap="round" stroke-linejoin="round"></path>
            <path d="M237.686332,7.75853934 C237.66534,8.37181803 237.502303,8.87442459 237.19792,9.2656541 C236.893536,9.65617869 236.447807,9.8521459 235.860032,9.8521459 C235.440193,9.83099836 234.915394,9.68296557 234.285635,9.40804754 C233.194054,8.96394918 232.123464,8.7419 231.073866,8.7419 C229.499469,8.7419 228.130094,9.41862131 226.96504,10.7720639 C225.799987,12.1255066 225.207314,13.8701787 225.186322,16.0060803 C225.16463,17.9305066 225.762901,19.5215066 226.981134,20.7797852 C228.197968,22.0380639 229.604429,22.6781295 231.199818,22.6985721 C232.333383,22.6985721 233.487941,22.4137852 234.663491,21.8420967 C235.398209,21.461441 235.933504,21.2823918 236.269375,21.3028344 C236.815166,21.3028344 237.245501,21.5410967 237.560381,22.0169164 C237.87526,22.4927361 238.022204,23.026359 238.001212,23.6191951 C237.98022,24.4432443 237.219611,25.1890475 235.717987,25.8551951 C234.217062,26.5213426 232.585287,26.8329164 230.821962,26.7906213 C228.114,26.7483262 225.758003,25.7600311 223.753271,23.8250311 C221.748539,21.8900311 220.767515,19.3156705 220.809499,16.1012443 C220.830491,13.8596049 221.370684,11.8505885 222.430777,10.0741951 C223.490871,8.29780164 224.813365,6.96550656 226.398257,6.07730984 C227.98315,5.18911311 229.635917,4.7661623 231.357257,4.80845738 C233.20455,4.80845738 234.736962,5.09394918 235.954496,5.66493279 C237.130046,6.17247377 237.707324,6.87034262 237.686332,7.75853934 Z" id="Stroke-9" stroke="#FFFFFF" stroke-width="1.39999998" stroke-linecap="round" stroke-linejoin="round"></path>
            <path d="M246.485461,5.49067705 C246.926292,5.16289016 247.493075,4.99934918 248.18581,4.99934918 L249.445327,4.99934918 C251.355595,4.99934918 253.129416,4.98877541 254.766788,4.96762787 C256.404161,4.94648033 257.296319,4.93590656 257.443263,4.93590656 C258.052029,4.93590656 258.513153,5.09451311 258.828732,5.41172623 C259.142912,5.72823443 259.311547,6.15118525 259.331839,6.67987377 C259.373823,7.75839836 259.007164,8.41397213 258.230461,8.6473 C257.78963,8.7100377 255.459523,8.74175902 251.240139,8.74175902 L250.138062,8.74175902 L250.138062,10.9305295 L250.075086,13.8171689 L250.075086,14.039218 L251.0827,14.039218 C252.846024,14.039218 254.399429,14.0180705 255.742214,13.9757754 C256.560901,13.9757754 257.154273,14.0970213 257.521633,14.340923 C257.888992,14.5834148 258.061826,15.0965951 258.041534,15.8790541 C257.99955,17.1056115 257.359295,17.7188902 256.120769,17.7188902 L250.01211,17.7188902 C249.991118,18.0783984 249.980622,18.6705295 249.980622,19.4952836 L249.980622,22.7308574 C252.499657,22.7308574 254.514885,22.7097098 256.026306,22.6674148 C256.299201,22.6674148 256.639971,22.6617754 257.049314,22.6512016 C257.458657,22.6406279 257.757442,22.6356934 257.94637,22.6356934 C259.080635,22.6356934 259.647418,23.2701197 259.647418,24.5382672 C259.647418,25.8712672 258.995968,26.5578574 257.695166,26.6001525 L249.067472,26.6001525 C247.807954,26.6001525 246.942386,26.4626934 246.470067,26.1877754 C245.997748,25.9135623 245.729751,25.3524475 245.666775,24.5072508 C245.625491,24.0835951 245.614295,23.7353656 245.635287,23.4604475 C245.635287,23.3970049 245.645783,22.9261197 245.666775,22.0484967 C245.687767,21.1708738 245.708759,19.9711033 245.729751,18.4484803 C245.750743,16.9258574 245.761239,15.5195459 245.761239,14.2295459 C245.761239,13.4047918 245.766836,12.1838738 245.777332,10.5660869 C245.787828,8.9483 245.792727,7.73795574 245.792727,6.93364426 C245.813718,6.29921803 246.04463,5.81846393 246.485461,5.49067705 Z" id="Stroke-10" stroke="#FFFFFF" stroke-width="1.39999998" stroke-linecap="round" stroke-linejoin="round"></path>
            <path d="M151.304429,30.4288443 L155.777815,22.029041 C159.303764,22.1354836 161.829097,21.9754672 163.353812,21.5518115 C165.037367,21.1274508 166.406043,20.1081393 167.45704,18.4910574 C168.509437,16.8746803 169.061525,15.1123852 169.114705,13.2041721 C169.167185,9.81210656 167.746729,7.45345082 164.853338,6.12961475 C163.327922,5.38663115 161.171349,5.01584426 158.382217,5.01584426 C155.015107,5.01584426 152.884424,5.04263115 151.990166,5.09620492 C151.990166,5.4669918 151.304429,29.7930082 151.304429,30.4288443 Z" id="Stroke-11" stroke="#FFFFFF" stroke-width="1.39999998" stroke-linecap="round" stroke-linejoin="round"></path>
            <path d="M156.014324,17.3579016 L161.225928,11.4774754 C165.78748,11.5951967 170.190893,11.4140328 169.927794,4.7222459 C169.717174,-0.617508197 161.84519,0.0289016393 161.84519,0.0289016393 C159.417121,0.0289016393 157.164684,0.00916393443 156.49434,0 C156.49434,0.370786885 156.014324,16.7220656 156.014324,17.3579016 Z" id="Stroke-12" stroke="#FFFFFF" stroke-width="1.39999998" stroke-linecap="round" stroke-linejoin="round"></path>
            <path d="M117.897828,42.1455689 C117.164509,42.1455689 116.530552,41.8777 115.996657,41.3405525 C115.462761,40.8041098 115.195464,40.1443066 115.195464,39.3604377 C115.195464,38.5829131 115.462761,37.9252246 115.996657,37.3873721 C116.530552,36.8488148 117.164509,36.5795361 117.897828,36.5795361 C118.570271,36.5795361 119.223121,36.8607984 119.854279,37.423323 L120.456748,36.8833557 C119.682145,36.1699787 118.829172,35.8139951 117.897828,35.8139951 C116.896512,35.8139951 116.050536,36.1636344 115.360601,36.864323 C114.669965,37.5643066 114.324997,38.3968148 114.324997,39.3604377 C114.324997,40.3339295 114.669965,41.1678475 115.360601,41.8636016 C116.050536,42.5593557 116.896512,42.9068803 117.897828,42.9068803 C118.829172,42.9068803 119.682145,42.5523066 120.456748,41.8417492 L119.854279,41.3024869 C119.223121,41.8643066 118.570271,42.1455689 117.897828,42.1455689 Z" id="Fill-13" fill="#FFFFFF"></path>
            <path d="M129.677815,35.7992623 C128.679997,35.7992623 127.834021,36.1496066 127.140587,36.8495902 C126.446453,37.5502787 126.100086,38.3841967 126.100086,39.3506393 C126.100086,40.3241311 126.446453,41.1601639 127.140587,41.8587377 C127.834021,42.5573115 128.679997,42.9069508 129.677815,42.9069508 C130.679131,42.9069508 131.526507,42.5573115 132.219941,41.8587377 C132.914075,41.1601639 133.260442,40.3241311 133.260442,39.3506393 C133.260442,38.3841967 132.914075,37.5502787 132.219941,36.8495902 C131.526507,36.1496066 130.679131,35.7992623 129.677815,35.7992623 Z M131.586684,37.3726393 C132.121979,37.9140164 132.389976,38.5731148 132.389976,39.3506393 C132.389976,40.1345082 132.121979,40.7964262 131.586684,41.3356885 C131.050689,41.8756557 130.414633,42.1456393 129.677815,42.1456393 C128.944496,42.1456393 128.309839,41.8756557 127.773845,41.3356885 C127.23855,40.7964262 126.970552,40.1345082 126.970552,39.3506393 C126.970552,38.5731148 127.23855,37.9140164 127.773845,37.3726393 C128.309839,36.8312623 128.944496,36.5605738 129.677815,36.5605738 C130.414633,36.5605738 131.050689,36.8312623 131.586684,37.3726393 Z" id="Fill-14" fill="#FFFFFF"></path>
            <polygon id="Fill-15" fill="#FFFFFF" points="144.389678 35.8956246 142.184823 38.8111656 139.97437 35.8956246 139.051424 35.8956246 139.051424 42.8299033 139.916992 42.8299033 139.916992 37.1919689 142.184823 40.1843459 144.447056 37.1919689 144.447056 42.8299033 145.312625 42.8299033 145.312625 35.8956246"></polygon>
            <polygon id="Fill-16" fill="#FFFFFF" points="156.590903 35.8956246 154.386048 38.8111656 152.175595 35.8956246 151.252649 35.8956246 151.252649 42.8299033 152.118217 42.8299033 152.118217 37.1919689 154.386048 40.1843459 156.648282 37.1919689 156.648282 42.8299033 157.51385 42.8299033 157.51385 35.8956246"></polygon>
            <path d="M167.409458,40.5554148 C167.409458,40.9988082 167.260416,41.3724148 166.96233,41.6755295 C166.664244,41.9793492 166.314378,42.1309066 165.912032,42.1309066 C165.507587,42.1309066 165.154922,41.9793492 164.855437,41.6755295 C164.555252,41.3724148 164.405509,40.9988082 164.405509,40.5554148 L164.405509,35.8959066 L163.539941,35.8959066 L163.539941,40.5554148 C163.539941,41.1884311 163.767354,41.7354475 164.223579,42.1964639 C164.679804,42.6567754 165.242389,42.8879885 165.912032,42.8879885 C166.575378,42.8879885 167.132365,42.6595951 167.581592,42.2035131 C167.970643,41.8115787 168.201555,41.344218 168.275027,40.8014311 L168.275027,35.8959066 L167.409458,35.8959066 L167.409458,40.5554148 Z" id="Fill-17" fill="#FFFFFF"></path>
            <polygon id="Fill-18" fill="#FFFFFF" points="174.377389 35.8956246 174.377389 42.8299033 175.242957 42.8299033 175.242957 37.4281164 179.064893 42.8299033 180.021426 42.8299033 180.021426 35.8956246 179.155858 35.8956246 179.155858 41.4369852 175.233861 35.8956246"></polygon>
            <polygon id="Fill-19" fill="#FFFFFF" points="186.17137 42.8299033 187.036938 42.8299033 187.036938 35.8956246 186.17137 35.8956246"></polygon>
            <path d="M196.593177,42.1455689 C195.859858,42.1455689 195.225901,41.8777 194.692005,41.3405525 C194.15811,40.8041098 193.890812,40.1443066 193.890812,39.3604377 C193.890812,38.5829131 194.15811,37.9252246 194.692005,37.3873721 C195.225901,36.8488148 195.859858,36.5795361 196.593177,36.5795361 C197.265619,36.5795361 197.918469,36.8607984 198.549627,37.423323 L199.152097,36.8833557 C198.377493,36.1699787 197.52452,35.8139951 196.593177,35.8139951 C195.591861,35.8139951 194.745885,36.1636344 194.055949,36.864323 C193.365314,37.5643066 193.020346,38.3968148 193.020346,39.3604377 C193.020346,40.3339295 193.365314,41.1678475 194.055949,41.8636016 C194.745885,42.5593557 195.591861,42.9068803 196.593177,42.9068803 C197.52452,42.9068803 198.377493,42.5523066 199.152097,41.8417492 L198.549627,41.3024869 C197.918469,41.8643066 197.265619,42.1455689 196.593177,42.1455689 Z" id="Fill-20" fill="#FFFFFF"></path>
            <path d="M206.728094,39.1964738 L207.392839,37.3559328 L208.053386,39.1964738 L206.728094,39.1964738 Z M207.019882,35.8953426 L204.49455,42.8296213 L205.398603,42.8296213 L206.455198,39.9479164 L208.325582,39.9479164 L209.363984,42.8296213 L210.263139,42.8296213 L207.770694,35.8953426 L207.019882,35.8953426 Z" id="Fill-21" fill="#FFFFFF"></path>
            <polygon id="Fill-22" fill="#FFFFFF" points="219.273587 36.6522131 219.273587 35.8958361 215.126276 35.8958361 215.126276 36.6522131 216.772046 36.6522131 216.772046 42.8301148 217.632716 42.8301148 217.632716 36.6522131"></polygon>
            <polygon id="Fill-23" fill="#FFFFFF" points="225.054772 42.8299033 225.92034 42.8299033 225.92034 35.8956246 225.054772 35.8956246"></polygon>
            <path d="M235.424099,35.7992623 C234.426282,35.7992623 233.580306,36.1496066 232.886871,36.8495902 C232.192737,37.5502787 231.84637,38.3841967 231.84637,39.3506393 C231.84637,40.3241311 232.192737,41.1601639 232.886871,41.8587377 C233.580306,42.5573115 234.426282,42.9069508 235.424099,42.9069508 C236.425416,42.9069508 237.272791,42.5573115 237.966225,41.8587377 C238.660359,41.1601639 239.006727,40.3241311 239.006727,39.3506393 C239.006727,38.3841967 238.660359,37.5502787 237.966225,36.8495902 C237.272791,36.1496066 236.425416,35.7992623 235.424099,35.7992623 Z M237.332968,37.3726393 C237.868263,37.9140164 238.13626,38.5731148 238.13626,39.3506393 C238.13626,40.1345082 237.868263,40.7964262 237.332968,41.3356885 C236.796973,41.8756557 236.160917,42.1456393 235.424099,42.1456393 C234.69078,42.1456393 234.056123,41.8756557 233.520129,41.3356885 C232.984834,40.7964262 232.716836,40.1345082 232.716836,39.3506393 C232.716836,38.5731148 232.984834,37.9140164 233.520129,37.3726393 C234.056123,36.8312623 234.69078,36.5605738 235.424099,36.5605738 C236.160917,36.5605738 236.796973,36.8312623 237.332968,37.3726393 Z" id="Fill-24" fill="#FFFFFF"></path>
            <polygon id="Fill-25" fill="#FFFFFF" points="244.86978 35.8956246 244.86978 42.8299033 245.735349 42.8299033 245.735349 37.4281164 249.557284 42.8299033 250.513818 42.8299033 250.513818 35.8956246 249.648249 35.8956246 249.648249 41.4369852 245.726252 35.8956246"></polygon>
            <path d="M259.443097,39.7940328 C259.701298,40.0541475 259.830748,40.3805246 259.830748,40.772459 C259.830748,41.1643934 259.699198,41.4928852 259.436099,41.7579344 C259.173,42.0229836 258.864418,42.1555082 258.510354,42.1555082 C258.159788,42.1555082 257.856804,42.0265082 257.601402,41.769918 C257.369091,41.5387049 257.227046,41.1707377 257.175965,40.6660164 L256.343284,40.9698361 C256.420255,41.4971148 256.623877,41.9257049 256.95555,42.2563115 C257.379587,42.6898361 257.898088,42.9069508 258.510354,42.9069508 C259.11982,42.9069508 259.633424,42.6954754 260.053263,42.2732295 C260.472402,41.8509836 260.682322,41.3504918 260.682322,40.772459 C260.682322,40.1937213 260.469603,39.6925246 260.045566,39.2688689 C259.676107,38.8959672 259.216383,38.6196393 258.668493,38.4398852 C258.380903,38.3052459 258.15489,38.1572131 257.989054,37.9964918 C257.829515,37.8294262 257.749745,37.6271148 257.749745,37.3895574 C257.749745,37.1484754 257.826716,36.9503934 257.982056,36.7946066 C258.136697,36.6381148 258.31233,36.5605738 258.510354,36.5605738 C258.711177,36.5605738 258.889609,36.6409344 259.046349,36.8016557 C259.122619,36.8784918 259.208686,37.0476721 259.30455,37.3077869 L260.079153,37.0039672 C259.98329,36.7022623 259.85104,36.4675246 259.682405,36.300459 C259.357029,35.9754918 258.966579,35.8140656 258.510354,35.8140656 C258.047831,35.8140656 257.661579,35.9719672 257.350198,36.2884754 C257.039517,36.6049836 256.884177,36.9722459 256.884177,37.3895574 C256.884177,37.8167377 257.03392,38.1811803 257.333405,38.4835902 C257.63359,38.7852951 258.030338,39.017918 258.525048,39.1821639 C258.875614,39.3294918 259.181397,39.533918 259.443097,39.7940328 Z" id="Fill-26" fill="#FFFFFF"></path>
        </g>
    </g>
</svg>