<svg height="52" viewBox="0 0 71 52" width="71" xmlns="http://www.w3.org/2000/svg"><g fill="#e6232c" fill-rule="evenodd" transform=""><path d="m23.8914939 3.42368831h.0598631l-.0282727.0590045 11.6457869 21.80639639 11.645787-21.80639639-.0282727-.0590045h.059863l1.8284429-3.42368831 1.6487575 3.42368831h.0014425l6.8907393 14.39800119s13.3088251 27.8109603 13.3088251 27.8109603c.1851186.3865271.0182714.7002978-.3721605.7003929h-2.1233344c-.3909128 0-.8577963-.3138658-1.0429149-.7003929l-3.5504304-7.4192443-14.8585322-31.04816595-12.7536136 23.88045195-.6207964 1.2890104-.0338022-.0633347-.0338021.0633347-.6207965-1.2890104-12.7534693-23.88045195-14.94580236 31.23060405-3.60086926 7.5244532c-.18497435.386527-.65224254.7003453-1.04291491.7003929h-2.12323818c-.3905762 0-.55751952-.3138183-.37254517-.7003929l20.33727338-42.49660849h.0016829l1.6487095-3.42368831z"/><path d="m35.4999882 44.4812399 13.1342074-24.757102.5750028 1.2019956.030718-.0560402 5.0262353 10.5724735s9.4381102 19.8536313 9.4381102 19.8536313c.184788.3884084.0182388.7037541-.371976.7038019h-2.1190631c-.3902148 0-.8567446-.3153457-1.0410527-.7038019l-3.6343252-7.6439421-7.9751647-16.776823-12.0180875 22.653012-.990656 2.0708101-13.1164485-24.7238221-7.9755967 16.776823-3.6338932 7.6439421c-.1846441.3884084-.6510299.7037541-1.04105273.7038019h-2.11939906c-.38992681 0-.55657204-.3153457-.37187997-.7038019l14.46429746-30.4261048.030862.0560402.5750028-1.2019956z"/></g></svg>