<?xml version="1.0" encoding="UTF-8"?>
<svg width="49px" height="53px" viewBox="0 0 49 53" version="1.1" xmlns="http://www.w3.org/2000/svg" xmlns:xlink="http://www.w3.org/1999/xlink">
    <g id="Another-Homepage-2" stroke="none" stroke-width="1" fill="none" fill-rule="evenodd" transform="translate(-186.000000, -498.000000)" stroke-linecap="round" stroke-linejoin="round">
        <g id="Page-1" transform="translate(187.000000, 499.000000)" stroke="#FFFFFF" stroke-width="1.20000002">
            <path d="M5.30996441,19.7415023 L12.5325898,13.6606289" id="Stroke-1"></path>
            <path d="M15.0521881,11.5189477 L17.069922,9.80395312" id="Stroke-2"></path>
            <path d="M23.5,4.27403906 L26.4872881,0.19921875" id="Stroke-3"></path>
            <path d="M26.7717576,8.25004687 L31.1816322,5.78571094" id="Stroke-5"></path>
            <polygon id="Stroke-6" points="2.56269492 25.1557898 0.199152542 21.2530148 17.1981364 2.16550781 27.2838983 19.5325617"></polygon>
            <path d="M16.1313559,0.19921875 L28.4788136,21.6375469" id="Stroke-7"></path>
            <path d="M3.45788559,17.4839156 L7.16200339,23.9152148" id="Stroke-8"></path>
            <polygon id="Stroke-9" points="4.92177627 24.7573523 8.27976695 30.5613516 10.9647017 28.2632039 8.13717373 23.9152148"></polygon>
            <polyline id="Stroke-10" points="39.1855331 16.5020859 44.6810678 16.5020859 45.7481271 22.3216242"></polyline>
            <path d="M6.71406949,44.0712117 C6.71406949,43.7334961 6.43999576,43.4593312 6.10239237,43.4593312 L1.20913475,43.4593312 C0.871531356,43.4593312 0.597457627,43.7334961 0.597457627,44.0712117 L0.597457627,50.0482523 C0.597457627,50.385968 0.871531356,50.6601328 1.20913475,50.6601328 L6.10239237,50.6601328 C6.43999576,50.6601328 6.71406949,50.385968 6.71406949,50.0482523 L6.71406949,44.0712117 Z" id="Stroke-11"></path>
            <path d="M19.8581373,40.5208945 C19.8581373,40.1832187 19.5840636,39.9090539 19.2464602,39.9090539 L14.3532025,39.9090539 C14.0155992,39.9090539 13.7415254,40.1832187 13.7415254,40.5208945 L13.7415254,50.0482523 C13.7415254,50.385968 14.0155992,50.6601328 14.3532025,50.6601328 L19.2464602,50.6601328 C19.5840636,50.6601328 19.8581373,50.385968 19.8581373,50.0482523 L19.8581373,40.5208945 Z" id="Stroke-12"></path>
            <path d="M33.4005102,35.1748195 C33.4005102,34.8371437 33.1264364,34.5629789 32.7888331,34.5629789 L27.8955754,34.5629789 C27.557972,34.5629789 27.2838983,34.8371437 27.2838983,35.1748195 L27.2838983,50.0482523 C27.2838983,50.385968 27.557972,50.6601328 27.8955754,50.6601328 L32.7888331,50.6601328 C33.1264364,50.6601328 33.4005102,50.385968 33.4005102,50.0482523 L33.4005102,35.1748195 Z" id="Stroke-13"></path>
            <path d="M46.9430424,30.150443 C46.9430424,29.8127672 46.6690085,29.5386023 46.3312458,29.5386023 L41.4380678,29.5386023 C41.1003051,29.5386023 40.8262712,29.8127672 40.8262712,30.150443 L40.8262712,50.0482523 C40.8262712,50.385968 41.1003051,50.6601328 41.4380678,50.6601328 L46.3312458,50.6601328 C46.6690085,50.6601328 46.9430424,50.385968 46.9430424,50.0482523 L46.9430424,30.150443 Z" id="Stroke-14"></path>
            <path d="M0.995762712,38.3153039 C0.995762712,38.3153039 28.1153203,36.9785859 44.6810678,16.5020859" id="Stroke-15"></path>
        </g>
    </g>
</svg>
