<svg height="55" viewBox="0 0 51 55" width="51" xmlns="http://www.w3.org/2000/svg"><g style="stroke:#e6232c;stroke-width:1.239759;fill:none;fill-rule:evenodd;stroke-linecap:round;stroke-linejoin:round" transform="translate(1 1)"><path d="m5.53592034 20.5156789 7.52997116-6.3193391"/><path d="m15.6927068 11.9706711 2.1035949-1.7822492"/><path d="m24.5 4.44164844 3.1144068-4.23461719"/><path d="m29.965078 13.7947875 5.2647593-.1183859"/><path d="m27.9109814 8.57357812 4.5975288-2.56097656"/><path d="m2.67174576 26.1422914-2.46411864-4.055825 17.72234488-19.83603671 10.5149433 18.04811481z"/><path d="m16.8177966.20703125 12.8728814 22.27904685"/><path d="m3.60502966 18.1695594 3.86173983 6.683507"/><path d="m5.13121356 25.7282289 3.5008839 6.031607 2.79918724-2.3882711-2.94784826-4.5184984z"/><path d="m40.8530025 17.1492266h5.7293873l1.1124661 6.0477554"/><path d="m6.99977458 45.7994945c0-.3509593-.28573644-.6358757-.63770594-.6358757h-5.10148135c-.35196949 0-.63770593.2849164-.63770593.6358757v6.2114344c0 .3509594.28573644.6358758.63770593.6358758h5.10148135c.3519695 0 .63770594-.2849164.63770594-.6358758z"/><path d="m20.7031644 42.1099492c0-.350918-.2857364-.6358344-.6377059-.6358344h-5.1014814c-.3519695 0-.6377059.2849164-.6377059.6358344v9.9009797c0 .3509594.2857364.6358758.6377059.6358758h5.1014814c.3519695 0 .6377059-.2849164.6377059-.6358758z"/><path d="m34.8218085 36.5542242c0-.3509179-.2857365-.6358344-.637706-.6358344h-5.1014813c-.3519695 0-.6377059.2849165-.6377059.6358344v15.4567047c0 .3509594.2857364.6358758.6377059.6358758h5.1014813c.3519695 0 .637706-.2849164.637706-.6358758z"/><path d="m48.9406186 31.3328133c0-.350918-.2856949-.6358344-.6378305-.6358344h-5.1013983c-.3521356 0-.6378305.2849164-.6378305.6358344v20.6781156c0 .3509594.2856949.6358758.6378305.6358758h5.1013983c.3521356 0 .6378305-.2849164.6378305-.6358758z"/><path d="m1.03813559 39.8178648s28.27358131-1.3891382 45.54425421-22.6686382"/></g></svg>