<?xml version="1.0" encoding="UTF-8"?>
<svg width="46px" height="46px" viewBox="0 0 46 46" version="1.1" xmlns="http://www.w3.org/2000/svg" xmlns:xlink="http://www.w3.org/1999/xlink">
    <!-- Generator: Sketch 48.2 (47327) - http://www.bohemiancoding.com/sketch -->
    <desc>Created with Sketch.</desc>
    <defs></defs>
    <g id="All" stroke="none" stroke-width="1" fill="none" fill-rule="evenodd" stroke-linecap="round" stroke-linejoin="round">
        <g id="Services-Index" transform="translate(-1229.000000, -324.000000)" stroke="#FFFFFF" stroke-width="1.20000002">
            <g id="Page-1" transform="translate(1230.000000, 325.000000)">
                <path d="M33.2575784,19.1269586 L24.7112721,10.3525658 L1.63664144,35.4084649 C-0.270421622,37.3946486 -0.206245045,40.5554739 1.77993874,42.4625369 C3.76608288,44.3696 6.92690811,44.3053838 8.83397117,42.3192396 L33.2575784,19.1269586 Z" id="Stroke-1"></path>
                <path d="M24.8827928,10.7607748 C24.8388721,10.391809 24.8162775,10.016382 24.8162775,9.63572252 C24.8162775,4.42695495 29.0450342,0.198198198 34.2536432,0.198198198 C39.4620541,0.198198198 43.6908108,4.42695495 43.6908108,9.63572252 C43.6908108,14.8443315 39.4620541,19.0730486 34.2536432,19.0730486 C33.8480505,19.0730486 33.4484432,19.0474018 33.0562883,18.9976937" id="Stroke-2"></path>
                <path d="M26.3690018,4.45073874 L39.2963604,17.6124865" id="Stroke-3"></path>
                <path d="M26.2952324,12.261809 L23.7707423,15.0677009" id="Stroke-4"></path>
                <path d="M21.9087099,17.2106991 L7.68446126,33.0206523" id="Stroke-5"></path>
            </g>
        </g>
    </g>
</svg>
