<svg height="48" viewBox="0 0 48 48" width="48" xmlns="http://www.w3.org/2000/svg"><g style="stroke:#fff;stroke-width:1.238462;fill:none;fill-rule:evenodd;stroke-linecap:round;stroke-linejoin:round" transform="translate(1 1)"><path d="m34.7692865 19.9963658-8.9347748-9.1732289-24.12347747 26.1948036c-1.99374774 2.0764649-1.92665405 5.380964.14981082 7.3747118 2.07642342 1.9937477 5.38092252 1.9266126 7.37467027-.1498109z"/><path d="m26.0138288 11.2499009c-.0459171-.3857369-.0695387-.7782288-.0695387-1.176191 0-5.44552972 4.420973-9.86650269 9.8663369-9.86650269 5.4451568 0 9.8661298 4.42097297 9.8661298 9.86650269 0 5.445364-4.420973 9.8662955-9.8661298 9.8662955-.4240288 0-.8418-.0268126-1.2517802-.0787802"/><path d="m27.5675928 4.65304505 13.5149658 13.76000905"/><path d="m27.4904703 12.819164-2.6392397 2.9334324"/><path d="m22.9045604 17.9930036-14.87080545 16.5285874"/></g></svg>