<svg height="55" viewBox="0 0 167 55" width="167" xmlns="http://www.w3.org/2000/svg"><g fill="#8e8e8e"><path d="m2.97743421 8.954c0-1.551-.79105263-2.431-1.73592105-2.453h-1.09868421c-.14282895-.022-.14282895-.132-.14282895-.209v-.693c0-.099 0-.099.15381579-.099h.74710526 1.86776316 1.76888158c.29777271-.01225085.58350351.11852538.76907895.352l5.49342106 7.183c.2856579.363 4.7463158 5.83 5.3835526 6.677h.0988816v-3.212c0-2.343 0-3.641-.0769079-4.961-.0113947-1.3624406-.1178601-2.72241914-.3186184-4.07-.1805208-.64177652-.7858932-1.06879967-1.4502632-1.023h-.8459868c-.0988816 0-.1538158 0-.1538158-.187v-.66c.0094326-.04184319.0371283-.07723684.0754494-.09642037.0383212-.01918353.0832197-.02013045.1223138-.00257963.3735526 0 1.2195394.077 2.9005263.077 1.6809868 0 2.1973684-.077 2.5599342-.077s.2197368.077.2197368.187v.66c.006375.04742783-.0081307.09529038-.039755.13117416-.0316243.03588377-.0772514.05625339-.1250476.05582584h-.7141447c-.7031579 0-.977829.44-1.0217764 1.452-.1098684 1.771-.1098684 4.4-.1098684 6.094v9.9c0 .374 0 .638-.1318421.638-.3186184 0-.5493421-.319-.6372368-.429l-3.2081579-4.059c-1.8567763-2.299-3.77947371-4.73-3.9332895-4.884s-5.14184211-6.446-5.30664474-6.655h-.15381579v5.863c0 2.453.20875 6.754.26368421 7.282.09888158 1.034.26368421 1.54.97782895 1.54h.79105263c.17578948 0 .20875.077.20875.231v.583c0 .165 0 .209-.20875.209s-1.84578947-.099-2.55993421-.099c-.71414473 0-2.37315789.077-2.6368421.077s-.13184211 0-.13184211-.187v-.66c0-.077 0-.154.15381579-.154h.90092105c.75809211 0 1.09868421-.319 1.18657895-1.617 0-.495.09888158-3.509.09888158-8.217z"/><path d="m25.0829605 22.902c-2.5305-1.7927494-3.9885542-4.7412981-3.8783552-7.843.010935-2.4209501.8790798-4.7595632 2.4500658-6.6 1.7152352-2.18774819 4.3769248-3.41580223 7.1524342-3.3 2.1561525-.05166165 4.2560145.69219604 5.8999342 2.09 2.3284098 1.95559639 3.6555793 4.8554409 3.614671 7.898-.0229307 2.0809025-.7165729 4.0987322-1.9776316 5.753-1.7483438 2.4289743-4.5923851 3.8238108-7.580921 3.718-2.0108648-.0638498-3.9696701-.6556091-5.6801974-1.716zm12.6568421-7.579c0-5.786-4.1090789-9.196-7.0425658-9.196-1.5556184-.14364623-3.0908948.43632068-4.1640131 1.573-1.6889064 1.75079541-2.6340832 4.0889667-2.6368421 6.523 0 6.952 4.8232237 9.405 7.0645395 9.405 5.8010526-.011 6.7788815-5.951 6.7788815-8.305z"/><path d="m45.9030263 22.902c-2.5305-1.7927494-3.9885543-4.7412981-3.8783552-7.843.010935-2.4209501.8790798-4.7595632 2.4500657-6.6 1.7163878-2.18628684 4.3772857-3.41397559 7.1524343-3.3 2.1586021-.04618226 4.2600268.69684538 5.910921 2.09 2.3233269 1.95947089 3.6493293 4.8567656 3.6146711 7.898-.0229307 2.0809025-.716573 4.0987322-1.9776316 5.753-1.7553316 2.4325019-4.6075334 3.8272977-7.6028948 3.718-2.0066075-.0688104-3.9606185-.6602654-5.6692105-1.716zm12.6568421-7.579c0-5.786-4.1090789-9.196-7.0425658-9.196-1.5556184-.14364623-3.0908948.43632068-4.1640131 1.573-1.6889064 1.75079541-2.6340833 4.0889667-2.6368421 6.523 0 6.952 4.8232237 9.405 7.0645394 9.405 5.8120395-.011 6.7788816-5.951 6.7788816-8.305z"/><path d="m65.1519737 23.243c-.3186184-.231-.4834211-.319-.6152632-.319s-.2636842.187-.4175.451-.2856579.319-.4724342.319-.2966447-.132-.2417105-.418c.1098684-.66.3735526-4.015.4504605-4.785 0-.154.0769079-.154.1867763-.154h.3955263c.0988816 0 .1538158 0 .1538158.209-.0121902 1.0982619.3223337 2.1723302.9558553 3.069.8153922 1.2315943 2.1937809 1.9711963 3.6696053 1.969.9177262.0603236 1.8200698-.2584022 2.4968243-.8819282.6767544-.623526 1.0688285-1.4974087 1.0848862-2.4180718 0-2.728-1.9446711-3.729-4.0541447-4.466-1.4251711-.4276032-2.740836-1.1594035-3.8563816-2.145-.9478819-1.0482103-1.4244962-2.4400002-1.3184211-3.85.0823424-1.30016559.6699835-2.51634153 1.6370395-3.388 1.0231756-.87966942 2.3446147-1.33248935 3.6915789-1.265 1.0712595-.00144672 2.1307667.2234528 3.1092764.66.2417105.132.3735526.11.5053947 0l.3625658-.33c.0883208-.09496988.2110323-.15045434.3405921-.154.1318421 0 .2197368.209.2197368.44 0 .924.3405921 3.619.3625658 4.202 0 .132 0 .187-.1318421.209l-.3186184.088c-.0319654.0142382-.0687929.012383-.0991693-.0049958-.0303765-.0173788-.05067-.0482031-.0546465-.0830042-.2737782-1.10464478-.8391981-2.11526097-1.6370395-2.926-.7518523-.77174171-1.8043127-1.17392525-2.8785526-1.1-.8426538-.05983803-1.6710299.24151855-2.2787591.82899436-.6077293.58747582-.9375971 1.40576287-.9074251 2.25100564-.0438301.8438996.2485735 1.6707312.8130263 2.299.881084.734014 1.9068656 1.2737565 3.0103947 1.584 1.8238158.583 3.2960527 1.034 4.2519079 2.2.7965342.9862056 1.2031984 2.2311489 1.1426316 3.498 0 3.124-1.9007237 5.786-5.3835526 5.786-1.5096753.0461549-2.9875045-.4405553-4.175-1.375z"/><path d="m94.5967105 23.276h-.8679605c-.7784705-.008563-1.4794952-.4736019-1.7908553-1.188-.274671-.572-1.2964473-3.454-2.0545394-5.742.8505514-.3031008 1.659093-.7134004 2.4061184-1.221 0 0-1.0986842.264-2.6368421.594-.1648027-.517-.3186184-1.001-.4284869-1.375-.5053947-1.694-2.5599342-7.601-3.0543421-9.273-.0878947-.286-.1318421-.44-.2966447-.44s-.20875.099-.3405921.231c-.6112111.61637153-1.366533 1.07010746-2.1973684 1.32-.1867763 0-.2417106.165-.2417106.242s.1098685.231.1867764.341c.1378887.28481948.1378887.61718052 0 .902-.2307237.704-2.3731579 6.391-2.5489474 6.919l-.3735526 1.001c-.6846631.1130542-1.3456486.339843-1.9556579.671.5582006-.025176 1.1175229.0042973 1.67.088-.8789474 2.354-2.0765132 5.379-2.1973685 5.709-.3735526.847-.7361184 1.221-1.527171 1.221h-.9338816c-.0988816 0-.20875 0-.20875.176v.638c0 .165 0 .209.1867763.209.3735527 0 .9558553-.077 2.8785527-.077 1.5491447 0 2.6368421.077 3.0103947.077.1318421 0 .20875 0 .20875-.231v-.616c0-.132-.0769079-.176-.2636842-.176h-1.2634869c-.5823026 0-.900921-.22-.900921-.583 0-.132.0549342-.396.0769079-.583.1098684-.462 1.3623684-3.927 1.9336842-5.5 1.2619866.4263349 2.5915645.6165021 3.9223026.561.84658.0108936 1.6923935-.0553797 2.5269737-.198.5493421 1.694 1.4502632 4.532 1.6150658 5.28s0 1.012-.7910526 1.012h-.6592106c-.1538157 0-.2307236 0-.2307236.176v.616c0 .154.0769079.231.20875.231.6042763 0 1.527171-.077 3.7245394-.077 2.1973685 0 2.6807895.077 3.1642106.077.1757894 0 .2636842 0 .2636842-.187v-.66c0-.088-.0549342-.165-.2197369-.165zm-10.4375-15.114c.0769079-.209.1757895-.396.2856579-.396s.1318421.187.20875.374c.1208553.374 1.9996053 6.16 2.439079 7.557-1.1536666-.2363812-2.32729-.3616194-3.5048027-.374-.6972097-.0103227-1.3943865.0227411-2.0875.099.6042764-1.749 2.5379606-6.952 2.6588158-7.26z"/><path d="m2.97743421 30.8c0-1.562-.79105263-2.431-1.73592105-2.464h-1.09868421c-.14282895-.066-.14282895-.176-.14282895-.253v-.682c0-.11 0-.165.15381579-.165h.74710526c.39552632 0 .96684211.055 1.86776316.055s1.45026316-.055 1.76888158-.055c.2962014-.0167011.58236318.1101794.76907895.341l5.49342106 7.183c.2856579.374 4.7463158 5.841 5.3835526 6.688h.0988816v-3.113c0-2.354 0-3.641-.0769079-4.972-.0113325-1.3587923-.1177997-2.7151174-.3186184-4.059-.1762247-.6461666-.7827267-1.0785868-1.4502632-1.034h-.8459868c-.0988816 0-.1538158-.055-.1538158-.187v-.682c0-.11.0549342-.165.1538158-.165.3735526 0 1.2195395.088 2.9005263.088s2.1973684-.088 2.5599342-.088.2197369.088.2197369.187v.66c0 .11 0 .187-.1648027.187h-.7141447c-.7031579 0-.977829.451-1.0217763 1.452-.1098685 1.771-.1098685 4.4-.1098685 6.105v9.9c0 .363 0 .627-.1318421.627-.2631535-.0395715-.4959145-.1922528-.6372368-.418l-3.1642105-4.136c-1.8567763-2.2-3.77947371-4.686-3.9332895-4.84s-5.14184211-6.369-5.30664474-6.6h-.15381579v5.94c0 2.453.20875 6.765.26368421 7.293.09888158 1.023.26368421 1.529.97782895 1.529h.79105263c.17578948 0 .20875.077.20875.242v.572c0 .165 0 .22-.20875.22s-1.84578947-.077-2.55993421-.077c-.71414473 0-2.37315789.077-2.6368421.077s-.13184211 0-.13184211-.187v-.693c0-.077 0-.154.15381579-.154h.90092105c.75809211 0 1.09868421-.319 1.18657895-1.606 0-.506.09888158-3.52.09888158-8.217z"/><path d="m24.5116447 44.693c-2.5305-1.7927494-3.9885542-4.7412981-3.8783552-7.843.010935-2.4209501.8790798-4.7595632 2.4500658-6.6 1.704871-2.206926 4.3676004-3.4559354 7.1524342-3.355 2.1567097-.0462264 4.2569383.6924698 5.910921 2.079 2.3220637 1.9604325 3.6477771 4.8570956 3.6146711 7.898-.0189838 2.091683-.7126676 4.1212087-1.9776316 5.786-1.7528892 2.4366599-4.6055024 3.8357842-7.6028947 3.729-2.0046057-.0621678-3.9584749-.6459977-5.6692106-1.694zm12.6568421-7.579c0-5.775-4.1090789-9.185-7.0425657-9.185-1.5525057-.1526001-3.0886349.419573-4.1640132 1.551-1.688606 1.7554425-2.6334901 4.0968314-2.6368421 6.534 0 6.941 4.8232237 9.394 7.0645395 9.394 5.8669736 0 6.7788815-5.94 6.7788815-8.294z"/><path d="m43.4969079 34.001c0-1.958 0-3.641 0-4.4s-.3405921-1.32-.9998026-1.32h-1.0986842c-.1318422 0-.1648027-.077-.1648027-.187v-.66c0-.132 0-.187.1648027-.187.1648026 0 1.0986842.088 3.2960526.088 1.4832237 0 3.9332895-.088 4.3947368-.088 1.7885911-.0984918 3.5489869.4785418 4.9330921 1.617.8377047.7925457 1.3309115 1.8828505 1.3733553 3.036 0 3.3-1.5051974 4.543-4.8781579 5.28.4989852.2012999.9245343.5505913 1.2195395 1.001.3076316.341 2.1973684 3.036 2.3951316 3.377.6803034 1.0795124 1.4561677 2.0956025 2.3182236 3.036.5674997.3538324 1.2349789.5122106 1.9007237.451.1867763 0 .20875.11.20875.209v.583c0 .165 0 .242-.20875.242s-.8899342-.077-2.0545395-.077c-.7690789 0-1.7469078 0-2.1973684.077-.4019802-.4752019-.7691631-.9788449-1.0986842-1.507-.2197368-.319-1.6370395-2.827-1.7688816-3.036s-1.3733552-2.09-1.6919736-2.464c-.6170801-.9718688-1.6955663-1.5513634-2.8455922-1.529-.2949367-.0073256-.5897632.0185026-.8789473.077v1.485 4.906c0 .396.2636842 1.034.6592105 1.034h1.67c.1757895 0 .20875.077.20875.209v.583c0 .187 0 .242-.2966447.242-.2966448 0-.9448685-.077-3.4498685-.077s-3.0103947.077-3.2960526.077-.20875-.077-.20875-.22v-.605c0-.132 0-.209.1318421-.209h1.0986842c.5823027 0 1.0327632-.187 1.0327632-.902 0-2.607 0-5.093 0-7.601zm2.3731579 2.618c.3945584.0753829.7960014.1085693 1.1975658.099 4.80125 0 5.7241447-3.3 5.7241447-4.4.0062288-1.1429941-.4730958-2.2347636-1.318421-3.003-1.2628901-.9387636-2.8292583-1.3739513-4.3947369-1.221-.3136581-.0131765-.6250145.0590535-.900921.209-.2334158.2164037-.3514569.5301986-.3186185.847z"/><path d="m63.9434211 28.27h-.6592106c-1.3991064-.0457143-2.799025.0612496-4.175.319-1.1865789.363-1.9776316 2.2-2.3401973 3.058-.0147979.0543606-.0520266.0998347-.1023614.1250322-.0503347.0251975-.1090077.0277317-.1613229.0069678l-.4724342-.132c-.0769079 0-.1538158 0-.0988815-.209.2636842-.946 1.1865789-4.4 1.2415131-4.642s.1538158-.429.2636842-.429c.1128515-.0042688.2230131.0351218.3076316.11l.351579.231c.4250105.3387753.9641788.5003255 1.5051973.451 1.395329 0 2.505.165 4.9770395.165h1.2744737c2.8675658 0 4.0101973-.11 5.2956579-.165.4791063.0090478.9511304-.116722 1.3623684-.363l.5053947-.319c.0930541-.06731.2039041-.1055799.3186185-.11.1318421 0 .1757894.077.2307236.429s.560329 3.586.769079 4.752c0 .132 0 .187-.1648026.209l-.4175.11c-.1098685 0-.1318422 0-.20875-.187-.20875-.506-.9998027-2.541-1.87875-2.959-1.4898312-.3716587-3.0258708-.5235937-4.5595395-.451h-.7361184v7.524 8.217c0 .66.2636842 1.1.900921 1.1h1.6590132c.2417105 0 .2636842.077.2636842.264v.55c0 .143 0 .22-.2636842.22s-1.0986842-.077-3.691579-.077c-2.5928947 0-3.6476316.077-4.0101973.077-.3625658 0-.2417106-.11-.2417106-.264v-.506c0-.187 0-.264.1867763-.264h1.7908553c.4126581.0430175.7914725-.2319518.8789474-.638.0769079-.759.0769079-8.866.0769079-9.372z"/><path d="m95.0691447 45.1h-1.1646052c-.7910527 0-1.0986842-.374-1.0986842-1.32 0-1.507-.0769079-6.523-.0769079-7.37v-.286c.9784563-.2782694 1.9365839-.6237554 2.8675658-1.034-.9349382.3319705-1.8934991.5930407-2.8675658.781v-.363c0-.968 0-5.434 0-5.808 0-.946.0878947-1.397.8459868-1.397h1.186579c.1648026 0 .2197368 0 .2197368-.187v-.616c0-.165 0-.22-.2197368-.22-.4944079 0-1.5821053.088-3.3729606.088-1.7908552 0-2.9334868-.088-3.4828289-.088-.1318421 0-.1538158 0-.1538158.165v.682c0 .132 0 .187.1757895.187h1.3733552c.769079 0 .8679606.506.8679606 1.353 0 .308.0878947 3.982.0878947 5.5v.264c-.0001996.202992-.0491884.4029549-.142829.583-2.3312653-.2623996-4.6746958-.4019254-7.0205921-.418-1.2744736 0-2.4280921 0-3.4278947.132-.003163-.0365983-.003163-.0734017 0-.11v-.451c0-1.485.0549342-4.972.0549342-5.335 0-1.1.1318421-1.507 1.0327632-1.507h1.3403947c.1648026 0 .2197369-.055.2197369-.209v-.693c0-.099-.0878948-.132-.2636843-.132-.5053947 0-1.4502631.088-3.5157894.088-2.3182237 0-3.1642106-.088-3.691579-.088-.1318421 0-.20875 0-.20875.187v.638c0 .154 0 .209.1538158.209h1.2415132c.9778289 0 1.1646052.374 1.1646052 1.716 0 .418.0549342 3.993.0549342 5.632v.374c-.7782023.123869-1.5485746.2928193-2.3072368.506.9998026 0 1.7249342 0 2.3072368.088v.165c0 .682-.0549342 5.808-.0878947 7.051 0 .627-.0769079 1.265-.7361184 1.265h-1.4942105c-.044445-.0064252-.0894751.0069163-.1232702.0365225-.0337952.0296062-.0529802.0725202-.0525193.1174775v.693c0 .132 0 .187.1757895.187.6152631 0 1.4063157-.077 3.6696052-.077 1.9007237 0 2.8236184.077 3.2960527.077.1538157 0 .20875 0 .20875-.187v-.66c0-.132-.0549343-.187-.20875-.187h-1.2634869c-.5493421 0-.8130263-.264-.8459868-.902 0-1.848-.0549342-5.907-.0549342-6.6v-.561s0-.066 0-.11c1.5749524.1945855 3.1595178.3010841 4.7463157.319 1.9426858.0434986 3.8842859-.1261799 5.7900658-.506.034924.1145276.0570332.2325848.0659211.352v.286c0 .946 0 5.203-.0878947 6.446 0 .704-.0769079 1.21-.7031579 1.21h-1.6480264c-.1538157 0-.20875.055-.20875.187v.66c0 .11 0 .187.1648027.187.7910526 0 1.6260526-.077 3.9223026-.077 1.9336842 0 2.8236184.077 3.2960526.077.1538158 0 .20875 0 .20875-.22v-.627c.0219737-.143-.0329605-.143-.20875-.143z"/><path d="m111.813092 45.683c3.379287 4.5645477 8.751635 7.2150214 14.425724 7.117 9.81125 0 22.523026-4.4 22.523026-4.4s-11.920724 5.885-22.457105 6.05c-8.273092.143-14.623487-4.191-17.578948-9.812-.175789-.341-1.637039-2.827-1.768881-3.036s-1.373355-2.09-1.691974-2.464c-.61708-.9718688-1.695566-1.5513634-2.845592-1.529-.291312-.0077264-.582544.01811-.86796.077v1.485c0 1.562 0 4.51.054934 4.906s.263684 1.034.65921 1.034h1.659013c.186777 0 .20875.077.20875.209v.583c0 .187 0 .242-.285657.242-.285658 0-.955856-.077-3.460856-.077-2.5049997 0-3.0103944.077-3.2960523.077s-.20875-.077-.20875-.22v-.605c0-.132 0-.209.1318421-.209h1.0986842c.5823026 0 1.0327632-.187 1.0327632-.902 0-2.607 0-5.093 0-7.601v-2.607c0-1.958 0-3.641 0-4.4s-.3405921-1.32-.9998027-1.32h-1.0986842c-.1318421 0-.1538158-.077-.1538158-.187v-.66c0-.132 0-.187.1538158-.187s1.0986842.088 3.2960527.088c1.472237 0 3.922303-.088 4.394737-.088 1.788024-.0941931 3.546905.482344 4.933092 1.617.85532.7864868 1.371482 1.8752758 1.439276 3.036 0 3.3-1.505197 4.543-4.889145 5.28.500833.1981656.927242.5481626 1.21954 1.001.318618.341 2.142434 3.399 2.318224 3.762.802039 1.705 2.054539 3.74 2.054539 3.74zm-10.22875-9.064c.390776.0759455.788638.1091405 1.186579.099 4.80125 0 5.724145-3.3 5.724145-4.4.006229-1.1429941-.473096-2.2347636-1.318421-3.003-1.26289-.9387636-2.829259-1.3739513-4.394737-1.221-.310286-.0145538-.618477.0578245-.889934.209-.233416.2164037-.351457.5301986-.318619.847z"/><path d="m115.988092 34.958c0-.638-.076908-5.39-.098881-5.786 0-.638-.318619-.902-1.318422-.902h-1.527171c-.131842 0-.219736-.055-.219736-.154v-.715c-.000427-.0478535.019918-.0935352.055759-.1251974.03584-.0316621.083646-.0461852.131017-.0398026.318618 0 1.659013.088 4.120066.088 2.461052 0 3.186184-.088 3.559737-.088.050466-.0032703.099895.0153788.135655.0511817s.054387.085291.051121.1358183v.66c0 .132-.087895.187-.219737.187h-1.230526c-.527369 0-.922895.209-.922895.737 0 .264-.087895 6.105-.087895 6.424v2.035c0 .264.087895 6.358.087895 6.6 0 .814.395526.946 1.230526.946h1.098684c.131843 0 .20875.055.20875.187v.682c0 .11-.076907.165-.24171.165s-1.362368-.077-3.658618-.077c-2.505 0-3.647632.077-3.93329.077s-.20875 0-.20875-.165v-.715c0-.099.076908-.154.20875-.154h1.472237c.527368 0 1.098684-.077 1.186579-.77 0-.396.131842-6.094.131842-7.491z"/><path d="m124.217237 45.1c-.307632-.242-.472434-.319-.604276-.319-.131843 0-.263685.187-.4175.451-.153816.264-.296645.319-.472435.319-.175789 0-.296644-.132-.24171-.429.109868-.66.373552-4.015.45046-4.774 0-.165.076908-.165.186777-.165h.395526c.098882 0 .153816 0 .153816.22-.019081 1.0958614.31621 2.1685335.955855 3.058.822215 1.2339416 2.210072 1.9700559 3.691579 1.958.916937.0571268 1.817474-.2626915 2.493499-.8855455.676026-.6228541 1.069037-1.4948438 1.088211-2.4144545 0-2.717-1.944671-3.729-4.065131-4.466-1.422244-.42123-2.734889-1.1496815-3.845395-2.134-.947348-1.0529231-1.423655-2.4477888-1.318421-3.861.080513-1.2975012.668724-2.5109029 1.63704-3.377 1.020877-.8836837 2.343974-1.3370716 3.691579-1.265 1.071816-.0068632 2.132453.2182762 3.109276.66.24171.132.373552.099.505395 0l.340592-.319c.090949-.0912369.212092-.1460122.340592-.154.131842 0 .20875.209.20875.451 0 .924.351579 3.619.373552 4.202 0 .132 0 .176-.131842.209l-.318618.077c-.030363.0141344-.065507.0136343-.095457-.0013584-.029949-.0149928-.051435-.0428414-.058359-.0756416-.274978-1.1073819-.840094-2.121252-1.637039-2.937-.755152-.7666979-1.805209-1.1679629-2.878553-1.1-.843734-.0565556-1.671901.2474214-2.279196.8365736-.607294.5891523-.936857 1.4083196-.906988 2.2544264-.040229.8433723.251704 1.6688724.813026 2.299.886534.7258082 1.910525 1.2646087 3.010395 1.584 1.823816.583 3.296052 1.034 4.240921 2.2.829883 1.0076822 1.246195 2.2935018 1.164605 3.597 0 3.113-1.900724 5.786-5.383552 5.786-1.52865.007181-3.012275-.5177647-4.196974-1.485z"/><path d="m140.07125 35.904c.219737 0 3.032368-.11 3.296053-.165.769079-.121.977829-.341 1.219539-1.155.115964-.4239002.185952-.8590805.20875-1.298-.007474-.051529.009784-.1035668.046559-.1403854.036775-.0368187.08875-.0540977.140217-.0466146h.659211c.052394-.0035123.102957.0199784.134106.0623033.03115.0423249.038581.0976352.01971.1466967-.076908.451-.076908 2.618-.076908 3.014 0 .924.109868 2.2.153816 2.739.009558.0496924-.001408.1011416-.030394.1425992-.028985.0414576-.073516.0693835-.123422.0774008l-.582303.077c-.131842 0-.186776-.055-.20875-.242-.021973-.187-.20875-.946-.285658-1.243-.09573-.5490516-.544795-.9671823-1.098684-1.023-1.241513-.132-3.054342-.132-3.482829-.132v1.672c0 1.419.054934 3.982.054934 4.51 0 1.375.692171 1.903 1.505198 2.057.644664.1230495 1.299384.1856538 1.955658.187.45046 0 1.768881 0 2.318223-.077.829954-.113163 1.618921-.4306394 2.29625-.924.797756-.8701735 1.532099-1.7965537 2.197369-2.772.076908-.132.153816-.242.318618-.154l.4175.231c.131842.077.131842.165.054934.374l-1.395329 3.883c-.080181.2502629-.320384.4136146-.582302.396-.131842 0-.714145 0-2.29625 0h-8.262105-2.197369c-.549342 0-.889934 0-1.098684 0s-.241711 0-.241711-.187v-.715c0-.099.087895-.132.263685-.132h1.098684c1.219539 0 1.318421-.187 1.318421-1.166v-8.8c0-2.2 0-5.5-.076908-5.753-.098882-.847-.362566-1.034-1.340395-1.034h-.955855c-.131842 0-.20875 0-.20875-.187v-.715c0-.077 0-.132.186776-.132.582303 0 1.505198.088 3.296053.088h1.164605 7.833619 1.098684c.175789 0 .186776 0 .20875.132l1.351381 4.257c0 .11 0 .187-.076908.242l-.395526.209c-.087895.055-.186776 0-.219737-.077-.778505-1.0884886-1.661672-2.097979-2.636842-3.014-.588986-.416349-1.280438-.6635918-1.999605-.715l-4.702368-.11z"/><path d="m166.077105.594v-.154c.004303-.02548591.004303-.05151409 0-.077 0 0 0 0 0-.066 0 0 0 0-.065921 0h-.065921-.065921-.076908-.263684-.065921s-.054934 0-.076908 0v.066h-.054934s-.340592.495-.966842 1.243c-1.999606 1.694-6.317434 5.082-14.953092 5.082-6.252117.12223209-12.466266-.99944906-18.282106-3.3-3.810071-1.59189224-7.891302-2.43227315-12.019605-2.475-7.024228-.04180596-13.76458 2.77268387-18.677631 7.799-.4175.363-.8020399.715-1.0986847 1.1-.2307237.198-.4504605.385-.6482237.583-.3363954.3277567-.6554491.6728942-.9558552 1.034-1.0224016 1.0180928-1.7316368 2.3084616-2.0435527 3.718v.253h.0659211.274671.0878948c.899923-1.4664828 2.4684894-2.389789 4.1859864-2.464 1.274474 0 3.296053 1.1 5.801053 2.552 5.053947 2.849 12.678816 7.161 22.951513 7.161 15.513421 0 27.126513-10.736 32.696842-17.171l.20875-.253.197763-.22c.769079-.902 1.417303-1.716 1.922698-2.376.725145-.52519269 1.378868-1.14272147 1.944671-1.837.005335-.02538876.005335-.05161124 0-.077v-.066zm-24.258947 11.594c-6.749067-.0363494-13.426001-1.3927662-19.655461-3.993-3.515789-1.298-6.592105-2.42-9.822236-2.42-1.747053-.00985679-3.491003.14853911-5.207764.473 2.240958-.73589986 4.585276-1.10728056 6.943685-1.1 4.669407 0 7.9325 1.188 11.700986 2.574 5.727559 2.3626565 11.86784 3.5592765 18.062369 3.52 2.816863.0173127 5.622754-.3528127 8.339013-1.1-3.288035 1.3492105-6.807117 2.0441554-10.360592 2.046zm10.140855-.77c-3.870471 1.8907874-8.119491 2.8762661-12.426118 2.882-9.086119 0-15.315658-2.442-20.325658-4.4-3.405921-1.331-6.339408-2.475-9.250921-2.475-1.501059-.01065463-3.000413.10340329-4.482632.341 2.231239-.62227678 4.539812-.92230617 6.85579-.891 3.087302 0 6.031776 1.1 9.437697 2.354 6.352977 2.6443058 13.159982 4.0230301 20.04 4.059 3.469808.0047393 6.910931-.6291261 10.151842-1.87zm-48.814539-1.969c2.209539-.65737251 4.50725-.96904812 6.811842-.924 2.702763 0 5.559342 1.1 8.855395 2.398 5.086907 1.991 11.426315 4.477 20.721184 4.477 3.726259.0000559 7.418176-.7130762 10.876973-2.101-4.28763 2.2570061-9.054291 3.4491552-13.898355 3.476-9.481645 0-16.216579-3.047-21.127697-5.269-3.120263-1.408-5.581316-2.53-7.800658-2.53-1.492561-.00877834-2.981407.1498777-4.438684.473zm40.651315.726c-6.06669.0343139-12.079611-1.13979682-17.688815-3.454-3.702566-1.353-7.207369-2.64-12.085527-2.64-1.290903-.00438187-2.580211.09123679-3.856381.286 2.176865-.65744845 4.439224-.98738489 6.71296-.979 4.064583.04775592 8.07368.95097666 11.766908 2.651 5.405408 2.36147485 11.253587 3.53551221 17.150461 3.443 2.209183.00946363 4.414958-.17457114 6.592105-.55-2.772804.83244889-5.652994 1.2512808-8.547763 1.243zm-36.256578-.099c1.977631 0 4.394736 1.1 7.350197 2.431 5.01 2.266 11.865789 5.368 21.578158 5.368 4.265564-.0110073 8.482228-.9100413 12.382171-2.64-4.599585 2.6355699-9.796601 4.0480943-15.095921 4.103-9.470658 0-16.480263-3.509-21.633092-6.072-3.208158-1.606-5.757106-2.871-7.965461-2.904 1.131892-.1969818 2.279051-.2926929 3.427895-.286zm23.20421-5.676c5.942638 2.34529499 12.291305 3.48568473 18.677632 3.355 1.559584.00405661 3.117111-.11363335 4.658421-.352-2.693056.65687938-5.457469.97466884-8.229145.946-5.758377.09919061-11.470125-1.04902993-16.743947-3.366-3.820844-1.75690837-7.969082-2.68650683-12.173421-2.728-.780066 0-1.516185 0-2.197369.099 1.452171-.24526243 2.922053-.37035201 4.394737-.374 3.991181.04474321 7.935524.86668702 11.613092 2.42zm-23.511842 10.208c-2.746711-1.551-4.746316-2.673-6.295461-2.695 1.025042-.3146158 2.092116-.4704171 3.164211-.462 1.966645 0 4.394737 1.232 7.580921 2.805 5.229737 2.607 12.393158 6.182 22.116513 6.182 2.659333-.0155011 5.304767-.3854176 7.866579-1.1-3.83474 1.4863354-7.907617 2.2616306-12.019605 2.288-9.98704 0-17.458092-4.224-22.413158-7.018z"/></g></svg>