<svg clip-rule="evenodd" fill-rule="evenodd" stroke-linecap="round" stroke-linejoin="round" stroke-miterlimit="1.5" viewBox="0 0 3198 2257" xmlns="http://www.w3.org/2000/svg" xmlns:xlink="http://www.w3.org/1999/xlink"><clipPath id="a"><ellipse clip-rule="evenodd" cx="1407.01" cy="1756.29" rx="84.771" ry="110.512"/></clipPath><clipPath id="b"><ellipse clip-rule="evenodd" cx="1407.01" cy="1756.29" rx="84.771" ry="110.512"/></clipPath><path d="m529.443 1089.47c-103.677 137.81-236.844 352.72-24.11 236.61 212.735-116.11 394.413 134.69-32.437 697.92-202.281 266.91-124.438 269.88-1.875 256.38 122.562-13.5 105.031 36.38 31.937 171.17-73.093 134.8-10.828 282.64 239.938 83.2 250.765-199.43 540.924-262.3 464.754 62.1-76.18 324.4-36.89 433.75 432.39 269.43 469.28-164.31 343.32-72.48 260.56 74.27-82.75 146.75 44.17 169.69 352.36-82.42s-170.06-110.9 107.58-406.58c277.64-295.67 280.67-486.78-12.25-321.94-292.92 164.85-185.74-9.55-122.52-105.61s91.27-221.95-81.95-295.7 304.33-781.969-134.92-544.81c-439.25 237.15-407.72-4.05-367.35-246.768 40.38-242.719-50.45-403.079-403.14-66.485-352.686 336.593-527.608 199.093-462.327 103.891 65.282-95.203-83.531-101.469-246.64 115.342z" fill="#ffd8df" transform="matrix(.911639 .410992 .410992 -.911639 -79.305 2229.581)"/><g transform="matrix(-1.18184 0 0 1.18184 2349.394 -1274.517)"><path d="m1436.76 1394.38s-121.38-385.64-589.192-304.82c-467.812 80.81-465.242 861.4-126.687 894.6 338.559 33.19 344.729-230.12 344.729-230.12z" fill="#e6232c"/><path d="m521.431 1804.88c-31.89-408.88 348.416-581.62 510.279-556.47 343.33 53.33-125.766 460.99-144.207 484.59-21.472 76.69 17.804 247.31-8.532 257.76-232.71 92.28-352.799-125.1-357.54-185.88z" fill="#c72027"/><path d="m1206.96 2241.46s68.4 14.92 132.14-58.5c63.74-73.43 78.83-104.18 103.28-93.51s6.82 93.77-57.03 152.01c-63.85 58.25-114.87 90.26-188.9 90.26s10.51-90.26 10.51-90.26z" fill="#c72027"/><path d="m1248.63 1315.44c-210.11-43.65-427.569-65.9-414.486 405.31s59.463 667.45-52.404 830.91c-111.867 163.47-168.297 198.88-130.711 235.32 37.586 36.43 133.711-71.78 193.891-168.55s126.055-222.77 222.77-222.77c96.71 0 84.66 152.29 189.44 266.38s160.31 153.41 187.35 124.75c27.04-28.67-85.06-80.42-142.66-197.34-57.6-116.91-87.5-245.22-47.31-433.32 83.64-391.4 492.72-737.11-5.88-840.69z" fill="#e6232c"/><path d="m669.704 2794.21c-12.553-9.88 54.602-43.91 144.01-178.64 94.974-143.12 61.177-176.54 83.016-179.95 15.374-2.4 25.853 33.19 30.71 54.47-29.874 40-56.72 86.86-82.52 128.34-51.868 83.4-130.438 175.31-175.216 175.78z" fill="#c72027"/><circle cx="704.227" cy="2776.84" fill="#b31a21" r="8.836"/><circle cx="730.227" cy="2756.84" fill="#b31a21" r="8.836"/><circle cx="755.227" cy="2731.84" fill="#b31a21" r="8.836"/><circle cx="803.227" cy="2676.84" fill="#b31a21" r="8.836"/><circle cx="826.227" cy="2646.84" fill="#b31a21" r="8.836"/><circle cx="844.227" cy="2613.84" fill="#b31a21" r="8.836"/><circle cx="881.899" cy="2551.78" fill="#b31a21" r="8.836"/><circle cx="893.735" cy="2515.949" fill="#b31a21" r="8.836"/><circle cx="902.571" cy="2479.108" fill="#b31a21" r="8.836"/><circle cx="864.227" cy="2580.84" fill="#b31a21" r="8.836"/><circle cx="780.227" cy="2704.84" fill="#b31a21" r="8.836"/><path d="m1157.18 2480.91c4.42-13.63 35.09-68.91 43.36-49.38 31.14 73.57 19.74 129.22 89.81 234.71 80.21 120.75 153.02 117.82 144.83 127.24-29.72 13.07-84.08-29.12-178.05-131.44-54.13-58.94-77.08-128.07-99.95-181.13z" fill="#c72027"/><g fill="#b31a21"><circle cx="1394.591" cy="2786.9506" r="8.836"/><circle cx="1362.954" cy="2769.27877" r="8.836"/><circle cx="1332.938" cy="2742.9487" r="8.836"/><circle cx="1305.331" cy="2715.1499" r="8.836"/><circle cx="1279.003" cy="2687.0639" r="8.836"/><circle cx="1251.003" cy="2650.775" r="8.836"/><circle cx="1221.798" cy="2616.384" r="8.836"/><circle cx="1200.013" cy="2577.89" r="8.836"/><circle cx="1182.341" cy="2539.154" r="8.836"/><circle cx="1166.013" cy="2500.796" r="8.836"/><circle cx="1282.78" cy="2227.671" r="8.836"/><circle cx="1315.501" cy="2209.82" r="8.836"/><circle cx="1342.903" cy="2181.789" r="8.836"/><circle cx="1367.575" cy="2152.809" r="8.836"/><circle cx="1395.938" cy="2122.031" r="8.836"/><circle cx="1286.311" cy="2262.37" r="8.836"/><circle cx="1319.032" cy="2244.519" r="8.836"/><circle cx="1346.435" cy="2216.488" r="8.836"/><circle cx="1371.106" cy="2187.507" r="8.836"/><circle cx="1399.47" cy="2156.73" r="8.836"/><circle cx="1191.177" cy="2466.488" r="8.836"/><circle cx="1204.456" cy="2509.632" r="8.836"/><circle cx="1220.306163" cy="2555.005286" r="7.013725" stroke-width=".793767"/><circle cx="1233.546488" cy="2591.900412" r="6.226605" stroke-width=".704686"/></g><path d="m1219.35 1953.67c-5.15 8.9-28.85 10.34-36.57 21.64-17.58 25.71.6 45.18 24.18 69.6 2.9 1.14-118.41 18.79-135.15-66.55-16.35-83.33 27.54-30.29 59.71-20.55 32.17 9.75 87.83-4.14 87.83-4.14z" fill="#c72027"/><path d="m1091.09 2005.2s32.49 36.83 87.75 33.84l6.45-15.04s-41.33-3.79-94.2-18.8" fill="#efe5ff"/><path d="m2415.55 1396.17-52.4 99.35" fill="none" stroke="#b31a21" stroke-width="12.61" transform="matrix(2.34942 0 0 2.34942 -4706.8 -1406.14)"/><path d="m853.859 2295.03 28.839-13.78 12.755 19.01s-34.927 110.71-49.708 105.63c-1.234-.43-2.454-.92-3.653-1.46 6.565-33.33 10.191-69.42 11.767-109.4z" fill="#c72027"/><path d="m850.898 2101.86 31.748-17.38 12.807 7.23s-1.01 116.4-39.911 115.1c-.352-.01-.701-.03-1.049-.05-.581-32.49-1.885-67.33-3.595-104.9z" fill="#c72027"/><path d="m856.458 2226.08c-55.021 31.6-122.656 71.5-104.625 13.66 18.032-57.84 144-124.76 144-150.64s-36.605-77.5-138.437 7.3c-97.703 81.37-165.172 227.06-57.479 261.28 94.117 29.9 195.536-57.42 195.536-57.42s16.025-105.78-38.995-74.18z" fill="#e6232c"/><circle cx="769.3371" cy="2269.015" fill="#c72027" r="8.836"/><circle cx="803.3566" cy="2260.179" fill="#c72027" r="8.836"/><circle cx="835.189" cy="2242.507" fill="#c72027" r="8.836"/><circle cx="803.3566" cy="2286.687" fill="#c72027" r="8.836"/><circle cx="844.025" cy="2269.015" fill="#c72027" r="8.836"/><circle cx="875.548" cy="2251.343" fill="#c72027" r="8.836"/><path d="m1256.34 2151.07s4.98 183.37 93.02 189.8c149.33 10.91 132.3-150.03 213.14-147.89 80.84 2.13 123.49 70.85 34.79 94.35-59.24 15.69-73.46 139.18-250.78 134.88-140.33-3.41-137.81-114.18-137.81-114.18z" fill="#e6232c" transform="matrix(.873275 0 0 1 151.434 0)"/><g fill="#c72027"><circle cx="1463.492" cy="2250.294" r="8.836"/><circle cx="1440.814" cy="2282.992" r="8.836"/><circle cx="1416.81" cy="2313.442" r="8.836"/><circle cx="1379.002" cy="2336.882" r="8.836"/><circle cx="1333.419" cy="2343.718" r="8.836"/><circle cx="1361.331" cy="2361.39" r="8.836"/><circle cx="1407.974" cy="2345.718" r="8.836"/><circle cx="1446.729" cy="2313.442" r="8.836"/><circle cx="1476.716" cy="2277.851" r="8.836"/><circle cx="1509.164" cy="2252.713" r="8.836"/><path d="m1518 2224.97s-35.54 9.23-26.22 21.87c9.32 12.63 18.52 1.19 45.05 2 26.52.81 31.6-20.3 22.5-26.96-9.11-6.66-41.33 3.09-41.33 3.09"/></g><path d="m2415.55 1396.17-52.4 99.35" fill="none" stroke="#b31a21" stroke-width="29.61" transform="translate(-1569.1 711.292)"/><ellipse cx="1049.53" cy="1622.93" fill="#e6232c" rx="167.09" ry="266.043" transform="matrix(1.04884 0 0 1.04349 -69.0794 -86.2926)"/><ellipse cx="1407.01" cy="1756.29" fill="#da2028" rx="84.771" ry="110.512" transform="matrix(1.90516 .24845 -.314662 2.41289 -1075.22 -3030.93)"/><path d="m1049.53 1356.88c102.36 3.58 167.09 119.21 167.09 266.05 0 146.83-68.31 275.53-167.09 266.04-132.412-12.72-167.094-119.21-167.094-266.04 0-146.84 57.439-269.88 167.094-266.05z" fill="#b31a21" transform="matrix(.871916 .259119 -.20959 .705256 464.434 269.954)"/><ellipse cx="1049.53" cy="1622.93" fill="#efe5ff" rx="167.09" ry="266.043" transform="matrix(.732552 .217702 -.197248 .663724 603.377 389.338)"/><circle cx="2245.98" cy="1003.99" fill="#1c1c1c" r="48.769" transform="matrix(1.17153647 .35110875 -.51725939 1.72592688 -1038.029024 -793.209218)"/><circle cx="2245.98" cy="1003.99" fill="#efe5ff" r="48.769" transform="matrix(.58576823 .17555437 -.25862969 .86296344 41.317135 389.469459)"/><path d="m1388.84 1812.27c-15.95 9.04-32.69 13.01-49.41 10.83-67.58-8.81-109.57-114.67-93.72-236.24 15.86-121.57 83.59-213.11 151.17-204.3 49.55 6.47 89.94 44.97 94.67 143.85-3.69 80.88-50.48 178.17-102.71 285.86z" fill="#da2028"/><ellipse cx="1407.01" cy="1756.29" fill="#c72027" rx="84.771" ry="110.512" transform="matrix(1.02872 .134153 -.134153 1.02872 152.601 -303.199)"/><path d="m1279.23 1730.65c12.25 1.16 96.97 10.09 145.11 40.12-5.26 6.71-11.1 12.63-17.36 17.62-12.88-3.78-27.13-7.24-42.58-9.96-56.89-10.01-77.44-32.7-83.96-42.84-.43-1.63-.83-3.28-1.21-4.94z" fill="#b31a21"/><path d="m1275.94 1728.16s30.96 26.6 88.46 33.91c57.51 7.31 74 28.5 74 28.5s19.26-11.64-19.09-39.65c-38.35-28.02-143.37-22.76-143.37-22.76z" fill="#c72027"/><path d="m1297.68 1778.43s74.6 2.26 90.58 35.64l-36.32 31.08-60.56-49z" fill="#e6232c" transform="matrix(1.26245 0 0 1.26245 -364.352 -469.508)"/><circle cx="1536.827532" cy="2121.446664" fill="#b31a21" r="120.016073" stroke-width="1.3884"/><path d="m1501.58 2006.7c11.15-3.43 22.98-5.27 35.25-5.27 66.23 0 120.01 53.78 120.01 120.02 0 36.25-16.11 68.78-41.56 90.79-69.76-17.63-121.45-80.87-121.45-156.08 0-17.25 2.72-33.87 7.75-49.46z" fill="#c72027" transform="matrix(.866025 -.5 .5 .866025 -854.829 1052.63)"/><path d="m917.641 2455.03c2.208 38.72 44.656 87.55 7.541 247.62-37.114 160.08-37.203 167.36-4.448 175.69 32.756 8.33 86.816-50.81 97.876-243.11 11.06-192.31 20.11-206.21 32.9-204.53 12.78 1.67-7.24 98.7 14.1 214.81 21.33 116.1 114.58 254.09 153.74 219.92 39.17-34.17-60.41-108.41-75.53-222.31-15.13-113.91 22.25-183.99 22.25-183.99l-53.3-107.09-87.91 17.63z" fill="#e6232c"/><path d="m1436.17 1394.95c-19.9-12.52-43.98-21.33-95.8 1.66 0 0 20.01-46.46 79.85-42.04 11.63 24.24 16.54 39.81 16.54 39.81z" fill="#c72027"/><path d="m1038.73 1294.03s119.6-15.43 150.32 80.37c0 0 17.8-31.56-32.42-80.37-50.18-48.79-117.9 0-117.9 0z" fill="#c72027" transform="matrix(.883298 -.468813 .468813 .883298 -540.696 675.441)"/></g><g opacity=".897827" transform="matrix(-.740689 0 0 .740689 5378.964 -344.304)"><circle cx="3486.034532" cy="648.317664" fill="#e6232c" r="120.016073" stroke-width="1.3884"/><path d="m3379.31 703.237c-8.5-16.46-13.3-35.133-13.3-54.917 0-66.239 53.78-120.016 120.02-120.016 55.87 0 102.88 38.261 116.22 89.989-21.39-10.077-45.28-15.712-70.48-15.712-68.38 0-127.14 41.495-152.46 100.656z" fill="#f12b34"/><circle cx="1578.23" cy="2047.96" fill="#c72027" r="86.442" transform="matrix(.954475 -.543158 .543158 .954475 547.538 155.833)"/><path d="m3379.31 703.237c-8.5-16.46-13.3-35.133-13.3-54.917 0-66.239 53.78-120.016 120.02-120.016 55.87 0 102.88 38.261 116.22 89.989-21.39-10.077-45.28-15.712-70.48-15.712-68.38 0-127.14 41.495-152.46 100.656z" fill="#d52129" transform="matrix(.687462 -.391211 .391211 .687462 516.134 2171.41)"/><path d="m3768.69 2359.28s15.93 3.51 29.78 4.97c33.64 3.55 105.81 75.26 145.85 99.44 57.31 34.61 171.98 91.66 173.55 38.03.8-27.38-60.33-34.47-140.81-96.23-56.19-43.12-152.61-138.91-152.61-138.91z" fill="#c72027" transform="matrix(1.19231 .0922129 -.0922129 1.19231 -473.808 -795.53)"/><path d="m3929.67 2318.96c35.71 39.55 82.48 89.7 116.6 120.34 90.26 81.06 162.5 95.15 159.02 127.73-.85 7.91-3.48 13.71-7.56 17.7-4.71-7.12-12.52-14.11-21.04-17.74-140.09-59.69-264.35-207.38-291.1-242.92-12.07-16.05 24.21-16.06 44.08-5.11z" fill="#e6232c"/><path d="m1206.96 2241.46s47 45.07 110.74-28.35c63.74-73.43-43.23-147.61 34.06-174.7 25.17-8.83 83.41 122.87 36.58 195.52-50.65 78.57-109.76 96.27-183.79 96.27s2.41-88.74 2.41-88.74z" fill="#c72027" transform="matrix(-.917354 .398073 .398073 .917354 3732.49 -407.565)"/><path d="m841.882 2482.9c2.209 38.73 20.996 51.85-16.119 211.93-37.115 160.07-82.71 189.48-53.822 207.03 47.518 28.85 94.012-32.98 139.343-167.24 17.556-52 29.357-138.45 33.592-217.87.712-13.36 48.678 5.42 55.092 24.89 1.412 4.29 18.122 104.97 35.262 203.31 16.69 95.84 25.36 191.78 64.81 191.44 50.54-.44 35.19-114.99 16.4-220.91-16.09-90.68-14.43-171.85.88-202.1 40.3-79.61 265.95-51.11 265.95-51.11l-270.5-110.23-87.91 17.63-161.091 113.14" fill="#e6232c" transform="translate(2712.54 -142.491)"/><path d="m1377.03 1331.63s-29.19-417.576-497.001-336.764c-467.812 80.814-394.346 924.264-55.791 957.464 338.552 33.2 241.372-198.29 241.372-198.29z" fill="#e6232c" transform="matrix(-1 0 0 1 4792.52 175.683)"/><path d="m627.256 1761.54c-31.89-408.88 227.573-591.96 379.784-531.42 335.6 133.48 39.8 460.11-119.537 502.88-21.472 76.69 19.793 257.18-8.532 257.76-183.701 3.69-246.974-168.44-251.715-229.22z" fill="#c72027" transform="matrix(-1.02742 0 0 1.02742 4818.38 121.105)"/><path d="m1346.65 1537.89c-151.54-151.94-543.341-168.49-512.506 182.86 45.986 523.99 43.852 564.27-177.397 598.86-114.493 17.9-158.76-48.72-182.688-2.16-29.924 58.23 93.449 96.75 222.859 73.05 75.602-13.85 108.058-50.88 193.394-55.11 41.184-2.05 94.684 3.55 171.298 23.07 93.71 23.89 105.77 99.54 242.73 135.63 149.8 39.48 288.72 2.82 279.52-35.49-10.82-45.06-132.54-5.71-241.13-34.78-118.42-31.7-86.62-133.79-69.71-213.01 83.54-391.43 307.8-438.14 73.63-672.92z" fill="#e6232c" transform="matrix(-1 0 0 1 4782.01 -71.774)"/><path d="m3548.64 2044.91s37.07-12.89 38.02 0c.96 12.88-14.22 29.91-14.22 29.91l4.45 7.48s18.27-31.37 46.68-35.13 96.83 18.24 96.83 18.24 10.37-4.77 0-20.5-24.51-35.54-36.52-40.83c-12.01-5.3-41.16-19.68-75.39-5.98-34.24 13.7-66.59 49.07-66.59 49.07z" fill="#c72027" fill-opacity=".627451"/><path d="m3581.68 2024 17.53 8.17-2.24 15s20.5-24.12 118.4 9.36c8 2.74-17.41-35.86-32-42.57-14.59-6.72-50.23-31.54-101.69 10.04z" fill="#fff"/><path d="m1388.84 1812.27c-15.95 9.04-32.69 13.01-49.41 10.83-67.58-8.81-109.57-114.67-93.72-236.24 15.86-121.57 83.59-213.11 151.17-204.3 49.55 6.47 89.94 44.97 94.67 143.85-3.69 80.88-50.48 178.17-102.71 285.86z" fill="#da2028" transform="matrix(1.19676 0 0 1.19676 2119.17 -268.95)"/><g transform="matrix(1.02872 .134153 -.134153 1.02872 2531.82 -213.316)"><ellipse cx="1407.01" cy="1756.29" fill="#efe5ff" rx="84.771" ry="110.512"/><g clip-path="url(#a)"><circle cx="2245.98" cy="1003.99" fill="#1c1c1c" r="48.769" transform="matrix(.826527 .00162546 -.00176493 .897443 -446.449 787.637)"/><circle cx="2245.98" cy="1003.99" fill="#efe5ff" r="48.769" transform="matrix(.391059 .00076906 -.00083505 .424612 531.965 1231.85)"/></g></g><path d="m1311.15 1776.18s25.03.18 53.57 12.88c13.97 6.21 23.7 20.54 28.96 31.51l-21.65 32.02-52.68-7.98-12.35-25.21 2.67-40.09" fill="#e6232c" transform="matrix(2.01082 -1.16095 1.16095 2.01082 -1077.58 -244.711)"/><ellipse cx="1407.01" cy="1756.29" fill="#efe5ff" rx="84.771" ry="110.512" transform="matrix(-.732797 .095563 .095563 .732797 4327.43 403.413)"/><path d="m1395.33 1752.06c-15.95 9.05-50.05 2.18-66.77 0-67.58-8.81-98.7-43.63-82.85-165.2 15.86-121.57 82.05-196.52 149.62-187.71 49.55 6.46 124.17 30.42 108.85 145.18-3.69 80.89-56.62 100.05-108.85 207.73z" fill="#da2028" transform="matrix(-.867803 0 0 1.05375 4626.77 25.8953)"/><g transform="matrix(-.732797 .095563 .095563 .732797 4327.43 403.413)"><ellipse cx="1407.01" cy="1756.29" fill="#efe5ff" rx="84.771" ry="110.512"/><g clip-path="url(#b)"><circle cx="2245.98" cy="1003.99" fill="#1c1c1c" r="48.769" transform="matrix(-.836417 .223688 .24288 .908181 3041.34 276.031)"/><circle cx="2245.98" cy="1003.99" fill="#efe5ff" r="48.769" transform="matrix(-.395738 .105835 .114915 .429692 2170.04 988.64)"/></g></g><path d="m3386.44 1881.9s19.42-77.27 128.48-64.8c1.14 8.89 63.27 19.41 62.54 27.79-3.5 40.53-96.3 92.27-126.3 106.65-.13.06-11.85-31.21-11.97-31.23-20.73-3.08-39.79-17.36-52.75-38.41z" fill="#e6232c" transform="matrix(.859766 0 0 .859766 504.351 254.715)"/><path d="m3505.85 1889.5c-5.59 20.36-16.73 34.49-31.08 36.36-16.16 2.1-32.38-11.86-43.21-34.46 12.5 10.89 27.68 16.48 43.21 14.46 11.98-1.57 22.59-7.45 31.08-16.36z" fill="#da2028" transform="translate(3.7986 1.51247)"/><path d="m3505.85 1889.5c-5.59 20.36-16.73 34.49-31.08 36.36-16.16 2.1-32.38-11.86-43.21-34.46 12.5 10.89 27.68 16.48 43.21 14.46 11.98-1.57 22.59-7.45 31.08-16.36z" fill="#da2028" transform="matrix(1.54868 .278838 -.278838 1.54868 -1115.08 -2024.32)"/><path d="m3959.35 2180.74c30.29 40.22 82.55 54.06 165.91 67.1 37.76 5.9 67.89 2.61 92.16-2.78-6.43 2.91-19.31 5.02-40.73 5.96-144.58 6.36-178.99 13.63-253.8-37.76z" fill="#c72027"/><path d="m1038.73 1294.03s119.6-15.43 150.32 80.37c0 0 17.8-31.56-32.42-80.37-50.18-48.79-117.9 0-117.9 0z" fill="#c72027" transform="matrix(.951447 .307812 -.307812 .951447 3191.11 -168.576)"/><path d="m1024.22 1302.47s55.29-17.72 102.51-.46c27.4 10.01 51.04 37.21 62.32 72.39 0 0 15.54-36.96-34.68-85.77-50.19-48.79-130.15 13.84-130.15 13.84z" fill="#c72027" transform="matrix(.214864 -.976644 .976644 .214864 1836.69 2369.71)"/><path d="m3631.16 1800.68s59.31-29.71 123.94-32.79c64.63-3.09 94.32 34.85 94.32 34.85s-43.75-20.58-94.32-20.58c-50.58 0-123.94 18.52-123.94 18.52z" fill="#c72027"/><path d="m3544.82 1825.25s-32.8-21.05-88.86 1.94c-56.05 22.98-45.81 61.23-45.81 61.23s16.45-36.13 51.06-47.92c34.6-11.79 83.61-15.25 83.61-15.25" fill="#c72027"/><path d="m3520.12 2764.23c91.64-159.9 100.65-310.55 105.83-352.67 4.64-37.71 18.43-42.89 36.34-41.65-2.91.45-4.73 1.82-4.87 4.35-4.24 79.42-16.04 165.87-33.59 217.87-33.94 100.52-68.53 160.44-103.71 172.1z" fill="#c72027"/><g fill="#b31a21"><circle cx="3652.297" cy="2400.463" r="8.836"/><circle cx="3649.507" cy="2444.331" r="8.836"/><circle cx="3645.167" cy="2491.844" r="8.836"/><circle cx="3636.327" cy="2537.654" r="8.836"/><circle cx="3627.497" cy="2578.244" r="8.836"/><circle cx="3610.117" cy="2620.396" r="8.836"/><circle cx="3576.129515" cy="2701.044635" r="7.408747" stroke-width=".838473"/><circle cx="3594.949515" cy="2659.165635" r="7.408747" stroke-width=".838473"/><circle cx="3554.792636" cy="2736.045993" r="6.601155" stroke-width=".747075"/><circle cx="734.227" cy="2766.84" r="8.836" transform="matrix(.792543 -.303791 .303791 .792543 2460.74 431.008)"/><circle cx="734.227" cy="2766.84" r="8.836" transform="matrix(.933753 -.357918 .357918 .933753 2177.18 55.5378)"/><circle cx="734.227" cy="2766.84" r="8.836" transform="matrix(.933753 -.357918 .357918 .933753 2207.3 32.2459)"/><circle cx="734.227" cy="2766.84" r="8.836" transform="matrix(.933753 -.357918 .357918 .933753 2240.86 71.2128)"/><circle cx="734.227" cy="2766.84" r="8.836" transform="matrix(.933753 -.357918 .357918 .933753 2269.28 103.541)"/><circle cx="734.227" cy="2766.84" r="8.836" transform="matrix(.72247 -.276931 .276931 .72247 2620.37 633.145)"/><circle cx="734.227" cy="2766.84" r="8.836" transform="matrix(.72247 -.276931 .276931 .72247 2652.23 665.051)"/><circle cx="734.227" cy="2766.84" r="8.836" transform="matrix(.652376 -.250063 .250063 .652376 2808.51 867.766)"/><circle cx="734.227" cy="2766.84" r="8.836" transform="matrix(.933753 -.357918 .357918 .933753 2303.28 133.541)"/><circle cx="734.227" cy="2766.84" r="8.836" transform="matrix(.743861 -.28513 .28513 .743861 2680.87 666.929)"/><circle cx="734.227" cy="2766.84" r="8.836" transform="matrix(.933753 -.357918 .357918 .933753 2391.07 223.424)"/><circle cx="734.227" cy="2766.84" r="8.836" transform="matrix(.933753 -.357918 .357918 .933753 2432.94 246.234)"/><circle cx="734.227" cy="2766.84" r="8.836" transform="matrix(.720252 -.276081 .276081 .720252 2859.05 794.061)"/><circle cx="734.227" cy="2766.84" r="8.836" transform="matrix(.732866 -.280916 .280916 .732866 2696.15 662.052)"/><circle cx="734.227" cy="2766.84" r="8.836" transform="matrix(.598416 -.22938 .22938 .598416 2972.88 1023.75)"/></g><path d="m3329.06 2438.93c145.21-7.31 232.39-86.06 232.58-86.06.13 0 .23 20.71.28 35.39-22.18 12.93-49.11 24.79-84.26 34.06-52.9 13.94-104.45 18.38-148.6 16.61z" fill="#c72027"/><circle cx="3544.297" cy="2395.084" fill="#b31a21" r="8.836"/><circle cx="3507.172925" cy="2412.153393" fill="#b31a21" r="8.234109" stroke-width=".931882"/><circle cx="3465.465862" cy="2424.156835" fill="#b31a21" r="6.638982" stroke-width=".751356"/><circle cx="3425.479608" cy="2432.841837" fill="#b31a21" r="4.819181" stroke-width=".545403"/><circle cx="3347.297" cy="2034.832" fill="#b31a21" r="8.836"/><circle cx="3351.677" cy="2079.857" fill="#b31a21" r="8.836"/><circle cx="3363.977" cy="2125.24" fill="#b31a21" r="8.836"/><circle cx="3388.957" cy="2153.949" fill="#b31a21" r="8.836"/><circle cx="3424.717" cy="2175.327" fill="#b31a21" r="8.836"/><circle cx="3476.777" cy="2183.163" fill="#b31a21" r="8.836"/><circle cx="3492.197409" cy="2154.205" fill="#b31a21" r="6.581115" stroke-width=".744807"/><circle cx="3453.228312" cy="2160.349588" fill="#b31a21" r="6.143795" stroke-width=".695314"/><path d="m1199.59 2306.24s61.66 29.09 149.77 34.63c139.15 8.76 132.3-150.03 213.14-147.89 80.84 2.13-38.67 233.53-215.99 229.23-140.33-3.41-183.89-3.1-183.89-3.1z" fill="#e6232c" transform="matrix(.744758 -.456009 .522183 .852834 1793.8 680.33)"/><g fill="#c72027"><circle cx="734.227" cy="2766.84" r="8.836" transform="matrix(.13846 .990368 -.990368 .13846 6587.43 1164.18)"/><circle cx="734.227" cy="2766.84" r="8.836" transform="matrix(.13846 .990368 -.990368 .13846 6584.27 1205.37)"/><circle cx="734.227" cy="2766.84" r="8.836" transform="matrix(.13846 .990368 -.990368 .13846 6634.66 1165.68)"/><circle cx="734.227" cy="2766.84" r="8.836" transform="matrix(.13846 .990368 -.990368 .13846 6629.71 1203.37)"/><circle cx="734.227" cy="2766.84" r="8.836" transform="matrix(.13846 .990368 -.990368 .13846 6682.25 1165.68)"/><circle cx="734.227" cy="2766.84" r="8.836" transform="matrix(.13846 .990368 -.990368 .13846 6677.23 1203.37)"/><circle cx="734.227" cy="2766.84" r="8.836" transform="matrix(.13846 .990368 -.990368 .13846 6730.84 1168.6)"/><circle cx="734.227" cy="2766.84" r="8.836" transform="matrix(.13846 .990368 -.990368 .13846 6727.68 1206.8)"/><circle cx="734.227" cy="2766.84" r="8.836" transform="matrix(.13846 .990368 -.990368 .13846 6781.48 1172.01)"/><circle cx="734.227" cy="2766.84" r="8.836" transform="matrix(.13846 .990368 -.990368 .13846 6776.54 1212.71)"/><circle cx="734.227" cy="2766.84" r="8.836" transform="matrix(.13846 .990368 -.990368 .13846 6833.23 1172.01)"/><circle cx="734.227" cy="2766.84" r="8.836" transform="matrix(.13846 .990368 -.990368 .13846 6825.15 1213.71)"/><circle cx="734.227" cy="2766.84" r="8.836" transform="matrix(.13846 .990368 -.990368 .13846 6878.34 1167.6)"/><circle cx="734.227" cy="2766.84" r="8.836" transform="matrix(.117457 .840144 -.840144 .117457 6472.46 1376.5)"/><circle cx="734.227" cy="2766.84" r="8.836" transform="matrix(.13846 .990368 -.990368 .13846 6920.38 1156.84)"/><circle cx="734.227" cy="2766.84" r="8.836" transform="matrix(.102275 .731549 -.731549 .102275 6224.07 1485.22)"/><circle cx="734.227" cy="2766.84" r="8.836" transform="matrix(.13846 .990368 -.990368 .13846 6594.08 976.772)"/><circle cx="734.227" cy="2766.84" r="8.836" transform="matrix(.13846 .990368 -.990368 .13846 6623.9 994.445)"/><circle cx="734.227" cy="2766.84" r="8.836" transform="matrix(.13846 .990368 -.990368 .13846 6666.44 967.935)"/><circle cx="734.227" cy="2766.84" r="8.836" transform="matrix(.13846 .990368 -.990368 .13846 6695.72 934.098)"/><circle cx="1578.23" cy="2047.96" r="86.442" transform="matrix(.718475 .830565 -.830565 .718475 4545.92 -1803.71)"/></g><path d="m3379.31 703.237c-8.5-16.46-13.3-35.133-13.3-54.917 0-66.239 53.78-120.016 120.02-120.016 55.87 0 102.88 38.261 116.22 89.989-21.39-10.077-45.28-15.712-70.48-15.712-68.38 0-127.14 41.495-152.46 100.656z" fill="#d52129" transform="matrix(.517483 .598216 -.598216 .517483 2562.75 -1442.39)"/><circle cx="1578.23" cy="2047.96" fill="#c72027" r="86.442" transform="matrix(.410012 1.16983 -1.16983 .410012 6174.32 -829.503)"/><path d="m3379.31 703.237c-8.5-16.46-13.3-35.133-13.3-54.917 0-66.239 53.78-120.016 120.02-120.016 55.87 0 102.88 38.261 116.22 89.989-21.39-10.077-45.28-15.712-70.48-15.712-68.38 0-127.14 41.495-152.46 100.656z" fill="#d52129" transform="matrix(.295312 .842572 -.842572 .295312 3942.44 -1272.25)"/><circle cx="4318.488498" cy="2779.018417" fill="#e6232c" r="76.792825" stroke-width=".888374"/><path d="m3379.31 703.237c-8.5-16.46-13.3-35.133-13.3-54.917 0-66.239 53.78-120.016 120.02-120.016 55.87 0 102.88 38.261 116.22 89.989-21.39-10.077-45.28-15.712-70.48-15.712-68.38 0-127.14 41.495-152.46 100.656z" fill="#f12b34" transform="matrix(.639853 0 0 .639853 2087.93 2364.19)"/><circle cx="1578.23" cy="2047.96" fill="#b31a21" r="86.442" transform="matrix(.957194 -1.00571 1.00571 .957194 -360.919 1894.38)"/><path d="m1501.58 2006.7c11.15-3.43 22.98-5.27 35.25-5.27 66.23 0 120.01 53.78 120.01 120.02 0 36.25-16.11 68.78-41.56 90.79-69.76-17.63-121.45-80.87-121.45-156.08 0-17.25 2.72-33.87 7.75-49.46z" fill="#c72027" transform="matrix(.234875 -.972026 .972026 .234875 786.326 3263)"/></g><path d="m1318.06 832.04c-67.27 23.091-4.8 170.23 21.36 202.15 26.15 31.91 94.2 20.39 130-46.93 35.79-67.322-22.09-52.604-35.14-97.781s-67.45-74.18-116.22-57.439z" fill="#ffd8df" transform="matrix(.714314 -1.42531 1.42531 .714314 -2055.596 3415.601)"/><circle cx="1578.23" cy="2047.96" fill="#c72027" r="86.442" transform="matrix(-1.30814 0 0 1.30814 2177.62 -677.1442)"/><circle cx="1578.23" cy="2047.96" fill="#c72027" r="86.442" transform="matrix(-1.42694 0 0 1.42694 2640.81 -920.4286)"/><path d="m1903.27 2596.82c-5.27 18.14-8.09 37.32-8.09 57.16 0 56.28 22.73 107.3 59.51 144.35-10.81 3.8-22.44 5.87-34.55 5.87-57.6 0-104.37-46.77-104.37-104.37 0-51.86 37.91-94.94 87.5-103.01z" fill="#d52129" transform="matrix(-1.18184 0 0 1.18184 2658.07 -1188.8806)"/><path d="m2071.45 2650.49c70.63 4.26 128.28 56.98 140.12 125.31-16.12 12.36-36.28 19.71-58.14 19.71-52.81 0-95.69-42.87-95.69-95.68 0-18.05 5.01-34.93 13.71-49.34z" fill="#b31a21" transform="matrix(-1.18184 0 0 1.18184 2658.07 -1188.8806)"/><circle cx="1578.23" cy="2047.96" fill="#e6232c" r="86.442" transform="matrix(-1.42694 0 0 1.42694 2478.18 -855.7236)"/><path d="m2038 2857.08c-48.18-9.24-84.62-51.65-84.62-102.5 0-57.61 46.76-104.37 104.36-104.37 7.45 0 14.71.78 21.72 2.26-33.98 34.5-54.95 81.83-54.95 134.02 0 24.93 4.79 48.75 13.49 70.59z" fill="#f12b34" transform="matrix(-1.18184 0 0 1.18184 2658.07 -1188.8806)"/></svg>