<svg height="66" viewBox="0 0 142 66" width="142" xmlns="http://www.w3.org/2000/svg"><g fill="#8e8e8e" fill-rule="evenodd"><g fill-rule="nonzero"><path d="m27.49 29-.8-.71c-3.1820078-2.8015439-6.5940368-5.3304595-10.2-7.56-3.7700747-2.138634-7.66356509-4.0519873-11.66-5.73l-1.64-.68-3.19 5.75 2.09.86c3.80072158 1.5735987 7.50991434 3.3597536 11.11 5.35 3.3355897 2.1115834 6.5048285 4.4751402 9.48 7.07l1 .91.75-1.16.89.34 2.68-4.06zm-3.49 2.86c-3.0608899-2.6936607-6.3349276-5.1349758-9.79-7.3-3.6807736-2.0451285-7.4771589-3.8748727-11.37-5.48l1.23-2.19c3.90916331 1.6089342 7.7192178 3.4488465 11.41 5.51 3.4899086 2.1665872 6.7945208 4.6182884 9.88 7.33z"/><path d="m31.24 21.53-.8-.72c-3.1820078-2.8015439-6.5940368-5.3304595-10.2-7.56-3.7722119-2.1079699-7.6656609-3.99125052-11.66-5.64l-1.64-.67-3.19 5.7 2.09.86c3.81703994 1.5771631 7.5428609 3.3666255 11.16 5.36 3.3380369 2.108024 6.5075421 4.4717795 9.48 7.07l1 .91.75-1.17.89.34 2.6-4.01zm-3.49 2.9c-3.0536147-2.6851553-6.3136644-5.126013-9.75-7.3-3.6937741-2.0465253-7.5035518-3.8762871-11.41-5.48l1.23-2.19c3.9110102 1.6161368 7.7212291 3.4661466 11.41 5.54 3.4923841 2.1629427 6.7972908 4.6148624 9.88 7.33z"/><path d="m35.18 14.59-.8-.71c-3.1828068-2.8035376-6.5947203-5.33571256-10.2-7.57-3.7764424-2.10643626-7.6731272-3.98966695-11.67-5.64l-1.63-.67-3.19 5.71 2.09.85c3.8000431 1.57886069 7.5091292 3.36830275 11.11 5.36 3.3378095 2.1074819 6.5042851 4.4748153 9.47 7.08l1.05.91.75-1.17.89.35 2.61-4.09zm-3.49 2.9c-3.067122-2.6829593-6.3405531-5.1204784-9.79-7.29-3.6815585-2.04657401-7.4778332-3.87960378-11.37-5.49l1.23-2.19c3.9039269 1.60208927 7.7104705 3.43190144 11.4 5.48 3.4923112 2.1676734 6.8001591 4.6192937 9.89 7.33z"/><ellipse cx="59.91" cy="37.73" rx="4.85" ry="6.58"/><path d="m69.47 10.08-1.25-1c-2.5-2-7-2.3-9.5-2.3-3.44 0-9.38 1.64-14.84 6.24-4.23 3.58-8.88 12.51-13.06 20.39-1.23 2.35-2.29 4.37-3.11 5.78-2.34 4.03-7.08 5.81-10.71 5.81h-8.67v8.4h8.67c1.9481851-.0124406 3.885741-.2882732 5.76-.82h118.46v-42.5zm3.71 2.36s2.25 2.17 2.25 7c-2.550533-.1682958-4.9513987-1.2638019-6.75-3.08zm-36.89 23.85c-1.26 2.42-2.36 4.5-3.24 6-3.8 6.6-11.05 8.94-16.05 8.94h-6.47v-4h6.47c4.29 0 9.86-2.15 12.65-6.94.83-1.44 1.9-3.49 3.15-5.86 3.81-7.32 8.6-16.43 12.5-19.73 4.7-3.95 10.11-5.7 13.42-5.7 1.76 0 6.08.18 8.12 1.81l-2.49 3.13c-.49-.39-2.56-.94-5.63-.94-2.08 0-6.69 1.27-10.83 4.78-3.31 2.77-8.29 12.22-11.58 18.51zm32.71 12.91-3.37 1.72-5.72-4.56c-6.51 0-9.1-3.86-9.1-8.63s2.88-8.63 9.1-8.63 9.09 3.9 9.09 8.63c0 3.78-1.89 7-5.7 8.15zm19.19-8.91c0 3.62-2.93 6-6.55 6h-1.13c-3.61 0-6.54-2.42-6.54-6v-11.18h3.81v11c.2646643 1.9875208 1.9599349 3.4720085 3.965 3.4720085s3.7003357-1.4844877 3.965-3.4720085v-11h2.48zm15.72-8.59h-5.44v4.71h5.44v2.42h-5.44v4.7h5.44v2.8h-9.6v-17.22h9.6zm8.53 14.63c-3.69 0-4.47-.85-4.47-.85l.72-3.44h.59s-.25.5.69 1.56c1.58 1.79 5 .75 5-1.25s-2.28-2.44-3.25-3.06-4-1.69-4-5 3.22-5.22 5.78-5.22c1.579618-.0701558 3.128155.4543486 4.34 1.47l-1.31 2.65-.5-.12s.28-1.41-1.5-1.82c-2.63-.6-4.53 2.07-1.12 4.19s5.06 2.83 5.06 5.94c0 2.62-2.34 4.95-6.03 4.95zm22.22-14.16c-1.395445-.4956162-2.869518-.7328233-4.35-.7v14.86h-4v-14.86c-1.47718-.032276-2.947875.2049329-4.34.7v-3.06h12.72z"/></g><text font-family="Avenir-Book, Avenir" font-size="9"><tspan x="50.09" y="62.73">Serviced Apartments</tspan></text></g></svg>