<svg height="34" viewBox="0 0 181 34" width="181" xmlns="http://www.w3.org/2000/svg"><g fill="#8e8e8e" fill-rule="evenodd"><path d="m48.7549056 33.4412464c1.5538339-2.72 2.9651529-5.3015714 4.6103888-8.0689285-1.1900299-6.0847858-2.5069402-12.0329643-3.7456778-18.25678576l6.2586312-.04614285c.5947143 3.55057141 1.3722326 7.05317861 2.0577475 10.51267861 2.2339369-3.4121429 3.8791728-7.00825 5.930907-10.51267861h6.0307276c-4.7986047 8.85032141-9.9099003 17.56585711-14.975495 26.37185711z"/><path d="m159.446388 15.5032714c.158149-.42925.886359-1.3284285 1.19905-1.70425-.021648.0157857-.018642.0060715.066747-.08075.142515-.1639285.082382-.0935-.066747.08075.105833-.0856071 1.292857-1.2422143 2.573687-1.5828214 1.195442-.3090357 2.850299-.15725 3.393299.1517857.543.3126786 1.052927.8323929 1.052927.8323929.594714.5986428 1.050522 1.428 1.092615 2.3028928zm14.565388-.0922857c-.236322-4.6889643-4.291684-7.96146427-7.077641-8.48239284-4.404133-.81964286-8.553302 2.05639285-10.72891 4.42667854-2.865332 3.1103929-3.885787 8.0106429-2.789565 10.6492857 1.104641 2.6386429 2.442598 3.9300358 3.332565 4.4722143.901392.5427857 2.021668 1.0928572 3.101654 1.3606072 1.077582.2671428 3.481093.3448571 5.538841-.2865715 2.846691-.8821785 5.193678-2.2537142 7.296525-5.7763571h-6.024714c-.873731.7030714-2.170196 1.5233214-4.837691 1.1043929-1.110655-.1730358-1.915233-.6891072-2.309705-1.2652858-.406498-.5761785-.935066-1.0849642-.892372-2.0995l14.704897-.0437142c.738432-1.0849643.761884-2.6374286.686116-4.0593572z"/><path d="m39.3852993 17.6359821c-.8226179 2.4929286-3.4233654 3.8626429-4.3951129 4.0375-.9705449.1718215-2.7071827.1596786-3.7691296-.3460714-1.0559335-.5075714-1.6879302-1.7054643-1.7119834-3.7448571-.0210465-2.0412143 1.8755449-4.4819286 3.8785715-5.3610715 1.6025415-.6915357 3.3692458-.3454642 4.7414784.4025358 1.3686245.7492142 1.7661029 3.1146428 1.256176 5.0119642zm1.7366379-10.56792853c-.1401096.48571429-.312691 1.46503572-.5526213 2.48989286-.2122691-1.65932143-2.2098837-3.38785714-4.3830863-3.44432143-4.9044386-.12871429-7.7150499 2.09585714-10.2725017 5.4163214-2.3962957 3.1134286-3.2339468 8.2881072-1.7113821 11.5824643 1.5189569 3.2973929 4.9182692 4.2530357 7.5893721 4.267 2.6705017.0103214 5.6723356-2.8371786 5.8575449-2.8821071.0426943.7813928-.2279037 1.615-.3644053 2.44375h6.1191229c1.4143256-6.6403215 2.6957575-13.3273929 3.8304651-19.87300003z"/><path d="m141.274709 27.0300607c.774512-5.0259286 2.737851-15.4906428 2.737851-15.4906428h-2.877359l.871326-4.47160719h2.965152c.503914-2.11892857.868319-4.33317857 1.323525-6.36285714l5.845519.04553572c-.449794 2.24946428-.73723 3.97921428-1.141323 6.31732142 0 0 1.91824.13964286 2.740857.04796429-.185209 1.56582143-.458212 3.0873214-.822617 4.5171429h-2.740858c-1.098628 5.0696428-2.057747 10.2795357-3.104661 15.3971428z"/><path d="m133.468919 7.06787143 5.702402.04614286c-1.137714 6.54560711-2.509346 13.36867861-3.78717 19.91610711h-5.843112c1.274817-6.59175 2.422152-13.1883571 3.92788-19.96224997"/><path d="m122.560091 16.3122893c.364405-1.7868214-.146123-3.3435357-.947093-3.9166786-.803977-.5773928-1.699355-.4917857-2.855711-.17425-1.259784.3472857-2.110063 1.2082143-2.679522 3.3398929-.431754 1.5907143-1.557441 7.3682857-2.337365 11.4270357h-5.802824c1.739043-8.7622857 3.344591-17.47478573 5.116708-26.23767859h5.751109c-.500305 2.62953572-1.043907 5.44121429-1.459425 8.06892858 1.235731-.82935715 2.121488-1.63685715 4.295292-2.02907143 2.165987-.39039286 4.166608-.04432143 5.932711 1.98171428 2.15817 2.47714286 1.087203 5.92510716.68311 8.00092856-.318704 1.5864643-1.876146 8.6621072-2.233335 10.2570714h-5.797412s1.960933-8.9316785 2.333757-10.7178928"/><path d="m91.9627927 11.2188464c-2.4672525 5.4855357-4.479299 10.3748572-6.7162425 15.8124286h-6.3470266c-.4521993-8.75925-.9555116-17.42439286-1.4173322-26.27896429h6.3494319l.9164252 15.12028569c.1912226-.4280357 4.3379867-10.23217854 6.477515-15.12028569h5.5274152c.0938073 5.02592858.318103 10.05246429.4966977 15.12028569 2.5592558-4.88325 4.4835086-10.05003569 6.9453486-15.12028569h6.255625s-7.806452 17.97932139-11.5551364 26.27896429h-6.2953123c-.2303089-5.2566429-.3644053-10.4647143-.6374086-15.8124286"/><path d="m15.9358173 11.1853929c-.9729502.92225-2.7721263 1.3836785-4.0547608 1.3836785h-2.90922926c.41251163-2.4425357.91221595-4.89903569 1.37223256-7.43446426 2.3367641-.46142857 3.982-.44746428 5.7072126.17121429.7985648.29142857 1.4239469 1.65932143 1.365618 2.82746428-.0577276 1.207-.6704818 2.28285719-1.4810731 3.05210719m4.2219302-10.43192861c-1.1407209-.63264286-2.9212558-.64296429-3.1984684-.69092858-4.1996811-.136-7.55329239 0-11.70967777-.04857142-1.73663787 9.17453571-3.56046844 17.93317861-5.24960133 27.01967861h6.02471429c.59471428-2.8596429 1.18521926-5.763 1.78053488-8.6226429 2.28504983 2.7643214 4.20328903 5.6713214 6.34582393 8.5285357h7.4011561s-5.0229003-6.4533214-7.0319402-9.0324643c.9573157-.3248214 5.5208007-2.0545714 7.0319402-4.4740357.9699436-1.5536786 1.6861263-2.7090714 2.0066346-4.88932141.3644053-3.91789286-.5249601-6.19467858-3.4011163-7.79025"/><path d="m133.692914 5.13145c.27601-1.47535714.500907-2.9495.871326-4.38053571h5.885206c-.285632 1.38610714-.58329 2.88332142-.822618 4.38053571z"/><path d="m177.531174 25.5789286h.470239c.396276 0 .76008-.0200357.76008-.4808572 0-.3873571-.33013-.4474643-.635003-.4474643h-.595316zm-.449794-1.29625h1.11787c.688522 0 1.012638.2738214 1.012638.8354285 0 .5276072-.330731.748-.761282.79475l.827429 1.2895715h-.482868l-.78774-1.2561786h-.476253v1.2561786h-.449794zm.965734 3.5942857c1.144931 0 2.031289-.9216429 2.031289-2.1444286 0-1.1954643-.886358-2.1177143-2.031289-2.1177143-1.157558 0-2.044518.92225-2.044518 2.1177143 0 1.2227857.88696 2.1444286 2.044518 2.1444286zm0-4.6294643c1.349984 0 2.481685 1.0758571 2.481685 2.4850357 0 1.4365-1.131701 2.5123572-2.481685 2.5123572-1.355996 0-2.494312-1.0758572-2.494312-2.5123572 0-1.4091786 1.138316-2.4850357 2.494312-2.4850357z"/></g></svg>