<svg height="51" viewBox="0 0 124 51" width="124" xmlns="http://www.w3.org/2000/svg"><g fill="#8e8e8e"><path d="m22.1505036 35.4494737-9.661295-11.4973684c3.2828777-.8052632 7.8414389-3.6236842 7.8414389-10.3431579 0-7.63210529-5.4060432-10.55789477-8.2607194-10.95157898l-6.71741011-.08052631h-5.35251799v32.87263159h5.35251799v-10.8352632l9.14388491 10.8352632zm-10.705036-27.2894737c.8920864.19684211 3.523741 1.14526316 3.523741 5.4489474 0 4.3036842-3.1758273 5.0731579-4.2641726 5.1805263h-5.35251801v-10.6294737z"/><path d="m78.5214388 2.57684211-14.1395683 20.73105259v-17.72473681l.062446-.09842105-.062446-2.90789473h-4.2195683l-22.1594245 32.88157899h6.2446043l14.7818705-21.93v17.6173684.2863158 4.0263158h3.5058993l14.8532374-21.7689474v21.7689474h5.352518v-32.88157899z"/><path d="m122.608345 2.57684211h-6.244604l-8.028777 11.83736839-8.028777-11.83736839h-6.2446043l11.1510793 16.43631579-2.319425 3.4178947-13.2385607-19.85421049h-4.3444605v32.87263159h5.352518v-9.1710526h8.483741l.5620144.8410526-5.6469065 8.33h6.2446043l2.497842-3.6863158 2.462158 3.6863158h6.29813l-5.57554-8.3747369 2.346187-3.4626315 8.028777 11.8373684h6.244604l-11.151079-16.4363158zm-31.9456112 18.10947369v-7.1578947l4.763741 7.1578947z"/><path d="m35.0411511 35.4584211h1.7574101v-2.6663158z"/><path d="m25.585036 35.4584211 3.8448921-5.8157895h-1.7038849v-7.721579h6.7976978l2.2748202-3.4357894v-2.38h-9.072518v-7.71263162h9.072518v-5.81578947h-9.072518-2.5959713-2.7565467v32.88157899h2.7565467z"/><path d="m31.785036 37.9547368h-6.2446043l25.0854676-37.9547368h6.2446043z"/><path d="m73.490072 37.355263h1.944748v13.304737h-1.944748z"/><path d="m78.476835 37.355263h1.944748v13.304737h-1.944748z"/><path d="m51.0184173 40.9878947h-2.5067626l-6.2713669 9.2336842h2.5067626z"/><path d="m48.7346763 50.2215789-6.2624461-9.2336842h2.5067626l6.262446 9.2336842"/><path d="m59.1988489 47.0810526c.0892087 1.1452632-1.1864748 1.8789474-2.1320863 1.8789474-1.2935252 0-2.3461871-1.4494737-2.3461871-3.23s1.0526619-3.23 2.3729497-3.23c.8385611 0 2.0161151.4473684 1.9893525 1.5121053h1.9625899c0-1.9236842-1.9447482-3.2210527-3.8092086-3.2210527-2.3997122 0-4.3444604 2.21-4.3444604 4.9389474s1.9447482 4.93 4.3444604 4.93c.9987108.0712697 1.9828895-.2712095 2.7229805-.9475557.740091-.6763461 1.1713828-1.6274215 1.1932785-2.6313917z"/><path d="m101.314245 42.9473684v7.3278948h-1.9447486v-6.6836843c.008669-.0623298.008669-.1255649 0-.1878947-.0713669-.2952631-.392518-.9931579-1.6592806-.9931579-1.1951549-.0258069-2.1945916.9052818-2.2569784 2.1026316v5.7442105h-1.9536691v-9.2694737h1.9536691v1.3063158c.9083136-.7898237 2.0552784-1.2499728 3.2561151-1.3063158 2.4710795 0 2.6048925 1.9594737 2.6048925 1.9594737z"/><path d="m38.7611511 47.6894737c-.439924.715798-1.2429252 1.1236764-2.0785612 1.0557895-2.0696403 0-2.2123741-2.7468421-2.2123741-2.7468421h6.2446043c0-.0894737 0-.1789474 0-.2684211.2230216-3.0242105-1.7128057-4.9389474-4.0054676-4.9389474s-4.1660431 2.21-4.1660431 4.9389474c-.0838557 1.1640209.3162913 2.3109534 1.1054665 3.1685747.7891753.8576212 1.8970157 1.3494653 3.0605766 1.3587937 1.6503597 0 2.9528058-.4742105 3.6307914-2.1294737zm-2.0785612-5.27c.5934671.0337773 1.1476174.3085378 1.5347391.760959.3871218.4524212.5738171 1.0434718.5170595 1.6369357h-4.2641727c-.0452592-1.2734162.943036-2.3445859 2.2123741-2.3978947z"/><path d="m69.0207194 47.6894737c-.4488171.7247939-1.2670934 1.1334162-2.1142446 1.0557895-2.0696403 0-2.2034532-2.7468421-2.2034532-2.7468421h6.2446043c0-.0894737 0-.1789474 0-.2684211.2319424-3.0242105-1.7038849-4.9389474-4.0054676-4.9389474-2.3015828 0-4.1571223 2.21-4.1571223 4.9389474-.0834676 1.1563649.3107282 2.2962916 1.0901543 3.1524852.7794262.8561936 1.8755273 1.3533462 3.0312845 1.3748832 1.6592806 0 2.9617266-.4742105 3.6307914-2.1294737zm-2.1142446-5.27c.5950555.0314335 1.1515163.305186 1.5405568.7578814.3890405.4526953.5769272 1.0450806.5201626 1.6400133h-4.23741c-.0506069-1.2619291.9192827-2.3303829 2.1766906-2.3978947z"/><path d="m89.1015827 47.6894737c-.4443023.7156813-1.2495749 1.1229655-2.087482 1.0557895-2.0696403 0-2.2123741-2.7468421-2.2123741-2.7468421h6.2446043c0-.0894737 0-.1789474 0-.2684211.2230216-3.0242105-1.7038849-4.9389474-4.0054676-4.9389474s-4.1660432 2.21-4.1660432 4.9389474c-.0838556 1.1640209.3162913 2.3109534 1.1054666 3.1685747.7891753.8576212 1.8970156 1.3494653 3.0605766 1.3587937 1.6503597 0 2.9617266-.4742105 3.6307914-2.1294737zm-2.087482-5.27c.5934671.0337773 1.1476174.3085378 1.5347391.760959.3871218.4524212.5738171 1.0434718.5170595 1.6369357h-4.2641727c-.0452592-1.2734162.943036-2.3445859 2.2123741-2.3978947z"/><path d="m110.279712 47.0810526c.09813 1.1452632-1.177554 1.8789474-2.123165 1.8789474-1.293525 0-2.346187-1.4494737-2.346187-3.23s1.052662-3.23 2.346187-3.23c.838561 0 2.016115.4473684 1.980431 1.5121053h1.96259c0-1.9236842-1.935827-3.2210527-3.800287-3.2210527-2.399713 0-4.344461 2.21-4.344461 4.9389474s1.944748 4.93 4.344461 4.93c.99871.0712697 1.982889-.2712095 2.72298-.9475557.740091-.6763461 1.171383-1.6274215 1.193279-2.6313917z"/><path d="m120.101583 47.6894737c-.444303.7156813-1.249575 1.1229655-2.087482 1.0557895-2.069641 0-2.212374-2.7468421-2.212374-2.7468421h6.244604c0-.0894737 0-.1789474 0-.2684211.223022-3.0242105-1.703885-4.9389474-4.005468-4.9389474-2.301582 0-4.166043 2.21-4.166043 4.9389474-.083856 1.1640209.316291 2.3109534 1.105467 3.1685747.789175.8576212 1.897015 1.3494653 3.060576 1.3587937 1.65036 0 2.961727-.4742105 3.630792-2.1294737zm-2.087482-5.27c.593467.0337773 1.147617.3085378 1.534739.760959s.573817 1.0434718.517059 1.6369357h-4.264172c-.04526-1.2734162.943036-2.3445859 2.212374-2.3978947z"/><path d="m117.532374 20.9368421c-1.308592-1.3222294-1.308592-3.4556654 0-4.7778947.961986-.9679034 2.411203-1.2579765 3.669922-.7345659 1.258718.5234106 2.078161 1.7568565 2.075114 3.1235132-.005618 1.3624303-.825765 2.5884519-2.080598 3.110247-1.254834.521795-2.699311.2374675-3.664438-.7212996zm4.389065-.3757895c.815204-.8114246 1.060139-2.0367648.619795-3.1006567-.440344-1.0638918-1.478497-1.7550021-2.626989-1.748817-.7522-.007243-1.475695.2892558-2.007605.8227464s-.827531 1.2591346-.820309 2.0135694c-.013515 1.1551702.672866 2.2031334 1.735278 2.6494138 1.062411.4462804 2.288535.2016906 3.09983-.6183611zm-2.756547-.3936842h-.51741v-3.3821052h1.507626c.2984-.0128154.590903.0860381.820719.2773684.224932.1820949.347952.4622132.330072.7515789.008645.2433207-.070546.4815981-.223021.6710527-.152381.1704948-.355893.2866844-.579856.3310526l.954532 1.3510526h-.62446l-.892087-1.2794737h-.767194zm0-2.9168421v1.19h.892086c.197879.0167674.394932-.0406116.553094-.1610526.124309-.114081.18999-.2787731.178417-.4473684.012891-.1636119-.05351-.3234485-.178417-.4294737-.157385-.1144082-.350475-.1683801-.544173-.1521053z"/></g></svg>