<svg height="50" viewBox="0 0 55 50" width="55" xmlns="http://www.w3.org/2000/svg"><path d="m190.871625 352.733309c-.801853 7.385564-1.272274 11.446086-1.409734 12.184643-.458202 2.538788-2.060381 3.80972-4.809592 3.80972-1.466245 0-2.646879-.461598-3.540372-1.384793-.893493-.923196-1.249363-2.101809-1.064555-3.531223.504022-2.954226 1.121067-7.028596 1.854189-12.221571.733123-5.191436 1.490684-10.61521 2.268099-16.269783.780471-5.654573 1.284493-9.288886 1.513593-10.904478.273394-1.153995 1.018736-1.99718 2.23297-2.528018 1.214235-.530837 2.530802-.772407 3.951227-.726247 2.291009.04616 3.963445 1.523273 5.01731 4.431339l9.003664 26.655733c.045821.230799.137461.530838.274922.900116.13746.369278.2291.623157.274921.761636l.481111-1.315553c2.153549-5.262215 5.544242-14.263372 10.17208-27.001932l.274921-.484678c.137461-.369278.239792-.635466.308523-.797025.06873-.161559.20619-.415438.412381-.761637.206191-.346198.40169-.623157.584971-.830876s.412382-.438517.685775-.692396c.276449-.253879.584971-.461598.928623-.623157.343651-.161559.697994-.26465 1.066082-.310809 1.098157-.09232 1.922921-.1154 2.47429-.06924 2.014561.230799 3.297526.877036 3.847368 1.938711.320741 1.061674.71174 3.311194 1.168414 6.750098.458202 3.438903 1.145505 9.093476 2.061908 16.96218.916404 7.870242 1.603706 13.698683 2.061908 17.483785.091641 1.477113-.331432 2.608028-1.270746 3.391205-.939314.786255-2.097037 1.178613-3.470115 1.178613-2.888198 0-4.468995-1.270932-4.742388-3.80972-.549842-5.168357-1.397516-14.146434-2.54302-26.931154l-9.484777 25.824858c-1.008044 2.307989-2.863761 3.438903-5.567152 3.391205-.962223-.044621-1.751858-.287729-2.371957-.726247-.617045-.438518-1.041646-.864727-1.270747-1.280165s-.549842-1.109373-.962223-2.07719l-8.660014-25.480198c-.366561 2.677268-.950005 7.708683-1.751858 15.094248z" fill="none" stroke="#fff" stroke-linecap="round" stroke-linejoin="round" stroke-width="1.4" transform="translate(-179 -320)"/></svg>