<svg height="71" viewBox="0 0 94 71" width="94" xmlns="http://www.w3.org/2000/svg"><g fill="#1c1c1c" fill-rule="evenodd" opacity=".498641" transform=""><path d="m37.7276281 30.3499848c2.3882117 1.6989129 5.2411328 2.774119 8.3286006 2.9930938v-2.3152988c-1.1475253-.0946269-2.2555942-.3263862-3.3099584-.6781228zm-7.6392086-.0003278-3.8864611.0017483c3.0030748 8.3176583 10.6970841 14.3537819 19.8542703 14.8304129v-3.6483795c-7.1339468-.4429761-13.187225-4.9105446-15.9678092-11.1837817zm4.8586243 0-3.7560355.0006556c3.2595418 4.9082499 8.6661725 8.2372364 14.8652204 8.612138v-3.0236891c-4.4246033-.3169891-8.359289-2.4153892-11.1091849-5.5891045zm35.2828413-7.7592943c0-12.0954122-9.3840609-21.97550657-21.20675-22.5903627v3.64674044c9.2426752.57366176 16.6692573 7.90090676 17.5208592 17.16122796-2.0506398-8.0431749-9.0453929-14.07755018-17.5208592-14.58991208v3.02336134c8.4699862.60709804 15.1457997 7.74104634 15.1457997 16.45524154l-.0010961.1424866c-1.2001339-7.5793283-7.4408303-13.4563564-15.1447036-14.0017175v2.314971c7.3202689.6029459 13.0688556 6.7967445 13.0688556 14.3505039 0 .6254552-.0394565 1.2419504-.1161774 1.846426-.8472178 6.6912999-6.2406964 11.9468065-12.9526782 12.5044057v2.3274277c9.1528021-.4820944 16.8490034-6.5167975 19.8542703-14.8315056l-5.1764681-.0003278 5.1764681-.0006556c.8746181-2.4197599 1.3524797-5.0327073 1.3524797-7.7583109zm-45.3793104 0c0 2.726587.4767655 5.34019 1.3513837 7.7592943l3.8864611-.0013112c-.8220096-1.8535285-1.3579598-3.8640763-1.55305-5.9755887.5512943 2.1600277 1.4587929 4.1753834 2.6556388 5.9768999l3.7560355-.0013112c-2.5131571-2.9018544-4.0355188-6.7028825-4.0355188-10.8642795l.001096-.1424866c.7189844 4.5409971 3.2474857 8.4700884 6.8150071 11.0080773l5.0186422-.0013112c-5.6707698-1.8986565-9.7578012-7.3009112-9.7578012-13.6710699 0-7.55004424 5.7507787-13.74242237 13.0677596-14.35006676v-2.32644426c-11.8150171.62152154-21.205654 10.49757302-21.205654 22.58959782z"/><path d="m10.4343111 55.6168111c-1.23886017-.5495533-2.54286334-.7531747-4.34743916-.7531747-3.32572237 0-5.58629929 1.8315232-5.58629929 3.9684252 0 1.8318443 1.0434311 3.1141353 3.15200766 4.0094063l1.84800449.7329517c1.93486185.7531748 2.45600598 1.4247084 2.45600598 2.564475 0 1.0786695-1.08685979 1.9535036-3.0000073 1.9535036-1.49943222 0-2.93486428-.3457178-4.17372443-.9361452l-.78285905 1.8113002c1.43543206.6310875 3.15200766.9566892 5.08686951.9566892 3.19543634 0 5.71772819-1.709757 5.71772819-4.2128138 0-1.9948056-1.02171677-3.2361155-3.41372259-4.1928047l-1.56457523-.6512036c-2.06514788-.8140579-2.52114899-1.4448243-2.52114899-2.3809695 0-1.0382234.97714524-1.7912912 2.93372142-1.7912912 1.34857471 0 2.54400619.3054857 3.43543693.7125147z"/><path d="m18.9128914 61.9947014v-1.7374953h-3.0975068c0-.9956872.0396581-2.1187038.1586324-3.2420546l-2.4807189.5721469c.0396581.9536897.0396581 1.6529432.0396581 2.6699077h-1.6478987v1.7374953h1.6280696c0 1.7587725-.0793162 3.8564218-.0793162 5.4455332 0 2.3096422 1.2899321 3.5597654 3.017147 3.5597654 1.1907868 0 2.2625994-.3180451 2.997318-.890192l-.4957264-1.4829478c-.4967699.3389881-.9924963.4659834-1.6875568.4659834s-1.3692483-.4659834-1.4496081-1.4829479c-.1189744-1.4410616-.0396581-3.5810427-.0396581-5.6151943z"/><path d="m20.5287356 64.6801476c0 3.1090567 2.2605962 5.2440948 5.9205524 5.2440948 3.5245343 0 5.9645051-2.4458348 5.9645051-5.4929937 0-3.0882424-2.3271192-5.264582-5.9645051-5.264582-3.5257222 0-5.9205524 2.4249116-5.9205524 5.5134809zm9.0388209-.1246674c0 2.2180771-1.1308921 3.7521182-3.1182685 3.7521182-1.965994 0-3.0956981-1.5545284-3.0956981-3.7521182 0-2.2176411 1.1297041-3.7513552 3.0956981-3.7513552s3.1182685 1.5337141 3.1182685 3.7513552z"/><path d="m38.0283085 60.886728c.8472737 0 1.675436.2073794 2.3220396.5183941l.5850223-1.6787599c-.9077932-.3732393-1.8368214-.5596955-3.1300286-.5596955-3.1098555 0-5.3915487 2.3419816-5.3915487 5.3270247 0 3.5858223 2.2010005 5.430551 4.9679118 5.430551 1.4938773 0 2.6458723-.3316109 3.6757664-1.0569485l-.5659109-1.534041c-.7071232.5180671-1.5352854.7253376-2.3825591.7253376-1.8378832 0-3.19161-1.18118-3.19161-3.813798 0-2.0521081 1.1509332-3.3580645 3.1109172-3.3580645z"/><path d="m46.0644743 70.6080468c-.0666229-1.8779688-.1332458-3.6111112-.1332458-5.1589628 1.4002496 1.6716319 3.7565963 4.0649004 5.3356759 5.550916l2.7560841-.9699566c-1.622326-1.3206858-4.0675032-3.6317233-5.4911294-5.2207988 1.4668726-1.3203604 3.778804-3.2394447 5.1358073-4.4361331h-3.0237445c-1.0671352 1.072908-3.3124438 3.1364932-4.7126934 4.415738 0-4.5602389.0222076-6.7887199.1332458-9.9252131h-2.8460835c.1110382 3.1364932.1332458 4.9523006.1332458 8.1299093 0 2.9715973-.0222076 4.6843447-.1332458 7.6145011z"/><path d="m58.1930751 63.1959377c0-3.2567145.0239609-5.1177259.1517525-8.3323013h-3.2413793c.1264604 3.2145754.1517524 5.0755868.1517524 8.3323013 0 3.0455745-.025292 4.8009604-.1517524 7.8040623h3.2413793c-.1277916-3.0031019-.1517525-4.7584878-.1517525-7.8040623z"/><path d="m68.9515897 64.937363c0-2.3128589.0219818-3.5252446.1978356-5.7706963l-1.8927425.5837631c-.8144808-.2693928-1.5849982-.4039712-2.7511868-.4039712-3.3886568 0-6.1606684 2.469749-6.1606684 6.129572 0 3.5703402 2.0234759 5.5239694 4.2459443 5.5239694 1.4750896 0 2.8830771-.6510523 3.7415214-2.0657778l.1978356 1.8190508h2.5533512c-.1318904-2.4253617-.1318904-3.4356438-.1318904-5.81591zm-7.9006957 0c0-2.4926509 1.5618596-3.8621627 3.3446934-3.8621627.7924991 0 1.3420423.1123847 1.9147242.3817775.0439635.5612154.0659452 1.976177.0659452 3.2558519 0 .8982515-.0219817 1.9085336-.0659452 2.6047995-.7045722 1.1449785-1.5618596 1.5943994-2.5302126 1.5943994-1.5630165 0-2.729205-1.2126218-2.729205-3.9746656z"/><path d="m74.8533747 59.4206152h-2.4625701c.106049 2.1386897.1272588 3.13411.1272588 5.2940641 0 2.0116598-.0212098 3.2188338-.1272588 5.2095631h2.7170878c-.0848392-1.5250271-.106049-2.414348-.106049-3.9389298 0-1.1859095.0212098-2.4987377.106049-3.3671281.6374105-.9950863 1.5293386-1.4611225 2.4212668-1.4611225 1.125236 0 1.8463694.6774558 1.932325 2.0538546.0424196.6991656.0636294 2.0119938.0636294 3.2400982 0 1.3763988-.0212098 2.1386897-.1060491 3.4732276h2.695878c-.106049-1.4189276-.106049-2.2025943-.106049-3.6001462 0-1.1433807.0636294-1.9694649.0636294-3.3458637 0-2.4140139-1.4009635-3.8115658-3.4393375-3.8115658-1.5505484 0-2.6969943.6561914-3.5677126 1.9691309z"/><path d="m91.1655683 54.8636364c.0896309 2.1055389.1338643 3.7319882.1338643 5.5249297-.5319652-.1250609-1.0848831-.2084714-1.9043656-.2084714-3.4094664 0-6.1996647 2.2930755-6.1996647 5.6910931 0 3.3149359 2.0370659 5.1288122 4.2731823 5.1288122 1.484148 0 2.9007819-.6044793 3.7644978-1.9180024l.1990505 1.688925h2.5678671c-.1105836-2.9604688-.1327003-4.6909346-.1327003-7.6932731 0-3.210481 0-5.0450729.1327003-8.2140131zm-5.2463178 10.5074174c0-2.3143391 1.5714508-3.585883 3.3652329-3.585883.7973658 0 1.3724004.1043453 1.948599.3544671.0221168.6460201.0430694 1.8348112.0430694 3.0229445 0 .8339951-.0209526 1.7720067-.0663501 2.4184652-.7077349 1.0630725-1.5714509 1.480344-2.5457504 1.480344-1.5714509 0-2.7448008-1.1258769-2.7448008-3.6903378z"/></g></svg>