<svg height="81" viewBox="0 0 85 81" width="85" xmlns="http://www.w3.org/2000/svg"><g fill="#8e8e8e" fill-rule="evenodd"><path d="m60.5051702 62.514533c.5502394.292324.7446543.9145307.7333511 1.5037039.0113032 2.4449329-.0013564 4.8903184.0058776 7.3352514-.0040691.3819218-.0158244.7796815-.1686436 1.1367151-.1085106.2543128-.3653191.3873519-.5651596.5593072 1.0493883.0140279 2.1005852.0099553 3.1513298.0022626-.2147606-.1782905-.4665957-.3425531-.5642553-.6167766-.1677393-.4457262-.1794947-.9294636-.1849202-1.3982681.0009043-2.4883743 0-4.9758436.0009043-7.4628603.457101-.0099554.9151063-.0543017 1.3726595-.0244358.5719415.0371061 1.140266.3208324 1.4567553.809095.4557447.7081843.3124203 1.7331285-.3133244 2.2956033-.5895745.5425643-1.3875798.7715363-2.1598138.8986928.7541489 1.1281173 1.4373138 2.3078212 2.3013297 3.3585586.4335905.5262738.8549734 1.0643129 1.3184043 1.5661509.44625.4724245 1.1221808.5869106 1.7443085.5774078 1.427367-.0031676 2.8551862.0171955 4.2834575-.0104078-.2509309-.2126816-.5493352-.3923296-.7003458-.6968715-.23375-.4326034-.2030053-.9407766-.2147606-1.4163688 0-2.3906312-.0031649-4.78081.0022606-7.1714413.8468351-.0755698 1.7809309-.1764805 2.542766.2891564 1.0249734.6213017 1.0177393 2.2164134.2301329 3.028676-.5832446.6498101-1.4531383.905933-2.2895744 1.0240391 1.3016755.517676 2.8881915.1552123 3.8869415-.8113575.8020744-.7602235 1.0602393-2.0268101.6139893-3.0395363-.2893617-.6651956-.8906915-1.1516481-1.5544149-1.4118436-.8056915-.3339553-1.6918617-.3371229-2.5481915-.3362179-1.0955053.0076927-2.1919149-.0126704-3.2860638.0117654.2134043.180553.4684043.3488882.5642553.6285419.1541756.4135977.1614096.8624916.1654788 1.2996201-.0031649 2.3358771.0022606 4.6735642-.0031649 7.0098938-.0189894.3742291-.0180851.7995922-.2708245 1.1036816-.2102394.2402849-.5398404.1040782-.7541489-.0497765-.7609309-.5380392-1.4336969-1.196447-2.0169415-1.9209218-.7084841-.8964302-1.4174202-1.7924079-2.1281649-2.687933 1.0403457-.2511452 2.0273404-.9584246 2.390851-1.9951341.31875-.891905.0872607-1.9779385-.6492553-2.5956201-.8264893-.7285475-1.9880053-.8222179-3.0396542-.8059274-1.1181117.0072403-2.2357713-.0099553-3.3534309.0135755m-32.9641755-.0009051c.2147606.210419.4864893.3764917.6311702.6498101.2188298.3868994.2039096.8475586.2134042 1.2778994.0031649 2.1983129.0013564 4.3961732 0 6.5944861-.0103989.4357709.0203458.9027653-.1867287 1.3036927-.14875.306352-.4494149.486-.6926595.7081844.991968.0181005 1.9843882.0135754 2.9768085.00181-.2115958-.212229-.4769947-.3760391-.6329788-.6366871-.2767021-.4434637-.2572606-.9846704-.2667553-1.4869609-.0022606-2.0512458-.0013564-4.1024917-.0013564-6.1537375 1.947766 2.4833967 3.9461702 4.9301397 6.0811171 7.255609.5353191.5498044 1.048484 1.1444078 1.7135638 1.5430726.0094947-3.0431564-.0009043-6.0858603.0040691-9.1294693.0108511-.4316983-.0113032-.8964301.2170213-1.2815195.1550798-.2751285.4331383-.4412011.6659841-.6421173-.9910639-.0244358-1.9848405-.0212682-2.9759043-.0009051.2473138.209514.5389362.3923296.6926596.6900838.2369149.4412011.2061702.9588771.2179255 1.4439721 0 1.8865307.0009043 3.7730614 0 5.6604972-1.6597606-2.0204749-3.3181649-4.0418547-4.9770213-6.0623296-.4525798-.5647374-.9557978-1.0964413-1.2939893-1.7421788-.7957447-.00181-1.5914894-.0122179-2.3863298.0067877m-10.9030585.0009051c.2278723.1764804.4991489.342553.5904787.6357821.2030053.5851005.1378989 1.2145475.1478457 1.8218212.0063298 1.6322179-.0194415 3.2648883.010399 4.8966536.0126595.969285.329601 2.0078045 1.1339361 2.6087431.9336437.6796759 2.1344947.858419 3.2639096.8421285 1.0403458-.0362012 2.1363032-.2466202 2.9727394-.905933.7491755-.6127039 1.0362766-1.6123073 1.0466755-2.5476536.0293883-1.6290503.0063298-3.2585531.0135638-4.8876034.0108511-.6176816-.0560638-1.2620614.1618617-1.8534972.095399-.276486.350399-.4393911.5683245-.6104413-1.0340159-.0181006-2.0689362-.0181006-3.1025 0 .2084309.1583798.4516755.3031843.5565692.5561396.1731649.3959497.1849202.8389609.1944149 1.264324 0 1.2398883-.0031649 2.4797766-.0040692 3.7210224-.0076862.9186033.0583245 1.8801955-.3069947 2.7467598-.2721808.6584078-.882101 1.1588882-1.5851595 1.2824246-.8536171.1497821-1.84875.0796424-2.4971011-.5615699-.6352394-.6176815-.7713298-1.5534804-.7903192-2.399229-.010851-1.5584581.0009043-3.1187263-.0067819-4.6785419 0-.4502514.0045213-.9136257.17-1.3389889.099016-.2710558.354016-.4285307.5728458-.5923407-1.0371809-.0171956-2.0739096-.0181006-3.1106383 0m25.8567287.0257933c-1.50875.4642793-2.7751596 1.6512234-3.300984 3.1454245-.5411969 1.5426201-.4792554 3.3219051.2568085 4.7907654.6917553 1.3792626 2.0879255 2.2915307 3.57 2.6168883 1.4336968.3104246 2.9944415.3362178 4.3585106-.2669833.2794149-.6403072.5714894-1.2760894.8382447-1.9227318-.9924202.5000279-2.0368351.972905-3.16625 1.0231341-1.1985904.1009106-2.4319947-.3764917-3.2245745-1.2864972-1.1994947-1.3634246-1.4694149-3.4744023-.6745745-5.1025475.5244681-1.0774358 1.6434841-1.8077933 2.8303192-1.9055363 1.2026596-.1330391 2.3854255.2954916 3.4063298.9018603.0022606-.6253743.0022606-1.2493911 0-1.8738603-1.5914894-.3914246-3.3018883-.6421174-4.8938298-.1199162m10.5739096-.2448101c-1.8220745.2529553-3.5017288 1.4145587-4.3399734 3.0594469-.5909309 1.1335475-.7247607 2.4797766-.4263564 3.7187598.2902659 1.2439609 1.0466755 2.3671006 2.0847606 3.1092235 1.2948936.940324 2.9727394 1.2824245 4.5461436 1.0516424 1.4911171-.2090614 2.9031117-.9982458 3.8191224-2.2019329 1.0525532-1.3539218 1.4083776-3.2200894.920984-4.8654302-.3996808-1.3643296-1.3726596-2.5372458-2.61375-3.2196369-1.2049202-.6742458-2.6372606-.8385084-3.9909308-.6520726m-42.6410639-1.8557598c-.83734039.2416425-1.63218081.7434805-2.08249996 1.5068715-.56968085.9679274-.59409575 2.2897207.09675532 3.2051565.75957447 1.0131787 1.93148934 1.5666033 2.99896274 2.1874525.8373404.4764972 1.7492819.925391 2.3252926 1.7299609.3843085.5117933.4778989 1.2688491.1112234 1.816391-.4014894.6276369-1.1560904.9285587-1.8731649.986028-1.6841755.1316815-3.36156916-.5584023-4.58683512-1.6964749.15191489.8018547.32010638 1.6005419.48242021 2.4001341 1.32518617.5733352 2.78375001.7584134 4.21699471.7348827 1.1031915-.0402738 2.23125-.4805699 2.9388298-1.3525643.6230319-.7484581.839601-1.7842626.6492553-2.7318268-.1478458-.7986872-.6320745-1.5059665-1.2569149-2.0118771-1.1940692-1.0104637-2.7272341-1.4856033-3.9846011-2.398324-.58821806-.4154078-1.0579787-1.1557207-.8242287-1.894676.23917553-.7805866 1.0814894-1.1602458 1.8338298-1.2453184 1.324734-.1606425 2.7466755.2868938 3.6559042 1.2855921-.0094946-.7357877.0013564-1.4706703-.0054255-2.2064581-1.4915691-.5317039-3.152234-.7421229-4.6957979-.3149497m36.8452394-19.409229c.9476596 1.3738324 1.9070745 2.7444972 2.7516489 4.1875642 2.4387766 4.082581 4.3191756 8.4968548 5.5846809 13.0799162 2.1855851-1.198257 4.2020745-2.7060335 5.9735106-4.4599776-4.7685904-4.2717319-9.5294947-8.5507039-14.3098404-12.8075028m2.6327394-4.0228492c5.5399202 3.3463408 11.1019946 6.6546704 16.6455319 9.9951285-5.9301064-2.6150782-11.8480053-5.2568547-17.7767553-7.874648 4.2698936 4.9034413 8.5443085 9.8014525 12.8083244 14.7098715 4.0384043-3.9708101 6.7850798-9.2376201 7.6965692-14.8325028-6.4568351-.6769609-12.9145745-1.3407989-19.3736702-1.9978492m-38.6822341-11.938676c.4760904 2.3001285 1.2876596 4.5310224 2.4053192 6.5972012 1.7777659 3.2712234 4.3702659 6.0677597 7.405851 8.2063407 2.3673405 1.7163855 5.1135639 2.8603408 7.9475 3.5400168 2.7846543.6538827 5.6873139.8231229 8.5262234.455229 2.3673405-.2882514 4.6709309-.9665698 6.8714362-1.8738603-3.4339096-4.7342011-7.5333511-8.9846648-12.1540957-12.5672179-6.342899-4.9387374-13.6669149-8.6009329-21.4123139-10.7395139-.2115957 2.1308882-.0094946 4.2880223.4100798 6.3818044m50.6355851-9.4530167c-4.3404255 4.8215363-8.6740691 9.6475977-13.0009308 14.4804469 5.9364361-2.5105475 11.8584042-5.055486 17.7980053-7.5574358-1.2442553.7688213-2.5296543 1.4706704-3.789734 2.2141509-4.0623671 2.349905-8.124282 4.69981-12.1857447 7.0510726-.2296809.1298715-.4665958.2511453-.6682447.4221955 6.3939894-.5285363 12.7848138-1.1131843 19.1778989-1.6598212-1.0073404.2574805-2.0327659.4393911-3.0473404.6679106-5.2803989 1.1249497-10.5603457 2.2553296-15.8430053 3.3762067 1.2578191.3294302 2.5341755.5891732 3.7987766.891 5.0624734 1.1548157 10.1159042 2.348095 15.1838032 3.4784749.7080319-4.4002458.3359308-8.9738045-1.119016-13.1894246-1.3021276-3.8092626-3.481383-7.307648-6.3044681-10.1747765m-38.3056117-.2506928c-1.7330053 1.7715922-3.2702393 3.740028-4.4950532 5.8976146 4.1500798 1.1982569 8.1523139 2.9096648 11.8873405 5.0817318 1.8668351 1.0729106 3.6432446 2.2942458 5.3821276 3.5594749-4.0989893-4.727866-8.2169681-9.4407989-12.3204787-14.1659498-.1275-.1520446-.2920745-.2633631-.4539362-.3728715m31.5105851-4.7844301c-2.6548936 5.929743-5.2686436 11.8780391-7.9013829 17.8172849 4.9033244-4.2545363 9.7799734-8.5412011 14.6964095-12.782162-1.9902659-2.0136872-4.2915957-3.7142347-6.7950266-5.0351229m-8.0320478-2.67662014c-.65875 6.44334634-1.3473405 12.88443014-1.9893617 19.32958664 1.0394414-1.6661565 2.0241755-3.367609 3.0419148-5.0468883 2.3194149-3.8717095 4.6442554-7.7407039 6.9596011-11.614676-2.5120213-1.29826257-5.2252393-2.19605027-8.0121542-2.66802234m-17.1161969 2.79698884c-2.302234 1.2068547-4.3964893 2.7847709-6.2737234 4.5789888.0434043.0230782.1306649.0692346.1740692.0914078.0194415.0416313.056516.1244414.0755053.1660727 4.7459841 4.2599664 9.4806649 8.5344134 14.2311702 12.7894022-2.4989095-5.9220503-5.0416755-11.8273575-7.5247606-17.7571006.3124202.4638269.5651596.9656648.8545213 1.4444246 2.9419946 5.0577486 5.8500798 10.1363129 8.811968 15.1813911-.0085904-.3488883-.0465691-.695514-.0773138-1.0425922-.5050266-5.7030335-1.0105053-11.406067-1.5155319-17.10910056-.0379787-.39956983-.0750532-.79959218-.0791223-1.20142458-3.0251862.45613408-5.978032 1.41320112-8.676782 2.85853074m8.7021011-2.85853074c.0723404.55613966.2079787 1.10141899.3219149 1.65031843.7713298 3.60382121 1.5417553 7.20764251 2.3130851 10.81191621.4792553 2.1756871.9038032 4.3649497 1.4183245 6.5311341 1.4513298-6.3057821 2.9126064-12.6097542 4.3381649-18.92096651-2.7688298-.46925698-5.6140692-.48509497-8.3914894-.07240223m-35.49066488-7.84251955h78.82484038c.9223405.24571508 1.7922341.76429609 2.3488032 1.55257541.3336702.43577095.5280851.95389945.6994415 1.46931285v74.54624583c-.2699202.9919106-.8585904 1.9173017-1.7402393 2.4689162-.5443617.3805642-1.1985905.5253687-1.8329256.6756033h-77.63574465c-1.15925532-.1425419-2.30494681-.6851061-2.98675532-1.6611787-.45800532-.5851006-.64835106-1.3122905-.8043351-2.025v-73.44844696c.15191489-.65931285.30925532-1.33672626.71390957-1.89377095.54843085-.85298883 1.45223404-1.41003352 2.41300532-1.68425698"/><path d="m56.5091755 64.3457212c1.6529788 1.5186369 2.0345745 4.2952626.7767554 6.170933-1.0882713 1.6195475-3.4840958 2.0707039-5.1321011 1.0729106-2.0535638-1.2462235-2.7548138-4.2079274-1.5630053-6.2750112.5357712-.941229 1.5024202-1.6046145 2.5617553-1.8046257 1.1678457-.2425475 2.465.014933 3.3565957.8357933z"/></g></svg>