<?xml version="1.0" encoding="UTF-8" standalone="no"?>
<!DOCTYPE svg PUBLIC "-//W3C//DTD SVG 1.1//EN" "http://www.w3.org/Graphics/SVG/1.1/DTD/svg11.dtd">
<svg width="100%" height="100%" viewBox="0 0 1692 1554" version="1.1" xmlns="http://www.w3.org/2000/svg" xmlns:xlink="http://www.w3.org/1999/xlink" xml:space="preserve" xmlns:serif="http://www.serif.com/" style="fill-rule:evenodd;clip-rule:evenodd;stroke-linejoin:round;stroke-miterlimit:1.5;">
    <g transform="matrix(1,0,0,1,-383.823,-649.822)">
        <g transform="matrix(0.765702,0,0,0.765702,276.88,300.72)">
            <path d="M1838.46,618.391C1895.24,465.152 1835.96,337.454 1646.34,639.35C1456.71,941.245 1437.21,871.016 1433.19,748.141C1429.17,625.266 1372.3,653.495 1241.83,884.464C1111.36,1115.43 977.326,1168.08 1019.64,862.089C1061.95,556.1 902.972,491.964 762.065,1285.94C621.159,2079.92 738.868,1956.73 907.67,1847.8C1076.47,1738.87 1092.5,1793.77 1056.09,2084.32C1019.67,2374.87 1157.06,2560.13 1317.92,2068.97C1478.78,1577.82 1781.68,771.631 1838.46,618.391Z" style="fill:rgb(255,216,223);"/>
        </g>
        <g transform="matrix(-0.582275,-0.497249,-0.497249,0.582275,2962.28,1296.35)">
            <path d="M1838.46,618.391C1895.24,465.152 1835.96,337.454 1646.34,639.35C1456.71,941.245 1437.21,871.016 1433.19,748.141C1429.17,625.266 1372.3,653.495 1241.83,884.464C1111.36,1115.43 977.326,1168.08 1019.64,862.089C1061.95,556.1 902.972,491.964 762.065,1285.94C621.159,2079.92 738.868,1956.73 907.67,1847.8C1076.47,1738.87 1092.5,1793.77 1056.09,2084.32C1019.67,2374.87 1157.06,2560.13 1317.92,2068.97C1478.78,1577.82 1781.68,771.631 1838.46,618.391Z" style="fill:rgb(255,216,223);"/>
        </g>
        <g transform="matrix(-0.646841,-0.00230318,-0.00230318,0.646841,3169.84,452.996)">
            <g opacity="0.89851">
                <g transform="matrix(1.04602,0.45713,-0.45713,1.04602,-252.349,-1458.49)">
                    <path d="M2748.2,1191.13C2748.2,1191.13 2785.79,1210.95 2830.56,1194.32C2859.17,1183.68 2921.78,1167.66 2963.27,1157.48C2986.72,1151.72 3003.42,1147.83 3003.42,1147.83L3070.32,1211.49L3060.89,1245.08L3032.55,1258.63L2811.79,1258.63L2765.03,1241.41L2748.2,1191.13Z" style="fill:rgb(199,32,39);"/>
                </g>
                <g transform="matrix(-0.494077,-0.604644,-0.604644,0.494077,4085.19,2003.21)">
                    <path d="M2331.15,1427.14C2331.15,1427.14 2366.5,1480.11 2451.47,1438.3C2472.43,1443.14 2481.99,1479.25 2466.82,1485.44C2451.65,1491.63 2381.71,1545.54 2312.71,1482.53C2306.56,1476.91 2331.15,1427.14 2331.15,1427.14Z" style="fill:rgb(199,32,39);"/>
                </g>
                <g transform="matrix(0.710872,-0.16638,0.16638,0.710872,380.15,979.783)">
                    <path d="M1547.55,1719.12C1547.55,1719.12 1607.55,2215.27 1746.22,2255.3C1826.04,2278.34 1925.39,2028.29 1925.39,2028.29L1547.55,1719.12Z" style="fill:rgb(199,32,39);"/>
                </g>
                <g transform="matrix(1.18359,0.239991,-0.239991,1.18359,-36.6999,-816.229)">
                    <path d="M2280.73,2000.06C2280.73,2000.06 2600.72,1834.03 2513.15,1518C2484.56,1414.83 2512.23,1715.18 2177.24,1797.45L2280.73,2000.06Z" style="fill:rgb(199,32,39);"/>
                </g>
                <g transform="matrix(-0.359444,0.829767,-0.829767,-0.359444,3961.11,-172.205)">
                    <path d="M2150.95,832.04C2150.95,832.04 2160.98,793.541 2169.9,793.541C2178.81,793.541 2199.5,840.361 2199.5,840.361L2150.95,832.04Z" style="fill:rgb(179,26,34);"/>
                </g>
                <g transform="matrix(0.0112525,-0.929101,-0.929101,-0.0112525,3290.89,3133.55)">
                    <path d="M2150.95,832.04C2150.95,832.04 2160.98,793.541 2169.9,793.541C2178.81,793.541 2199.5,840.361 2199.5,840.361L2150.95,832.04Z" style="fill:rgb(179,26,34);"/>
                </g>
                <g transform="matrix(1.12431,0.197651,-0.197651,1.12431,-760.884,-741.716)">
                    <path d="M2713.2,1970.49L2887.7,2021.02C2887.7,2021.02 2888.48,2051.2 2885.51,2086.76C2782.34,2101.66 2706.78,2073.49 2661.69,2047.38C2650.71,2032.14 2640.48,2017.25 2631.35,2003.53L2587.79,1934.18L2713.2,1970.49Z" style="fill:rgb(179,26,34);"/>
                </g>
                <g transform="matrix(0.821183,0.756862,-0.756862,0.821183,1323.38,-1385.5)">
                    <path d="M2150.95,832.04C2150.95,832.04 2160.98,793.541 2169.9,793.541C2178.81,793.541 2199.5,840.361 2199.5,840.361L2150.95,832.04Z" style="fill:rgb(179,26,34);"/>
                </g>
                <g transform="matrix(0.863316,0,0,0.863316,399.986,298.753)">
                    <path d="M1984.9,1063.01C1994.71,1059.03 2294.34,1079.4 2292.45,1067.94C2274.54,959.536 2213.41,872.213 2190.53,773.271C2184.27,746.196 2269.3,662.166 2301.06,660.007C2339.26,657.41 2457.56,777.718 2478.97,812.728C2498.98,845.434 2493.33,1030.24 2490.66,1038.38C2486.93,1049.72 2307.48,1510.5 2316.6,1559.07C2325.72,1607.65 2446.68,1743.58 2438.18,1786.98C2429.67,1830.38 2313.34,2112.48 1923.7,2112.48C1758.74,2112.48 1498.09,1988.8 1554.13,1630.31C1593.71,1377.13 1831.19,1125.43 1984.9,1063.01Z" style="fill:rgb(230,35,44);"/>
                </g>
                <g transform="matrix(1.04602,0.45713,-0.45713,1.04602,-252.349,-1458.49)">
                    <path d="M2825.03,1289.75L2940.01,1295.33L2965.65,1315.78C2965.65,1315.78 2934.23,1345.96 2924.74,1348.57C2885.68,1359.32 2831.91,1322.99 2831.91,1322.99C2836.54,1315.5 2807.44,1302.44 2811.62,1295.08L2814.78,1292.21C2816.88,1291.5 2820.38,1290.68 2825.03,1289.75Z" style="fill:rgb(199,32,39);"/>
                </g>
                <g transform="matrix(0.752888,0.586332,-0.586332,0.752888,1334.99,-910.6)">
                    <path d="M1859.99,1134.95C1856.51,1146.1 1887.22,1225 1908.49,1235.87C1944.69,1254.38 1983.24,1267.9 2063.63,1244.35C2144.03,1220.81 2146.31,1241.75 2146.31,1241.75C2146.31,1241.75 2220.38,1162.05 2216.7,1125.1C2215.92,1117.22 2183.99,1097.47 2178.57,1097.43C2178.57,1097.43 2059.53,1158.17 2034.62,1152.01C2016.5,1147.52 1988.62,1113.96 1988.62,1113.96C1988.62,1113.96 1962.16,1169.91 1923.95,1172.4C1901.88,1173.84 1864.17,1121.54 1859.99,1134.95Z" style="fill:rgb(230,35,44);"/>
                </g>
                <g transform="matrix(1.04602,0.45713,-0.45713,1.04602,-252.349,-1458.49)">
                    <path d="M2814.22,1223.34C2832.89,1213.2 2847.11,1196.03 2847.11,1196.03C2847.11,1196.03 2852.99,1208.42 2860.72,1219.7C2847.23,1225.88 2836.77,1240.5 2831.07,1240.27C2825.88,1240.07 2820.97,1232.9 2814.22,1223.34Z" style="fill:rgb(199,32,39);"/>
                </g>
                <g transform="matrix(0.297841,0.49622,-0.694354,0.416765,2355.91,-624.218)">
                    <circle cx="2245.98" cy="1003.99" r="48.769" style="fill:rgb(199,32,39);"/>
                </g>
                <g transform="matrix(0.752888,0.586332,-0.586332,0.752888,1350.06,-956.014)">
                    <path d="M2247,1073.83C2245,1068.15 2189.35,1030.41 2179.28,1014.95C2137.63,951.012 1981.94,924.69 1945.62,923.042C1900.52,920.995 1855.05,947.292 1834.34,999.753C1813.63,1052.21 1806.84,1079.62 1810.31,1094.34C1816.45,1120.36 1837.4,1169.46 1840.65,1172.67C1855.2,1187.07 1854.81,1125.86 1917.88,1146.34C1958.92,1159.66 1980.39,1195.52 1993.63,1192.69C2002.28,1190.84 2012.82,1157.77 2035.86,1153.24C2052.26,1150.02 2142.03,1112.13 2180.01,1092.79C2189.94,1087.72 2222.47,1115.32 2234.63,1101.82C2243.69,1091.75 2249.66,1081.4 2247,1073.83Z" style="fill:rgb(230,35,44);"/>
                </g>
                <g transform="matrix(0.738182,0.457805,-0.457805,0.738182,1233.81,-693.781)">
                    <path d="M1872.44,974.48C1872.44,974.48 1859.51,928.98 1846.99,935.418C1834.46,941.855 1821.08,957.969 1823.87,969.855C1826.66,981.742 1864.25,985.109 1864.25,985.109L1872.44,974.48Z" style="fill:rgb(230,35,44);"/>
                </g>
                <g transform="matrix(-0.445411,-0.951596,-0.951596,0.445411,4000.85,2317.97)">
                    <path d="M1872.44,974.48C1872.44,974.48 1857.61,939.235 1845.08,945.672C1832.56,952.11 1821.08,957.969 1823.87,969.855C1826.66,981.742 1864.25,985.109 1864.25,985.109L1872.44,974.48Z" style="fill:rgb(199,32,39);"/>
                </g>
                <g transform="matrix(-0.368231,-0.786704,-0.786704,0.368231,3695.73,2082.3)">
                    <path d="M1872.44,974.48C1872.44,974.48 1859.51,928.98 1846.99,935.418C1834.46,941.855 1821.08,957.969 1823.87,969.855C1826.66,981.742 1864.25,985.109 1864.25,985.109L1872.44,974.48Z" style="fill:rgb(230,35,44);"/>
                </g>
                <g transform="matrix(0.590547,0.228072,-0.335934,0.869832,1465.15,-362.063)">
                    <circle cx="2245.98" cy="1003.99" r="48.769" style="fill:rgb(199,32,39);"/>
                </g>
                <g transform="matrix(0.765906,0.397445,-0.397445,0.765906,1147.17,-672.532)">
                    <path d="M2287.5,979.957L2287.33,1027.61L2230.12,1031.4L2197.15,987.24C2225.27,983.67 2259.93,980.119 2287.5,979.957Z" style="fill:rgb(230,35,44);"/>
                </g>
                <g transform="matrix(0.537632,0.500825,-0.500825,0.537632,1696.51,-598.716)">
                    <path d="M2044.22,890.483C2044.22,890.483 2011.63,871.226 2014.57,869.264C2023.18,863.521 2032.81,861.332 2041.87,863.94C2047.99,865.703 2053.17,869.459 2057.19,874.624L2044.22,890.483Z" style="fill:rgb(230,35,44);"/>
                </g>
                <g transform="matrix(0.473046,0.0647695,-0.0810896,0.59224,1961.49,-103.257)">
                    <path d="M1279.23,1730.65C1291.48,1731.81 1376.2,1740.74 1424.34,1770.77C1419.08,1777.48 1413.24,1783.4 1406.98,1788.39C1394.1,1784.61 1379.85,1781.15 1364.4,1778.43C1307.51,1768.42 1286.96,1745.73 1280.44,1735.59C1280.01,1733.96 1279.61,1732.31 1279.23,1730.65Z" style="fill:rgb(179,26,33);"/>
                </g>
                <g transform="matrix(0.473046,0.0647695,-0.0810896,0.59224,1961.49,-103.257)">
                    <path d="M1275.94,1728.16C1275.94,1728.16 1306.9,1754.76 1364.4,1762.07C1421.91,1769.38 1438.4,1790.57 1438.4,1790.57C1438.4,1790.57 1457.66,1778.93 1419.31,1750.92C1380.96,1722.9 1275.94,1728.16 1275.94,1728.16Z" style="fill:rgb(199,32,39);"/>
                </g>
                <g transform="matrix(-0.0256764,-0.476768,-0.596901,0.0321462,3414.32,1480.32)">
                    <path d="M1279.23,1730.65C1289.58,1731.63 1351.57,1738.14 1399.6,1758.23C1408.46,1761.93 1390.99,1783.96 1382.3,1782.01C1376.53,1780.72 1370.56,1779.52 1364.4,1778.43C1307.51,1768.42 1286.96,1745.73 1280.44,1735.59C1280.01,1733.96 1279.61,1732.31 1279.23,1730.65Z" style="fill:rgb(179,26,33);"/>
                </g>
                <g transform="matrix(-0.0256764,-0.476768,-0.596901,0.0321462,3414.32,1480.32)">
                    <path d="M1275.94,1728.16C1275.94,1728.16 1306.9,1754.76 1364.4,1762.07C1384.12,1764.58 1398.78,1769.83 1398.78,1769.83C1398.78,1769.83 1401.9,1763.83 1400.55,1758.32C1397.84,1747.34 1386.01,1732.62 1356.89,1731.38C1316.34,1729.66 1275.94,1728.16 1275.94,1728.16Z" style="fill:rgb(199,32,39);"/>
                </g>
                <g transform="matrix(1.14155,0,0,1.14155,-1107.78,-212.937)">
                    <path d="M3036.2,1969.97C2976.57,2012.41 2892.31,2045.85 2775.65,2045.85C2767.46,2045.85 2759.5,2045.61 2751.76,2045.13C2927.3,2029.76 2931.46,1916.8 2931.46,1916.8L3012.49,1896.25L3036.2,1969.97Z" style="fill:rgb(199,32,39);"/>
                </g>
                <g transform="matrix(0.445797,-0.578175,0.578175,0.445797,484.682,2138.15)">
                    <path d="M1643.7,1766.21C1643.7,1766.21 1595.26,2279.52 1832.51,2240.77C1914.5,2227.38 2051.36,1899.78 2051.36,1899.78L1643.7,1766.21Z" style="fill:rgb(230,35,44);"/>
                </g>
                <g transform="matrix(1.14155,0,0,1.14155,-1136.19,-172.866)">
                    <path d="M2960.97,1418.03C2960.97,1418.03 3000.07,1520.06 3019.88,1507.95C3037.51,1497.18 3054.27,1426.95 3046.83,1409.59C3039.42,1392.29 3012.88,1443.8 3007.26,1434.19C2978.85,1403.65 3001.86,1378.56 3000.79,1357.45C3000.08,1343.58 2984.95,1338.21 2975.69,1339.02C2952.64,1349.93 2949.86,1378.08 2960.97,1418.03Z" style="fill:rgb(199,32,39);"/>
                </g>
                <g transform="matrix(-0.0577821,-0.778696,-0.778696,0.0577821,3578.08,3190.77)">
                    <path d="M2364.5,1412.03C2364.5,1412.03 2369.27,1442.27 2440.91,1472.22C2460.75,1480.52 2463.58,1512.76 2448.41,1518.95C2433.24,1525.14 2397.28,1533.81 2326.97,1472.26C2319.84,1466.02 2364.5,1412.03 2364.5,1412.03Z" style="fill:rgb(230,35,44);"/>
                </g>
            </g>
        </g>
        <g transform="matrix(1,0,0,1,-114.078,-66.4223)">
            <g transform="matrix(1,0,0,1,-474.325,0)">
                <path d="M1318.06,832.04C1250.79,855.131 1313.26,1002.27 1339.42,1034.19C1365.57,1066.1 1433.62,1054.58 1469.42,987.26C1505.21,919.938 1447.33,934.656 1434.28,889.479C1421.23,844.302 1366.83,815.299 1318.06,832.04Z" style="fill:rgb(255,216,223);"/>
            </g>
            <g transform="matrix(1,0,0,1,-1115.95,0)">
                <path d="M2150.95,832.04C2150.95,832.04 2160.98,793.541 2169.9,793.541C2178.81,793.541 2199.5,840.361 2199.5,840.361L2150.95,832.04Z" style="fill:rgb(179,26,34);"/>
            </g>
            <g transform="matrix(0.498841,0.866694,-0.866694,0.498841,869.042,-1337.61)">
                <path d="M2150.95,832.04C2150.95,832.04 2160.98,793.541 2169.9,793.541C2178.81,793.541 2199.5,840.361 2199.5,840.361L2150.95,832.04Z" style="fill:rgb(179,26,34);"/>
            </g>
            <g transform="matrix(0.386228,0.922403,-0.922403,0.386228,1184.35,-1120.32)">
                <path d="M2150.95,832.04C2150.95,832.04 2160.98,793.541 2169.9,793.541C2178.81,793.541 2199.5,840.361 2199.5,840.361L2150.95,832.04Z" style="fill:rgb(179,26,34);"/>
            </g>
            <g transform="matrix(1,0,0,1,-1115.95,0)">
                <path d="M2280.73,2000.06C2280.73,2000.06 2600.72,1834.03 2513.15,1518C2484.56,1414.83 2512.23,1715.18 2177.24,1797.45L2280.73,2000.06Z" style="fill:rgb(199,32,39);"/>
            </g>
            <g transform="matrix(0.325396,-0.945578,0.945578,0.325396,-1523.54,3186.14)">
                <g transform="matrix(0.369622,0.929182,-0.929182,0.369622,3041.73,-1842.44)">
                    <path d="M2866.45,1194.37L2907.48,1218.06L2907.48,1285.94L2848.69,1319.89" style="fill:none;stroke:rgb(179,26,34);stroke-width:12px;"/>
                </g>
                <g transform="matrix(1.12253,0,0,1.12253,-287.091,-124.424)">
                    <circle cx="2810.93" cy="1262.15" r="15.908" style="fill:rgb(179,26,34);"/>
                </g>
                <g transform="matrix(0.369622,0.929182,-0.929182,0.369622,3041.73,-1842.44)">
                    <path d="M2848.69,1319.89L2789.9,1285.94L2789.9,1218.06L2830.42,1194.66" style="fill:none;stroke:rgb(179,26,34);stroke-width:12px;"/>
                </g>
                <g transform="matrix(7.25768,0,0,7.25768,-14705.9,-9391.2)">
                    <path d="M2421.45,1472.26L2363.15,1495.52" style="fill:none;stroke:rgb(179,26,34);stroke-width:1.65px;stroke-linecap:round;"/>
                </g>
            </g>
            <g transform="matrix(1,0,0,1,-1115.95,0)">
                <path d="M1627.11,1723.21C1627.11,1723.21 1556.16,2270.17 1784.91,2270.17C1867.99,2270.17 1872.44,2066.86 1872.44,2066.86L1627.11,1723.21Z" style="fill:rgb(230,35,44);"/>
            </g>
            <g transform="matrix(1,0,0,1,-1115.95,0)">
                <path d="M1616.72,1927.08C1606.45,1791.55 1627.11,1723.21 1627.11,1723.21L1872.44,2066.86C1872.44,2066.86 1871.33,2117.45 1859.91,2168.17C1714.21,2155.09 1644.83,2011.28 1616.72,1927.08Z" style="fill:rgb(199,32,39);"/>
            </g>
            <g transform="matrix(-0.968748,-0.248048,-0.248048,0.968748,3392.61,553.685)">
                <path d="M2335.48,1378.91C2335.48,1378.91 2341.71,1489.12 2459.32,1438.71C2480.28,1443.55 2481.99,1479.25 2466.82,1485.44C2451.65,1491.63 2397.28,1533.81 2326.97,1472.26C2256.66,1410.72 2287.44,1401.1 2287.44,1401.1L2335.48,1378.91Z" style="fill:rgb(199,32,39);"/>
            </g>
            <g transform="matrix(-0.514658,-0.857395,-0.857395,0.514658,3169.29,2697.01)">
                <path d="M2421.45,1472.26L2363.15,1495.52" style="fill:none;stroke:rgb(179,26,34);stroke-width:20px;stroke-linecap:round;"/>
            </g>
            <g transform="matrix(1,0,0,1,-1115.95,0)">
                <path d="M2001.67,939.424C2001.67,939.424 2030,848.823 2052.85,840.065C2075.7,831.307 2165.71,831.483 2182.83,832.553C2199.96,833.624 2266.21,840.546 2280.6,848.694C2294.99,856.842 2382.93,994.69 2384.85,1027.4C2386.76,1060.11 2384.79,1268.18 2379.72,1316.89C2374.65,1365.61 2358.83,1480.94 2367.95,1529.51C2377.07,1578.09 2429.02,1740.55 2420.51,1783.96C2412.01,1827.36 2313.34,2112.48 1923.7,2112.48C1534.07,2112.48 1630.98,1702.81 1630.98,1702.81C1630.98,1702.81 1682.09,1520.63 1811.63,1382.59C1941.17,1244.55 2131.35,1059.1 2001.67,939.424Z" style="fill:rgb(230,35,44);"/>
            </g>
            <g transform="matrix(1,0,0,1,-1115.95,0)">
                <path d="M1887.67,1135.77C1887.67,1135.77 1887.22,1225 1908.49,1235.87C1944.69,1254.38 1983.24,1267.9 2063.63,1244.35C2144.03,1220.81 2146.31,1241.75 2146.31,1241.75C2146.31,1241.75 2217.11,1218.44 2191.71,1067.07L1887.67,1135.77Z" style="fill:rgb(230,35,44);"/>
            </g>
            <g transform="matrix(1,0,0,1,-1115.95,0)">
                <path d="M2011.19,1116.8L1983.52,1199.97C1945.26,1173.92 1922.48,1131.88 1889.06,1170.37C1887.59,1151.4 1887.67,1135.77 1887.67,1135.77L2011.19,1116.8Z" style="fill:rgb(199,32,39);"/>
            </g>
            <g transform="matrix(1,0,0,1,-1115.95,0)">
                <path d="M1982.69,1199.97C1982.69,1199.97 1991.62,1206.9 1997.29,1203.18C2013.53,1192.5 2028.93,1170.41 2036.87,1168.34C2083.42,1156.17 2117.97,1144.34 2142.8,1129.41C2169.21,1113.52 2184.61,1094.12 2191.71,1067.07L1993.63,1120.41L1982.69,1199.97Z" style="fill:rgb(199,32,39);"/>
            </g>
            <g transform="matrix(0.756933,0.217861,-0.304851,1.05917,-482.944,-637.106)">
                <circle cx="2245.98" cy="1003.99" r="48.769" style="fill:rgb(199,32,39);"/>
            </g>
            <g transform="matrix(0.652698,0,0,0.652698,-564.482,267.631)">
                <circle cx="2245.98" cy="1003.99" r="48.769" style="fill:rgb(239,229,255);"/>
            </g>
            <g transform="matrix(0.388304,0,0,0.480702,24.6185,455.42)">
                <circle cx="2245.98" cy="1003.99" r="48.769" style="fill:rgb(28,28,28);"/>
            </g>
            <g transform="matrix(0.194152,0,0,0.240351,460.68,675.007)">
                <circle cx="2245.98" cy="1003.99" r="48.769" style="fill:rgb(239,229,255);"/>
            </g>
            <g transform="matrix(1,0,0,1,-1115.95,0)">
                <path d="M2111.41,980.859C2111.41,980.859 1990.73,925.088 1945.62,923.042C1900.52,920.995 1855.05,947.292 1834.34,999.753C1813.63,1052.21 1806.84,1079.62 1810.31,1094.34C1816.45,1120.36 1837.4,1169.46 1840.65,1172.67C1855.2,1187.07 1854.81,1125.86 1917.88,1146.34C1958.92,1159.66 1980.39,1195.52 1993.63,1192.69C2002.28,1190.84 2012.82,1157.77 2035.86,1153.24C2062.16,1148.08 2161.17,1132.48 2187.41,1072.97C2213.64,1013.47 2111.41,980.859 2111.41,980.859Z" style="fill:rgb(230,35,44);"/>
            </g>
            <g transform="matrix(1,0,0,1,-1115.95,0)">
                <path d="M1872.44,974.48C1872.44,974.48 1859.51,928.98 1846.99,935.418C1834.46,941.855 1821.08,957.969 1823.87,969.855C1826.66,981.742 1864.25,985.109 1864.25,985.109L1872.44,974.48Z" style="fill:rgb(230,35,44);"/>
            </g>
            <g transform="matrix(-1.01318,-0.660757,-0.660757,1.01318,3418.68,1267.68)">
                <path d="M1872.44,974.48C1872.44,974.48 1857.61,939.235 1845.08,945.672C1832.56,952.11 1821.08,957.969 1823.87,969.855C1826.66,981.742 1864.25,985.109 1864.25,985.109L1872.44,974.48Z" style="fill:rgb(199,32,39);"/>
            </g>
            <g transform="matrix(-0.837614,-0.546262,-0.546262,0.837614,2977.16,1222.24)">
                <path d="M1872.44,974.48C1872.44,974.48 1859.51,928.98 1846.99,935.418C1834.46,941.855 1821.08,957.969 1823.87,969.855C1826.66,981.742 1864.25,985.109 1864.25,985.109L1872.44,974.48Z" style="fill:rgb(230,35,44);"/>
            </g>
            <g transform="matrix(1,0,0,1,-1115.95,0)">
                <path d="M2052.56,2100.92C2181.95,2053.54 2195.26,1887.58 2191.71,1932.46C2188.4,1974.26 2201.35,2029.46 2205.91,2047.21C2163.15,2070.51 2112.46,2089.54 2052.56,2100.92Z" style="fill:rgb(199,32,39);"/>
            </g>
            <g transform="matrix(1,0,0,1,-1115.95,0)">
                <path d="M2321.26,1450.26C2320.53,1472.73 2323.23,1668.28 2178.36,1538.13C2127.05,1492.03 2122.7,1472.31 2148.87,1447.1C2153.96,1442.19 2192.27,1462.61 2228.35,1455.44C2259.86,1449.18 2282.79,1420.9 2282.79,1420.9L2321.26,1450.26Z" style="fill:rgb(199,32,39);"/>
            </g>
            <g transform="matrix(0.787662,0,0,1.16017,-654.904,-226.762)">
                <circle cx="2245.98" cy="1003.99" r="48.769" style="fill:rgb(199,32,39);"/>
            </g>
            <g transform="matrix(0.652698,0,0,0.652698,-345.734,304.569)">
                <circle cx="2245.98" cy="1003.99" r="48.769" style="fill:rgb(239,229,255);"/>
            </g>
            <g transform="matrix(0.388304,0,0,0.480702,248.85,491.587)">
                <circle cx="2245.98" cy="1003.99" r="48.769" style="fill:rgb(28,28,28);"/>
            </g>
            <g transform="matrix(0.194152,0,0,0.240351,684.911,711.174)">
                <circle cx="2245.98" cy="1003.99" r="48.769" style="fill:rgb(239,229,255);"/>
            </g>
            <g transform="matrix(1,0,0,1,-1115.95,0)">
                <path d="M2419.45,1739.17C2419.45,1739.17 2566.35,2257.31 2421.45,2257.31C2229.81,2257.31 2191.71,1996.69 2191.71,1996.69L2419.45,1739.17Z" style="fill:rgb(230,35,44);"/>
            </g>
            <g transform="matrix(1,0,0,1,-1115.95,0)">
                <path d="M2287.5,979.957L2287.33,1027.61L2230.12,1031.4L2197.15,987.24C2225.27,983.67 2259.93,980.119 2287.5,979.957Z" style="fill:rgb(230,35,44);"/>
            </g>
            <g transform="matrix(1,0,0,1,-1128.16,-124.23)">
                <path d="M2287.5,979.957L2287.33,1027.61L2230.12,1031.4L2197.15,987.24C2225.27,983.67 2259.93,980.119 2287.5,979.957Z" style="fill:rgb(230,35,44);"/>
            </g>
            <g transform="matrix(1,0,0,1,-1115.95,0)">
                <path d="M2046.52,884.45C2046.52,884.45 2011.63,871.226 2014.57,869.264C2023.18,863.521 2032.81,861.332 2041.87,863.94C2047.99,865.703 2053.17,869.459 2057.19,874.624L2046.52,884.45Z" style="fill:rgb(230,35,44);"/>
            </g>
            <g transform="matrix(1,0,0,1,-1115.95,0)">
                <path d="M1935.06,1247.73C1965.23,1258.7 2002.23,1262.34 2063.63,1244.35C2144.03,1220.81 2146.31,1241.75 2146.31,1241.75C2146.31,1241.75 2150.29,1240.44 2156.01,1236.39C2146.77,1248.48 2122.95,1267.6 2063.66,1272.77C2012.35,1277.25 1960.65,1267.26 1926.27,1258.07C1929.22,1254.63 1932.15,1251.18 1935.06,1247.73Z" style="fill:rgb(199,32,39);"/>
            </g>
        </g>
        <g transform="matrix(0.885418,-0.464795,0.464795,0.885418,-1895.12,1239.65)">
            <g transform="matrix(0.369622,0.929182,-0.929182,0.369622,3041.73,-1842.44)">
                <path d="M2866.45,1194.37L2907.48,1218.06L2907.48,1285.94L2848.69,1319.89" style="fill:none;stroke:rgb(179,26,34);stroke-width:12px;"/>
            </g>
            <g transform="matrix(1.12253,0,0,1.12253,-287.091,-124.424)">
                <circle cx="2810.93" cy="1262.15" r="15.908" style="fill:rgb(179,26,34);"/>
            </g>
            <g transform="matrix(0.369622,0.929182,-0.929182,0.369622,3041.73,-1842.44)">
                <path d="M2848.69,1319.89L2789.9,1285.94L2789.9,1218.06L2830.42,1194.66" style="fill:none;stroke:rgb(179,26,34);stroke-width:12px;"/>
            </g>
            <g transform="matrix(7.25768,0,0,7.25768,-14705.9,-9391.2)">
                <path d="M2421.45,1472.26L2363.15,1495.52" style="fill:none;stroke:rgb(179,26,34);stroke-width:1.65px;stroke-linecap:round;"/>
            </g>
        </g>
        <g transform="matrix(0.885418,-0.464795,0.464795,0.885418,-1895.12,1239.65)">
            <path d="M2421.45,1472.26L2363.15,1495.52" style="fill:none;stroke:rgb(179,26,34);stroke-width:20px;stroke-linecap:round;"/>
        </g>
        <g transform="matrix(-1,0,0,1,3388.08,-53.0753)">
            <path d="M2335.48,1378.91C2335.48,1378.91 2341.71,1489.12 2459.32,1438.71C2480.28,1443.55 2481.99,1479.25 2466.82,1485.44C2451.65,1491.63 2397.28,1533.81 2326.97,1472.26C2256.66,1410.72 2287.44,1401.1 2287.44,1401.1L2335.48,1378.91Z" style="fill:rgb(230,35,44);"/>
        </g>
    </g>
</svg>
