<svg clip-rule="evenodd" fill-rule="evenodd" stroke-linejoin="round" stroke-miterlimit="1.5" viewBox="0 0 1692 1554" xmlns="http://www.w3.org/2000/svg"><path d="m1838.46 618.391c56.78-153.239-2.5-280.937-192.12 20.959-189.63 301.895-209.13 231.666-213.15 108.791s-60.89-94.646-191.36 136.323c-130.47 230.966-264.504 283.616-222.19-22.375 42.31-305.989-116.668-370.125-257.575 423.851-140.906 793.98-23.197 670.79 145.605 561.86 168.8-108.93 184.83-54.03 148.42 236.52-36.42 290.55 100.97 475.81 261.83-15.35 160.86-491.15 463.76-1297.339 520.54-1450.579z" fill="#ffd8df" transform="matrix(.765702 0 0 .765702 -106.943 -349.102)"/><path d="m1838.46 618.391c56.78-153.239-2.5-280.937-192.12 20.959-189.63 301.895-209.13 231.666-213.15 108.791s-60.89-94.646-191.36 136.323c-130.47 230.966-264.504 283.616-222.19-22.375 42.31-305.989-116.668-370.125-257.575 423.851-140.906 793.98-23.197 670.79 145.605 561.86 168.8-108.93 184.83-54.03 148.42 236.52-36.42 290.55 100.97 475.81 261.83-15.35 160.86-491.15 463.76-1297.339 520.54-1450.579z" fill="#ffd8df" transform="matrix(-.582275 -.497249 -.497249 .582275 2578.457 646.528)"/><g opacity=".89851" transform="matrix(-.646841 -.00230318 -.00230318 .646841 2786.017 -196.826)"><g fill="#c72027"><path d="m2748.2 1191.13s37.59 19.82 82.36 3.19c28.61-10.64 91.22-26.66 132.71-36.84 23.45-5.76 40.15-9.65 40.15-9.65l66.9 63.66-9.43 33.59-28.34 13.55h-220.76l-46.76-17.22z" transform="matrix(1.04602 .45713 -.45713 1.04602 -252.349 -1458.49)"/><path d="m2331.15 1427.14s35.35 52.97 120.32 11.16c20.96 4.84 30.52 40.95 15.35 47.14s-85.11 60.1-154.11-2.91c-6.15-5.62 18.44-55.39 18.44-55.39z" transform="matrix(-.494077 -.604644 -.604644 .494077 4085.19 2003.21)"/><path d="m1547.55 1719.12s60 496.15 198.67 536.18c79.82 23.04 179.17-227.01 179.17-227.01z" transform="matrix(.710872 -.16638 .16638 .710872 380.15 979.783)"/><path d="m2280.73 2000.06s319.99-166.03 232.42-482.06c-28.59-103.17-.92 197.18-335.91 279.45z" transform="matrix(1.18359 .239991 -.239991 1.18359 -36.6999 -816.229)"/></g><path d="m2150.95 832.04s10.03-38.499 18.95-38.499c8.91 0 29.6 46.82 29.6 46.82z" fill="#b31a22" transform="matrix(-.359444 .829767 -.829767 -.359444 3961.11 -172.205)"/><path d="m2150.95 832.04s10.03-38.499 18.95-38.499c8.91 0 29.6 46.82 29.6 46.82z" fill="#b31a22" transform="matrix(.0112525 -.929101 -.929101 -.0112525 3290.89 3133.55)"/><path d="m2713.2 1970.49 174.5 50.53s.78 30.18-2.19 65.74c-103.17 14.9-178.73-13.27-223.82-39.38-10.98-15.24-21.21-30.13-30.34-43.85l-43.56-69.35z" fill="#b31a22" transform="matrix(1.12431 .197651 -.197651 1.12431 -760.884 -741.716)"/><path d="m2150.95 832.04s10.03-38.499 18.95-38.499c8.91 0 29.6 46.82 29.6 46.82z" fill="#b31a22" transform="matrix(.821183 .756862 -.756862 .821183 1323.38 -1385.5)"/><path d="m1984.9 1063.01c9.81-3.98 309.44 16.39 307.55 4.93-17.91-108.404-79.04-195.727-101.92-294.669-6.26-27.075 78.77-111.105 110.53-113.264 38.2-2.597 156.5 117.711 177.91 152.721 20.01 32.706 14.36 217.512 11.69 225.652-3.73 11.34-183.18 472.12-174.06 520.69 9.12 48.58 130.08 184.51 121.58 227.91-8.51 43.4-124.84 325.5-514.48 325.5-164.96 0-425.61-123.68-369.57-482.17 39.58-253.18 277.06-504.88 430.77-567.3z" fill="#e6232c" transform="matrix(.863316 0 0 .863316 399.986 298.753)"/><path d="m2825.03 1289.75 114.98 5.58 25.64 20.45s-31.42 30.18-40.91 32.79c-39.06 10.75-92.83-25.58-92.83-25.58 4.63-7.49-24.47-20.55-20.29-27.91l3.16-2.87c2.1-.71 5.6-1.53 10.25-2.46z" fill="#c72027" transform="matrix(1.04602 .45713 -.45713 1.04602 -252.349 -1458.49)"/><path d="m1859.99 1134.95c-3.48 11.15 27.23 90.05 48.5 100.92 36.2 18.51 74.75 32.03 155.14 8.48 80.4-23.54 82.68-2.6 82.68-2.6s74.07-79.7 70.39-116.65c-.78-7.88-32.71-27.63-38.13-27.67 0 0-119.04 60.74-143.95 54.58-18.12-4.49-46-38.05-46-38.05s-26.46 55.95-64.67 58.44c-22.07 1.44-59.78-50.86-63.96-37.45z" fill="#e6232c" transform="matrix(.752888 .586332 -.586332 .752888 1334.99 -910.6)"/><path d="m2814.22 1223.34c18.67-10.14 32.89-27.31 32.89-27.31s5.88 12.39 13.61 23.67c-13.49 6.18-23.95 20.8-29.65 20.57-5.19-.2-10.1-7.37-16.85-16.93z" fill="#c72027" transform="matrix(1.04602 .45713 -.45713 1.04602 -252.349 -1458.49)"/><circle cx="2245.98" cy="1003.99" fill="#c72027" r="48.769" transform="matrix(.297841 .49622 -.694354 .416765 2355.91 -624.218)"/><path d="m2247 1073.83c-2-5.68-57.65-43.42-67.72-58.88-41.65-63.938-197.34-90.26-233.66-91.908-45.1-2.047-90.57 24.25-111.28 76.711-20.71 52.457-27.5 79.867-24.03 94.587 6.14 26.02 27.09 75.12 30.34 78.33 14.55 14.4 14.16-46.81 77.23-26.33 41.04 13.32 62.51 49.18 75.75 46.35 8.65-1.85 19.19-34.92 42.23-39.45 16.4-3.22 106.17-41.11 144.15-60.45 9.93-5.07 42.46 22.53 54.62 9.03 9.06-10.07 15.03-20.42 12.37-27.99z" fill="#e6232c" transform="matrix(.752888 .586332 -.586332 .752888 1350.06 -956.014)"/><path d="m1872.44 974.48s-12.93-45.5-25.45-39.062c-12.53 6.437-25.91 22.551-23.12 34.437 2.79 11.887 40.38 15.254 40.38 15.254z" fill="#e6232c" transform="matrix(.738182 .457805 -.457805 .738182 1233.81 -693.781)"/><path d="m1872.44 974.48s-14.83-35.245-27.36-28.808c-12.52 6.438-24 12.297-21.21 24.183 2.79 11.887 40.38 15.254 40.38 15.254z" fill="#c72027" transform="matrix(-.445411 -.951596 -.951596 .445411 4000.85 2317.97)"/><path d="m1872.44 974.48s-12.93-45.5-25.45-39.062c-12.53 6.437-25.91 22.551-23.12 34.437 2.79 11.887 40.38 15.254 40.38 15.254z" fill="#e6232c" transform="matrix(-.368231 -.786704 -.786704 .368231 3695.73 2082.3)"/><circle cx="2245.98" cy="1003.99" fill="#c72027" r="48.769" transform="matrix(.590547 .228072 -.335934 .869832 1465.15 -362.063)"/><path d="m2287.5 979.957-.17 47.653-57.21 3.79-32.97-44.16c28.12-3.57 62.78-7.121 90.35-7.283z" fill="#e6232c" transform="matrix(.765906 .397445 -.397445 .765906 1147.17 -672.532)"/><path d="m2044.22 890.483s-32.59-19.257-29.65-21.219c8.61-5.743 18.24-7.932 27.3-5.324 6.12 1.763 11.3 5.519 15.32 10.684z" fill="#e6232c" transform="matrix(.537632 .500825 -.500825 .537632 1696.51 -598.716)"/><path d="m1279.23 1730.65c12.25 1.16 96.97 10.09 145.11 40.12-5.26 6.71-11.1 12.63-17.36 17.62-12.88-3.78-27.13-7.24-42.58-9.96-56.89-10.01-77.44-32.7-83.96-42.84-.43-1.63-.83-3.28-1.21-4.94z" fill="#b31a21" transform="matrix(.473046 .0647695 -.0810896 .59224 1961.49 -103.257)"/><path d="m1275.94 1728.16s30.96 26.6 88.46 33.91c57.51 7.31 74 28.5 74 28.5s19.26-11.64-19.09-39.65c-38.35-28.02-143.37-22.76-143.37-22.76z" fill="#c72027" transform="matrix(.473046 .0647695 -.0810896 .59224 1961.49 -103.257)"/><path d="m1279.23 1730.65c10.35.98 72.34 7.49 120.37 27.58 8.86 3.7-8.61 25.73-17.3 23.78-5.77-1.29-11.74-2.49-17.9-3.58-56.89-10.01-77.44-32.7-83.96-42.84-.43-1.63-.83-3.28-1.21-4.94z" fill="#b31a21" transform="matrix(-.0256764 -.476768 -.596901 .0321462 3414.32 1480.32)"/><path d="m1275.94 1728.16s30.96 26.6 88.46 33.91c19.72 2.51 34.38 7.76 34.38 7.76s3.12-6 1.77-11.51c-2.71-10.98-14.54-25.7-43.66-26.94-40.55-1.72-80.95-3.22-80.95-3.22z" fill="#c72027" transform="matrix(-.0256764 -.476768 -.596901 .0321462 3414.32 1480.32)"/><path d="m3036.2 1969.97c-59.63 42.44-143.89 75.88-260.55 75.88-8.19 0-16.15-.24-23.89-.72 175.54-15.37 179.7-128.33 179.7-128.33l81.03-20.55z" fill="#c72027" transform="matrix(1.14155 0 0 1.14155 -1107.78 -212.937)"/><path d="m1643.7 1766.21s-48.44 513.31 188.81 474.56c81.99-13.39 218.85-340.99 218.85-340.99z" fill="#e6232c" transform="matrix(.445797 -.578175 .578175 .445797 484.682 2138.15)"/><path d="m2960.97 1418.03s39.1 102.03 58.91 89.92c17.63-10.77 34.39-81 26.95-98.36-7.41-17.3-33.95 34.21-39.57 24.6-28.41-30.54-5.4-55.63-6.47-76.74-.71-13.87-15.84-19.24-25.1-18.43-23.05 10.91-25.83 39.06-14.72 79.01z" fill="#c72027" transform="matrix(1.14155 0 0 1.14155 -1136.19 -172.866)"/><path d="m2364.5 1412.03s4.77 30.24 76.41 60.19c19.84 8.3 22.67 40.54 7.5 46.73s-51.13 14.86-121.44-46.69c-7.13-6.24 37.53-60.23 37.53-60.23z" fill="#e6232c" transform="matrix(-.0577821 -.778696 -.778696 .0577821 3578.08 3190.77)"/></g><path d="m1318.06 832.04c-67.27 23.091-4.8 170.23 21.36 202.15 26.15 31.91 94.2 20.39 130-46.93 35.79-67.322-22.09-52.604-35.14-97.781s-67.45-74.18-116.22-57.439z" fill="#ffd8df" transform="translate(-972.226 -716.2443)"/><path d="m2150.95 832.04s10.03-38.499 18.95-38.499c8.91 0 29.6 46.82 29.6 46.82z" fill="#b31a22" transform="translate(-1613.851 -716.2443)"/><path d="m2150.95 832.04s10.03-38.499 18.95-38.499c8.91 0 29.6 46.82 29.6 46.82z" fill="#b31a22" transform="matrix(.498841 .866694 -.866694 .498841 371.141 -2053.8543)"/><path d="m2150.95 832.04s10.03-38.499 18.95-38.499c8.91 0 29.6 46.82 29.6 46.82z" fill="#b31a22" transform="matrix(.386228 .922403 -.922403 .386228 686.449 -1836.5643)"/><path d="m2280.73 2000.06s319.99-166.03 232.42-482.06c-28.59-103.17-.92 197.18-335.91 279.45z" fill="#c72027" transform="translate(-1613.851 -716.2443)"/><path d="m2866.45 1194.37 41.03 23.69v67.88l-58.79 33.95" fill="none" stroke="#b31a22" stroke-width="12" transform="matrix(.99888757751 -.04715432544 .04715432544 .99888757751 -2773.84495524 -1005.81987618)"/><circle cx="2810.93" cy="1262.15" fill="#b31a22" r="15.908" transform="matrix(.36526677188 -1.06143967234 1.06143967234 .36526677188 -2232.511860108 2700.875561694)"/><path d="m2848.69 1319.89-58.79-33.95v-67.88l40.52-23.4" fill="none" stroke="#b31a22" stroke-width="12" transform="matrix(.99888757751 -.04715432544 .04715432544 .99888757751 -2773.84495524 -1005.81987618)"/><path d="m2421.45 1472.26-58.3 23.26" fill="none" stroke="#b31a22" stroke-linecap="round" stroke-width="1.65" transform="matrix(2.36162004128 -6.86270253904 6.86270253904 2.36162004128 -15686.79415 13319.612295)"/><path d="m1627.11 1723.21s-70.95 546.96 157.8 546.96c83.08 0 87.53-203.31 87.53-203.31z" fill="#e6232c" transform="translate(-1613.851 -716.2443)"/><path d="m1616.72 1927.08c-10.27-135.53 10.39-203.87 10.39-203.87l245.33 343.65s-1.11 50.59-12.53 101.31c-145.7-13.08-215.08-156.89-243.19-241.09z" fill="#c72027" transform="translate(-1613.851 -716.2443)"/><path d="m2335.48 1378.91s6.23 110.21 123.84 59.8c20.96 4.84 22.67 40.54 7.5 46.73s-69.54 48.37-139.85-13.18c-70.31-61.54-39.53-71.16-39.53-71.16z" fill="#c72027" transform="matrix(-.968748 -.248048 -.248048 .968748 2894.709 -162.5593)"/><path d="m2421.45 1472.26-58.3 23.26" fill="none" stroke="#b31a22" stroke-linecap="round" stroke-width="20" transform="matrix(-.514658 -.857395 -.857395 .514658 2671.389 1980.7657)"/><g transform="translate(-1613.851 -716.2443)"><path d="m2001.67 939.424s28.33-90.601 51.18-99.359 112.86-8.582 129.98-7.512c17.13 1.071 83.38 7.993 97.77 16.141s102.33 145.996 104.25 178.706c1.91 32.71-.06 240.78-5.13 289.49-5.07 48.72-20.89 164.05-11.77 212.62 9.12 48.58 61.07 211.04 52.56 254.45-8.5 43.4-107.17 328.52-496.81 328.52-389.63 0-292.72-409.67-292.72-409.67s51.11-182.18 180.65-320.22 319.72-323.49 190.04-443.166z" fill="#e6232c"/><path d="m1887.67 1135.77s-.45 89.23 20.82 100.1c36.2 18.51 74.75 32.03 155.14 8.48 80.4-23.54 82.68-2.6 82.68-2.6s70.8-23.31 45.4-174.68z" fill="#e6232c"/><path d="m2011.19 1116.8-27.67 83.17c-38.26-26.05-61.04-68.09-94.46-29.6-1.47-18.97-1.39-34.6-1.39-34.6z" fill="#c72027"/><path d="m1982.69 1199.97s8.93 6.93 14.6 3.21c16.24-10.68 31.64-32.77 39.58-34.84 46.55-12.17 81.1-24 105.93-38.93 26.41-15.89 41.81-35.29 48.91-62.34l-198.08 53.34z" fill="#c72027"/></g><circle cx="2245.98" cy="1003.99" fill="#c72027" r="48.769" transform="matrix(.756933 .217861 -.304851 1.05917 -980.845 -1353.3503)"/><circle cx="403.56365404" cy="206.68896502" fill="#efe5ff" r="31.831428762" stroke-width=".652698"/><circle cx="2245.98" cy="1003.99" fill="#1c1c1c" r="48.769" transform="matrix(.388304 0 0 .480702 -473.2825 -260.8243)"/><circle cx="2245.98" cy="1003.99" fill="#efe5ff" r="48.769" transform="matrix(.194152 0 0 .240351 -37.221 -41.2373)"/><path d="m2111.41 980.859s-120.68-55.771-165.79-57.817c-45.1-2.047-90.57 24.25-111.28 76.711-20.71 52.457-27.5 79.867-24.03 94.587 6.14 26.02 27.09 75.12 30.34 78.33 14.55 14.4 14.16-46.81 77.23-26.33 41.04 13.32 62.51 49.18 75.75 46.35 8.65-1.85 19.19-34.92 42.23-39.45 26.3-5.16 125.31-20.76 151.55-80.27 26.23-59.5-76-92.111-76-92.111z" fill="#e6232c" transform="translate(-1613.851 -716.2443)"/><path d="m1872.44 974.48s-12.93-45.5-25.45-39.062c-12.53 6.437-25.91 22.551-23.12 34.437 2.79 11.887 40.38 15.254 40.38 15.254z" fill="#e6232c" transform="translate(-1613.851 -716.2443)"/><path d="m1872.44 974.48s-14.83-35.245-27.36-28.808c-12.52 6.438-24 12.297-21.21 24.183 2.79 11.887 40.38 15.254 40.38 15.254z" fill="#c72027" transform="matrix(-1.01318 -.660757 -.660757 1.01318 2920.779 551.4357)"/><path d="m1872.44 974.48s-12.93-45.5-25.45-39.062c-12.53 6.437-25.91 22.551-23.12 34.437 2.79 11.887 40.38 15.254 40.38 15.254z" fill="#e6232c" transform="matrix(-.837614 -.546262 -.546262 .837614 2479.259 505.9957)"/><path d="m2052.56 2100.92c129.39-47.38 142.7-213.34 139.15-168.46-3.31 41.8 9.64 97 14.2 114.75-42.76 23.3-93.45 42.33-153.35 53.71z" fill="#c72027" transform="translate(-1613.851 -716.2443)"/><path d="m2321.26 1450.26c-.73 22.47 1.97 218.02-142.9 87.87-51.31-46.1-55.66-65.82-29.49-91.03 5.09-4.91 43.4 15.51 79.48 8.34 31.51-6.26 54.44-34.54 54.44-34.54z" fill="#c72027" transform="translate(-1613.851 -716.2443)"/><circle cx="2245.98" cy="1003.99" fill="#c72027" r="48.769" transform="matrix(.787662 0 0 1.16017 -1152.805 -943.0063)"/><circle cx="622.31165404" cy="243.62696502" fill="#efe5ff" r="31.831428762" stroke-width=".652698"/><circle cx="2245.98" cy="1003.99" fill="#1c1c1c" r="48.769" transform="matrix(.388304 0 0 .480702 -249.051 -224.6573)"/><circle cx="2245.98" cy="1003.99" fill="#efe5ff" r="48.769" transform="matrix(.194152 0 0 .240351 187.01 -5.0703)"/><path d="m2419.45 1739.17s146.9 518.14 2 518.14c-191.64 0-229.74-260.62-229.74-260.62z" fill="#e6232c" transform="translate(-1613.851 -716.2443)"/><path d="m2287.5 979.957-.17 47.653-57.21 3.79-32.97-44.16c28.12-3.57 62.78-7.121 90.35-7.283z" fill="#e6232c" transform="translate(-1613.851 -716.2443)"/><path d="m2287.5 979.957-.17 47.653-57.21 3.79-32.97-44.16c28.12-3.57 62.78-7.121 90.35-7.283z" fill="#e6232c" transform="translate(-1626.061 -840.4743)"/><path d="m2046.52 884.45s-34.89-13.224-31.95-15.186c8.61-5.743 18.24-7.932 27.3-5.324 6.12 1.763 11.3 5.519 15.32 10.684z" fill="#e6232c" transform="translate(-1613.851 -716.2443)"/><path d="m1935.06 1247.73c30.17 10.97 67.17 14.61 128.57-3.38 80.4-23.54 82.68-2.6 82.68-2.6s3.98-1.31 9.7-5.36c-9.24 12.09-33.06 31.21-92.35 36.38-51.31 4.48-103.01-5.51-137.39-14.7 2.95-3.44 5.88-6.89 8.79-10.34z" fill="#c72027" transform="translate(-1613.851 -716.2443)"/><path d="m2866.45 1194.37 41.03 23.69v67.88l-58.79 33.95" fill="none" stroke="#b31a22" stroke-width="12" transform="matrix(.75914911969 .65091601059 -.65091601059 .75914911969 -442.09740666 -2455.28243527)"/><circle cx="2810.93" cy="1262.15" fill="#b31a22" r="15.908" transform="matrix(.99390826754 -.52174633135 .52174633135 .99390826754 -2590.970192118 613.099212113)"/><path d="m2848.69 1319.89-58.79-33.95v-67.88l40.52-23.4" fill="none" stroke="#b31a22" stroke-width="12" transform="matrix(.75914911969 .65091601059 -.65091601059 .75914911969 -442.09740666 -2455.28243527)"/><path d="m2421.45 1472.26-58.3 23.26" fill="none" stroke="#b31a22" stroke-linecap="round" stroke-width="1.65" transform="matrix(6.42608051024 -3.3733333756 3.3733333756 6.42608051024 -19664.7943702 -890.0807311)"/><path d="m2421.45 1472.26-58.3 23.26" fill="none" stroke="#b31a22" stroke-linecap="round" stroke-width="20" transform="matrix(.885418 -.464795 .464795 .885418 -2278.943 589.828)"/><path d="m2335.48 1378.91s6.23 110.21 123.84 59.8c20.96 4.84 22.67 40.54 7.5 46.73s-69.54 48.37-139.85-13.18c-70.31-61.54-39.53-71.16-39.53-71.16z" fill="#e6232c" transform="matrix(-1 0 0 1 3004.257 -702.8973)"/></svg>