<svg width="385px" height="335px" viewBox="0 0 385 335" version="1.1" xmlns="http://www.w3.org/2000/svg" xmlns:xlink="http://www.w3.org/1999/xlink">
    <!-- Generator: Sketch 48.2 (47327) - http://www.bohemiancoding.com/sketch -->
    <desc>Created with Sketch.</desc>
    <defs></defs>
    <g id="All" stroke="none" stroke-width="1" fill="none" fill-rule="evenodd">
        <g id="Home" transform="translate(-877.000000, -2211.000000)">
            <g id="Group-9" transform="translate(879.000000, 2211.000000)">
                <g id="Page-1">
                    <path d="M12.6955271,18.5910703 C-2.1021433,23.6699606 11.639198,56.0349639 17.392914,63.0561064 C23.1466299,70.0750492 38.1164983,67.5411031 45.9899117,52.7333552 C53.8633251,37.9256074 41.1321617,41.1612278 38.2608031,31.2256074 C35.3896645,21.2877873 23.4240208,14.9089297 12.6955271,18.5910703 Z" id="Fill-1" fill="#FFDEDE"></path>
                    <path d="M182.700939,50.0410374 C182.700939,50.0410374 108.958961,-27.5940578 78.8146455,10.9606369 C67.6323395,25.2624754 75.9914619,47.9932042 67.8133805,61.5977676 C59.6352991,75.2023309 38.9598897,83.7983913 57.5065826,111.300066 C76.0534954,138.80174 90.8223048,159.599455 79.1771674,174.511024 C67.53225,189.422594 -28.699155,202.111461 9.9526351,224.299987 C48.6043372,246.488513 51.0654388,253.300473 41.2029942,264.979061 C31.3407696,276.657429 42.3281761,290.38913 120.321428,282.431395 C198.31468,274.47388 256.490872,296.162216 267.599706,278.32869 C295.257402,233.927882 341.256773,269.804337 341.555941,225.076668 C341.857309,180.349219 295.917333,195.834005 287.520814,161.97239 C279.122096,128.110775 288.072956,87.8500657 242.590531,99.9720946 C197.109426,112.091924 182.700939,50.0410374 182.700939,50.0410374 Z" id="Fill-2" fill="#FFDEDE"></path>
                    <path d="M195.910992,18.5910703 C195.910992,18.5910703 198.11846,10.122587 200.079334,10.122587 C202.040208,10.122587 206.591091,20.4211425 206.591091,20.4211425 L195.910992,18.5910703 Z" id="Fill-3" fill="#B51F20"></path>
                    <path d="M236.805139,42.7009521 C236.805139,42.7009521 245.247852,40.3913657 246.22455,42.0894616 C247.203447,43.7897571 240.546946,52.8697308 240.546946,52.8697308 L236.805139,42.7009521 Z" id="Fill-4" fill="#B51F20"></path>
                    <path d="M242.687321,96.2459619 C242.687321,96.2459619 251.350012,95.0119829 252.108932,96.8200591 C252.865652,98.6281353 245.122465,106.804071 245.122465,106.804071 L242.687321,96.2459619 Z" id="Fill-5" fill="#B51F20"></path>
                    <polyline id="Stroke-6" stroke="#7C2526" stroke-width="2.63999999" stroke-linejoin="round" points="380.802021 113.270913 379.295179 123.583766 365.421236 129.102797 353.703066 119.846635"></polyline>
                    <path d="M353.703066,115.918798 C355.869838,115.918798 357.629654,117.678703 357.629654,119.846635 C357.629654,122.014567 355.869838,123.774691 353.703066,123.774691 C351.534094,123.774691 349.774278,122.014567 349.774278,119.846635 C349.774278,117.678703 351.534094,115.918798 353.703066,115.918798 Z" id="Fill-7" fill="#7C2526"></path>
                    <polyline id="Stroke-8" stroke="#7C2526" stroke-width="2.63999999" stroke-linejoin="round" points="353.703066 119.846635 355.861039 105.070781 369.734983 99.5519698 377.812535 105.930827"></polyline>
                    <path d="M353.703066,120.203411 L260.624238,157.33584" id="Stroke-9" stroke="#7C2526" stroke-width="2.63999999" stroke-linecap="round" stroke-linejoin="round"></path>
                    <path d="M224.460035,275.508355 C224.460035,275.508355 294.850445,238.988956 275.587067,169.474806 C269.297927,146.781031 275.384688,212.847078 201.694185,230.943457 L224.460035,275.508355 Z" id="Fill-10" fill="#B51F20"></path>
                    <polyline id="Stroke-11" stroke="#7C2526" stroke-width="2.63999999" stroke-linejoin="round" points="5.01369163 60.6211425 14.3367748 55.9623769 26.7969267 64.1933027 25.8989809 79.0978332"></polyline>
                    <path d="M22.6756594,81.3414314 C21.4365294,79.5641497 21.8747234,77.1137886 23.6536767,75.8732108 C25.4326299,74.6348326 27.8831726,75.0725542 29.1223025,76.8520355 C30.3616524,78.6315167 29.9232385,81.0818779 28.1442852,82.3202561 C26.365332,83.5586343 23.9147893,83.1209127 22.6756594,81.3414314 Z" id="Fill-12" fill="#7C2526"></path>
                    <polyline id="Stroke-13" stroke="#7C2526" stroke-width="2.63999999" stroke-linejoin="round" points="25.8989809 79.0978332 12.5408834 85.771438 0.0806875289 77.5427118 0.699592552 67.2683519"></polyline>
                    <path d="M26.1917702,78.8932699 L109.863946,134.037833" id="Stroke-14" stroke="#7C2526" stroke-width="2.63999999" stroke-linecap="round" stroke-linejoin="round"></path>
                    <path d="M80.6796097,214.612262 C80.6796097,214.612262 65.0726882,334.923014 115.391085,334.923014 C133.666327,334.923014 134.646104,290.202383 134.646104,290.202383 L80.6796097,214.612262 Z" id="Fill-15" fill="#CF3737"></path>
                    <path d="M78.3920699,259.45563 C76.1342269,229.645469 80.6796097,214.612262 80.6796097,214.612262 L134.646104,290.202383 C134.646104,290.202383 134.40215,301.33129 131.889133,312.485712 C99.8382783,309.608628 84.5776005,277.976533 78.3920699,259.45563 Z" id="Fill-16" fill="#B51F20"></path>
                    <path d="M141.596494,123.763913 C141.596494,123.763913 134.253885,146.909928 111.943167,129.750141 C107.211684,129.637521 104.898627,137.150716 107.793963,139.297971 C110.689299,141.445446 119.973204,153.398326 138.315099,144.120827 C156.656773,134.843109 150.623027,131.115217 150.623027,131.115217 L141.596494,123.763913 Z" id="Fill-17" fill="#B51F20"></path>
                    <path d="M115.63548,136.768424 L127.946267,143.020584" id="Stroke-18" stroke="#7C2526" stroke-width="4.39999998" stroke-linecap="round" stroke-linejoin="round"></path>
                    <path d="M163.072839,42.2104399 C163.072839,42.2104399 169.304125,22.2820092 174.331038,20.3551543 C179.35773,18.430499 199.157411,18.4678923 202.924516,18.7032502 C206.69162,18.938608 221.26597,20.4607354 224.431438,22.2534143 C227.596905,24.0460932 246.941674,54.3676625 247.36403,61.5625739 C247.784186,68.7574852 247.350831,114.524688 246.235548,125.239189 C245.120266,135.95457 241.640231,161.322186 243.64642,172.006773 C245.65261,182.691139 257.08041,218.427919 255.208406,227.974649 C253.338603,237.521379 231.633482,300.237646 145.92212,300.237646 C60.2109786,300.237646 81.5298204,210.125946 81.5298204,210.125946 C81.5298204,210.125946 92.7724001,170.053743 121.268208,139.690601 C149.764017,109.327019 191.600544,68.5331254 163.072839,42.2104399 Z" id="Fill-19" fill="#CF3737"></path>
                    <path d="M137.997012,85.3997045 C137.997012,85.3997045 137.896483,105.026789 142.576051,107.417761 C150.539215,111.489232 159.018445,114.463099 176.703488,109.283027 C194.388312,104.105154 194.890959,108.711129 194.890959,108.711129 C194.890959,108.711129 210.465104,103.581648 204.877471,70.2862114 L137.997012,85.3997045 Z" id="Fill-20" fill="#CF3737"></path>
                    <path d="M165.168339,81.2270519 L159.081139,99.5211753 C150.664382,93.7912016 145.652428,84.5440578 138.3019,93.0081418 C137.979414,88.8354892 137.997012,85.3997045 137.997012,85.3997045 L165.168339,81.2270519 Z" id="Fill-21" fill="#B51F20"></path>
                    <path d="M158.898118,99.5211753 C158.898118,99.5211753 160.863391,101.045502 162.109561,100.227249 C165.681986,97.87587 169.07073,93.0191399 170.817346,92.5638214 C181.057491,89.8869009 188.657693,87.2847669 194.11752,84.0007551 C199.92887,80.5055811 203.314975,76.2383454 204.877471,70.2862114 L161.304225,82.0211097 L158.898118,99.5211753 Z" id="Fill-22" fill="#B51F20"></path>
                    <path d="M171.915691,25.6078135 C176.397501,26.8967827 178.570652,33.0358831 176.765742,39.3069599 C174.960611,45.5780368 169.856707,49.6209127 165.374898,48.3319435 C160.893088,47.0407748 158.719936,40.9038739 160.525067,34.6327971 C162.329977,28.3617203 167.434102,24.3166448 171.915691,25.6078135 Z" id="Fill-23" fill="#B51F20"></path>
                    <path d="M166.537476,31.5819435 C170.40203,31.5819435 173.539561,34.7185817 173.539561,38.5832896 C173.539561,42.4479974 170.40203,45.5846356 166.537476,45.5846356 C162.672921,45.5846356 159.535391,42.4479974 159.535391,38.5832896 C159.535391,34.7185817 162.672921,31.5819435 166.537476,31.5819435 Z" id="Fill-24" fill="#EFE5FF"></path>
                    <path d="M165.498745,36.7488181 C167.797943,36.7488181 169.664447,39.0606041 169.664447,41.9068943 C169.664447,44.7509849 167.797943,47.0627708 165.498745,47.0627708 C163.199546,47.0627708 161.333042,44.7509849 161.333042,41.9068943 C161.333042,39.0606041 163.199546,36.7488181 165.498745,36.7488181 Z" id="Fill-25" fill="#1C1C1C"></path>
                    <path d="M165.498745,34.5492121 C166.648344,34.5492121 167.581486,35.7040053 167.581486,37.1271504 C167.581486,38.5502955 166.648344,39.7072882 165.498745,39.7072882 C164.349145,39.7072882 163.415783,38.5502955 163.415783,37.1271504 C163.415783,35.7040053 164.349145,34.5492121 165.498745,34.5492121 Z" id="Fill-26" fill="#EFE5FF"></path>
                    <path d="M187.213545,51.3256074 C187.213545,51.3256074 160.665632,39.0584045 150.744454,38.6074852 C140.823055,38.156566 130.821145,43.9415299 126.265204,55.4806632 C121.709262,67.0197965 120.215839,73.0489166 120.979379,76.2845371 C122.329817,82.007912 126.938553,92.8101773 127.651718,93.5162508 C130.854362,96.6814839 130.767471,83.2198949 144.640975,87.7224885 C153.670587,90.6545634 158.391511,98.540151 161.304225,97.9198621 C163.207245,97.512935 165.525802,90.2366382 170.59385,89.2424163 C176.380562,88.10522 198.160696,84.6738345 203.93069,71.5861786 C209.701784,58.4985227 187.213545,51.3256074 187.213545,51.3256074 Z" id="Fill-27" fill="#CF3737"></path>
                    <path d="M134.646104,49.9222587 C134.646104,49.9222587 131.800483,39.9140512 129.046152,41.3305975 C126.291821,42.7449442 123.34787,46.2907091 123.961386,48.9038411 C124.574901,51.5191727 132.844713,52.2604399 132.844713,52.2604399 L134.646104,49.9222587 Z" id="Fill-28" fill="#CF3737"></path>
                    <path d="M161.304225,59.4443533 C161.304225,59.4443533 169.73418,53.745174 171.589025,57.0005909 C173.444091,60.2538083 175.151331,63.2298752 172.801978,65.4734734 C170.452625,67.7170716 161.584476,63.0033158 161.584476,63.0033158 L161.304225,59.4443533 Z" id="Fill-29" fill="#B51F20"></path>
                    <path d="M161.036513,58.9736376 C161.036513,58.9736376 168.887489,52.1460604 170.421168,54.8361786 C171.954627,57.5262968 172.484331,62.103677 170.541935,63.9579448 C168.599759,65.8144123 161.268149,61.9167104 161.268149,61.9167104 L161.036513,58.9736376 Z" id="Fill-30" fill="#CF3737"></path>
                    <path d="M174.268344,297.694682 C202.730276,287.272288 205.658169,250.766747 204.877471,260.639018 C204.150667,269.832932 206.998708,281.974757 208.001363,285.881037 C198.59427,291.0059 187.444961,295.19175 174.268344,297.694682 Z" id="Fill-31" fill="#B51F20"></path>
                    <path d="M243.100878,159.501353 C242.940294,164.443427 243.054682,168.861336 243.64642,172.006773 C244.374544,175.887758 246.347737,183.074091 248.472714,191.110131 C233.149122,188.516356 224.913187,148.116632 224.913187,148.116632 L243.100878,159.501353 Z" id="Fill-32" fill="#B51F20"></path>
                    <path d="M213.327003,29.4593237 C217.990514,29.4593237 221.778516,35.035325 221.778516,41.9046947 C221.778516,48.7740643 217.990514,54.3500657 213.327003,54.3500657 C208.663493,54.3500657 204.877471,48.7740643 204.877471,41.9046947 C204.877471,35.035325 208.663493,29.4593237 213.327003,29.4593237 Z" id="Fill-33" fill="#B51F20"></path>
                    <path d="M214.657864,39.7072882 C218.520658,39.7072882 221.659729,42.8439265 221.659729,46.7086343 C221.659729,50.5733421 218.520658,53.7099803 214.657864,53.7099803 C210.79287,53.7099803 207.654679,50.5733421 207.654679,46.7086343 C207.654679,42.8439265 210.79287,39.7072882 214.657864,39.7072882 Z" id="Fill-34" fill="#EFE5FF"></path>
                    <path d="M214.825046,44.7047932 C217.123805,44.7047932 218.989209,47.0143795 218.989209,49.8606697 C218.989209,52.7069599 217.123805,55.0187459 214.825046,55.0187459 C212.526288,55.0187459 210.658684,52.7069599 210.658684,49.8606697 C210.658684,47.0143795 212.526288,44.7047932 214.825046,44.7047932 Z" id="Fill-35" fill="#1C1C1C"></path>
                    <path d="M214.825046,42.5051871 C215.973326,42.5051871 216.908227,43.6599803 216.908227,45.0831254 C216.908227,46.5062705 215.973326,47.6610637 214.825046,47.6610637 C213.674567,47.6610637 212.741865,46.5062705 212.741865,45.0831254 C212.741865,43.6599803 213.674567,42.5051871 214.825046,42.5051871 Z" id="Fill-36" fill="#EFE5FF"></path>
                    <path d="M254.975231,218.122833 C254.975231,218.122833 287.289838,332.093309 255.415185,332.093309 C213.258811,332.093309 204.877471,274.767528 204.877471,274.767528 L254.975231,218.122833 Z" id="Fill-37" fill="#CF3737"></path>
                    <path d="M225.949278,51.1276428 L225.911882,61.6087656 L213.327003,62.4424163 L206.074805,52.728956 C212.260115,51.9436967 219.884515,51.1628365 225.949278,51.1276428 Z" id="Fill-38" fill="#CF3737"></path>
                    <path d="M223.26556,23.801937 L223.228164,34.2830598 L210.643285,35.1167104 L203.389987,25.4032502 C209.576397,24.6179908 217.200797,23.8371307 223.26556,23.801937 Z" id="Fill-39" fill="#CF3737"></path>
                    <path d="M172.938804,30.1192055 C172.938804,30.1192055 165.264249,27.2091267 165.911421,26.7780039 C167.805863,25.5154301 169.92248,25.0337163 171.915691,25.6078135 C173.26327,25.9949442 174.40209,26.8219961 175.286837,27.9569928 L172.938804,30.1192055 Z" id="Fill-40" fill="#CF3737"></path>
                    <path d="M148.419518,110.026494 C155.058421,112.439462 163.195587,113.240118 176.703488,109.283027 C194.388312,104.105154 194.890959,108.711129 194.890959,108.711129 C194.890959,108.711129 195.766027,108.422981 197.023855,107.529941 C194.992148,110.189265 189.751859,114.397111 176.710748,115.533867 C165.422193,116.518631 154.050707,114.322324 146.485921,112.300886 C147.135733,111.544222 147.780485,110.785358 148.419518,110.026494 Z" id="Fill-41" fill="#B51F20"></path>
                    <path d="M236.50377,138.879606 C236.50377,138.879606 237.874226,163.123444 263.74571,152.03369 C268.356426,153.098079 268.732587,160.950233 265.395537,162.312449 C262.058487,163.674445 250.100543,172.951284 234.631767,159.414248 C219.165191,145.877213 225.93608,143.762292 225.93608,143.762292 L236.50377,138.879606 Z" id="Fill-42" fill="#CF3737"></path>
                    <path d="M255.415185,159.414248 L242.590531,164.530532" id="Stroke-43" stroke="#7C2526" stroke-width="4.39999998" stroke-linecap="round" stroke-linejoin="round"></path>
                </g>
            </g>
        </g>
    </g>
</svg>
