<svg height="39" viewBox="0 0 169 39" width="169" xmlns="http://www.w3.org/2000/svg"><g fill="#1c1c1c" fill-rule="evenodd" opacity=".498641" transform=""><path d="m86.1146497 0-3.1378816 27.0833333h-8.8243836c-.8085825-4.1626124-1.518074-8.8905311-2.131117-14.1836223-.2800972 2.2610912-.9340978 6.9882073-1.9633229 14.1836223h-8.7741775l-3.1563786-27.0833333h6.8610607l.7213824 9.45062044.7398795 9.11820536c.2576365-4.7158795.9037098-10.90481928 1.9461471-18.5688258h7.3472671c.1043759.79405063.3620125 3.76946642.7729098 8.93066175l.774231 10.29001865c.3897579-6.5436942 1.0424373-12.95629513 1.9593593-19.2206804z"/><path d="m96.4344503 17.4160077c-.3683708-3.0662447-.7326787-6.8579167-1.1024039-11.36311064-.734033 5.17925404-1.191788 8.96490654-1.3746191 11.36311064zm3.8353907-17.4160077 4.144172 27.0833333h-7.4148177l-.3588907-4.8701147h-2.6002647l-.4279602 4.8701147h-7.49743l3.6809997-27.0833333z"/><path d="m117.33121 0v5.41910126h-4.385246v21.66423204h-7.387061v-21.66423204h-4.37419v-5.41910126z"/><path d="m125.906134 4.63107021v6.89229529c.214483.0119054.396723.0171224.546721.0171224.693915 0 1.16774-.1602549 1.434091-.4736748.267753-.3203759.402331-.9823969.402331-1.9811135v-2.2268465c0-.92594651-.1514-1.53138336-.461208-1.80467269-.311211-.28011152-.949052-.4231102-1.921935-.4231102zm-7.498491-4.63107021h7.547555c2.042494 0 3.616771.14901826 4.708811.45133538 1.100452.3032535 1.927543.73666389 2.472862 1.30197015.55373.57119208.929426 1.26250839 1.124283 2.06672544.194857.81103924.292986 2.06150846.292986 3.75742724v2.35874238c0 1.73016351-.189249 2.99173561-.566347 3.77976661-.381303.7939169-1.082227 1.3994875-2.095764 1.8278147-1.013537.4221738-2.339686.6328594-3.97284.6328594h-2.013055v10.906692h-7.498491z"/><path d="m143.798271 17.4160077c-.369752-3.0662447-.734087-6.8579167-1.103839-11.36311064-.732733 5.17925404-1.191877 8.96490654-1.373367 11.36311064zm3.83432-17.4160077 4.144479 27.0833333h-7.415366l-.357563-4.8701147h-2.601812l-.427992 4.8701147h-7.49663l3.681272-27.0833333z"/><path d="m169 12.3529932h-7.285261v-4.70599115c0-1.36758608-.08178-2.2221772-.2358-2.56417384-.15402-.33665711-.497497-.50765543-1.029069-.50765543-.601085 0-.98.20517129-1.144924.61538037-.159471.41621604-.242615 1.30511362-.242615 2.6726997v12.55215755c0 1.316994.083144 2.1717187.242615 2.5708482.164924.4043356.524757.6043009 1.091767.6043009.543839 0 .899583-.1999653 1.064507-.6043009.166286-.3991295.253519-1.3384856.253519-2.821272v-3.3837911h7.285261v1.047882c0 2.7923051-.205814 4.775138-.614715 5.9435598-.407539 1.1684218-1.318026 2.1940112-2.717832 3.0718293-1.401169.8759492-3.130822 1.3222001-5.180782 1.3222001-2.139917 0-3.90092-.3777715-5.283007-1.1239702-1.382087-.7461988-2.302115-1.7777952-2.751907-3.0931874-.448428-1.3222001-.674687-3.3050331-.674687-5.9555737v-7.8914189c0-1.94865996.072239-3.40768541.207177-4.38121448.143115-.97513092.550654-1.91528794 1.241697-2.81539853.684229-.90077802 1.635606-1.6128038 2.85277-2.13153874 1.217163-.51286147 2.616969-.77436475 4.193966-.77436475 2.152184 0 3.924091.40420211 5.318445 1.20166031 1.394354.80346516 2.310293 1.8008886 2.75327 2.99747636.437524 1.19658776.655605 3.05981533.655605 5.58461016z"/><path d="m23.6815287 2.90426359v19.74111501l11.8407643 1.1879547v-23.8333333z"/><path d="m.42982503 24.9533253c16.17765597-3.0166494 41.55729347 1.4314286 55.41948337 9.7133414l1.201647-1.9837059c-14.5209-8.6753773-40.113454-13.1641494-57.0509554-10.00441z"/><path d="m11.8407643 12.3221956v14.7611377h9.6878981v-17.3333333z"/><path d="m49.5159236 17.9358967v15.6474366c-3.692087-1.5776674-7.0584421-2.6326186-10.7643312-3.6918598v-14.7248068z"/><path d="m65.1068809 35.6836533c.4744982 0 .8917554-.0378595 1.2623159-.33161.2877116-.2368995.4398523-.5685095.4398523-.9001195 0-.3884609-.1747358-.7769219-.5573471-1.0225772-.3344083-.218648-.6703229-.2471352-1.0755293-.2471352h-1.7473586v2.5014419zm-2.6737599 3.3163467v-6.5h2.6632155c.6808673 0 1.3647472.0663467 1.9085373.4358162.5211949.3609604.8104128.9665895.8104128 1.5161076 0 .5021629-.254572 1.0233172-.6944244 1.3739186-.5317392.4263205-1.1930241.5313899-1.9100436.5313899h-1.7820045v2.6427677z"/><path d="m70.510632 35.5225962c.5029795 0 .9178666-.0283638 1.2887075-.3600971.2614357-.2274039.3822077-.5400224.3822077-.8527643 0-.3789653-.1648182-.6915839-.5242923-.9001196-.3282155-.1989166-.6436434-.2084123-1.0372178-.2084123h-1.8669919v2.3213933zm1.7035946 3.4774038-1.3853251-2.8141838h-2.0758563v2.8141838h-.9377586v-6.5h2.8047505c.6123848 0 1.2006151.0663467 1.7035947.3979567.5015587.3324732.7970947.8717557.7970947 1.4212738 0 .7675495-.5242922 1.4592566-1.3981127 1.667669l1.4748384 3.0131005z"/><path d="m76.6450683 35.7224393c0-.5616381-.0956222-1.2153049-.3911818-1.7217019-.2955597-.4971702-.8009915-.8470706-1.4119803-.8470706-1.4604122 0-1.8615289 1.519191-1.8615289 2.6515743 0 1.0864889.4582416 2.550319 1.8416594 2.550319 1.4020454 0 1.8230316-1.5467518 1.8230316-2.6331208m-4.5240492.0744138c0-1.5751512.8022333-3.2968531 2.6910828-3.2968531 1.8416594 0 2.6910828 1.6204465 2.6910828 3.1763052 0 1.5468716-.8196191 3.3236948-2.681148 3.3236948-1.8789148 0-2.7010176-1.6203267-2.7010176-3.2031469"/><path d="m83.4070017 35.6836533c.4743655 0 .89-.0378595 1.2604568-.33161.2891371-.2368995.4397293-.5685095.4397293-.9001195 0-.3884609-.173181-.7769219-.5556853-1.0225772-.3358206-.218648-.6701353-.2471352-1.0767343-.2471352h-1.7453637v2.5014419zm-2.6745176 3.3163467v-6.5h2.6609643c.6836887 0 1.3658714.0663467 1.9095093.4358162.521049.3609604.811692.9665895.811692 1.5161076 0 .5021629-.2560068 1.0233172-.6942301 1.3739186-.5346024.4263205-1.1941962.5313899-1.9110152.5313899h-1.7799999v2.6427677z"/><path d="m90.4203822 39h-4.3057325v-6.5h4.2085632v.7012029h-3.3731603v2.0656257h2.6753086v.6537243h-2.6753086v2.3782442h3.4703296z"/><path d="m94.1950023 35.5225962c.5001379 0 .9164459-.0283638 1.2872867-.3600971.2614357-.2274039.3822077-.5400224.3822077-.8527643 0-.3789653-.1648182-.6915839-.5242923-.9001196-.3282155-.1989166-.6450642-.2084123-1.0372178-.2084123h-1.8669919v2.3213933zm1.7021738 3.4774038-1.3867459-2.8141838h-2.0744355v2.8141838h-.9391794v-6.5h2.8061713c.6109639 0 1.2006151.0663467 1.7035947.3979567.5015587.3324732.7956739.8717557.7956739 1.4212738 0 .7675495-.5242923 1.4592566-1.3966919 1.667669l1.4734176 3.0131005z"/><path d="m100.160954 39v-5.7893014h-2.20554v-.7106986h5.382166v.7106986h-2.205541v5.7893014z"/><path d="m104.301246 36.2616586v2.7383414h-.8509v-2.7383414l-2.265633-3.7616586h.989928l1.80092 2.9942324 1.818943-2.9942324h.772375z"/></g></svg>