<?xml version="1.0" encoding="UTF-8"?>
<svg width="50px" height="44px" viewBox="0 0 50 44" version="1.1" xmlns="http://www.w3.org/2000/svg" xmlns:xlink="http://www.w3.org/1999/xlink">
    <g id="All" stroke="none" stroke-width="1" fill="none" fill-rule="evenodd" stroke-linecap="round" stroke-linejoin="round">
        <g id="Services-Index" transform="translate(-1032.000000, -323.000000)" stroke="#FFFFFF" stroke-width="1.19999993">
            <g id="Group-8" transform="translate(1033.000000, 324.000000)">
                <g id="Page-1">
                    <path d="M47.6748,4.34390943 C47.6748,2.05562264 45.7996,0.198113208 43.4896,0.198113208 L4.38536,0.198113208 C2.0754,0.198113208 0.2,2.05562264 0.2,4.34390943 L0.2,37.5109925 C0.2,39.7991604 2.0754,41.6568679 4.38536,41.6568679 L43.4896,41.6568679 C45.7996,41.6568679 47.6748,39.7991604 47.6748,37.5109925 L47.6748,4.34390943 Z" id="Stroke-1"></path>
                    <path d="M5.72916,4.02106415 C6.26724,4.02106415 6.70408,4.45378302 6.70408,4.98678679 C6.70408,5.51979057 6.26724,5.95250943 5.72916,5.95250943 C5.19108,5.95250943 4.75424,5.51979057 4.75424,4.98678679 C4.75424,4.45378302 5.19108,4.02106415 5.72916,4.02106415 Z" id="Stroke-2"></path>
                    <path d="M9.72916,4.02106415 C10.26724,4.02106415 10.70408,4.45378302 10.70408,4.98678679 C10.70408,5.51979057 10.26724,5.95250943 9.72916,5.95250943 C9.19108,5.95250943 8.75424,5.51979057 8.75424,4.98678679 C8.75424,4.45378302 9.19108,4.02106415 9.72916,4.02106415 Z" id="Stroke-3"></path>
                    <path d="M13.72916,4.02106415 C14.26724,4.02106415 14.70408,4.45378302 14.70408,4.98678679 C14.70408,5.51979057 14.26724,5.95250943 13.72916,5.95250943 C13.19108,5.95250943 12.75424,5.51979057 12.75424,4.98678679 C12.75424,4.45378302 13.19108,4.02106415 13.72916,4.02106415 Z" id="Stroke-4"></path>
                    <polygon id="Stroke-6" points="7.39196 36.0945623 23.9374 36.0945623 23.9374 16.4976 7.39196 16.4976"></polygon>
                </g>
            </g>
        </g>
    </g>
</svg>
