<svg height="46" viewBox="0 0 52 46" width="52" xmlns="http://www.w3.org/2000/svg"><g style="stroke:#e6232c;stroke-width:1.25;fill:none;fill-rule:evenodd;stroke-linecap:round;stroke-linejoin:round" transform="translate(1 1)"><path d="m49.66125 4.55076226c0-2.39725283-1.9533333-4.34321509-4.3595833-4.34321509h-40.73358337c-2.40620833 0-4.35975 1.94596226-4.35975 4.34321509v34.74646794c0 2.3971283 1.95354167 4.3432981 4.35975 4.3432981h40.73358337c2.40625 0 4.3595833-1.9461698 4.3595833-4.3432981z"/><path d="m5.967875 4.2125434c.5605 0 1.01554167.45332452 1.01554167 1.01170943s-.45504167 1.01170943-1.01554167 1.01170943-1.01554167-.45332452-1.01554167-1.01170943.45504167-1.01170943 1.01554167-1.01170943z"/><path d="m10.1345417 4.2125434c.5605 0 1.0155416.45332452 1.0155416 1.01170943s-.4550416 1.01170943-1.0155416 1.01170943c-.56050003 0-1.0155417-.45332452-1.0155417-1.01170943s.45504167-1.01170943 1.0155417-1.01170943z"/><path d="m14.3012083 4.2125434c.5605 0 1.0155417.45332452 1.0155417 1.01170943s-.4550417 1.01170943-1.0155417 1.01170943-1.0155416-.45332452-1.0155416-1.01170943.4550416-1.01170943 1.0155416-1.01170943z"/><path d="m.20833333 9.78871321h49.45291667"/><path d="m7.69995833 37.8133509h17.23483337v-20.5301509h-17.23483337z"/><path d="m29.2960417 23.1692792h11.981875"/><path d="m29.2960417 27.3202226h11.981875"/><path d="m29.2960417 31.471166h11.981875"/></g></svg>