<svg height="87" viewBox="0 0 110 87" width="110" xmlns="http://www.w3.org/2000/svg"><g fill="#8e8e8e"><g transform="translate(54.662577 35.744186)"><path d="m13.5779141 17.5348837c-1.5066259.0061227-3.0078874-.1797162-4.46748465-.5530232-2.31011459 3.2198823-5.30648939 5.8872679-8.77300614 7.8097674 3.09731654 1.721442 6.57868834 2.6353023 10.12269939 2.6572093 14.0233129 0 23.5656442-14.574186 24.692638-26.97674418-.4386503 1.63883721-3.3269938 17.04930228-21.595092 17.04930228z"/><path d="m13.5779141 17.5348837c-1.5066259.0061227-3.0078874-.1797162-4.46748465-.5530232-2.31011459 3.2198823-5.30648939 5.8872679-8.77300614 7.8097674 3.09731654 1.721442 6.57868834 2.6353023 10.12269939 2.6572093 14.0233129 0 23.5656442-14.574186 24.692638-26.97674418-.4386503 1.63883721-3.3269938 17.04930228-21.595092 17.04930228"/></g><g transform="translate(61.411043 14.162791)"><path d="m10.3184049.37767442c-6.74846625 0-9.99447852 3.91162791-9.99447852 3.91162791 6.96441718.6744186 15.52147242 5.61116279 15.52147242 15.77465117 0 9.8734884-6.47177917 14.3651163-11.76257671 15.8623256-.53052153.9289126-1.10943551 1.8293745-1.73435583 2.6976744 1.46363042.3875971 2.97379374.5714252 4.48773006.5462791 18.28159508 0 21.16993868-15.4509303 21.59509198-17.0897675.0809816-.8295349.114724-1.6455814.114724-2.4548837 0-13.89302326-10.6153375-19.22093024-18.2208589-19.22093024z"/><path d="m10.3184049.37767442c-6.74846625 0-9.99447852 3.91162791-9.99447852 3.91162791 6.96441718.6744186 15.52147242 5.61116279 15.52147242 15.77465117 0 9.8734884-6.47177917 14.3651163-11.76257671 15.8623256-.53052153.9289126-1.10943551 1.8293745-1.73435583 2.6976744 1.46363042.3875971 2.97379374.5714252 4.48773006.5462791 18.28159508 0 21.16993868-15.4509303 21.59509198-17.0897675.0809816-.8295349.114724-1.6455814.114724-2.4548837 0-13.89302326-10.6153375-19.22093024-18.2208589-19.22093024"/></g><g transform="translate(19.570552 14.162791)"><path d="m22.2159509 39.1162791c3.5808507.0314705 7.0829328-1.0503047 10.0214724-3.0955814-1.0460764.3194838-2.1320495.4897689-3.2257669.5058139-5.1558282 0-15.7711656-3.8172093-15.7711656-16.4625581 0-10.16348838 8.5503067-15.07325583 15.5214724-15.77465117 0 0-3.2460123-3.91162791-9.9944785-3.91162791-7.6190184 0-18.22085893 5.32790698-18.22085893 19.22093028 0 .8093023.04049079 1.6253488.11472392 2.4548837.39141105 1.6455814 3.23251534 17.0627907 21.55460121 17.0627907z"/><path d="m22.2159509 39.1162791c3.5808507.0314705 7.0829328-1.0503047 10.0214724-3.0955814-1.0460764.3194838-2.1320495.4897689-3.2257669.5058139-5.1558282 0-15.7711656-3.8172093-15.7711656-16.4625581 0-10.16348838 8.5503067-15.07325583 15.5214724-15.77465117 0 0-3.2460123-3.91162791-9.9944785-3.91162791-7.6190184 0-18.22085893 5.32790698-18.22085893 19.22093028 0 .8093023.04049079 1.6253488.11472392 2.4548837.39141105 1.6455814 3.23251534 17.0627907 21.55460121 17.0627907"/></g><g transform="translate(41.165644 26.976744)"><path d="m7.52453988 23.9755814c1.09304444.0635642 2.1798002-.2044263 3.11779142-.7688372 1.2287382-.8622248 2.3383075-1.8826533 3.3-3.0348837-2.2934337-2.9370373-3.5805613-6.5335067-3.6711657-10.25790701 0-5.05813954 2.6993865-7.21627907 3.6104295-7.79627907-1.4950961-1.10900045-3.2947014-1.7328132-5.15582823-1.7872093-4.13633522.16343613-7.60533042 3.17341012-8.34785276 7.24325581-.04498977.23829457-.08548057.46310078-.12147239.6744186-.13205379 1.08754772-.19741103 2.18215027-.19570552 3.27767447 0 4.7209302 2.17300613 9.2732558 3.75214724 11.8765116 1.21000808.3313723 2.45716644.5081298 3.71165644.5260465z"/><path d="m7.52453988 23.9755814c1.09304444.0635642 2.1798002-.2044263 3.11779142-.7688372 1.2287382-.8622248 2.3383075-1.8826533 3.3-3.0348837-2.2934337-2.9370373-3.5805613-6.5335067-3.6711657-10.25790701 0-5.05813954 2.6993865-7.21627907 3.6104295-7.79627907-1.4950961-1.10900045-3.2947014-1.7328132-5.15582823-1.7872093-4.13633522.16343613-7.60533042 3.17341012-8.34785276 7.24325581-.04498977.23829457-.08548057.46310078-.12147239.6744186-.13205379 1.08754772-.19741103 2.18215027-.19570552 3.27767447 0 4.7209302 2.17300613 9.2732558 3.75214724 11.8765116 1.21000808.3313723 2.45716644.5081298 3.71165644.5260465"/></g><g transform="translate(19.570552 22.255814)"><path d="m35.5441718.35744186c-8.4693252 0-12.4914111 6.21813954-13.5711657 11.93720934.7067216-3.89130541 3.9328109-6.82803021 7.8754602-7.1690698 2.0158553-.08088416 3.9996971.52292428 5.6282208 1.71302325 2.0245399 1.51744186 3.7791411 4.04651165 3.7791411 8.14697675-.0639591 3.6371862-1.3902753 7.1392056-3.7521472 9.9072093-3.2832712 3.9340032-8.1620168 6.1848752-13.2877301 6.1304651-18.32208587 0-21.16319016-15.4172093-21.60858894-17.0627907 1.12699387 12.3890698 10.67607364 26.9767442 24.69263804 26.9767442 13.692638 0 24.1527607-13.812093 24.1527607-25.3783721 0-8.03232557-4.5552147-15.20139534-13.9085889-15.20139534z"/><path d="m35.5441718.35744186c-8.4693252 0-12.4914111 6.21813954-13.5711657 11.93720934.7067216-3.89130541 3.9328109-6.82803021 7.8754602-7.1690698 2.0158553-.08088416 3.9996971.52292428 5.6282208 1.71302325 2.0245399 1.51744186 3.7791411 4.04651165 3.7791411 8.14697675-.0639591 3.6371862-1.3902753 7.1392056-3.7521472 9.9072093-3.2832712 3.9340032-8.1620168 6.1848752-13.2877301 6.1304651-18.32208587 0-21.16319016-15.4172093-21.60858894-17.0627907 1.12699387 12.3890698 10.67607364 26.9767442 24.69263804 26.9767442 13.692638 0 24.1527607-13.812093 24.1527607-25.3783721 0-8.0188372-4.5552147-15.18790697-13.9085889-15.18790697"/></g><g transform="translate(51.96319)"><path d="m3.40122699 17.8923256s-2.92208589-2.8055814-3.12453987-6.6295349c-.19435889-3.9191093 1.91476129-7.59192026 5.398773-9.40139535 10.31840488-5.52348837 19.28711658 2.50883721 18.22085888 7.70860465 0 0-7.686503-3.49348837-14.76564415.6744186-5.20306749 3.0686047-5.74969325 7.6344186-5.74969325 7.6344186z"/><path d="m3.40122699 17.8923256s-2.92208589-2.8055814-3.12453987-6.6295349c-.19435889-3.9191093 1.91476129-7.59192026 5.398773-9.40139535 10.31840488-5.52348837 19.28711658 2.50883721 18.22085888 7.70860465 0 0-7.686503-3.49348837-14.76564415.6744186-5.20306749 3.0686047-5.74969325 7.6344186-5.74969325 7.6344186"/></g><g transform="translate(0 66.767442)"><path d="m44.0404908 19.3490698h1.5319018v-18.78930236h-1.5319018z"/><path d="m32.4668712 12.6993023c0 3.2304651 1.7141104 5.6448837 4.1098159 5.6448837s4.0490798-2.4144186 4.0490798-5.6718604c0-3.25744188-1.6601227-5.70558141-4.0490798-5.70558141-2.388957 0-4.1368098 2.3672093-4.1368098 5.73255811zm9.8662576 0c0 4.1948837-2.2944785 6.9802326-5.7294478 6.9802326s-5.8104295-2.7583721-5.8104295-6.9802326c0-4.22186044 2.2944786-7.01395346 5.8374233-7.01395346 3.5429448 0 5.702454 2.69767442 5.702454 7.01395346z"/><path d="m65.0214724 12.6993023c0 3.2304651 1.7141104 5.6448837 4.1098159 5.6448837 2.3957056 0 4.0490798-2.4144186 4.0490798-5.6718604 0-3.25744188-1.6668712-5.70558141-4.0490798-5.70558141-2.4969325 0-4.1368098 2.3672093-4.1368098 5.73255811zm9.8662577 0c0 4.1948837-2.2944786 6.9802326-5.7294479 6.9802326s-5.8104294-2.7583721-5.8104294-6.9802326c0-4.22186044 2.2944785-7.01395346 5.8374233-7.01395346s5.702454 2.69767442 5.702454 7.01395346z"/><path d="m19.7797546 12.6993023c0 3.2304651 1.7208589 5.6448837 4.109816 5.6448837 2.388957 0 4.0895705-2.4144186 4.0895705-5.6718604 0-3.25744188-1.6668712-5.70558141-4.0490798-5.70558141-2.4969325 0-4.1368098 2.3672093-4.1368098 5.73255811zm9.8662577 0c0 4.1948837-2.2877301 6.9802326-5.7294479 6.9802326s-5.803681-2.7583721-5.803681-6.9802326c0-4.22186044 2.2877301-7.01395346 5.8306749-7.01395346s5.702454 2.69767442 5.702454 7.01395346z"/><path d="m91.8128834 5.98883721v.63395349c0 .58 0 1.18697674-.0809816 1.76697674.790394-1.60308731 2.4296001-2.61219786 4.2177915-2.59651163 2.9558282 0 4.0490797 2.18511628 4.1705517 4.97046509.053988.6744186.080982 1.7130233.080982 2.3469768v6.2383721h-1.5319018v-6.2383721c0-.7688372 0-2.0772093-.0742332-2.6976744-.188957-2.13116283-1.2349693-3.28441865-2.9355828-3.28441865-1.4860296.05913561-2.8025995.97488706-3.3742331 2.34697675-.2970172.6874857-.4464507 1.4295843-.4386503 2.1783721 0 .4113953-.0539878 1.2476744-.0539878 1.4702325v6.2383721h-1.5184049v-18.80279066h1.5251534v5.39534884"/><path d="m108.495092 7.55348837c-.812196-.31421987-1.673386-.48315258-2.544172-.49906977-1.531902-.06069767-2.625153.92395349-2.625153 2.05697675 0 2.75837205 6.269325 2.45488375 6.269325 6.70372095 0 2.2390697-1.862577 3.7834884-4.588957 3.7834884-1.123784.0041164-2.236123-.2255602-3.266258-.6744187l.107976-1.5174418c.920572.5631588 1.977719.8640097 3.057055.87 1.734356 0 3.009816-1.1465116 3.009816-2.4751163 0-3.2034884-6.120859-2.6504651-6.120859-6.67674418 0-2.07046512 1.633129-3.43953488 4.177301-3.37209302.903346-.02179295 1.802174.13402729 2.645398.45860465l-.121472 1.34883721"/><path d="m55.8570552 5.94162791s1.8693252 7.58046509 2.2539877 9.36093019l.4656442 2.1311628s.2901841-1.2679069.5263804-2.1311628c.4791411-1.7872093 2.6116564-9.36093019 2.6116564-9.36093019h1.6466258l-3.8871166 13.39395349h-1.8085889s-2.0245399-8.8483721-2.2809816-9.93418605c-.1214724-.54627907-.2901841-1.34883721-.2901841-1.34883721s-.1687116.83627907-.290184 1.34883721c-.2361963 1.08581395-2.2809816 9.93418605-2.2809816 9.93418605h-1.808589l-3.8871165-13.39395349h1.6466257s2.1325154 7.57372089 2.6116565 9.36093019c.2361963.8632559.5263803 2.1311628.5263803 2.1311628l.4656442-2.1311628c.3846626-1.7804651 2.2539877-9.36093019 2.2539877-9.36093019z"/><path d="m9.84601227 3.91162791s2.50368103 9.13162789 2.92883433 10.70976739c.2361963.8767442.607362 2.4346512.607362 2.4346512s.3239264-1.557907.5466258-2.4481395c.391411-1.557907 2.7331288-10.69627909 2.7331288-10.69627909h1.592638l-3.9748466 15.43744189h-1.7411043s-2.91533742-11.16837213-3.05705521-11.74162794-.35092024-1.67255814-.35092024-1.67255814-.20920246 1.10604651-.35092025 1.67255814-3.05705521 11.74162794-3.05705521 11.74162794h-1.74785276l-3.97484663-15.43744189h1.5993865s2.34171779 9.13837209 2.73312884 10.69627909c.21595092.8902325.54662576 2.4481395.54662576 2.4481395s.37116565-1.557907.60736197-2.4346512c.43190184-1.5781395 2.92883435-10.70976739 2.92883435-10.70976739z"/><path d="m76.5411043 19.3490698v-13.38720933h1.302454v3.06186046s.7288343-2.84604651 4.7779141-3.05511628h1.2957055v-3.37209302l1.5184049-.59348837v3.96558139h3.1312884v1.34883721h-3.1312884v8.13348834c0 1.9220931.6006135 2.5897675 1.9165644 2.5897675.4630797-.0022564.9213667-.0938557 1.3496933-.2697675l.1619632 1.3488372c-.5053603.1557866-1.0301291.2397871-1.5588957.2495349-.8952699.0834924-1.7862358-.1987111-2.4699387-.7823256-.5601227-.5665116-.8907975-1.4837209-.8907975-3.1832558v-8.09302323c-.8677587-.05452439-1.7389269.00442355-2.5914111.17534884-1.2417178.32372093-3.2595092 1.60511628-3.2595092 4.80860469v7.1016279h-1.5251533"/></g></g></svg>